<?xml version="1.0" encoding="UTF-8" standalone="no"?>
<!-- Created with Inkscape (http://www.inkscape.org/) -->

<svg
   xmlns:dc="http://purl.org/dc/elements/1.1/"
   xmlns:cc="http://creativecommons.org/ns#"
   xmlns:rdf="http://www.w3.org/1999/02/22-rdf-syntax-ns#"
   xmlns:svg="http://www.w3.org/2000/svg"
   xmlns="http://www.w3.org/2000/svg"
   xmlns:sodipodi="http://sodipodi.sourceforge.net/DTD/sodipodi-0.dtd"
   xmlns:inkscape="http://www.inkscape.org/namespaces/inkscape"
   width="512pt"
   height="384pt"
   viewBox="0 0 640.00002 479.99999"
   id="svg5979"
   version="1.1"
   inkscape:version="0.91 r13725"
   sodipodi:docname="robin.svg">
  <defs
     id="defs5981" />
  <sodipodi:namedview
     id="base"
     pagecolor="#ffffff"
     bordercolor="#666666"
     borderopacity="1.0"
     inkscape:pageopacity="0.0"
     inkscape:pageshadow="2"
     inkscape:zoom="0.35"
     inkscape:cx="260.71429"
     inkscape:cy="291.42857"
     inkscape:document-units="px"
     inkscape:current-layer="layer1"
     showgrid="false"
     units="pt"
     inkscape:window-width="939"
     inkscape:window-height="720"
     inkscape:window-x="151"
     inkscape:window-y="79"
     inkscape:window-maximized="0" />
  <metadata
     id="metadata5984">
    <rdf:RDF>
      <cc:Work
         rdf:about="">
        <dc:format>image/svg+xml</dc:format>
        <dc:type
           rdf:resource="http://purl.org/dc/dcmitype/StillImage" />
        <dc:title />
      </cc:Work>
    </rdf:RDF>
  </metadata>
  <g
     inkscape:label="Calque 1"
     inkscape:groupmode="layer"
     id="layer1"
     transform="translate(0,-572.36222)">
    <g
       id="g5366"
       transform="matrix(1.0502327,0,0,1.0502327,-1038.7925,969.69496)"
       style="fill:#000000;fill-opacity:0.52999998">
      <path
         style="fill:#000000;fill-opacity:0.52999998"
         d="m 1398.4411,13.700599 c -7.5269,-0.7273 -21.2506,-4.5023005 -29.2849,-8.0555005 -4.3421,-1.9202 -8.6893,-3.1864 -9.6606,-2.8137 -0.9712,0.3727 -2.1103,-0.2197 -2.5311,-1.3165 -0.4209,-1.09669995 -1.909,-1.99409995 -3.3069,-1.99409995 -1.3979,0 -3.135,-0.54780005 -3.8601,-1.21720005 -1.675,-1.5465 -16.1874,-6.4081 -17.7815,-5.9568 -0.6582,0.1863 -1.9731,-0.7229 -2.9219,-2.0204 -0.9791,-1.3389995 -2.6625,-1.9995995 -3.8927,-1.5274995 -1.1922,0.4575 -2.4559,0.091 -2.8082,-0.8154 -0.5536,-1.4235 -4.8118,-3.7874 -23.232,-12.8969 -1.9356,-0.9572 -6.2534,-2.0545 -9.5951,-2.4384 -3.3417,-0.3839 -7.8218,-1.989 -9.9559,-3.5667 -2.134,-1.5778 -4.686,-2.879 -5.6711,-2.8917 -0.985,-0.012 -4.4452,-2.7717 -7.6893,-6.1313 -4.6358,-4.8009 -5.8983,-7.1407 -5.8983,-10.9312 0,-2.73 0.8001,-5.1299 1.8437,-5.5304 2.1142,-0.8113 15.8123,-20.1243 35.6375,-50.245499 16.0045,-24.316 30.9353,-45.0047 44.5023,-61.6637 5.7709,-7.0861 10.2899,-14.1336 11.1829,-17.4398 0.8242,-3.0515 4.3993,-10.0635 7.9447,-15.5823 3.5454,-5.5187 8.1628,-12.8956 10.2609,-16.3931 2.0982,-3.4975 4.4675,-5.9557 5.2652,-5.4627 0.7977,0.493 2.2037,0.2744 3.1244,-0.4859 3.7355,-3.0846 20.8823,-5.3837 30.8185,-4.1323 5.3432,0.6729 15.9601,1.4981 23.5932,1.8337 18.7967,0.8264 43.4886,3.2501 48.5742,4.7678 2.2899,0.6834 9.7842,1.9683 16.654,2.8553 15.6111,2.0157 31.4938,7.6569 37.533,13.3311 3.2218,3.027 5.0449,3.889 6.0658,2.8681 0.8028,-0.8027 1.7218,-1.1889 2.0424,-0.8581 0.752,0.776 -7.7443,41.0693 -10.9545,51.9512 -1.3511,4.5799 -3.6192,10.5036 -5.0402,13.1639 -1.6647,3.1165 -2.5837,7.6931 -2.5837,12.8672 0,9.2281 -2.5026,13.9558 -15.2392,28.788399 -4.2604,4.9615 -11.1268,13.3926 -15.2586,18.7358 -4.1318,5.3431 -9.8328,12.2129 -12.6691,15.2662 -7.751,8.3442 -22.0213,24.8689 -28.5139,33.0187 -6.8037,8.5402 -26.0714,28.37189955 -31.019,31.9267995 -1.9082,1.3711 -2.6889,2.115 -1.7348,1.6529 3.1655,-1.5329 1.7942,1.9965 -1.6533,4.2554 -4.2193,2.7646005 -16.7385,5.6208005 -22.2868,5.0846005 z m 1.8242,-7.5827005 c 0.5083,-2.6832 -2.3247,-2.1664 -7.3755,1.3453 -2.5774,1.792 -2.4295,1.8995 2.0703,1.5042 3.296,-0.2895 4.993,-1.201 5.3052,-2.8495 z m -11.8933,-1.7397 c 0.7947,-4.15739995 0.1853,-4.25489995 -5.0449,-0.8068 l -4.0113,2.6444 3.3174,0.627 c 1.8245,0.3448 3.713,0.712 4.1965,0.816 0.4835,0.1039 1.1775,-1.3723 1.5423,-3.2806 z m 25.5605,-2.4287 c -0.385,-0.95419995 -0.7,-0.1735 -0.7,1.7348 0,1.9082 0.315,2.6889 0.7,1.7348 0.385,-0.9542 0.385,-2.5155 0,-3.4696 z m -35.615,1.8483 c 0,-0.7009 0.3791,-2.2622 0.8424,-3.46959995 1.0753,-2.80230005 -1.9936,-2.81020005 -5.6931,-0.015 -2.3752,1.79489995 -2.4739,2.27889995 -0.6939,3.40419995 2.6578,1.6802 5.5446,1.7219 5.5446,0.08 z m 16.4906,-1.6023 c -1.9325,-1.1944 -4.0001,-0.4497 -4.0001,1.4408 0,0.6468 1.3018,0.8355 2.893,0.4194 2.1094,-0.5516 2.4093,-1.0555 1.1071,-1.8602 z m -24.2394,-6.7226 c -0.8202,-0.8202 -7.5174,2.9043 -7.5174,4.18060005 0,2.45189995 4.9766,1.86719995 6.4787,-0.76110005 0.8916,-1.5604 1.3591,-3.0991 1.0387,-3.4195 z m 48.9581,3.57370005 c -0.3148,-0.88420005 0.6286,-4.73020005 2.0964,-8.54680005 l 2.6688,-6.9390995 -2.8455,2.796 c -3.2199,3.164 -5.9829,17.1623995 -3.0269,15.3354995 0.9237,-0.5709 1.4219,-1.76139995 1.1072,-2.64559995 z m -2.475,-12.41749955 c 16.8257,-17.1856 23.5432,-24.7029 31.3513,-35.0844 3.8166,-5.0743 13.1845,-15.584 20.8176,-23.3548 7.6331,-7.7709 18.5623,-19.6548 24.2871,-26.4089 5.7248,-6.753999 12.5113,-14.536399 15.0811,-17.293999 5.8368,-6.2635 10.3479,-16.1366 14.1159,-30.8943 1.606,-6.2903 4.4293,-15.1511 6.2738,-19.6907 1.8446,-4.5395 4.6713,-13.0053 6.2815,-18.8128 1.6103,-5.8076 3.4457,-11.1066 4.0788,-11.7756 0.6331,-0.669 -0.6236,-2.7096 -2.7926,-4.5347 -12.3951,-10.4299 -45.2474,-17.4197 -99.2458,-21.1163 -9.9231,-0.6793 -18.9787,-1.6146 -20.1236,-2.0785 -8.0599,-3.2653 -28.0705,-0.9904 -37.4514,4.2576 -7.4746,4.1816 -24.9589,38.3029 -22.6757,44.2527 1.0574,2.7554 3.2377,2.4197 6.9529,-1.0706 4.3243,-4.0624 4.1441,-0.5639 -0.1944,3.7746 -4.3109,4.3109 -7.3361,4.3273 -9.2849,0.05 l -1.5292,-3.3562 -5.4922,6.4788 c -3.0207,3.5634 -7.0849,8.3525 -9.0316,10.6424 -3.0377,3.5734 -9.3521,12.2766 -16.9929,23.4217 -1.1113,1.621 -5.0146,6.7829 -8.674,11.471 -3.6594,4.6881 -6.6534,8.9299 -6.6534,9.4262 0,0.4964 -1.9182,3.5304 -4.2625,6.7424 -2.3444,3.212 -6.9655,10.211699 -10.2691,15.554799 -7.3598,11.9036 -16.3627,25.0825 -23.2915,34.0954 l -5.209,6.7757 3.4018,2.229 c 1.871,1.2259 4.2342,2.3511 5.2515,2.5004 1.0174,0.1493 4.8455,2.0271 8.507,4.1728 3.6614,2.1458 13.3224,6.2893 21.4689,9.2078 8.1464,2.9186 17.8715,6.6289 21.6114,8.2452 3.7398,1.6162 9.0483,3.4939 11.7966,4.1725 2.7482,0.6786 12.3959,4.0957 21.4391,7.5935 9.0432,3.4977 16.542,6.3595995 16.664,6.3595995 0.122,0 0.01,-2.7087995 -0.257,-6.0194995 -0.4243,-5.3349 0.021,-6.4396 3.913,-9.7148 2.4155,-2.0325 4.9904,-3.6954 5.722,-3.6954 0.8117,0 0.7701,-1.0465 -0.1064,-2.6845 -3.8215,-7.1404 0.9725,-14.7738 8.4167,-13.4019 1.8321,0.3377 4.3793,0.6603 5.6606,0.7171 3.8344,0.1697 6.6914,4.1553 6.6914,9.3348 0,4.3823 -0.5487,5.0854 -5.4799,7.0225 -5.388,2.1164 -5.4321,2.191 -2.6357,4.4555 2.6984,2.185 2.7339,2.5666 0.6932,7.4506 -1.183,2.8313 -2.995,5.1476995 -4.0267,5.1476995 -1.0318,0 -3.5396,0.7807 -5.573,1.7348 l -3.697,1.7348 6.543,2.3912 c 11.506,4.2051 14.8142,2.97020005 27.9293,-10.4253995 z m -16.4105,4.7858995 c -2.0246,-3.7828995 -1.2458,-8.5899995 1.6419,-10.1354995 3.6508,-1.9538 9.5034,-0.9096 11.2841,2.0133 1.2666,2.0791 0.7529,3.2062 -3.0046,6.5922 -5.2289,4.7121995 -7.9905,5.1379995 -9.9214,1.5299995 z m 4.739,-1.6090995 c -0.4718,-0.7633 -1.6016,-1.3782 -2.5107,-1.3666 -0.9931,0.013 -0.8219,0.5583 0.4289,1.3666 2.6662,1.7230995 3.1467,1.7230995 2.0818,0 z m 5.5513,-5.5513 c -0.4717,-0.7633 -1.9138,-1.344 -3.2045,-1.2903 -1.9131,0.08 -1.8339,0.318 0.4288,1.2903 3.7138,1.5958 3.762,1.5958 2.7757,0 z m -69.8731,-10.9548 c -5.3802,-4.4223 -5.4768,-6.2492 -0.5595,-10.5868 5.1411,-4.5351 7.9662,-5.3129 11.7442,-3.2335 1.7462,0.9611 4.058,1.7764 5.1373,1.8117 3.6531,0.1194 3.0636,3.2657 -1.4841,7.9203 -7.4923,7.6685 -9.7316,8.2855 -14.8379,4.0883 z m 3.4498,-5.3516 c -0.122,-1.5375 0.9526,-2.591 2.9299,-2.8722 3.1863,-0.4532 4.1158,-2.2491 1.8793,-3.6313 -2.1554,-1.3322 -7.6304,4.1173 -6.6648,6.6336 1.1519,3.0018 2.099,2.9354 1.8556,-0.1302 z m 67.1683,4.5641 c -2.8609,-3.0452 -3.0251,-3.8579 -1.5162,-7.5009 1.7227,-4.1589 4.7721,-5.685 11.4278,-5.7189 8.0283,-0.041 10.841,8.7098 4.4224,13.7587 -4.9177,3.8682 -10.3869,3.6626 -14.334,-0.5389 z m 11.7455,-9.0752 c -0.4717,-0.7633 -1.4822,-1.3879 -2.2455,-1.3879 -0.7633,0 -1.0019,0.6246 -0.5302,1.3879 0.4718,0.7633 1.4823,1.3878 2.2456,1.3878 0.7633,0 1.0019,-0.6245 0.5301,-1.3878 z m -107.3227,4.4636 c -4.0904,-2.0333 -4.5302,-2.7825 -3.818,-6.5035 0.9171,-4.7916 6.6217,-10.4506 10.5348,-10.4506 1.4481,0 4.2589,0.7408 6.2462,1.6462 3.2946,1.5012 3.5318,2.1436 2.6899,7.2862 -1.6667,10.1803 -6.4151,12.6138 -15.6529,8.0217 z m 6.7047,-2.9139 c 0,-1.6527 -5.3659,-2.9726 -6.2525,-1.538 -0.3872,0.6265 0.081,1.4553 1.0395,1.8419 2.8432,1.1463 5.213,1.0081 5.213,-0.3039 z m 32.0802,-8.3467 c -3.9154,-3.3465 -4.5414,-4.6365 -3.7601,-7.7494 2.1433,-8.5396 11.736,-13.2032 16.781,-8.1582 7.4951,7.4951 7.5642,11.8508 0.2667,16.8063 -5.9644,4.0502 -7.629,3.9376 -13.2876,-0.8987 z m 13.6796,-3.5651 c 0.929,-1.1193 1.4738,-2.6228 1.2108,-3.3412 -0.263,-0.7183 -1.6002,0.1975 -2.9716,2.0351 -2.6592,3.5631 -1.0828,4.7324 1.7608,1.3061 z m -9.8725,-5.8346 c -0.7867,-0.948 -0.9445,-2.5316 -0.3506,-3.5192 0.8025,-1.3344 0.4768,-1.3064 -1.2683,0.1091 -3.149,2.5543 -2.9728,5.1336 0.3506,5.1336 1.9923,0 2.3243,-0.4512 1.2683,-1.7236 z m 6.3824,-3.1371 c 0.4392,-0.7106 0.1637,-1.6842 -0.612,-2.1637 -0.7758,-0.4794 -1.4105,0.1019 -1.4105,1.2919 0,2.4378 0.8328,2.7968 2.0225,0.8718 z m -73.8429,10.8471 c -3.6025,-2.3071 -4.5105,-3.8158 -4.5105,-7.4947 0,-4.4065 0.3021,-4.671 6.9706,-6.1011 6.8619,-1.4716 12.4591,-0.089 12.4591,3.0779 0,2.6161 -8.0105,13.5113 -9.874,13.4298 -0.2941,-0.013 -2.5645,-1.3232 -5.0452,-2.9119 z m 5.8983,-8.1674 c 0.4717,-0.7633 0.2332,-1.3878 -0.5302,-1.3878 -0.7633,0 -1.7738,0.6245 -2.2455,1.3878 -0.4718,0.7634 -0.2332,1.3879 0.5301,1.3879 0.7633,0 1.7738,-0.6245 2.2456,-1.3879 z m 40.86,2.8476 c -10.626,-3.2244 -12.6236,-8.7962 -5.983,-16.6881 3.2543,-3.8676 4.3442,-4.2935 10.0386,-3.923 5.9741,0.3887 6.4078,0.6811 6.6966,4.5147 0.1698,2.2545 -0.9127,6.0754 -2.4055,8.4908 -1.4929,2.4155 -2.7143,5.411 -2.7143,6.6566 0,2.4757 -0.3864,2.5408 -5.6324,0.949 z m 1.4689,-4.2354 c 0,-0.7633 -0.2754,-1.3878 -0.612,-1.3878 -0.3366,0 -0.998,0.6245 -1.4697,1.3878 -0.4718,0.7633 -0.1964,1.3878 0.612,1.3878 0.8083,0 1.4697,-0.6245 1.4697,-1.3878 z m 3.3211,-9.1344 c 2.1457,-5.5916 -0.035,-6.3107 -3.7328,-1.2307 -2.4181,3.3222 -2.412,3.4259 0.1984,3.4259 1.4806,0 3.0711,-0.9878 3.5344,-2.1952 z m -5.5537,-2.7695 c 0.4167,-1.0859 0.2776,-1.9744 -0.309,-1.9744 -1.3806,0 -4.3976,3.0169 -4.3976,4.3975 0,1.7278 3.8803,-0.2699 4.7066,-2.4231 z m 96.1266,14.9173 c -3.283,-3.6277 -2.8911,-9.7058 0.8257,-12.8066 4.4591,-3.7199 6.8021,-3.3336 12.9532,2.1357 l 5.4356,4.833 -4.5323,4.1879 c -5.2179,4.8214 -11.2034,5.494 -14.6822,1.65 z m -28.4238,-3.4498 c -4.1939,-4.4642 -4.0028,-11.0893 0.4031,-13.9762 5.1298,-3.3612 12.4237,-2.8591 16.753,1.1531 2.0145,1.8669 4.322,3.6142 5.1279,3.8828 2.852,0.9507 -1.5851,6.2937 -7.6744,9.2415 -7.7161,3.7353 -10.8788,3.6701 -14.6096,-0.3012 z m 14.4867,-7.5029 c -0.5925,-0.5925 -1.8757,0.015 -2.8516,1.3493 -0.9758,1.3346 -3.1527,2.4265 -4.8374,2.4265 -2.3868,0 -2.8768,-0.5871 -2.2193,-2.6589 0.4641,-1.4624 0.1461,-3.0901 -0.7068,-3.6172 -1.0356,-0.64 -1.4001,0.3403 -1.0974,2.9509 0.5944,5.1246 6.153,6.8676 10.0912,3.1643 1.4842,-1.3957 2.2138,-3.0224 1.6213,-3.6149 z m -112.571,-0.6024 c -6.5883,-3.6036 -7.5254,-8.8348 -1.3028,-7.273 2.5368,0.6366 3.3846,0.2903 3.3846,-1.3828 0,-1.4695 -1.2135,-2.2322 -3.5515,-2.2322 -4.3256,0 -3.3472,-2.0076 2.4358,-4.9981 3.521,-1.8208 4.4647,-1.8793 5.4421,-0.3371 0.6503,1.0261 1.192,1.3005 1.2036,0.6097 0.011,-0.6908 1.2703,-0.1256 2.797,1.2559 3.516,3.182 3.4932,5.4505 -0.1133,11.2859 -3.008,4.867 -5.5995,5.6402 -10.2956,3.0717 z m 7.8101,-4.9026 c 1.6767,-2.0612 1.6004,-2.2274 -0.6375,-1.3878 -1.3982,0.5246 -3.1525,0.9538 -3.8984,0.9538 -0.746,0 -0.9703,0.6245 -0.4985,1.3878 1.2459,2.0159 2.8689,1.7085 5.0344,-0.9538 z m 63.3164,5.5485 c -1.3358,-0.3491 -2.4287,-1.2135 -2.4287,-1.9208 0,-0.7073 -0.8947,-1.2861 -1.9882,-1.2861 -2.3879,0 -3.9678,-4.2697 -2.7522,-7.4375 1.2023,-3.1332 3.3526,-2.8661 3.3526,0.4164 0,3.7451 2.1547,4.6938 5.8696,2.5846 l 3.1513,-1.7893 -3.7093,-0.4385 c -2.6563,-0.314 -4.1102,-1.5885 -5.1215,-4.4895 -0.8733,-2.5052 -0.9142,-4.3587 -0.1073,-4.8575 0.7177,-0.4436 1.3445,0.011 1.3929,1.0102 0.048,0.9992 0.6792,0.3403 1.4017,-1.4642 1.0262,-2.563 1.9939,-3.0826 4.4225,-2.3747 1.7098,0.4984 5.1928,1.2847 7.74,1.7473 2.5472,0.4626 4.9343,1.631 5.3048,2.5964 0.8798,2.2927 -3.0651,10.0194 -7.5784,14.8433 -3.561,3.806 -4.3565,4.0602 -8.9498,2.8599 z m 11.6981,-12.2278 c 1.5233,-2.7397 1.5047,-2.7414 -1.4343,-0.1318 -1.6377,1.4541 -2.9681,3.6399 -2.9564,4.8574 0.019,1.9403 0.1957,1.9566 1.4343,0.1318 0.7772,-1.1449 2.1076,-3.3308 2.9564,-4.8574 z m -40.2292,2.3312 c -4.1342,-2.0992 -4.5269,-2.8145 -3.9467,-7.1886 0.3544,-2.6716 1.6481,-7.1994 2.8749,-10.0618 2.0829,-4.8601 2.6249,-5.2044 8.1918,-5.2044 3.2788,0 7.0909,0.8259 8.4714,1.8354 2.3505,1.7187 2.3674,2.1113 0.2653,6.1763 -1.2346,2.3876 -2.2448,5.5368 -2.2448,6.9984 0,3.1986 -5.0961,10.0101 -7.3869,9.8734 -0.8987,-0.054 -3.7,-1.1466 -6.225,-2.4287 z m 4.591,-4.4129 c -0.4718,-0.7634 -1.4823,-1.3879 -2.2456,-1.3879 -0.7633,0 -1.0018,0.6245 -0.5301,1.3879 0.4718,0.7633 1.4823,1.3878 2.2456,1.3878 0.7633,0 1.0018,-0.6245 0.5301,-1.3878 z m 5.9772,-2.1185 c -0.4273,-0.4273 -1.2033,0.3429 -1.7245,1.7116 -0.7531,1.978 -0.5937,2.1374 0.7769,0.7769 0.9485,-0.9414 1.3749,-2.0612 0.9476,-2.4885 z m -0.3775,-5.4547 c 3.8794,-5.0862 3.6002,-7.693 -0.8242,-7.693 -2.6855,0 -3.2472,1.2206 -2.7523,5.981 0.1436,1.3813 -0.4855,3.411 -1.398,4.5105 -1.0911,1.3147 -1.1499,1.999 -0.1719,1.999 0.818,0 3.1338,-2.1589 5.1464,-4.7975 z m -7.6815,-1.5297 c 0,-1.19 -0.6245,-1.7777 -1.3878,-1.3059 -0.7633,0.4717 -1.3878,1.4454 -1.3878,2.1637 0,0.7182 0.6245,1.3059 1.3878,1.3059 0.7633,0 1.3878,-0.9737 1.3878,-2.1637 z m 101.7682,12.5974 c -6.2437,-2.6682 -8.2286,-6.8736 -5.3314,-11.2953 2.8758,-4.389 5.9379,-5.5605 9.2037,-3.521 1.4151,0.8838 3.5022,1.6069 4.6379,1.6069 2.2069,0 6.2997,6.7459 6.2997,10.3834 0,1.2068 -0.7806,2.4347 -1.7347,2.7287 -5.6516,1.7411 -9.1675,1.7673 -13.0752,0.097 z m -35.8731,-5.2293 c -1.8879,-5.1668 -1.1858,-11.6475 1.3679,-12.6274 1.5918,-0.6109 1.8635,0.076 1.248,3.1528 -0.4327,2.1634 -0.1575,4.3224 0.6115,4.7977 0.8371,0.5174 1.1068,-0.2505 0.6719,-1.9134 -0.3995,-1.5277 -0.08,-2.7776 0.7098,-2.7776 0.7899,0 2.4241,-0.3791 3.6315,-0.8424 1.4191,-0.5446 2.1952,-0.083 2.1952,1.3059 0,3.3672 2.0521,3.7895 3.9155,0.8058 1.52,-2.434 1.2588,-2.802 -2.5268,-3.5591 -2.3221,-0.4644 -4.6185,-1.4858 -5.1029,-2.2696 -1.2385,-2.004 7.606,-0.1015 11.5539,2.4853 2.7007,1.7696 2.9378,2.5927 1.7383,6.0338 -0.764,2.1916 -2.9487,4.6953 -4.8549,5.5638 -4.6612,2.1238 -14.3624,2.0242 -15.1589,-0.1556 z m 11.8237,-1.6529 c 0,-1.4649 -2.6634,-2.0803 -3.4556,-0.7985 -0.4795,0.7758 0.1018,1.4105 1.2919,1.4105 1.19,0 2.1637,-0.2754 2.1637,-0.612 z m -105.1905,-1.6437 c -0.9802,-1.0493 -3.1687,-1.9078 -4.8633,-1.9078 -4.7916,0 -7.0429,-4.6864 -4.5589,-9.4899 3.2001,-6.1884 5.4888,-7.354099 13.535,-6.893599 6.3033,0.360699 7.4606,0.856299 7.8162,3.347099 0.4211,2.9493 -6.1657,15.1959 -8.7517,16.2717 -0.7673,0.3192 -2.1971,-0.2781 -3.1773,-1.3275 z m -4.7407,-10.7888 c -0.9842,-1.0679 -2.0082,-1.734 -2.2755,-1.4801 -0.8231,0.782 1.2632,3.4219 2.7043,3.4219 0.7484,0 0.5554,-0.8738 -0.4288,-1.9418 z m 8.2848,-3.6095 c 1.0723,0 1.4588,0.6913 0.8958,1.6022 -0.6135,0.9928 -0.3807,1.2256 0.612,0.612 2.4738,-1.5288 1.8962,-3.6021 -1.0034,-3.6021 -1.4332,0 -3.4328,1.093 -4.4436,2.4287 -1.5634,2.0662 -1.5474,2.1698 0.1077,0.694 1.07,-0.9542 2.7942,-1.7348 3.8316,-1.7348 z m 66.2566,5.9349 c -1.5266,-0.3753 -3.5563,-1.3161 -4.5105,-2.0907 -1.194,-0.9694 -1.7348,-0.9228 -1.7348,0.1493 0,0.8568 -0.6245,1.5578 -1.3878,1.5578 -1.4846,0 -1.9285,-4.548 -0.5759,-5.9006 0.4465,-0.4466 2.6797,-0.1608 4.9625,0.635 2.9733,1.0365 4.5933,1.0043 5.711,-0.1134 1.1551,-1.155 0.7674,-1.5602 -1.493,-1.5602 -1.8912,0 -3.0533,-0.857 -3.0533,-2.2516 0,-1.844199 -0.3767,-1.938999 -2.0817,-0.523999 -2.4677,2.047999 -2.8241,-0.09 -0.4164,-2.4981 1.9499,-1.9499 17.7643,-2.2774 17.7643,-0.368 0,4.454899 -6.6325,14.230799 -9.3679,13.807799 -0.5724,-0.089 -2.2899,-0.4681 -3.8165,-0.8433 z m 8.5811,-10.358699 c -0.443,-1.1071 -0.7719,-0.7782 -0.8385,0.838499 -0.06,1.463 0.2678,2.2827 0.729,1.8216 0.4611,-0.4612 0.5104,-1.6582 0.1095,-2.660099 z m -5.1115,0.2603 c 0,-0.7633 -0.2754,-1.3879 -0.612,-1.3879 -0.3366,0 -0.998,0.6246 -1.4698,1.3879 -0.4717,0.763299 -0.1963,1.387799 0.612,1.387799 0.8084,0 1.4698,-0.6245 1.4698,-1.387799 z m 72.4455,-2.0603 c -2.5136,-2.8909 -2.8202,-4.1099 -1.6051,-6.3804 0.9509,-1.7768 2.6159,-2.6529 4.5372,-2.3875 1.8508,0.2558 2.8997,-0.2575 2.6881,-1.3154 -0.5191,-2.5953 1.6734,-2.094 4.4996,1.0289 2.0126,2.2239 2.2493,3.6467 1.2118,7.2861 -1.7161,6.019799 -6.9278,6.833099 -11.3316,1.7683 z m 9.4155,-5.2259 c -0.017,-2.438 -0.3008,-2.6807 -1.2963,-1.1071 -0.7012,1.1085 -0.9671,2.5137 -0.5907,3.1226 1.2037,1.9477 1.9088,1.1946 1.887,-2.0155 z m -116.2099,4.7333 c -5.4243,-2.0407 -7.8364,-4.3863 -4.5105,-4.3863 0.7633,0 1.3878,-1.2809 1.3878,-2.8465 0,-3.3838 7.2295,-6.8684 14.2502,-6.8684 7.2984,0 8.3422,2.2104 4.1814,8.8548 -5.4324,8.675099 -5.8313,8.811799 -15.3089,5.2464 z m 4.6635,-2.2965 c -2.4693,-1.8694 -2.4885,-2.1899 -0.3291,-5.4855 2.2884,-3.4925 2.2857,-3.4967 -1.194,-1.9113 -4.3299,1.9729 -4.5084,5.7782 -0.3648,7.7767 4.3308,2.0886 4.9769,1.9586 1.8879,-0.3799 z m 7.6522,-8.0112 c -1.3706,-1.3605 -1.53,-1.2011 -0.7769,0.7769 0.5212,1.3687 1.2972,2.1389 1.7245,1.7116 0.4273,-0.4273 9e-4,-1.5471 -0.9476,-2.4885 z m -39.0697,4.9937 c -1.8873,-1.2735 -3.6886,-2.5194 -4.0028,-2.7687 -1.3176,-1.0454 3.2641,-11.5721 5.2955,-12.1666 3.7029,-1.0837 16.6617,-1.3792 17.6386,-0.4023 1.6731,1.6731 -5.5666,16.055 -8.4844,16.8546 -4.5629,1.2504 -6.8347,0.9205 -10.4469,-1.517 z m 5.5895,-2.3934 c 0,-0.3 -0.9692,-0.9174 -2.1539,-1.372 -1.235,-0.4739 -1.7921,-0.2412 -1.3059,0.5455 0.815,1.3187 3.4598,1.9505 3.4598,0.8265 z m 4.8476,-3.6022 c 0.4862,-0.7867 -0.071,-1.0194 -1.3059,-0.5454 -2.4044,0.9226 -2.8443,1.9174 -0.848,1.9174 0.7183,0 1.6875,-0.6174 2.1539,-1.372 z m -5.8333,-4.1794 c -0.7726,-2.9544 -2.4933,-3.6182 -3.819,-1.4731 -0.6048,0.9786 2.3131,3.8148 4.3278,4.2066 0.1194,0.023 -0.1096,-1.2069 -0.5088,-2.7335 z m 96.0762,7.8643 c -3.6845,-5.6233 0.5761,-14.8791 6.7835,-14.7368 5.5606,0.1275 12.5981,4.5927 13.0281,8.2663 0.6655,5.6844 -2.5934,8.6053 -10.4426,9.3595 -6.3846,0.6135 -7.2486,0.3471 -9.369,-2.889 z m 6.2214,-0.083 c 0,-0.3 -0.9692,-0.9174 -2.1538,-1.372 -1.2351,-0.4739 -1.7922,-0.2412 -1.3059,0.5455 0.815,1.3187 3.4597,1.9505 3.4597,0.8265 z m 0.4962,-11.7959 c -0.6458,-0.8198 -4.6597,2.7845 -4.6597,4.1842 0,0.6699 1.145,0.1251 2.5444,-1.2108 1.3994,-1.3358 2.3513,-2.6738 2.1153,-2.9734 z m -32.2961,5.5224 c -4.0357,-4.0357 -3.8059,-10.2669 0.4629,-12.5515 6.5542,-3.5077 19.1024,1.9824 17.0077,7.4413 -0.9976,2.5996 -6.0878,5.9209 -10.8784,7.098 -2.7278,0.6702 -4.455,0.1494 -6.5922,-1.9878 z m 62.7857,-1.9146 c -2.1576,-1.7501 -5.6404,-4.2626 -7.7395,-5.5833 -5.9303,-3.731 -5.1521,-8.3913 1.7833,-10.6802 4.851,-1.601 6.5859,-1.5373 12.9733,0.4761 11.5453,3.6394 15.5616,9.9419 9.9265,15.5771 -4.4403,4.4403 -11.6189,4.5294 -16.9436,0.2103 z m 8.3755,-7.2266 c -0.4394,-1.145 -1.8562,-2.0817 -3.1485,-2.0817 -1.2923,0 -3.0886,-0.7391 -3.9919,-1.6423 -0.9032,-0.9033 -2.0239,-1.2607 -2.4903,-0.7943 -0.6253,0.6253 7.8061,6.0697 10.1261,6.5387 0.1669,0.034 -0.056,-0.8754 -0.4954,-2.0204 z m 6.4373,-1.339 c 0,-0.3548 -1.235,-1.306 -2.7445,-2.1139 -2.239,-1.1983 -2.595,-1.0795 -1.9332,0.6451 0.7188,1.8734 4.6777,3.1165 4.6777,1.4688 z m -108.0092,0.2087 c -1.6597,-1.7667 -3.0176,-4.577 -3.0176,-6.2453 0,-2.3888 0.8107,-3.0286 3.8165,-3.0119 2.714,0.015 3.2641,0.3712 1.904,1.2327 -1.0519,0.6663 -1.4835,1.9057 -0.959,2.7544 1.2834,2.0765 3.6527,1.968 3.2185,-0.1474 -0.1951,-0.9505 1.7791,-2.0854 4.5105,-2.593 4.2709,-0.7936 4.3966,-0.9246 1.0409,-1.0853 -4.1736,-0.1997 -5.0944,-2.171 -1.6343,-3.4988 3.9344,-1.5098 7.5326,1.6522 7.5326,6.6195 0,8.7765 -10.2683,12.5149 -16.4121,5.9751 z m 13.6364,-3.7271 c 0,-0.7633 -0.5877,-1.3878 -1.3059,-1.3878 -0.7183,0 -1.6919,0.6245 -2.1637,1.3878 -0.4717,0.7633 0.1159,1.3878 1.3059,1.3878 1.1901,0 2.1637,-0.6245 2.1637,-1.3878 z m -44.0637,-1.8675 c -3.2252,-3.189 -4.2795,-9.2352 -1.6103,-9.2352 0.8317,0 2.6593,1.4052 4.0611,3.1226 l 2.5489,3.1227 2.932,-3.1227 c 1.6127,-1.7174 2.2832,-3.1226 1.4902,-3.1226 -0.793,0 -1.4419,-0.6245 -1.4419,-1.3878 0,-2.3616 6.3822,-1.528 8.8058,1.1501 5.3384,5.8988 0.8615,12.7843 -8.2212,12.6443 -3.6835,-0.057 -6.4511,-1.0816 -8.5646,-3.1714 z m 15.1967,-6.7371 c -1.2953,-1.2953 -1.6654,-0.9252 -1.6654,1.6654 0,2.5906 0.3701,2.9607 1.6654,1.6654 1.2954,-1.2953 1.2954,-2.0355 0,-3.3308 z m -12.768,-2.4981 c 0,-0.7633 0.6613,-1.3878 1.4697,-1.3878 0.8084,0 1.0838,0.6245 0.612,1.3878 -0.4717,0.7633 -1.1331,1.3878 -1.4697,1.3878 -0.3366,0 -0.612,-0.6245 -0.612,-1.3878 z m 17.4911,-10.4163 c -12.226,-4.2335 -12.9659,-5.0341 -8.9414,-9.6752 5.0167,-5.7852 10.385,-7.4561 19.8352,-6.1737 13.085,1.7757 18.7837,10.3122 10.9812,16.4496 -4.6725,3.6754 -9.9438,3.5306 -21.875,-0.6007 z m 17.8986,-6.2377 c -0.4717,-0.7633 -0.062,-1.3878 0.9095,-1.3878 1.2495,0 1.1234,-0.6438 -0.4309,-2.198 -1.2251,-1.2252 -5.5903,-2.5199 -9.8627,-2.9252 -6.6317,-0.6293 -8.081,-0.311 -10.7537,2.3618 -2.4832,2.4832 -2.7167,3.3249 -1.1904,4.2918 2.7213,1.7239 22.4005,1.5924 21.3282,-0.1426 z m 81.8823,1.461 c -4.5799,-1.2774 -9.5761,-3.0038 -11.1027,-3.8365 -1.5266,-0.8328 -5.8983,-1.9554 -9.7148,-2.4949 -3.8166,-0.5394 -9.7496,-1.7733 -13.1845,-2.7419 -10.8745,-3.0667 -33.9064,-8.5489 -40.5918,-9.662 -2.0978,-0.3493 -5.8449,-1.552 -8.327,-2.6727 -8.4166,-3.8003 -10.3893,-3.9479 -12.4993,-0.9354 -2.214,3.1608 -4.0686,2.421 -2.7869,-1.1117 0.4576,-1.2611 2.6263,-4.9414 4.8195,-8.1783 2.1931,-3.2368 6.506,-11.1339 9.5842,-17.549 l 5.5967,-11.6637 5.7953,0.6182 c 12.2587,1.3077 24.2859,3.5704 35.6337,6.704 15.3476,4.238 31.6717,7.6924 36.2456,7.67 1.9973,-0.01 6.6812,1.1623 10.4087,2.6047 3.7275,1.4424 9.5877,3.383 13.0226,4.3126 3.4349,0.9296 8.4311,2.5364 11.1027,3.5707 2.6715,1.0343 6.4187,2.0601 8.327,2.2796 5.1897,0.5968 5.2133,6.3167 0.068,16.4425 -6.9395,13.656 -9.4619,16.3756 -15.9038,17.1473 -14.5329,1.741 -18.732,1.6612 -26.493,-0.5035 z m 16.9525,-2.3191 c 7.3056,-2.4709 14.4039,-6.9614 13.9014,-8.7943 -0.45,-1.6413 2.2849,-1.9581 2.8284,-0.3276 0.2439,0.7319 -0.5657,2.3401 -1.7993,3.5737 -1.2335,1.2335 -1.5599,2.2428 -0.7253,2.2428 1.4468,0 9.7834,-11.9507 9.7834,-14.0248 0,-0.5449 -3.1222,0.5154 -6.9382,2.3563 -3.816,1.8409 -6.7825,4.0894 -6.5922,4.9967 0.1903,0.9072 -0.8036,1.8995 -2.2087,2.2049 -5.4889,1.1933 -1.4187,-4.346 6.0243,-8.1986 l 7.6331,-3.9511 -6.9392,0.776 c -3.8165,0.4268 -9.9745,1.7027 -13.6844,2.8352 -3.7099,1.1326 -7.0928,1.7117 -7.5175,1.287 -1.1769,-1.1769 -0.314,-1.671 9.4129,-5.3901 l 9.0133,-3.4462 -8.327,0.6162 c -4.5798,0.3389 -10.3567,0.8651 -12.8374,1.1692 -2.4808,0.3041 -4.5105,-0.032 -4.5105,-0.7477 0,-0.7153 0.7806,-1.3483 1.7348,-1.4067 0.9541,-0.058 2.6716,-0.2886 3.8165,-0.5115 1.145,-0.2229 8.1709,-0.8579 15.6132,-1.4112 13.8116,-1.0267 17.484,0.2263 9.7148,3.3147 -3.7446,1.4885 -3.7283,1.5037 0.8674,0.8095 2.5762,-0.3891 5.5427,-0.7075 6.5922,-0.7075 1.0496,0 1.9022,-0.7807 1.8947,-1.7348 -0.017,-2.2236 -12.8989,-6.5391 -15.4236,-5.1673 -3.6678,1.9929 -13.7073,3.0619 -13.7073,1.4595 0,-1.4906 -4.9261,-1.2385 -12.4905,0.6393 l -3.4696,0.8614 3.7315,-3.4408 c 3.709,-3.4198 3.7132,-3.4456 0.694,-4.2553 -1.6708,-0.448 -4.4429,-0.8231 -6.1603,-0.8336 -1.7175,-0.011 -3.1227,-0.7154 -3.1227,-1.5667 0,-1.0735 2.4452,-1.245 7.9801,-0.5599 11.5869,1.4342 7.6777,-0.9409 -4.9168,-2.9873 -17.4994,-2.8433 -29.7403,-5.5277 -36.3295,-7.967 -6.696,-2.4787 -27.1169,-6.3677 -33.4368,-6.3677 -3.4727,0 -4.5075,1.2202 -9.7101,11.4496 -3.2027,6.2973 -6.6803,12.6816 -7.7279,14.1872 -2.6635,3.828 -2.4303,4.4778 1.9118,5.3264 2.0991,0.4102 8.1883,2.0583 13.5314,3.6625 11.3262,3.4004 22.5572,6.0627 41.0526,9.7312 7.3128,1.4504 16.9929,3.9605 21.5115,5.5779 4.5185,1.6174 11.3381,3.7774 15.1547,4.8001 3.8165,1.0227 7.0734,1.9285 7.2376,2.0129 0.1642,0.084 3.2868,-0.8572 6.9392,-2.0925 z m 2.1566,-33.3603 c -0.9396,-0.3801 -2.8131,-0.4033 -4.1635,-0.051 -1.3503,0.3519 -0.5815,0.6629 1.7084,0.6912 2.2899,0.028 3.3947,-0.2596 2.4551,-0.6398 z M 1360.0634,-5.4255015 c 0.9376,-2.0579 1.0316,-3.1936 0.2228,-2.6937 -0.7691,0.4753 -1.3984,0.3397 -1.3984,-0.3013 0,-0.641 -1.8334,-1.8574995 -4.0742,-2.7032995 -3.3097,-1.2493 -4.2212,-1.1548 -4.8574,0.5032 -1.3349,3.4784995 -0.8713,4.9221995 1.2985,4.0441995 1.145,-0.4633 3.0186,-1.2215 4.1635,-1.6848 1.145,-0.4633 2.0818,-0.1932 2.0818,0.6004 0,0.7935 -1.4052,1.8895 -3.1227,2.4356 -3.0232,0.9612 -3.0342,1.0273 -0.3469,2.0777 4.143,1.6194 4.281,1.5673 6.033,-2.278 z m 64.8452,-1.337 c 0.5054,-2.6942 2.1111,-5.5333995 3.5713,-6.3148995 1.4592,-0.7809 2.2364,-2.0941 1.7271,-2.9181 -0.5434,-0.8792 -0.1295,-1.221 1.002,-0.8273 1.0604,0.3691 1.791,1.8553 1.6235,3.3027 -0.4514,3.9018995 3.1481,-4.547 5.6784,-13.3284 1.8516,-6.4263 1.8777,-7.211 0.1652,-4.9633 -1.1189,1.4684 -2.4239,4.7472 -2.9003,7.2862 -0.9045,4.8217 -3.3172,6.3953 -3.354,2.1876 -0.016,-1.8622 -0.2953,-1.9964 -1.1961,-0.5754 -0.6461,1.0193 -1.632,1.6438 -2.1909,1.3878 -0.5589,-0.256 -2.4517,4.0623 -4.2062,9.5963 -1.7546,5.5339995 -2.661,10.0617995 -2.0142,10.0617995 0.6467,0 1.5891,-2.2027 2.0942,-4.895 z m -60.4695,1.4254 c 0.9959,-1.1999 1.1308,-2.0817 0.3185,-2.0817 -0.7752,0 -1.7688,0.9368 -2.2082,2.0817 -0.4393,1.145 -0.5826,2.0818 -0.3184,2.0818 0.2642,0 1.2579,-0.9368 2.2081,-2.0818 z m -16.8929,-5.3353995 c 0.4169,-2.165 0.071,-2.3052 -2.4128,-0.9761 -3.5102,1.8785995 -3.846,4.6155995 -0.4868,3.9686995 1.327,-0.2556 2.6318,-1.6023 2.8996,-2.9925995 z m 37.7105,0.8749995 c 0,-0.3816995 -0.8651,-0.3619995 -1.9225,0.044 -1.0573,0.4057 -3.2431,-0.1874 -4.8574,-1.3180995 -1.7831,-1.2489 -2.935,-1.4626 -2.935,-0.5445 0,1.8530995 5.5983,4.0788995 7.9801,3.1727995 0.9541,-0.3631 1.7348,-0.9724 1.7348,-1.354 z m -47.4545,-3.9032995 c -0.4273,-0.4273 -1.2033,0.343 -1.7244,1.7117 -0.7532,1.9779 -0.5938,2.1372995 0.7769,0.7769 0.9484,-0.9414 1.3748,-2.0613 0.9475,-2.4886 z m 5.8194,0.037 c 1.415,-1.705 1.3202,-2.0817 -0.524,-2.0817 -1.2384,0 -2.2516,0.9368 -2.2516,2.0817 0,1.145 0.2357,2.0818 0.5239,2.0818 0.2882,0 1.3015,-0.9368 2.2517,-2.0818 z m -11.1239,-3.8654 c 0.011,-0.5993 -1.3122,-0.376 -2.9419,0.4962 -2.3219,1.2426 -2.5551,1.838 -1.0775,2.7512 1.7861,1.1039 3.9689,-0.6596 4.0194,-3.2474 z m 5.318,0.9275 c 0.2416,-0.1395 -0.1955,-0.646 -0.9713,-1.1255 -0.7758,-0.4795 -2.1686,0.5509 -3.0952,2.2898 -1.5882,2.9804 -1.5326,3.0449 0.9712,1.1255 1.4608,-1.1198 2.8536,-2.1502 3.0953,-2.2898 z m 43.8925,0.5092 c -1.1706,-3.8083 -1.7563,-4.5257 -2.8235,-3.4585 -1.196,1.196 0.7642,6.5811 2.3955,6.5811 0.7984,0 0.9802,-1.3262 0.428,-3.1226 z m 9.0557,0.6939 c -0.082,-1.9341 -3.7196,-5.8983 -5.4124,-5.8983 -1.1039,0 -0.9323,0.7487 0.4999,2.1809 1.1995,1.1995 2.1809,2.7608 2.1809,3.4696 0,0.7088 0.6246,1.2887 1.3879,1.2887 0.7633,0 1.3679,-0.4684 1.3437,-1.0409 z m -66.572,-3.965 c 0,-1.4635 -0.7547,-1.9406 -2.1952,-1.3878 -1.2074,0.4633 -2.4933,0.8424 -2.8576,0.8424 -0.3643,0 -0.2763,0.6245 0.1954,1.3878 1.3667,2.2113 4.8574,1.6059 4.8574,-0.8424 z m 3.8955,-1.2761 c -0.4273,-0.4273 -1.2033,0.343 -1.7245,1.7117 -0.7531,1.9779 -0.5937,2.1373 0.7769,0.7769 0.9485,-0.9414 1.3749,-2.0613 0.9476,-2.4886 z m 112.3881,-0.8469 c -0.3465,-1.0394 -0.9756,-0.4103 -1.4663,1.4663 -0.6037,2.3085 -0.4231,2.8503 0.6068,1.8204 0.8065,-0.8064 1.1932,-2.2855 0.8595,-3.2867 z m -124.6106,-1.1981 c 0,-0.7633 -0.6245,-1.3878 -1.3878,-1.3878 -0.7633,0 -1.3878,0.6245 -1.3878,1.3878 0,0.7633 0.6245,1.3878 1.3878,1.3878 0.7633,0 1.3878,-0.6245 1.3878,-1.3878 z m -4.9589,-4.232 c -3.1028,-1.1266 -4.0073,-0.7008 -2.7687,1.3034 0.4825,0.7807 1.9046,1.0253 3.1601,0.5435 2.0068,-0.77 1.9595,-0.9934 -0.3914,-1.8469 z m 130.8121,-0.1917 c -0.443,-1.1071 -0.7719,-0.7783 -0.8385,0.8385 -0.06,1.463 0.2678,2.2827 0.7289,1.8215 0.4612,-0.4612 0.5105,-1.6582 0.1095,-2.66 z m -135.568,-1.97 c 0,-0.3 -0.9368,-0.5455 -2.0818,-0.5455 -1.1449,0 -2.0817,0.6049 -2.0817,1.3443 0,0.7393 0.9368,0.9848 2.0817,0.5454 1.145,-0.4393 2.0818,-1.0443 2.0818,-1.3442 z m -12.4905,-2.7091 c 0,-1.1901 -0.6347,-1.7714 -1.4105,-1.292 -0.7758,0.4795 -1.0512,1.4531 -0.612,2.1637 1.1897,1.925 2.0225,1.566 2.0225,-0.8717 z m 149.4463,-0.8723 c -0.443,-1.1071 -0.7719,-0.7782 -0.8384,0.8385 -0.06,1.463 0.2677,2.2827 0.7289,1.8215 0.4611,-0.4611 0.5104,-1.6581 0.1095,-2.66 z m 7.8809,-11.5363 c 0.8748,-3.9229 0.807,-4.0079 -1.1745,-1.4696 -1.1567,1.4817 -2.1116,4.2921 -2.122,6.2453 -0.011,1.9532 -0.3161,5.1126 -0.6792,7.0208 -0.8317,4.3706 2.7214,-6.1719 3.9757,-11.7965 z m 2.2738,10.2449 c 0,-0.7633 -0.6246,-1.0019 -1.3879,-0.5301 -0.7633,0.4717 -1.3878,1.4822 -1.3878,2.2456 0,0.7633 0.6245,1.0018 1.3878,0.5301 0.7633,-0.4718 1.3879,-1.4823 1.3879,-2.2456 z m -167.928,0.1638 c 0,-0.7633 -0.2754,-1.3878 -0.612,-1.3878 -0.3367,0 -0.998,0.6245 -1.4698,1.3878 -0.4717,0.7633 -0.1963,1.3878 0.612,1.3878 0.8084,0 1.4698,-0.6245 1.4698,-1.3878 z m 112.3744,-4.2177 c -2.6184,-1.656 -4.1233,-1.6733 -4.1233,-0.047 0,1.3185 4.3363,2.7762 5.5111,1.8526 0.3596,-0.2827 -0.265,-1.0949 -1.3878,-1.8051 z m 66.5179,-11.6677 c -0.1284,-3.9332 -0.206,-3.9959 -1.0791,-0.8715 -0.5175,1.8517 -1.7924,3.6505 -2.8332,3.9975 -1.8733,0.6244 -1.7131,-1.3579 0.8194,-10.1399 0.4402,-1.5266 0.3377,-2.3385 -0.2278,-1.8042 -0.5655,0.5343 -2.1378,5.7446 -3.4939,11.5784 l -2.4657,10.6069 4.7093,-4.5645 c 3.4491,-3.343 4.6723,-5.6986 4.571,-8.8027 z m -187.2193,8.8643 c 0,-0.7182 -0.6246,-1.3059 -1.3879,-1.3059 -0.7633,0 -1.3878,0.9737 -1.3878,2.1637 0,1.19 0.6245,1.7776 1.3878,1.3059 0.7633,-0.4718 1.3879,-1.4454 1.3879,-2.1637 z m -5.5602,-2.4287 c 0,-0.5274 -1.8784,-2.0228 -4.1635,-3.3231 -4.8913,-2.7833 -5.3241,-1.8352 -1.1773,2.5789 2.6875,2.8607 5.3636,3.2336 5.3408,0.7442 z m 200.5802,-15.6194 c 1.2448,-3.7476 2.0596,-7.8668 1.8109,-9.1539 -0.2488,-1.2871 -2.0685,2.4441 -4.0438,8.2915 -2.1143,6.2587 -2.8591,10.0239 -1.8109,9.1539 0.9794,-0.8128 2.7991,-4.5439 4.0438,-8.2915 z m 9.9623,-10.0515 c -0.063,-1.6746 0.3991,-5.2183 1.0261,-7.8749 1.0372,-4.3952 0.9331,-4.6586 -1.1559,-2.9249 -1.2626,1.0479 -1.9904,2.2107 -1.6171,2.584 0.3732,0.3732 0.1583,1.6894 -0.4777,2.9248 -0.636,1.2355 -1.6068,4.7357 -2.1573,7.7783 -0.9855,5.4468 -0.9586,5.4937 1.7474,3.0447 1.5116,-1.3679 2.6971,-3.8573 2.6345,-5.532 z m 5.0826,-4.4326 c 0.4393,-1.1449 0.1939,-2.0817 -0.5454,-2.0817 -0.7394,0 -1.3443,0.9368 -1.3443,2.0817 0,1.145 0.2454,2.0818 0.5454,2.0818 0.3,0 0.9049,-0.9368 1.3443,-2.0818 z m 8.8693,-13.1844 c 0.041,-1.145 0.5443,-4.2086 1.1193,-6.808 0.7382,-3.3371 0.5917,-4.4458 -0.4984,-3.7721 -0.8491,0.5248 -1.1921,1.8709 -0.7621,2.9915 0.43,1.1205 0.054,2.0373 -0.8364,2.0373 -0.89,0 -1.2492,0.597 -0.7983,1.3267 0.451,0.7297 -0.1367,3.6163 -1.3059,6.4147 -1.1692,2.7984 -2.1259,5.4083 -2.1259,5.7996 0,1.7532 5.142,-6.1357 5.2077,-7.9897 z m -6.0183,-2.2781 c 0.7309,-1.9047 0.5278,-1.9906 -1.2394,-0.5239 -2.4082,1.9986 -2.6588,2.802 -0.8741,2.802 0.6816,0 1.6327,-1.0251 2.1135,-2.2781 z m 13.1628,-9.2535 c -0.1321,-4.229199 -0.1884,-4.272399 -1.2495,-0.9589 -1.596,4.9834 -1.596,7.2316 0,6.2452 0.7633,-0.4717 1.3256,-2.8505 1.2495,-5.2863 z m 9.7034,-10.673799 c -0.054,-3.0562 -0.2843,-2.8909 -1.932,1.3879 -2.4988,6.4887 -2.5132,8.039999 -0.044,4.7757 1.1207,-1.4817 2.01,-4.2553 1.9762,-6.1636 z m -3.6111,0 c 0.3995,-1.5276 0.1601,-2.4276 -0.5321,-1.9998 -0.6921,0.4278 -1.2584,1.6777 -1.2584,2.7776 0,2.8725 0.9431,2.4628 1.7905,-0.7778 z m 13.3656,-13.183 c -0.01,-1.5266 -0.9117,-0.2776 -2.0117,2.7757 -2.5052,6.9539 -2.4943,7.9029 0.04,3.4696 1.0909,-1.9083 1.9781,-4.7187 1.9717,-6.2453 z m 6.6095,-23.1595 c -0.443,-1.1071 -0.7719,-0.7783 -0.8385,0.8385 -0.06,1.463 0.2678,2.2827 0.7289,1.8215 0.4612,-0.4611 0.5105,-1.6582 0.1095,-2.66 z m 3.8902,-9.2815 c 0.7408,-2.4167 0.559,-3.0174 -0.6812,-2.2509 -0.9449,0.584 -2.2265,0.2012 -2.9031,-0.867 -0.9711,-1.5332 -1.2157,-1.4533 -1.2327,0.4026 -0.011,1.2733 -0.4175,3.4592 -0.9019,4.8574 -0.7778,2.2454 -0.6133,2.2182 1.4091,-0.2335 2.2193,-2.6902 2.2651,-2.6475 1.487,1.3879 -0.9047,4.6919 1.087,2.3659 2.8228,-3.2965 z m 7.5335,-36.2568 c -0.05,-1.3727 -0.4826,-1.1363 -1.2691,0.6939 -1.6395,3.8153 -1.6395,6.0065 0,3.4696 0.74,-1.145 1.311,-3.0186 1.2691,-4.1635 z"
         id="path4902"
         inkscape:connector-curvature="0"
         sodipodi:nodetypes="ccscscccsccsccssssssssscsssssccsssssssscscsscssccccscscccscccccscccsccsccssscsssssssssscssssccsscsssssccscccssscsscccsccssccsccssscsccccscssssccsscccsccsscsssssssssscssscsssssssscsscccsccscsssssscscscsccssscscsssssssssssssscscssssscssccssssscccssscccsccccssccssssccsscssssssccssccssssscsscscscscsccsssscssscssscscsscccscccsscssscsscsscsscssssccccsccccsccccccsscccssscscccccccssssssscscsscscccsssscscccsccscccscscscssccscccccsssssscsscsccssccsccsssccscsccscsscscscsccsscssssscscccsssccssssssssssssssssccccsccccsssscscsscssscssccssccsssccscscsscssscssccsssscccccssscssscsssscscccccscscsssscssscscsssscssssscscscsccssccscsssscsssssscssccscscsssscscsscscsssssssccccsssssccccccsccssscsscsscccccsscssscscsssssscscccsscssscssssscscsscssscssssccscscsssccsccscsscccscsscscscccsssscsscccccccscccscsscscc" />
      <g
         transform="matrix(0.34261115,0,0,0.34261115,512.9596,-117.61969)"
         id="g5340"
         style="fill:#000000;fill-opacity:0.52999998">
        <path
           style="color:#000000;font-style:normal;font-variant:normal;font-weight:normal;font-stretch:normal;font-size:medium;line-height:normal;font-family:sans-serif;text-indent:0;text-align:start;text-decoration:none;text-decoration-line:none;text-decoration-style:solid;text-decoration-color:#000000;letter-spacing:normal;word-spacing:normal;text-transform:none;direction:ltr;block-progression:tb;writing-mode:lr-tb;baseline-shift:baseline;text-anchor:start;white-space:normal;clip-rule:nonzero;display:inline;overflow:visible;visibility:visible;opacity:1;isolation:auto;mix-blend-mode:normal;color-interpolation:sRGB;color-interpolation-filters:linearRGB;solid-color:#000000;solid-opacity:1;fill:#000000;fill-opacity:0.52999998;fill-rule:evenodd;stroke:none;stroke-width:1px;stroke-linecap:butt;stroke-linejoin:miter;stroke-miterlimit:4;stroke-dasharray:none;stroke-dashoffset:0;stroke-opacity:1;color-rendering:auto;image-rendering:auto;shape-rendering:auto;text-rendering:auto;enable-background:accumulate"
           d="m 2172.8127,-464.11757 c -88.0993,23.26678 -180.0426,25.04935 -269.1288,43.45448 -76.6318,12.37757 -153.051,26.01706 -228.6422,43.51006 -40.4136,7.68525 -82.363,10.16011 -122.2105,18.34475 -12.2125,22.75401 12.9823,38.67153 18.2258,58.6671 33.3341,90.7459 46.5772,187.29709 53.817,283.189071 11.8922,32.628771 51.9556,32.054429 80.0103,25.7391437 145.9151,-16.7721708 288.2818,-57.2350547 434.496,-74.1209017 39.4801,-7.161277 87.4952,-1.804794 115.9167,-35.089123 6.462,-5.91783 -2.4926,-15.68049 6.7477,-20.51905 -14.8297,-10.91247 -9.2979,-0.70964 -12.7726,9.28571 -14.0216,27.748459 -50.709,27.225069 -77.0181,31.911127 -136.8842,13.94871 -271.0071,47.606887 -406.7625,69.741651 -33.6994,3.0568636 -67.3651,12.6961912 -101.2634,11.0762605 -21.6805,-2.03572153 -36.0039,-23.5054645 -32.35,-44.5706435 -5.2181,-94.936685 -22.8325,-190.779135 -59.2819,-279.166465 -6.7779,-7.85132 -12.6567,-16.73241 -14.1171,-27.26028 71.2062,-8.05877 141.1784,-20.45262 210.5582,-37.33908 116.2885,-19.64051 233.1513,-40.36072 349.9774,-53.95364 20.8712,-2.29746 41.5582,-13.71366 62.2856,-11.20193 24.3192,10.87373 19.4762,43.18588 21.631,64.44085 -1.3256,78.16342 20.2482,154.72281 41.3864,229.61488 3.8154,8.41264 -0.2637,25.58815 13.7939,21.02391 2.5376,-1.56119 -4.4706,-22.55461 -6.1632,-31.82775 -19.0754,-71.8068 -40.4877,-144.42766 -38.5039,-219.50083 -0.6778,-25.52417 -0.1995,-63.67431 -29.4866,-74.06712 -3.6117,-1.03253 -7.39,-1.514 -11.1452,-1.38218 z m 95.9417,356.13028 c 19.8309,-8.44851 -14.5826,-19.25354 0,0 z"
           id="path4922"
           inkscape:connector-curvature="0" />
        <path
           style="color:#000000;font-style:normal;font-variant:normal;font-weight:normal;font-stretch:normal;font-size:medium;line-height:normal;font-family:sans-serif;text-indent:0;text-align:start;text-decoration:none;text-decoration-line:none;text-decoration-style:solid;text-decoration-color:#000000;letter-spacing:normal;word-spacing:normal;text-transform:none;direction:ltr;block-progression:tb;writing-mode:lr-tb;baseline-shift:baseline;text-anchor:start;white-space:normal;clip-rule:nonzero;display:inline;overflow:visible;visibility:visible;opacity:1;isolation:auto;mix-blend-mode:normal;color-interpolation:sRGB;color-interpolation-filters:linearRGB;solid-color:#000000;solid-opacity:1;fill:#000000;fill-opacity:0.52999998;fill-rule:evenodd;stroke:none;stroke-width:1px;stroke-linecap:butt;stroke-linejoin:miter;stroke-miterlimit:4;stroke-dasharray:none;stroke-dashoffset:0;stroke-opacity:1;color-rendering:auto;image-rendering:auto;shape-rendering:auto;text-rendering:auto;enable-background:accumulate"
           d="m 2190.3913,-455.53551 c -12.1089,5.9875 -8.7452,24.91965 -20.3115,32.82042 -24.1954,29.80463 -55.0017,54.09208 -74.4303,87.6551 -36.3143,44.38427 -90.9319,71.64533 -117.6502,123.76856 -15.7885,25.41436 -42.8435,55.47054 -76.0807,45.17108 -57.9653,-15.2665 -105.4155,-55.55581 -162.2942,-74.06886 -58.672,-22.11508 -126.389,-38.17761 -165.6711,-91.60383 -6.8798,-7.06639 -10.2603,-19.81726 -16.492,-25.35664 -13.8845,7.94715 3.2939,21.93947 7.5329,30.84137 42.6039,58.74723 117.2056,75.03229 181.1469,99.78687 55.299,20.69339 103.1078,59.44299 161.1239,72.52027 43.0289,5.91551 69.7066,-35.7509 89.471,-66.54551 14.8315,-26.05084 38.0937,-44.84496 61.623,-62.45682 33.2021,-27.28499 57.2682,-63.22092 84.8938,-95.45055 20.4235,-21.44794 48.8521,-43.74634 50.9333,-75.01447 -0.8483,-1.21177 -2.2742,-2.14252 -3.7948,-2.06699 z"
           id="path4924"
           inkscape:connector-curvature="0" />
        <path
           style="color:#000000;font-style:normal;font-variant:normal;font-weight:normal;font-stretch:normal;font-size:medium;line-height:normal;font-family:sans-serif;text-indent:0;text-align:start;text-decoration:none;text-decoration-line:none;text-decoration-style:solid;text-decoration-color:#000000;letter-spacing:normal;word-spacing:normal;text-transform:none;direction:ltr;block-progression:tb;writing-mode:lr-tb;baseline-shift:baseline;text-anchor:start;white-space:normal;clip-rule:nonzero;display:inline;overflow:visible;visibility:visible;opacity:1;isolation:auto;mix-blend-mode:normal;color-interpolation:sRGB;color-interpolation-filters:linearRGB;solid-color:#000000;solid-opacity:1;fill:#000000;fill-opacity:0.52999998;fill-rule:evenodd;stroke:none;stroke-width:1px;stroke-linecap:butt;stroke-linejoin:miter;stroke-miterlimit:4;stroke-dasharray:none;stroke-dashoffset:0;stroke-opacity:1;color-rendering:auto;image-rendering:auto;shape-rendering:auto;text-rendering:auto;enable-background:accumulate"
           d="m 1815.2626,-185.29492 c -11.5943,10.26778 -18.6376,25.23776 -32.5579,33.38068 -49.8,45.60208 -96.519,95.723716 -150.8884,135.62178 6.7812,14.1839153 19.7818,-2.495806 26.607,-7.65221 55.627,-45.524234 107.2892,-96.69365 158.0391,-147.79864 5.3429,-7.48899 10.2156,-11.04145 -1.1998,-13.55161 z"
           id="path4968"
           inkscape:connector-curvature="0" />
        <path
           style="color:#000000;font-style:normal;font-variant:normal;font-weight:normal;font-stretch:normal;font-size:medium;line-height:normal;font-family:sans-serif;text-indent:0;text-align:start;text-decoration:none;text-decoration-line:none;text-decoration-style:solid;text-decoration-color:#000000;letter-spacing:normal;word-spacing:normal;text-transform:none;direction:ltr;block-progression:tb;writing-mode:lr-tb;baseline-shift:baseline;text-anchor:start;white-space:normal;clip-rule:nonzero;display:inline;overflow:visible;visibility:visible;opacity:1;isolation:auto;mix-blend-mode:normal;color-interpolation:sRGB;color-interpolation-filters:linearRGB;solid-color:#000000;solid-opacity:1;fill:#000000;fill-opacity:0.52999998;fill-rule:evenodd;stroke:none;stroke-width:1px;stroke-linecap:butt;stroke-linejoin:miter;stroke-miterlimit:4;stroke-dasharray:none;stroke-dashoffset:0;stroke-opacity:1;color-rendering:auto;image-rendering:auto;shape-rendering:auto;text-rendering:auto;enable-background:accumulate"
           d="m 2009.5838,-240.61336 c -6.7908,13.50155 14.2378,15.04785 22.459,16.73325 72.4909,20.19126 137.568,59.6872 201.215,98.63448 7.8159,3.38982 14.589,15.30734 21.9137,15.33588 9.5816,-12.21163 -10.7109,-17.96274 -17.4847,-24.68442 -41.1628,-26.34318 -84.3264,-50.05235 -128.2344,-71.8292 -32.2314,-14.17783 -65.604,-26.13405 -99.8686,-34.18999 z"
           id="path4970"
           inkscape:connector-curvature="0" />
        <path
           style="color:#000000;font-style:normal;font-variant:normal;font-weight:normal;font-stretch:normal;font-size:medium;line-height:normal;font-family:sans-serif;text-indent:0;text-align:start;text-decoration:none;text-decoration-line:none;text-decoration-style:solid;text-decoration-color:#000000;letter-spacing:normal;word-spacing:normal;text-transform:none;direction:ltr;block-progression:tb;writing-mode:lr-tb;baseline-shift:baseline;text-anchor:start;white-space:normal;clip-rule:nonzero;display:inline;overflow:visible;visibility:visible;opacity:1;isolation:auto;mix-blend-mode:normal;color-interpolation:sRGB;color-interpolation-filters:linearRGB;solid-color:#000000;solid-opacity:1;fill:#000000;fill-opacity:0.52999998;fill-rule:evenodd;stroke:none;stroke-width:1px;stroke-linecap:butt;stroke-linejoin:miter;stroke-miterlimit:4;stroke-dasharray:none;stroke-dashoffset:0;stroke-opacity:1;color-rendering:auto;image-rendering:auto;shape-rendering:auto;text-rendering:auto;enable-background:accumulate"
           d="m 2213.8008,-439.0957 c -3.6398,0.38069 -9.9247,0.99202 -8.4707,6.26953 -0.2155,99.05762 20.1724,198.60757 63.3476,288.01953 1.3444,31.28573 -19.6618,62.061281 -49.5598,71.707803 -44.2343,18.027609 -93.0736,14.049539 -139.7507,14.69359 -37.8612,0.007 -75.6127,5.145119 -112.1441,15.225579 -54.4452,13.614863 -108.4137,30.756798 -164.4109,37.0379921 -48.8492,12.5967219 -99.4551,17.0941469 -149.7731,17.5323009 -2.6455,4.835833 2.318,10.998905 7.537,8.933005 52.6855,-0.228925 105.2205,-7.855826 156.5656,-19.78038692 86.1553,-9.74489528 167.6637,-49.85263308 255.5399,-49.82297508 52.9033,-0.249001 107.8651,3.536788 157.2813,-18.411674 25.3299,-12.033003 44.6216,-37.086624 47.1933,-65.449214 1.9595,-10.53182 -1.6043,-21.00239 -7.0198,-29.89432 -38.8758,-86.39279 -56.9659,-181.60081 -55.6071,-276.1799 l -0.7285,0.11914 z"
           id="path5319"
           inkscape:connector-curvature="0" />
      </g>
    </g>
  </g>
</svg>
