<?xml version="1.0" encoding="UTF-8" standalone="no"?>
<svg
   xmlns:dc="http://purl.org/dc/elements/1.1/"
   xmlns:cc="http://creativecommons.org/ns#"
   xmlns:rdf="http://www.w3.org/1999/02/22-rdf-syntax-ns#"
   xmlns:svg="http://www.w3.org/2000/svg"
   xmlns="http://www.w3.org/2000/svg"
   version="1.1"
   id="svg2"
   viewBox="0 0 634.8853 599.98414"
   height="169.32886mm"
   width="179.17874mm">
  <defs
     id="defs4" />
  <metadata
     id="metadata7">
    <rdf:RDF>
      <cc:Work
         rdf:about="">
        <dc:format>image/svg+xml</dc:format>
        <dc:type
           rdf:resource="http://purl.org/dc/dcmitype/StillImage" />
        <dc:title></dc:title>
      </cc:Work>
    </rdf:RDF>
  </metadata>
  <g
     transform="translate(-52.579035,-39.277773)"
     id="layer1">
    <path
       id="path4177"
       d="m 71.140086,635.62422 c -3.71438,-1.99203 -8.39823,-6.67485 -10.40855,-10.40625 -3.44976,-6.40315 -3.62542,-13.20874 -3.12637,-121.12397 0.52876,-114.33964 0.52876,-114.33964 6.3066,-120.36937 3.17781,-3.31635 8.85658,-7.04579 12.61948,-8.28766 9.23441,-3.04764 25.304064,-1.25145 31.799444,3.5544 9.44464,6.98794 11.11575,13.14733 11.18559,41.22797 0.0641,25.76786 0.0641,25.76786 -8.36003,26.37737 -8.4241,0.60951 -8.4241,0.60951 -8.4241,-22.17007 0,-22.32539 -1.86468,-32.36601 -6.565974,-35.35536 -3.91549,-2.48967 -12.10754,-1.7435 -16.77871,1.52831 -4.40532,3.08562 -4.40532,3.08562 -4.40532,115.64816 0,106.53144 0.19422,112.7383 3.62482,115.84295 4.71086,4.26328 16.87344,4.26716 20.41372,0.006 1.948224,-2.34462 2.914434,-11.37623 3.404014,-31.81906 0.68362,-28.54516 0.68362,-28.54516 8.91964,-27.94485 8.23602,0.60089 8.23602,0.60089 8.1878,29.50271 -0.0535,32.07322 -1.30797,36.13689 -13.43894,43.53361 -8.335714,5.08261 -25.715264,5.20949 -34.953114,0.25516 z m 80.154564,-0.11532 c -15.51091,-7.14095 -14.86607,-1.54254 -14.86607,-129.06634 0,-127.52852 -0.72352,-121.2925 14.95304,-128.88139 14.98638,-7.25478 34.20678,-4.28273 44.51124,6.88276 4.95536,5.36942 4.95536,5.36942 5.49815,119.28042 0.48382,101.53503 0.1946,114.64472 -2.66195,120.66449 -6.37314,13.43039 -30.2552,19.02907 -47.43441,11.12006 z m 28.74107,-14.10206 C 183.90561,617.53695 184,614.79971 184,506.44256 c 0,-108.35715 -0.0944,-111.09439 -3.96428,-114.96429 -2.45408,-2.45409 -6.60715,-3.96428 -10.90179,-3.96428 -4.29464,0 -8.4477,1.51019 -10.90178,3.96428 -3.87064,3.87063 -3.96429,6.60714 -3.96429,115.84297 0,111.87867 0,111.87867 4.40532,114.96429 6.18754,4.33391 16.57729,3.90656 21.36254,-0.87869 z m 43.60714,-114.85568 c 0,-130.93003 0,-130.93003 13.875,-130.93003 7.63125,0 13.87582,0.22299 13.87683,0.49554 0.001,0.27254 4.45557,45.09375 9.89903,99.60267 5.44346,54.50893 10.03182,103.12099 10.19636,108.02679 0.39996,11.92542 1.42066,3.3571 12.63246,-106.04464 4.91587,-47.96786 9.45276,-90.55915 10.08193,-94.64732 1.14399,-7.43304 1.14399,-7.43304 13.85369,-7.43304 12.7097,0 12.7097,0 12.7097,130.82143 0,130.82143 0,130.82143 -7.92857,130.82143 -7.92857,0 -7.92857,0 -8.18435,-104.55804 -0.16254,-66.42163 -0.85474,-99.49729 -1.89796,-90.68303 -0.9032,7.63125 -5.26614,51.3375 -9.69542,97.125 -10.65923,110.18954 -8.19088,98.4348 -20.51932,97.7175 -10.18367,-0.5925 -10.18367,-0.5925 -14.57301,-42.2175 -2.41413,-22.89375 -4.95984,-48.31474 -5.65712,-56.49108 -0.69728,-8.17633 -3.3197,-33.59732 -5.82759,-56.49107 -4.5598,-41.625 -4.5598,-41.625 -4.6983,56.49107 -0.13849,98.11608 -0.13849,98.11608 -9.14093,98.72021 -9.00243,0.60414 -9.00243,0.60414 -9.00243,-130.32589 z m 120.91071,-0.1086 c 0,-130.82143 0,-130.82143 23.4926,-130.82143 21.18141,0 24.15516,0.44551 30.22768,4.52846 3.84823,2.58743 7.74912,7.47264 9.10089,11.39732 3.23101,9.38093 3.4407,92.76445 0.25997,103.38079 -3.55903,11.87898 -11.28828,16.32187 -29.88025,17.17564 -15.3616,0.70541 -15.3616,0.70541 -15.3616,62.93304 0,62.22761 0,62.22761 -8.91964,62.22761 -8.91965,0 -8.91965,0 -8.91965,-130.82143 z m 43.60714,-11.89286 c 3.73936,-3.73935 3.96429,-6.60713 3.96429,-50.54464 0,-43.93751 -0.22493,-46.80529 -3.96429,-50.54464 -3.00324,-3.00325 -6.60713,-3.96429 -14.86607,-3.96429 -10.90178,0 -10.90178,0 -10.90178,54.50893 0,54.50893 0,54.50893 10.90178,54.50893 8.25894,0 11.86283,-0.96104 14.86607,-3.96429 z m 35.67858,12.10106 c 0,-130.61324 0,-130.61324 8.03154,-131.37916 4.41736,-0.42127 8.4312,-0.3663 8.91964,0.1221 0.48846,0.4885 0.8881,56.48724 0.8881,124.44172 0,123.55357 0,123.55357 18.83036,123.55357 18.83036,0 18.83036,0 18.83036,6.9375 0,6.9375 0,6.9375 -27.75,6.9375 -27.75,0 -27.75,0 -27.75,-130.61323 z m 67.39285,-0.2082 c 0,-130.82143 0,-130.82143 26.88452,-130.82143 26.88452,0 26.88452,0 26.26339,6.44196 -0.62112,6.44197 -0.62112,6.44197 -17.9971,7.01514 -17.37598,0.57318 -17.37598,0.57318 -16.84822,53.51786 0.52777,52.94468 0.52777,52.94468 16.99991,53.52232 16.47214,0.57762 16.47214,0.57762 15.85714,6.9375 -0.61499,6.35986 -0.61499,6.35986 -16.96767,6.93556 -16.35268,0.57569 -16.35268,0.57569 -16.35268,56.9866 0,56.41092 0,56.41092 16.68609,56.41092 9.17736,0 17.8783,0.45748 19.33541,1.01664 2.01045,0.77147 5.22782,-11.05869 13.34209,-49.05804 5.881,-27.54108 11.9646,-55.42646 13.5191,-61.96753 2.7828,-11.70915 2.6846,-12.53583 -6.3547,-53.51786 -5.0496,-22.89375 -9.6515,-44.30089 -10.2264,-47.57143 -0.5749,-3.27053 -2.65114,-12.90381 -4.61386,-21.40728 -3.56855,-15.46085 -3.56855,-15.46085 5.60566,-14.86607 9.1742,0.59478 9.1742,0.59478 19.0966,51.62743 5.4574,28.06795 10.3685,51.02711 10.9136,51.02034 0.5451,-0.006 5.4852,-22.97145 10.9781,-51.03265 9.9871,-51.02034 9.9871,-51.02034 18.5073,-51.63827 7.4272,-0.53867 8.3884,-0.15738 7.4934,2.97321 -0.9443,3.30291 -19.7244,88.3736 -22.0151,99.72508 -0.55,2.72545 -1.9434,9.00101 -3.0964,13.9457 -1.8411,7.89553 -1.1209,13.32646 5.9141,44.59822 4.4057,19.58432 8.399,37.83778 8.874,40.56322 1.3389,7.68271 11.0175,52.10507 12.2001,55.99554 0.8967,2.9497 -0.2946,3.46875 -7.961,3.46875 -7.7212,0 -9.164,-0.64022 -10.0504,-4.45982 -0.5693,-2.45291 -5.5586,-28.08905 -11.0874,-56.96923 -5.5288,-28.88018 -10.2923,-52.74936 -10.5855,-53.04264 -0.2933,-0.29325 -5.8016,25.34162 -12.2406,56.96643 -11.7074,57.49965 -11.7074,57.49965 -46.89044,57.50244 -35.18304,0.003 -35.18304,0.003 -35.18304,-130.81861 z m 142.71428,0 c 0,-130.82143 0,-130.82143 25.7679,-130.82143 25.7678,0 25.7678,0 25.7678,6.9375 0,6.9375 0,6.9375 -17.8716,6.9375 -17.8717,0 -17.8717,0 -17.3438,53.02232 0.5279,53.02232 0.5279,53.02232 16.8806,53.59802 16.3527,0.57569 16.3527,0.57569 16.3527,7.43303 0,6.85734 0,6.85734 -16.8482,6.85734 -16.8482,0 -16.8482,0 -16.8482,56.49108 0,56.49107 0,56.49107 18.8303,56.49107 18.8304,0 18.8304,0 18.8304,6.9375 0,6.9375 0,6.9375 -26.759,6.9375 -26.7589,0 -26.7589,0 -26.7589,-130.82143 z M 362.39585,355.62299 c -9.85801,-1.95342 -16.49678,-6.18708 -22.67516,-14.4603 -4.01873,-5.38136 -4.09578,-7.67215 -4.6285,-137.63647 -0.54174,-132.164021 -0.54174,-132.164021 3.96429,-141.083661 6.77201,-13.40515 17.61185,-18.37081 37.7929,-17.3127 17.04268,0.89356 22.77478,3.75808 30.63723,15.3104 4.45982,6.55283 4.45982,6.55283 4.45982,139.589741 0,125.61608 -0.20448,133.42215 -3.66588,139.94348 -6.74782,12.71303 -26.57601,19.47566 -45.8847,15.64951 z m 24.86388,-20.5457 c 4.86527,-4.86525 4.86527,-4.86525 4.86527,-132.7103 0,-89.4734 -0.66053,-129.294741 -2.20071,-132.675091 -4.49582,-9.86723 -19.85891,-12.23102 -28.90751,-4.44775 -5.56142,4.78374 -5.56142,4.78374 -5.56142,134.626031 0,129.84228 0,129.84228 4.80533,134.95734 6.66682,7.09649 20.02872,7.22011 26.99904,0.24977 z m 78.20755,20.5457 c -9.85829,-1.95348 -16.49708,-6.18726 -22.67516,-14.46072 -4.02831,-5.39456 -4.09439,-7.54065 -4.62014,-150.02485 -0.53339,-144.552001 -0.53339,-144.552001 9.41518,-144.552001 9.94855,0 9.94855,0 9.94855,138.454211 0,142.86696 0.31293,148.845 8.00675,152.96263 6.0852,3.2567 18.89674,2.26999 23.98349,-1.84712 4.67941,-3.78742 4.67941,-3.78742 5.67048,-87.70982 0.61526,-52.09978 1.62748,-81.29177 2.66939,-76.9849 0.92308,3.81562 5.15991,21.31484 9.41518,38.88715 7.73686,31.94966 7.73686,31.94966 7.73686,76.887 0,41.12583 -0.33851,45.60088 -3.99097,52.76028 -6.63496,13.00561 -25.73331,19.55685 -45.55961,15.62814 z M 58.464286,354.47827 c -0.72678,-0.72678 -1.32143,-70.29999 -1.32143,-154.60714 0,-153.285711 0,-153.285711 10.90179,-153.285711 10.90178,0 10.90178,0 10.90178,146.678571 0,146.67857 0,146.67857 21.803584,146.67857 21.80357,0 21.80357,0 21.80357,7.92857 0,7.92857 0,7.92857 -31.383934,7.92857 -17.26116,0 -31.97857,-0.59464 -32.70536,-1.32143 z m 79.334124,0.0484 c -0.75341,-0.75335 -1.36983,-70.34835 -1.36983,-154.6555 0,-153.285711 0,-153.285711 30.72321,-153.285711 30.72321,0 30.72321,0 30.72321,7.92857 0,7.92857 0,7.92857 -20.31696,7.92854 -20.31697,-4e-5 -20.31697,-4e-5 -19.87824,62.647941 0.43873,62.64798 0.43873,62.64798 18.83036,62.93307 18.39163,0.28509 18.39163,0.28509 18.39163,8.21366 0,7.92857 0,7.92857 -18.83036,8.489 -18.83036,0.56043 -18.83036,0.56043 -18.28379,67.8884 0.54657,67.32796 0.54657,67.32796 22.41876,67.32796 21.87219,0 21.87219,0 21.257,7.43303 -0.61518,7.43304 -0.61518,7.43304 -31.45517,7.97698 -16.96199,0.29918 -31.45641,-0.0726 -32.20982,-0.82588 z M 263.28572,201.29615 c 0,-154.710731 0,-154.710731 30.72321,-154.710731 30.72321,0 30.72321,0 30.72321,7.92857 0,7.92857 0,7.92857 -20.72653,7.92857 -20.72651,0 -20.72651,0 -20.31696,62.711141 0.40957,62.71115 0.40957,62.71115 19.73546,62.32134 19.32589,-0.38981 19.32589,-0.38981 19.32589,8.646 0,9.0358 0,9.0358 -19.77356,9.0358 -19.77356,0 -19.77356,0 -19.76139,74.8259 0.0119,74.82589 0.0119,74.82589 -9.95858,75.42501 -9.97075,0.59913 -9.97075,0.59913 -9.97075,-154.1116 z m 292.5742,151.09458 c -0.5984,-1.94069 -4.23486,-17.1864 -8.08109,-33.87936 -6.99312,-30.35081 -6.99312,-30.35081 -6.99312,-151.13838 0,-120.787571 0,-120.787571 9.89793,-120.787571 9.89798,0 9.89798,0 10.40628,146.183031 0.5083,146.18304 0.5083,146.18304 22.9231,146.74458 22.4148,0.56152 22.4148,0.56152 21.8036,7.92857 -0.6113,7.36703 -0.6113,7.36703 -24.74,7.92235 -21.6889,0.49916 -24.2387,0.19853 -25.2167,-2.97322 z m 75.5336,1.92236 c -0.4426,-0.81763 1.2034,-9.0683 3.6577,-18.33482 4.4623,-16.84821 4.4623,-16.84821 4.652,-6.44196 0.1896,10.40625 0.1896,10.40625 21.9932,10.40625 21.8036,0 21.8036,0 21.8036,7.92857 0,7.92857 0,7.92857 -25.6509,7.92857 -14.108,0 -26.013,-0.66897 -26.4556,-1.48661 z m -11.1656,-167.49107 c -0.1565,-140.236601 -0.1565,-140.236601 30.5667,-140.236601 30.7232,0 30.7232,0 30.7232,7.92857 0,7.92857 0,7.92857 -20.8125,7.92857 -20.8125,0 -20.8125,0 -20.8125,62.437501 0,62.4375 0,62.4375 5.8295,62.4375 7.3999,0 8.1391,1.3685 5.3529,9.91071 -1.5685,4.80919 -3.6309,7.13182 -6.7225,7.5709 -4.2931,0.60971 -4.4599,1.39149 -4.4599,20.9106 0,17.06135 -1.4247,26.39161 -8.9837,58.83089 -4.9411,21.20452 -9.3305,39.44565 -9.7542,40.53583 -0.4238,1.09018 -0.8409,-61.12433 -0.927,-138.25447 z m 45.4439,16.9738 c 0.01,-0.8867 0.9399,-4.95706 2.0753,-9.04523 1.485,-5.34733 3.1505,-7.43303 5.9353,-7.43303 3.1027,0 3.8712,1.37708 3.8712,6.9375 0,3.81562 0.2229,7.60647 0.4955,8.42411 0.2725,0.81763 -2.4034,1.76611 -5.9464,2.10772 -3.5431,0.34162 -6.437,-0.10436 -6.4309,-0.99107 z M 513.01813,167.99167 c -0.01,-0.81764 -4.02351,-18.8512 -8.91964,-40.07459 -7.61167,-32.994431 -8.90206,-41.685951 -8.90206,-59.959821 0,-21.37184 0,-21.37184 9.91071,-21.37184 9.91072,0 9.91072,0 9.91072,61.446421 0,33.79554 -0.44599,61.44643 -0.99107,61.44643 -0.54509,0 -0.99898,-0.66897 -1.00866,-1.4866 z"
       style="fill:#000000;fill-opacity:0.12156863" />
    <path
       id="path4159"
       d=""
       style="fill:#000000" />
    <path
       id="path4155"
       d=""
       style="fill:#000000" />
    <path
       id="path4149"
       d=""
       style="fill:#000000" />
    <path
       id="path4147"
       d=""
       style="fill:#000000" />
    <path
       id="path4179"
       d="m 66.576255,629.90993 c -3.71438,-1.99203 -8.39823,-6.67485 -10.40855,-10.40625 -3.44975,-6.40315 -3.62541,-13.20874 -3.12636,-121.12397 0.52876,-114.33964 0.52876,-114.33964 6.3066,-120.36937 3.17781,-3.31635 8.85657,-7.04579 12.61947,-8.28766 9.23441,-3.04764 25.304071,-1.25145 31.799455,3.5544 9.44463,6.98794 11.11574,13.14733 11.18558,41.22797 l 0.0641,25.76786 -8.42411,0.60951 -8.424104,0.60951 0,-22.77958 c 0,-22.32539 -1.86468,-32.36601 -6.565971,-35.35536 -3.9155,-2.48967 -12.10754,-1.7435 -16.77871,1.52831 -4.40532,3.08562 -4.40532,3.08562 -4.40532,115.64816 0,106.53144 0.19422,112.7383 3.62483,115.84295 4.71085,4.26328 16.87343,4.26716 20.41372,0.006 1.948221,-2.34462 2.914421,-11.37623 3.404001,-31.81906 l 0.683623,-28.54516 8.236021,0.60031 8.23603,0.60089 -0.0482,28.90182 c -0.0535,32.07322 -1.30798,36.13689 -13.43895,43.53361 -8.335715,5.08261 -25.715265,5.20949 -34.953115,0.25516 z m 80.154575,-0.11532 c -15.51091,-7.14095 -14.86608,-1.54254 -14.86608,-129.06634 0,-127.52852 -0.72351,-121.2925 14.95305,-128.88139 14.98638,-7.25478 34.20678,-4.28273 44.51124,6.88276 4.95536,5.36942 4.95536,5.36942 5.49815,119.28042 0.48382,101.53503 0.1946,114.64472 -2.66195,120.66449 -6.37314,13.43039 -30.2552,19.02907 -47.43441,11.12006 z m 28.74107,-14.10206 c 3.86989,-3.86989 3.96428,-6.60713 3.96428,-114.96428 0,-108.35715 -0.0944,-111.09439 -3.96428,-114.96429 -2.45408,-2.45409 -6.60715,-3.96428 -10.90179,-3.96428 -4.29464,0 -8.4477,1.51019 -10.90178,3.96428 -3.87064,3.87063 -3.96429,6.60714 -3.96429,115.84297 0,111.87867 0,111.87867 4.40532,114.96429 6.18754,4.33391 16.57729,3.90656 21.36254,-0.87869 z m 43.60714,-114.85568 0,-130.93003 13.875,0 c 7.63125,0 13.87582,0.22299 13.87683,0.49554 0.001,0.27254 4.45557,45.09375 9.89903,99.60267 5.44346,54.50893 10.03182,103.12099 10.19636,108.02679 0.39996,11.92542 1.42066,3.3571 12.63246,-106.04464 4.91589,-47.96786 9.45279,-90.55915 10.08189,-94.64732 1.144,-7.43304 1.144,-7.43304 13.8537,-7.43304 l 12.7097,0 0,130.82143 0,130.82143 -7.9285,0 -7.9286,0 -0.2558,-104.55804 c -0.1625,-66.42163 -0.8547,-99.49729 -1.898,-90.68303 -0.9032,7.63125 -5.2661,51.3375 -9.6954,97.125 -10.6592,110.18954 -8.19085,98.4348 -20.51929,97.7175 l -10.18367,-0.5925 -4.38934,-41.625 c -2.41413,-22.89375 -4.95984,-48.31474 -5.65712,-56.49108 -0.69728,-8.17633 -3.3197,-33.59732 -5.82759,-56.49107 l -4.5598,-41.625 -0.13849,98.11607 -0.1385,98.11608 -9.00243,0.60413 -9.00244,0.60414 0,-130.93003 z m 120.91067,-0.1086 0,-130.82143 23.4926,0 c 21.1814,0 24.1552,0.44551 30.2277,4.52846 3.8482,2.58743 7.7491,7.47264 9.1009,11.39732 3.231,9.38093 3.4407,92.76445 0.26,103.38079 -3.5591,11.87898 -11.2883,16.32187 -29.8803,17.17564 l -15.3616,0.70541 0,62.22763 0,62.22761 -8.9196,0 -8.9197,0 0,-130.82143 z m 43.6072,-11.89286 c 3.7393,-3.73935 3.9643,-6.60713 3.9643,-50.54464 0,-43.93751 -0.225,-46.80529 -3.9643,-50.54464 -3.0033,-3.00325 -6.6072,-3.96429 -14.8661,-3.96429 l -10.9018,0 0,54.50893 0,54.50893 10.9018,0 c 8.2589,0 11.8628,-0.96104 14.8661,-3.96429 z m 35.6786,12.10106 0,-130.61324 8.0315,-0.76592 c 4.4174,-0.42127 8.4312,-0.3663 8.9196,0.1221 0.4885,0.4885 0.8881,56.48724 0.8881,124.44172 l 0,123.55357 18.8304,0 c 18.8304,0 18.8304,0 18.8304,6.9375 0,6.9375 0,6.9375 -27.75,6.9375 l -27.75,0 0,-130.61323 z m 67.3928,-0.2082 0,-130.82143 26.8845,0 c 26.8845,0 26.8845,0 26.2634,6.44196 -0.6211,6.44197 -0.6211,6.44197 -17.9971,7.01514 l -17.376,0.57318 0.5278,52.94468 0.5278,52.94468 16.4721,0.57764 c 16.4721,0.57762 16.4721,0.57762 15.8571,6.9375 -0.6149,6.35986 -0.6149,6.35986 -16.9676,6.93556 l -16.3527,0.57569 0,56.41091 0,56.41092 16.6861,0 c 9.1773,0 17.8783,0.45748 19.3354,1.01664 2.0104,0.77147 5.2278,-11.05869 13.34203,-49.05804 5.881,-27.54108 11.96457,-55.42646 13.51917,-61.96753 2.7828,-11.70915 2.6846,-12.53583 -6.35467,-53.51786 -5.0496,-22.89375 -9.65153,-44.30089 -10.22643,-47.57143 -0.5749,-3.27053 -2.6512,-12.90381 -4.6139,-21.40728 l -3.5685,-15.46085 9.1741,0.59478 9.17423,0.59478 9.92247,51.03265 c 5.4574,28.06795 10.3685,51.02711 10.9136,51.02034 0.5451,-0.006 5.4852,-22.97145 10.9781,-51.03265 l 9.9869,-51.02034 8.5202,-0.61793 c 7.4273,-0.53867 8.3885,-0.15738 7.4935,2.97321 -0.9443,3.30291 -19.7243,88.3736 -22.0151,99.72508 -0.55,2.72545 -1.9433,9.00101 -3.0963,13.9457 -1.8412,7.89553 -1.121,13.32646 5.914,44.59822 4.4057,19.58432 8.399,37.83778 8.874,40.56322 1.3389,7.68271 11.0175,52.10507 12.2001,55.99554 0.8967,2.9497 -0.2946,3.46875 -7.961,3.46875 -7.7212,0 -9.164,-0.64022 -10.0505,-4.45982 -0.5692,-2.45291 -5.5584,-28.08905 -11.0872,-56.96923 -5.5288,-28.88018 -10.2923,-52.74936 -10.5855,-53.04264 -0.2933,-0.29325 -5.8016,25.34162 -12.2407,56.96643 l -11.70727,57.49965 -35.18313,0.003 -35.183,0.003 0,-130.82143 z m 142.7142,0 0,-130.82143 25.7678,0 c 25.7679,0 25.7679,0 25.7679,6.9375 0,6.9375 0,6.9375 -17.8716,6.9375 l -17.8717,0 0.5279,53.02232 0.5279,53.02232 16.3527,0.5757 c 16.3527,0.57569 16.3527,0.57569 16.3527,7.43303 0,6.85734 0,6.85734 -16.8483,6.85734 l -16.8482,0 0,56.49108 0,56.49107 18.8304,0 c 18.8303,0 18.8303,0 18.8303,6.9375 0,6.9375 0,6.9375 -26.7589,6.9375 l -26.7589,0 0,-130.82143 z M 357.83201,349.9087 c -9.858,-1.95342 -16.4968,-6.18708 -22.6751,-14.4603 -4.0188,-5.38136 -4.0958,-7.67215 -4.6285,-137.63647 -0.5418,-132.164024 -0.5418,-132.164024 3.9642,-141.083664 6.7721,-13.40514 17.6119,-18.3708 37.7929,-17.31269 17.0427,0.89356 22.7748,3.75808 30.6373,15.31039 4.4598,6.55283 4.4598,6.55283 4.4598,139.589744 0,125.61608 -0.2045,133.42215 -3.6659,139.94348 -6.7478,12.71303 -26.576,19.47566 -45.8847,15.64951 z m 24.8639,-20.5457 c 4.8653,-4.86525 4.8653,-4.86525 4.8653,-132.7103 0,-89.47339 -0.6606,-129.294744 -2.2007,-132.675094 -4.4959,-9.86723 -19.859,-12.23102 -28.9076,-4.44775 -5.5614,4.78374 -5.5614,4.78374 -5.5614,134.626024 0,129.84229 0,129.84229 4.8054,134.95735 6.6668,7.09649 20.0287,7.22011 26.999,0.24977 z m 78.2075,20.5457 c -9.8582,-1.95348 -16.497,-6.18726 -22.6751,-14.46072 -4.0283,-5.39456 -4.0944,-7.54065 -4.6202,-150.02485 l -0.5333,-144.551994 9.9485,0 9.9486,0 0,138.454204 c 0,142.86696 0.3129,148.845 8.0067,152.96263 6.0852,3.2567 18.8968,2.26999 23.9835,-1.84712 4.6794,-3.78742 4.6794,-3.78742 5.6705,-87.70983 0.6153,-52.09977 1.6275,-81.29176 2.6694,-76.9849 0.9231,3.81563 5.1599,21.31485 9.4152,38.88716 7.7368,31.94965 7.7368,31.94965 7.7368,76.887 0,41.12583 -0.3385,45.60088 -3.9909,52.76028 -6.635,13.00561 -25.7334,19.55685 -45.5597,15.62814 z M 53.900465,348.76398 c -0.72679,-0.72678 -1.32143,-70.29999 -1.32143,-154.60714 l 0,-153.285704 10.90178,0 10.90179,0 0,146.678554 0,146.67858 21.803571,0 21.803574,0 0,7.92857 0,7.92857 -31.383935,0 c -17.26116,0 -31.97857,-0.59464 -32.70535,-1.32143 z m 79.334125,0.0484 c -0.75341,-0.75339 -1.36984,-70.34839 -1.36984,-154.65554 l 0,-153.285704 30.72322,0 30.72321,0 0,7.92857 0,7.92856 -20.31696,-3e-5 -20.31697,-4e-5 0.43873,62.647994 0.43873,62.64797 18.39163,0.28509 c 18.39163,0.28509 18.39163,0.28509 18.39163,8.21366 0,7.92857 0,7.92857 -18.83036,8.489 l -18.83036,0.56043 0.54657,67.32797 0.54657,67.32796 21.87219,0 21.87219,0 -0.61519,7.43303 -0.61518,7.43304 -30.83999,0.54394 c -16.96199,0.29918 -31.45641,-0.0726 -32.20982,-0.82588 z m 125.48731,-153.23049 0,-154.710714 30.72321,0 30.7232,0 0,7.92857 0,7.92856 -20.7265,0 -20.72653,0 0.40955,62.711154 0.40957,62.71113 19.32591,-0.3898 19.3259,-0.38981 0,9.03581 0,9.0358 -19.7736,0 -19.77355,0 0.0119,74.8259 0.0119,74.82589 -9.97076,0.59912 -9.97075,0.59912 0,-154.71073 z m 292.57421,151.09455 c -0.5984,-1.94069 -4.2349,-17.1864 -8.0811,-33.87936 -6.9931,-30.35081 -6.9931,-30.35081 -6.9931,-151.13839 l 0,-120.787554 9.8979,0 9.89793,0 0.5084,146.183024 0.5083,146.18304 22.41477,0.56154 c 22.4147,0.56152 22.4147,0.56152 21.8035,7.92857 -0.6112,7.36703 -0.6112,7.36703 -24.7399,7.92235 -21.68887,0.49916 -24.2387,0.19853 -25.2167,-2.97322 z m 75.5335,1.92236 c -0.4426,-0.81763 1.2034,-9.0683 3.6577,-18.33482 4.4623,-16.84821 4.4623,-16.84821 4.652,-6.44196 l 0.1896,10.40625 21.8036,0 21.8036,0 0,7.92857 0,7.92857 -25.6509,0 c -14.108,0 -26.013,-0.66897 -26.4556,-1.48661 z m -11.1656,-167.49107 -0.1565,-140.236594 30.7232,0 30.7232,0 0,7.92857 0,7.92856 -20.8125,0 -20.8125,0 0,62.437504 c 0,62.4375 0,62.4375 5.8295,62.4375 7.3999,0 8.1391,1.3685 5.3529,9.91071 -1.5686,4.80919 -3.6309,7.13182 -6.7226,7.5709 -4.293,0.60971 -4.4598,1.39149 -4.4598,20.91059 0,17.06135 -1.4248,26.39162 -8.9837,58.8309 -4.9411,21.20452 -9.3305,39.44565 -9.7542,40.53583 -0.4238,1.09018 -0.841,-61.12433 -0.927,-138.25447 z m 45.4438,16.9738 c 0.01,-0.88671 0.94,-4.95706 2.0753,-9.04523 1.4851,-5.34733 3.1505,-7.43303 5.9354,-7.43303 3.1027,0 3.8711,1.37708 3.8711,6.9375 0,3.81562 0.223,7.60647 0.4956,8.4241 0.2725,0.81764 -2.4034,1.76611 -5.9465,2.10773 -3.543,0.34162 -6.4369,-0.10436 -6.4309,-0.99107 z m -152.6535,-35.80416 c -0.01,-0.81763 -4.0235,-18.85119 -8.9196,-40.07458 -7.6117,-32.994434 -8.9021,-41.685954 -8.9021,-59.959824 l 0,-21.37183 9.9107,0 9.9107,0 0,61.446414 c 0,33.79553 -0.446,61.44643 -0.991,61.44643 -0.5451,0 -0.999,-0.66897 -1.0087,-1.48661 z"
       style="fill:#ffffff;fill-opacity:1" />
  </g>
</svg>
