<?xml version="1.0" encoding="UTF-8" standalone="no"?>
<svg
   xmlns:dc="http://purl.org/dc/elements/1.1/"
   xmlns:cc="http://creativecommons.org/ns#"
   xmlns:rdf="http://www.w3.org/1999/02/22-rdf-syntax-ns#"
   xmlns:svg="http://www.w3.org/2000/svg"
   xmlns="http://www.w3.org/2000/svg"
   xmlns:sodipodi="http://sodipodi.sourceforge.net/DTD/sodipodi-0.dtd"
   xmlns:inkscape="http://www.inkscape.org/namespaces/inkscape"
   version="1.1"
   id="svg3412"
   viewBox="0 0 1021.8028 606.55654"
   height="171.18373mm"
   width="288.37546mm"
   inkscape:version="0.91 r13725"
   sodipodi:docname="plancher.svg"
   inkscape:export-filename="/Users/julienlafosse/Documents/Travail/2015-2016/Foule Complexe/Plaquette Step up/plancher.png"
   inkscape:export-xdpi="300"
   inkscape:export-ydpi="300">
  <sodipodi:namedview
     pagecolor="#ffffff"
     bordercolor="#666666"
     borderopacity="1"
     objecttolerance="10"
     gridtolerance="10"
     guidetolerance="10"
     inkscape:pageopacity="0"
     inkscape:pageshadow="2"
     inkscape:window-width="1108"
     inkscape:window-height="806"
     id="namedview26"
     showgrid="false"
     inkscape:zoom="0.47976796"
     inkscape:cx="390.12469"
     inkscape:cy="378.67553"
     inkscape:window-x="0"
     inkscape:window-y="0"
     inkscape:window-maximized="0"
     inkscape:current-layer="svg3412"
     inkscape:snap-bbox="true"
     inkscape:bbox-nodes="true"
     fit-margin-top="0"
     fit-margin-left="0"
     fit-margin-right="0"
     fit-margin-bottom="0" />
  <defs
     id="defs3414" />
  <metadata
     id="metadata3417">
    <rdf:RDF>
      <cc:Work
         rdf:about="">
        <dc:format>image/svg+xml</dc:format>
        <dc:type
           rdf:resource="http://purl.org/dc/dcmitype/StillImage" />
        <dc:title></dc:title>
      </cc:Work>
    </rdf:RDF>
  </metadata>
  <g
     id="g3510"
     transform="matrix(4.5295778,0,0,4.5295778,-380.79208,-1178.2375)">
    <path
       inkscape:connector-curvature="0"
       id="path3470"
       d="m 161.5679,389.69066 c -16.00637,-5.74657 -15.50685,-5.55856 -19.5,-7.33933 -13.93604,-6.21486 -29.40407,-11.90465 -40.31635,-14.83004 -16.475202,-4.4167 -17.683652,-5.19761 -17.683652,-11.42729 l 0,-4.80228 4.75,-1.7512 c 2.612501,-0.96316 7.735519,-3.70037 11.384482,-6.0827 3.64897,-2.38234 6.94565,-4.33152 7.32596,-4.33152 0.38031,0 3.32311,-2.025 6.53956,-4.5 3.21645,-2.475 6.61523,-4.5 7.55284,-4.5 0.93762,0 3.3986,-1.4625 5.46886,-3.25 4.21508,-3.63938 18.33249,-12.75 19.75684,-12.75 0.50676,0 2.9014,-1.4625 5.32142,-3.25 2.42002,-1.7875 5.96431,-4.15829 7.8762,-5.26844 3.37445,-1.95938 3.6259,-1.96789 8.59368,-0.29078 2.81464,0.95022 6.77743,1.91059 8.80622,2.13416 2.02878,0.22357 3.8127,0.57942 3.96427,0.79078 0.15156,0.21135 0.72515,2.70343 1.27464,5.53795 0.68876,3.55294 0.67077,5.5991 -0.058,6.58777 -1.11607,1.51422 -3.49088,1.20297 -4.89377,-0.64138 -0.49295,-0.64808 -0.63198,-0.16738 -0.33838,1.16997 0.38626,1.75941 -0.16624,2.6137 -2.45621,3.7979 -1.62502,0.84032 -3.37411,2.63131 -3.88687,3.97997 -1.15437,3.03622 -5.53738,3.42767 -6.44266,0.57539 -0.83738,-2.63849 -12.19554,-4.80499 -13.75292,-2.62329 -1.37097,1.92058 -4.03544,-2.22982 -4.14633,-6.45867 -0.0596,-2.27453 -0.25707,-3.6896 -0.43874,-3.14459 -0.18167,0.545 -0.91997,0.76464 -1.64066,0.48808 -2.23911,-0.85923 -20.62053,11.88841 -19.19623,13.31272 0.97363,0.97363 14.62181,6.30246 16.14184,6.30246 0.8533,0 1.61971,1.65573 2.02862,4.38259 0.96682,6.44717 0.40055,8.10955 -2.78082,8.16364 -1.49545,0.0254 -3.96434,1.18095 -5.48642,2.56785 -1.52208,1.3869 -4.00492,3.28897 -5.51742,4.22683 -1.5125,0.93786 -2.75,2.36982 -2.75,3.18214 0,0.97439 -1.02081,1.47695 -3,1.47695 -2.34556,0 -3,-0.44169 -3,-2.02475 0,-2.20619 -2.85316,-3.71265 -9.49615,-5.01393 -2.55722,-0.50093 -4.23125,-0.40239 -4.64907,0.27366 -1.19832,1.93892 -3.85437,-0.089 -3.86843,-2.9536 -0.0359,-7.30328 -0.36822,-7.41837 -8.818103,-3.05353 -4.217539,2.17859 -7.866099,4.15393 -8.107919,4.38962 -0.61815,0.6025 4.25771,3.92597 5.275781,3.59607 0.45987,-0.14903 1.07353,0.63691 1.36369,1.74651 0.290168,1.1096 0.958208,1.75131 1.484538,1.42602 0.52633,-0.32529 3.96267,0.32803 7.636313,1.45181 3.67364,1.12379 11.40435,3.455 17.17935,5.18046 5.775,1.72547 11.85,3.73576 13.5,4.46731 5.38118,2.38582 10.76668,4.2935 25.71392,9.10853 l 14.71392,4.73988 5.28608,-3.66864 c 2.90734,-2.01775 8.21108,-6.12614 11.78608,-9.12976 19.64786,-16.50759 33.0818,-27.1874 41.76201,-33.20026 11.57639,-8.01907 21.69251,-15.92402 29.24577,-22.85327 3.02928,-2.77901 7.75428,-6.58382 10.5,-8.45514 2.74572,-1.87132 8.20481,-6.13043 12.1313,-9.46469 3.92649,-3.33426 10.10745,-8.47836 13.73545,-11.43132 3.62801,-2.95297 6.39046,-5.70221 6.13879,-6.10943 -0.64444,-1.04272 4.54269,-0.36554 5.64521,0.73698 0.99214,0.99214 0.1046,4.24147 -1.15853,4.24147 -0.43231,0 -1.04504,-0.67499 -1.36163,-1.5 -0.81825,-2.13234 -3.37721,-1.85649 -4.63837,0.5 -0.5887,1.1 -1.53352,2 -2.09959,2 -1.58112,0 -10.89936,8.33519 -10.89992,9.75 -7.4e-4,1.87699 0.83144,1.5344 3.64362,-1.5 1.40174,-1.5125 2.9174,-2.75 3.36813,-2.75 0.45074,0 1.73349,-1.05381 2.85057,-2.34181 1.11707,-1.288 2.50577,-2.04842 3.08599,-1.68983 0.58318,0.36043 1.52698,-0.58954 2.11049,-2.1243 0.79761,-2.09788 1.26344,-2.4399 1.90635,-1.39965 0.89504,1.4482 -0.83623,5.25361 -2.0491,4.50402 -0.7029,-0.43442 -7.2186,4.64091 -22.21171,17.30157 -4.7221,3.9875 -8.83746,7.25 -9.14524,7.25 -0.30777,0 -0.55959,-0.70155 -0.55959,-1.55901 0,-0.85746 0.45,-1.2809 1,-0.94099 0.55,0.33992 1,0.14148 1,-0.44098 0,-0.58246 0.56396,-1.05902 1.25325,-1.05902 1.90746,0 7.00192,-5.74827 5.52946,-6.23909 -1.22204,-0.40735 -9.98015,5.66306 -10.61812,7.3596 -0.18448,0.49058 -0.68546,0.67561 -1.1133,0.4112 -0.42783,-0.26442 -3.95748,2.54528 -7.84366,6.24377 -3.88618,3.69849 -9.79769,8.7016 -13.1367,11.11803 -3.33901,2.41643 -6.07093,4.77893 -6.07093,5.25 0,0.47107 -0.68912,0.85649 -1.53138,0.85649 -0.84227,0 -1.79041,0.675 -2.10699,1.5 -0.31659,0.82501 -1.20246,1.5 -1.96862,1.5 -0.76615,0 -1.39301,0.9 -1.39301,2 0,2.60082 0.95537,2.52397 4.0267,-0.32394 1.37845,-1.27817 3.73249,-3.12739 5.2312,-4.10938 1.49871,-0.982 2.47723,-2.18622 2.1745,-2.67606 -0.30274,-0.48984 0.29788,-0.89062 1.33472,-0.89062 1.03683,0 3.19837,-1.575 4.80341,-3.5 1.60505,-1.92499 3.25829,-3.5 3.67387,-3.5 2.3039,0 -0.47272,2.84444 -11.3974,11.67574 -6.68415,5.40335 -14.22165,11.52386 -16.75,13.60113 -2.52835,2.07728 -6.7345,5.38199 -9.347,7.3438 -2.6125,1.96182 -4.75,3.97473 -4.75,4.47314 0,0.4984 -0.675,0.90619 -1.5,0.90619 -0.825,0 -1.5,0.45001 -1.5,1 0,0.55 -0.52475,1 -1.16611,1 -0.64136,0 -1.87886,0.64539 -2.75,1.43418 -4.72992,4.28285 -12.3968,10.7933 -18.58389,15.78081 -3.85,3.10354 -8.575,7.23552 -10.5,9.18216 -1.925,1.94664 -3.725,3.52497 -4,3.50739 -0.275,-0.0176 -5.9,-1.97066 -12.5,-4.34018 z m 11.5,0.54263 c 0,-1.04116 -0.675,-2.15203 -1.5,-2.46862 -1.60154,-0.61456 -1.87222,0.22806 -0.89301,2.77985 0.83968,2.18817 2.39301,1.98616 2.39301,-0.31122 z m -4.33772,-2.35699 c -0.27741,-0.6875 -0.50439,-0.125 -0.50439,1.25 0,1.375 0.22698,1.9375 0.50439,1.25 0.27741,-0.6875 0.27741,-1.8125 0,-2.5 z m -16.66228,-4.75 c 0,-0.55 -0.45,-1 -1,-1 -0.55,0 -1,-0.68104 -1,-1.51342 0,-1.35122 0.38818,-1.35122 3.62212,0 4.21167,1.75975 4.37788,1.78549 4.37788,0.67798 0,-0.84477 -11.17411,-4.32378 -11.81831,-3.67958 -0.1916,0.19159 0.58914,1.28585 1.73498,2.43169 1.14583,1.14583 2.08333,2.53333 2.08333,3.08333 0,0.55 0.45,1 1,1 0.55,0 1,-0.45 1,-1 z m 33.6306,-3.52025 c -0.33906,-0.88358 -1.0915,-1.31293 -1.6721,-0.9541 -0.72494,0.44804 -0.68251,1.10197 0.13544,2.08754 1.45303,1.7508 2.38084,1.06645 1.53666,-1.13344 z m -46.50853,-2.15474 c -0.87155,-1.49878 -1.06669,-1.54198 -1.09166,-0.24167 -0.0323,1.68407 1.01919,3.20039 1.72792,2.49167 0.23375,-0.23375 -0.0526,-1.24626 -0.63626,-2.25 z m 48.78399,0.0618 c -1.46288,-1.76267 -2.17292,-1.24583 -1.32481,0.96431 0.34557,0.90057 1.05302,1.37491 1.57209,1.0541 0.5627,-0.34776 0.46285,-1.16276 -0.24728,-2.01841 z m 1.69811,-3.11598 c -1.01652,-1.01652 -1.85525,0.51389 -1.02122,1.86338 0.63003,1.01942 0.86558,1.0202 1.2043,0.004 0.2316,-0.69478 0.14921,-1.53512 -0.18308,-1.86741 z m -60.60417,0.33616 c 0,-0.21616 -0.675,-0.65203 -1.5,-0.96862 -0.825,-0.31658 -1.5,-0.13972 -1.5,0.39301 0,0.53274 0.675,0.96862 1.5,0.96862 0.825,0 1.5,-0.17686 1.5,-0.39301 z m 68,-3.22943 c 0,-0.75766 0.63287,-1.37756 1.40638,-1.37756 0.91894,0 1.2232,-0.70049 0.87786,-2.02108 -0.73811,-2.82252 -3.28424,-0.62495 -3.28424,2.83465 0,2.49373 -0.0462,2.51205 -1.58164,0.62757 -1.44731,-1.77629 -1.53223,-1.78557 -1,-0.10935 0.3199,1.00748 0.58164,2.30008 0.58164,2.87244 0,0.63011 0.59177,0.54954 1.5,-0.20423 0.825,-0.68469 1.5,-1.86479 1.5,-2.62244 z m -82.66287,-5.37803 c -1.58477,-1.46666 -5.33713,-2.17528 -5.33713,-1.00789 0,0.61951 0.42302,0.86495 0.94005,0.54541 0.51703,-0.31954 1.52953,0.0567 2.25,0.83602 0.72047,0.77936 1.68666,1.18845 2.14708,0.9091 0.46042,-0.27935 0.46042,-0.85654 0,-1.28264 z m 87.66287,0.50047 c 0,-0.825 -0.45,-1.5 -1,-1.5 -0.55,0 -1,0.675 -1,1.5 0,0.82501 0.45,1.5 1,1.5 0.55,0 1,-0.67499 1,-1.5 z m 5.54969,-3.5 c 0.79767,0 1.45031,-0.88588 1.45031,-1.96862 0,-1.33903 0.47971,-1.78453 1.5,-1.39301 0.825,0.31659 1.5,0.10402 1.5,-0.47236 0,-2.14254 -1.71326,-1.98721 -4.27428,0.3875 -1.45114,1.34557 -3.10807,2.44649 -3.68208,2.44649 -1.17434,0 -1.4129,2.29741 -0.34903,3.36128 0.38204,0.38203 1.0794,0.007 1.54969,-0.83334 0.47029,-0.84037 1.50772,-1.52794 2.30539,-1.52794 z m -107.25994,0 c -0.28766,-1.1 -0.695533,-2 -0.906383,-2 -0.21085,0 -0.38337,0.9 -0.38337,2 0,1.1 0.40787,2 0.90638,2 0.498513,0 0.671023,-0.9 0.383373,-2 z m -3.289753,-1.44098 c 0,-0.24254 -0.45,-0.7191 -1,-1.05902 -0.55,-0.33992 -1,-0.14148 -1,0.44098 0,0.58246 0.45,1.05902 1,1.05902 0.55,0 1,-0.19844 1,-0.44098 z m 118.715763,-5.5801 c 0.37256,-1.42465 0.8787,-1.73045 1.71517,-1.03624 1.20664,1.00142 4.56907,-1.88536 4.56907,-3.92273 0,-0.52645 0.67121,-0.69961 1.49157,-0.38481 1.72547,0.66212 2.81578,-1.50858 2.33751,-4.65377 l -0.32908,-2.16408 -2.75,2.3732 c -1.5125,1.30525 -2.78553,3.25886 -2.82895,4.34136 -0.0434,1.08248 -0.30592,1.40565 -0.58333,0.71815 -0.70258,-1.74117 -2.33772,-1.56631 -2.33772,0.25 0,0.82501 -0.585,1.5 -1.3,1.5 -1.92059,0 -3.62088,2.04261 -3.01487,3.62186 0.7777,2.02664 2.42385,1.67742 3.03063,-0.64294 z m 13.24619,-11.04049 c 0.60137,0.97305 1.26863,0.84457 2.9092,-0.56013 2.18268,-1.86887 2.91927,-5.3783 1.12885,-5.3783 -0.55,0 -1,0.45001 -1,1 0,0.55 -0.48214,1 -1.07143,1 -1.89176,0 -3.93269,2.78693 -3.79239,5.17858 l 0.13618,2.32142 0.45462,-2.4121 c 0.31194,-1.65514 0.6995,-2.01587 1.23497,-1.14947 z M 134.0679,344.1263 c 0,-0.54999 -0.19844,-1 -0.44098,-1 -0.24254,0 -0.7191,0.45001 -1.05902,1 -0.33992,0.55 -0.14148,1 0.44098,1 0.58246,0 1.05902,-0.45 1.05902,-1 z m 38.24817,-28.72459 c 1.60819,-1.45539 1.75183,-1.43602 1.75183,0.23627 0,2.23693 1.05261,1.36321 1.40959,-1.17004 0.14274,-1.0129 1.54106,-2.46803 3.10737,-3.23363 l 2.84785,-1.39199 -6.9324,-1.86916 c -12.10539,-3.26393 -11.26868,-3.35558 -19.38038,2.12292 -4.09638,2.76662 -7.02138,5.08765 -6.5,5.15785 4.05337,0.5457 5.65338,0.8575 10.94797,2.13349 6.30839,1.52032 9.40746,1.0376 12.74817,-1.98571 z m 7.88854,-3.06317 c -0.72144,-0.24048 -1.78716,0.0382 -2.36826,0.61931 -0.74207,0.74207 -0.35164,0.87222 1.31171,0.43724 1.3522,-0.35361 1.8055,-0.8069 1.05655,-1.05655 z M 286.2006,300.97329 c 3.70566,-4.27265 1.37029,-6.02521 -2.56097,-1.92186 -2.52349,2.63396 -2.46202,3.42389 0.31097,3.99593 0.21049,0.0434 1.22299,-0.88991 2.25,-2.07407 z m -118.70564,74.3877 c -0.59012,-0.40408 -1.3635,-1.52219 -1.71862,-2.48469 -0.35512,-0.9625 -1.47963,-1.75 -2.49892,-1.75 -1.01928,0 -3.96934,-0.72103 -6.55568,-1.60227 -3.49969,-1.19247 -5.04594,-1.31721 -6.04546,-0.48768 -2.05092,1.70212 -3.44557,-0.67346 -4.20905,-7.16947 -0.65385,-5.56322 -0.61733,-5.66929 3.18825,-9.2584 6.82608,-6.43783 11.54819,-9.47765 13.30413,-8.56443 3.27977,1.70573 20.42166,6.17599 21.74114,5.66965 0.89687,-0.34416 1.38225,0.23855 1.41104,1.69398 0.0241,1.22025 0.67779,3.99824 1.45254,6.17334 1.5831,4.44447 0.50556,6.99808 -2.54447,6.03003 -2.29314,-0.7278 -12.92167,6.43061 -12.2288,8.23622 1.03375,2.6939 -2.78923,5.23028 -5.2961,3.51372 z m 4.06586,-2.22324 c 0.35034,-0.56686 -0.0511,-0.7345 -0.94098,-0.39301 -1.73242,0.66479 -2.04939,1.38156 -0.61096,1.38156 0.51754,0 1.21592,-0.44485 1.55194,-0.98855 z m 9.19019,-17.19895 c -0.31922,-0.79773 -0.55618,-0.56078 -0.60416,0.60417 -0.0434,1.05416 0.19292,1.64479 0.52522,1.3125 0.33229,-0.3323 0.36781,-1.1948 0.0789,-1.91667 z m 25.02131,-14.21063 c -2.47929,-2.29772 -9.43621,-3.94682 -14.12041,-3.34715 -1.5395,0.19709 -2.27368,-0.93367 -3.73641,-5.75472 -1.00124,-3.29999 -1.8211,-6.45 -1.82191,-7 -0.002,-1.10515 10.9606,-8.84704 11.60899,-8.19865 0.22328,0.22329 -1.40317,1.60321 -3.61435,3.0665 -2.21118,1.46329 -4.02033,3.09811 -4.02033,3.63292 0,2.41382 16.47869,6.79892 18.45,4.90968 1.43698,-1.37715 2.55,-1.09407 2.55,0.64857 0,0.85746 0.48068,1.26194 1.06817,0.89885 0.5875,-0.36309 0.84057,-1.25329 0.56239,-1.97822 -0.31741,-0.82715 1.20339,-2.12145 4.08335,-3.47519 l 4.58913,-2.15715 -8.40152,-3.07848 c -4.62084,-1.69316 -9.60075,-3.12131 -11.06648,-3.17365 -1.98068,-0.0707 -2.40456,-0.40894 -1.65082,-1.31715 0.79238,-0.95476 1.8125,-0.87957 4.66497,0.34386 6.67409,2.86252 10.60444,4.08677 15.40081,4.79715 3.52358,0.52187 4.74605,1.13953 4.73469,2.39224 -0.0133,1.46235 -0.15229,1.48765 -1.0371,0.18872 -0.72953,-1.07096 -0.82169,-0.35589 -0.32219,2.5 0.38478,2.2 0.70148,4.5625 0.70377,5.25 0.002,0.6875 0.39955,1.25 0.88281,1.25 0.48326,0 0.61621,-1.6875 0.29545,-3.75 l -0.5832,-3.75 1.39869,3 c 1.7499,3.75328 0.46661,6.93973 -2.48409,6.16811 -2.26191,-0.5915 -10.83883,4.93916 -10.83883,6.98921 0,1.07284 -2.91192,3.34268 -4.28824,3.34268 -0.23084,0 -1.58415,-1.07915 -3.00734,-2.39813 z m -5.79897,-11.45603 c -1.4779,-0.50796 -2.22865,0.5222 -1.38059,1.8944 0.53766,0.86994 0.94308,0.8225 1.56809,-0.18347 0.49513,-0.79693 0.41776,-1.5029 -0.1875,-1.71093 z m -11.31705,-3.89077 c -1.07549,-1.07549 -1.64645,0.43075 -0.89148,2.35181 0.7082,1.80206 0.76169,1.80518 1.11193,0.0649 0.20237,-1.00555 0.10317,-2.09305 -0.22045,-2.41667 z m 7.4116,2.74493 c 0,-0.54999 -0.45,-1 -1,-1 -0.55,0 -1,0.45001 -1,1 0,0.55 0.45,1 1,1 0.55,0 1,-0.45 1,-1 z m 62.63148,-5.70185 c -1.22692,-1.22691 -0.60928,-2.38209 1.11852,-2.09198 0.9625,0.16161 1.6429,-0.25247 1.512,-0.92018 -0.14112,-0.71979 0.39204,-0.97224 1.30965,-0.62012 1.02649,0.3939 1.73423,-0.11955 2.1017,-1.52474 0.30471,-1.16525 0.97258,-1.85995 1.48414,-1.54379 0.51157,0.31617 1.69791,0.0343 2.63631,-0.62645 0.93841,-0.66071 -0.0938,0.44305 -2.2938,2.45281 -4.74309,4.33294 -7.00735,5.73562 -7.86852,4.87445 z M 241.0679,318.1213 c 0,-2.98204 -3.39901,-4.49497 -10.09019,-4.49124 l -6.72805,0.004 -0.57987,-3.50375 c -1.12113,-6.77411 -0.73059,-8.69092 2.14811,-10.54334 1.5125,-0.97328 4.775,-3.44739 7.25,-5.49801 l 4.5,-3.72841 4.59109,2.21633 c 2.5251,1.21899 5.9001,2.23887 7.5,2.2664 3.67237,0.0632 8.46208,1.00311 9.28003,1.82106 0.34416,0.34415 -0.2019,1.23091 -1.21345,1.97058 -1.4397,1.05273 -1.60887,1.74092 -0.77884,3.16824 1.00413,1.72671 1.06777,1.71734 1.20033,-0.17661 0.077,-1.1 0.5352,0.018 1.01827,2.48436 0.75462,3.8529 0.59837,4.76428 -1.10957,6.47222 -1.14857,1.14853 -1.98786,1.47179 -1.98786,0.7656 0,-2.94305 -6.3711,0.87207 -8.44575,5.05745 -1.16138,2.34297 -6.55425,3.75434 -6.55425,1.71532 z m 4.66228,-5.245 c -0.27741,-0.6875 -0.50439,-0.125 -0.50439,1.25 0,1.375 0.22698,1.9375 0.50439,1.25 0.27741,-0.6875 0.27741,-1.8125 0,-2.5 z m -12.44432,-7.93204 c -0.62614,-0.62613 -0.76551,0.0314 -0.39346,1.85622 0.42673,2.09296 0.67819,2.34442 0.96961,0.9696 0.2164,-1.02092 -0.0429,-2.29254 -0.57615,-2.82582 z m 25.46515,1.99454 c -0.31922,-0.79773 -0.55618,-0.56077 -0.60416,0.60417 -0.0434,1.05417 0.19292,1.64479 0.52522,1.3125 0.33229,-0.33229 0.36781,-1.19479 0.0789,-1.91667 z m -21.32148,-1.3125 c -0.31659,-0.825 -0.0775,-1.5 0.53138,-1.5 0.60885,0 1.10699,0.40186 1.10699,0.89302 0,1.83701 3.23324,2.03199 6.8059,0.41044 2.03175,-0.92218 4.13846,-1.7052 4.68157,-1.74007 0.54311,-0.0349 2.19701,-1.41339 3.67533,-3.06339 2.3569,-2.63059 2.48157,-3.08369 1.01253,-3.67971 -0.92143,-0.37384 -3.16691,-0.71134 -4.98995,-0.75 -1.82304,-0.0387 -5.50802,-1.01386 -8.18883,-2.16712 l -4.87422,-2.09683 -5.50535,4.34683 c -6.01846,4.75197 -6.68315,5.84683 -3.54959,5.84683 1.61231,0 1.92766,0.44025 1.43261,2 -0.36414,1.14732 -0.1797,2 0.43261,2 0.58707,0 1.06739,-0.67499 1.06739,-1.5 0,-1.60234 0.91665,-1.85295 3.35507,-0.91724 0.83526,0.32052 1.27391,1.22052 0.9748,2 -0.3275,0.85344 0.083,1.41724 1.03176,1.41724 0.98969,0 1.36155,-0.55779 1,-1.5 z m -37.54208,-1.75 c -0.27341,-1.92513 -1.07861,-2.32629 -5.57682,-2.77844 -3.8791,-0.38992 -5.64858,-0.13713 -6.75,0.96428 -1.32364,1.32365 -1.68692,1.29855 -3.20702,-0.22155 -1.03045,-1.03046 -1.23988,-1.71429 -0.525,-1.71429 0.8014,0 0.98847,-1.06001 0.57358,-3.25 -0.98321,-5.18976 -2.1234,-6.03535 -5.19677,-3.85401 -1.45064,1.0296 -5.11252,3.28649 -8.13752,5.01531 -7.28844,4.16545 -3.05897,0.78165 6.13873,-4.9113 3.99869,-2.475 10.15046,-6.40416 13.67062,-8.73148 7.07805,-4.67959 5.7883,-4.63997 19.96379,-0.6134 4.30078,1.22164 6.11494,2.19415 5.76999,3.0931 -0.27674,0.72116 0.21374,3.10291 1.08994,5.29277 1.29769,3.24324 1.35748,4.26548 0.3224,5.51267 -0.83956,1.01161 -1.60699,1.19482 -2.26184,0.53997 -1.41238,-1.41238 -6.05758,1.20438 -8.68289,4.89129 -2.65645,3.73065 -6.70878,4.16179 -7.19119,0.76508 z m -1.13644,-6.9375 c -0.31922,-0.79773 -0.55618,-0.56077 -0.60416,0.60417 -0.0434,1.05417 0.19292,1.64479 0.52522,1.3125 0.33229,-0.33229 0.36781,-1.19479 0.0789,-1.91667 z m 12.81689,-1.8125 c 0.33992,-0.54999 0.14148,-1 -0.44098,-1 -0.58246,0 -1.05902,0.45001 -1.05902,1 0,0.55 0.19844,1 0.44098,1 0.24254,0 0.7191,-0.45 1.05902,-1 z m -23.81689,-2.1875 c -0.31922,-0.79773 -0.55618,-0.56077 -0.60416,0.60417 -0.0434,1.05417 0.19292,1.64479 0.52522,1.3125 0.33229,-0.33229 0.36781,-1.19479 0.0789,-1.91667 z m 18.76689,-1.00243 c 1.33414,-1.13762 2.79229,-1.01111 2.05708,0.17848 -0.36394,0.58887 0.11759,0.72826 1.19098,0.34477 2.83447,-1.01268 4.33514,-2.47058 3.66281,-3.55843 -0.3394,-0.54917 -0.0872,-1.32601 0.56054,-1.72631 0.98084,-0.6062 -9.4808,-4.26233 -14.92141,-5.21474 -0.825,-0.14442 -4.25153,1.52138 -7.6145,3.70179 l -6.1145,3.96437 7.6145,2.51959 c 7.488,2.47772 10.46702,2.43171 13.5645,-0.20952 z m 68.675,1.48599 c -0.75625,-0.30033 -2.23196,-1.40301 -3.27935,-2.4504 -1.10971,-1.10972 -3.24825,-1.88792 -5.125,-1.86496 -1.77136,0.0217 -3.89565,0.002 -4.72065,-0.0431 -0.825,-0.0454 -2.4,0.19328 -3.5,0.53032 -1.64152,0.50296 -2.31367,-0.15809 -3.75,-3.68807 -0.9625,-2.36548 -1.72452,-4.74615 -1.69339,-5.29037 0.055,-0.96104 10.03112,-8.81894 14.14703,-11.14319 1.61697,-0.91311 3.16685,-0.76706 7.4319,0.70033 4.59858,1.58215 9.72131,2.55383 15.16415,2.87635 0.88875,0.0527 1.019,0.57858 0.41196,1.6633 -0.53231,0.9512 -0.46369,3.17495 0.17141,5.55434 0.85594,3.20681 0.78335,4.1385 -0.37843,4.85652 -0.84338,0.52124 -1.89024,0.51276 -2.53279,-0.0205 -1.51536,-1.25764 -6.82755,2.67078 -8.39255,6.20637 -1.27902,2.8895 -1.58603,3.05356 -3.95429,2.11305 z m 3.875,-3.29606 c 0,-0.54999 -0.45,-1 -1,-1 -0.55,0 -1,0.45001 -1,1 0,0.55 0.45,1 1,1 0.55,0 1,-0.45 1,-1 z m -23.91513,-8.10481 c -0.52695,-1.31735 -0.98662,-1.86949 -1.02148,-1.22697 -0.0847,1.56061 1.08023,4.5215 1.58163,4.0201 0.21887,-0.21887 -0.0332,-1.47578 -0.56015,-2.79313 z m 8.31212,2.27148 c 0.28327,-0.45833 -0.14017,-0.83333 -0.94098,-0.83333 -0.8008,0 -1.45601,0.375 -1.45601,0.83333 0,0.45833 0.42344,0.83333 0.94098,0.83333 0.51754,0 1.17275,-0.375 1.45601,-0.83333 z m 7.60301,-0.66667 c 0,-0.825 -0.675,-1.5 -1.5,-1.5 -0.825,0 -1.5,0.675 -1.5,1.5 0,0.82501 0.675,1.5 1.5,1.5 0.825,0 1.5,-0.67499 1.5,-1.5 z m -4,-0.5 c 0,-0.54999 -0.47656,-1 -1.05902,-1 -0.58246,0 -0.7809,0.45001 -0.44098,1 0.33992,0.55 0.81648,1 1.05902,1 0.24254,0 0.44098,-0.45 0.44098,-1 z m 23,0.55902 c 0,-0.24254 -0.45,-0.7191 -1,-1.05902 -0.55,-0.33991 -1,-0.14147 -1,0.44099 0,0.58246 0.45,1.05901 1,1.05901 0.55,0 1,-0.19844 1,-0.44098 z m -27.27083,-3.16318 c -0.3323,-0.33229 -1.1948,-0.36782 -1.91667,-0.079 -0.79773,0.31922 -0.56078,0.55618 0.60417,0.60416 1.05416,0.0434 1.64479,-0.19292 1.3125,-0.52522 z m 17.27083,-0.39584 c 0.825,-0.53315 1.05,-0.96937 0.5,-0.96937 -0.55,0 -1.675,0.43622 -2.5,0.96937 -0.825,0.53316 -1.05,0.96938 -0.5,0.96938 0.55,0 1.675,-0.43622 2.5,-0.96938 z m -48.45219,3.05284 c -0.93225,-1.03013 -2.80529,-2.15163 -4.1623,-2.49221 -1.35702,-0.34059 -2.23215,-0.99976 -1.94473,-1.46481 0.28742,-0.46505 -1.55021,-0.40346 -4.08362,0.13686 -5.27715,1.12551 -6.3166,0.32223 -6.34185,-4.90089 -0.008,-1.74251 -0.28605,-3.87376 -0.61697,-4.7361 -0.39974,-1.04171 0.18756,-1.89119 1.75,-2.53124 1.29342,-0.52985 4.57701,-2.5054 7.29689,-4.3901 4.12765,-2.86022 5.16625,-3.20572 6.28214,-2.08983 1.40073,1.40072 5.06285,2.22835 11.76553,2.65896 3.29307,0.21156 4.23367,0.76121 5.36663,3.13603 0.75556,1.58373 1.43376,4.28373 1.50711,6 0.10776,2.52143 -0.2396,3.08767 -1.80934,2.94949 -1.06848,-0.0941 -3.04167,0.69345 -4.38486,1.75 -1.34318,1.05655 -3.28147,1.921 -4.3073,1.921 -1.02583,0 -1.86514,0.66088 -1.86514,1.46862 0,0.89459 0.58629,1.24363 1.5,0.89301 2.63205,-1.01001 1.60862,0.53084 -1.37859,2.07559 -2.63596,1.36311 -3.02146,1.33071 -4.5736,-0.38438 z m -11.56787,-6.577 c -0.69572,-0.83829 -1.47088,-1.31823 -1.72258,-1.06653 -0.69349,0.6935 0.71555,2.59069 1.9241,2.59069 0.6631,0 0.58723,-0.57378 -0.20152,-1.52416 z m 10.13051,-3.76539 c -0.59242,-0.59241 -1.42212,-0.708 -1.84378,-0.25687 -0.42167,0.45113 -0.20417,1.02113 0.48333,1.26666 0.6875,0.24554 1.3022,1.19643 1.366,2.1131 0.0948,1.36185 0.20338,1.32718 0.59378,-0.18955 0.26278,-1.02093 -0.007,-2.34093 -0.59933,-2.93334 z m -4.13941,-0.74951 c -1.8867,-1.19318 -2.97104,-1.20569 -2.97104,-0.0343 0,0.95006 3.12451,2.00038 3.97104,1.33488 0.25907,-0.20366 -0.19093,-0.78894 -1,-1.30062 z m 19.83583,-0.4874 c -0.30789,-0.30788 -0.86705,0.24712 -1.24258,1.23334 -0.54268,1.42519 -0.42782,1.54006 0.5598,0.55979 0.68342,-0.67833 0.99067,-1.48524 0.68278,-1.79313 z m -46.80687,6.13345 c 0,-0.21615 0.69837,-0.661 1.55194,-0.98854 0.88992,-0.3415 1.29132,-0.17385 0.94098,0.39301 -0.58726,0.9502 -2.49292,1.40545 -2.49292,0.59553 z m 92.55764,-1.51373 c -0.30822,-0.4987 0.34022,-0.67122 1.44098,-0.38336 2.33499,0.61061 2.63015,1.2901 0.5604,1.2901 -0.79254,0 -1.69316,-0.40803 -2.00138,-0.90674 z m -88.55764,-0.52289 c 0,-0.275 0.9,-0.98166 2,-1.57037 1.1,-0.5887 2,-0.84536 2,-0.57036 0,0.275 -0.9,0.98166 -2,1.57036 -1.1,0.58871 -2,0.84537 -2,0.57037 z m 56.75,-6.23265 c 0.6875,-0.27741 1.8125,-0.27741 2.5,0 0.6875,0.27742 0.125,0.50439 -1.25,0.50439 -1.375,0 -1.9375,-0.22697 -1.25,-0.50439 z"
       style="fill:#000000" />
    <g
       transform="translate(-450.19534,72.97259)"
       id="g3474">
      <path
         inkscape:connector-curvature="0"
         id="path3502"
         d="m 605.27139,243.38392 -6.37261,-1.77514 3.37261,-2.14804 c 1.85493,-1.18142 5.07353,-3.29848 7.15245,-4.70457 l 3.77986,-2.55652 6.72014,1.96505 c 3.69608,1.08078 7.84515,2.1405 9.22015,2.35493 l 2.5,0.38988 -2.99557,1.24714 c -1.64756,0.68592 -4.49174,2.38833 -6.32041,3.78312 -4.26563,3.25355 -9.09358,3.66232 -17.05662,1.44415 z"
         style="fill:#f9f028" />
      <path
         inkscape:transform-center-y="2.0299821"
         inkscape:transform-center-x="0.88036011"
         sodipodi:nodetypes="csscssscc"
         inkscape:connector-curvature="0"
         id="path3498"
         d="m 681.98777,223.34359 c -2.03416,1.68758 -6.7975,5.24242 -6.45965,6.01982 0.14202,0.32688 5.07246,1.61005 9.08349,2.79303 l 8.6453,2.4344 5.42228,-2.36173 c 3.40991,-1.4852 5.98127,-4.91341 7.08443,-6.26368 1.62453,-1.98844 -0.86892,-2.46576 -3.48829,-2.62323 -5.54124,-0.33315 -12.80198,-5.17678 -14.42383,-4.7302 -2.54824,2.15319 -4.06151,3.24676 -5.86373,4.73159 z"
         style="fill:#f5932f" />
      <path
         inkscape:connector-curvature="0"
         id="path3494"
         d="m 646.18281,255.23174 c -3.00389,-1.08016 -5.54324,-1.96393 -5.64301,-1.96393 -0.0998,0 -0.43072,-0.64971 -0.73544,-1.44379 -0.37404,-0.97474 1.51939,-2.75329 5.82802,-5.47444 l 6.38205,-4.03063 5.6325,2.57864 c 3.09787,1.41826 7.41911,2.81828 9.60275,3.11117 2.18364,0.29289 3.81084,1.01075 3.61601,1.59525 -0.60157,1.80471 -13.04854,7.65275 -16.22127,7.62135 -1.65,-0.0163 -5.45773,-0.91346 -8.46161,-1.99362 z"
         style="fill:#03ade7" />
      <path
         inkscape:connector-curvature="0"
         id="path3492"
         d="m 642.69257,219.42472 c -6.71061,-2.11113 -7.66328,-2.66975 -6.10495,-3.57982 1.01556,-0.59309 3.85236,-2.57311 6.30401,-4.40005 l 4.45754,-3.3217 8.87619,2.72281 8.87618,2.72282 -2.22877,1.94431 c -2.39381,2.08828 -6.33576,4.30413 -9.97199,5.60546 -1.52514,0.54582 -4.83465,-0.003 -10.20821,-1.69383 z"
         style="fill:#e9148b" />
      <path
         inkscape:connector-curvature="0"
         id="path3488"
         d="m 718.72682,208.6667 c -8.35035,-0.96832 -11.59879,-1.72984 -11.53487,-2.70408 0.0988,-1.50593 9.52664,-8.23095 11.53902,-8.23095 1.15233,0 4.30418,0.67013 7.00409,1.48918 2.69991,0.81905 6.63393,1.49405 8.74226,1.5 4.44451,0.0126 4.49495,1.39281 0.14034,3.83982 -1.63552,0.91905 -3.19867,1.94114 -3.47367,2.2713 -0.61745,0.74131 -4.75109,2.94858 -5.18426,2.76828 -0.17366,-0.0723 -3.42847,-0.49238 -7.23291,-0.93355 z"
         style="fill:#8f2b8e" />
      <path
         inkscape:connector-curvature="0"
         id="path3486"
         d="m 610.03936,287.27523 c -2.75,-0.71839 -6.35,-1.8508 -8,-2.51649 l -3,-1.21032 6.41672,-5.93613 c 3.5292,-3.26487 6.9042,-5.72512 7.5,-5.46722 0.5958,0.25791 4.23328,1.43191 8.08328,2.60889 9.30657,2.84512 12.50822,4.09109 12.46004,4.84903 -0.0734,1.15444 -12.93553,8.17589 -15.71707,8.57995 -1.50863,0.21916 -4.99297,-0.18931 -7.74297,-0.90771 z"
         style="fill:#e40f10" />
      <path
         inkscape:connector-curvature="0"
         id="path3484"
         d="m 679.14399,199.14837 c -1.375,-0.76297 -4.075,-1.40074 -6,-1.41727 -3.36621,-0.0289 -6.94788,-1.42381 -5.97104,-2.32546 0.25907,-0.23913 2.82325,-1.87087 5.69817,-3.62608 l 5.22714,-3.19129 7.27286,1.66829 c 9.74046,2.23433 9.98506,2.32276 9.33494,3.37469 -1.05643,1.70934 -9.8982,7.10084 -11.48351,7.00238 -0.86821,-0.0539 -2.70356,-0.7223 -4.07856,-1.48526 z"
         style="fill:#0912e1" />
      <path
         inkscape:connector-curvature="0"
         id="path3482"
         d="m 566.73269,272.47395 c -11.7196,-2.01217 -11.7852,-2.15842 -3.63523,-8.10484 3.89896,-2.84477 7.54397,-5.17232 8.10003,-5.17232 1.92505,0 16.9465,6.14871 16.9465,6.93669 0,1.23093 -7.342,6.01886 -10.58704,6.90412 -1.72503,0.4706 -6.13926,0.24073 -10.82426,-0.56365 z"
         style="fill:#04ee04" />
    </g>
  </g>
</svg>
