<?xml version="1.0" encoding="UTF-8" standalone="no"?>
<!-- Created with Inkscape (http://www.inkscape.org/) -->

<svg
   xmlns:dc="http://purl.org/dc/elements/1.1/"
   xmlns:cc="http://creativecommons.org/ns#"
   xmlns:rdf="http://www.w3.org/1999/02/22-rdf-syntax-ns#"
   xmlns:svg="http://www.w3.org/2000/svg"
   xmlns="http://www.w3.org/2000/svg"
   xmlns:sodipodi="http://sodipodi.sourceforge.net/DTD/sodipodi-0.dtd"
   xmlns:inkscape="http://www.inkscape.org/namespaces/inkscape"
   width="293.86487mm"
   height="123.75458mm"
   viewBox="0 0 1041.2535 438.50047"
   id="svg2"
   version="1.1"
   inkscape:version="0.91 r13725"
   sodipodi:docname="principes-interaction.svg"
   inkscape:export-filename="/Users/julienlafosse/Desktop/principe2.png"
   inkscape:export-xdpi="300"
   inkscape:export-ydpi="300">
  <defs
     id="defs4" />
  <sodipodi:namedview
     id="base"
     pagecolor="#ffffff"
     bordercolor="#666666"
     borderopacity="1.0"
     inkscape:pageopacity="0.0"
     inkscape:pageshadow="2"
     inkscape:zoom="0.765896"
     inkscape:cx="533.46481"
     inkscape:cy="231.78052"
     inkscape:document-units="px"
     inkscape:current-layer="g3737"
     showgrid="false"
     fit-margin-top="0"
     fit-margin-left="0"
     fit-margin-right="0"
     fit-margin-bottom="0"
     inkscape:window-width="1280"
     inkscape:window-height="980"
     inkscape:window-x="10"
     inkscape:window-y="0"
     inkscape:window-maximized="0"
     units="mm" />
  <metadata
     id="metadata7">
    <rdf:RDF>
      <cc:Work
         rdf:about="">
        <dc:format>image/svg+xml</dc:format>
        <dc:type
           rdf:resource="http://purl.org/dc/dcmitype/StillImage" />
        <dc:title></dc:title>
      </cc:Work>
    </rdf:RDF>
  </metadata>
  <g
     inkscape:label="Calque 1"
     inkscape:groupmode="layer"
     id="layer1"
     transform="translate(-127.87587,273.26214)">
    <g
       id="g3737"
       transform="matrix(6.839459,0,0,6.839459,-759.80869,-1900.3211)">
      <g
         transform="translate(-1.6049236,0.40123104)"
         id="g3463">
        <path
           inkscape:connector-curvature="0"
           id="path3481"
           d="m 155.04796,301.22563 c -0.64088,-0.33154 -0.97046,-0.93285 -0.40866,-0.74558 0.12375,0.0412 0.18786,0.18642 0.14246,0.32261 -0.0454,0.13618 0.20777,0.15547 0.56257,0.0429 0.35481,-0.11261 0.5735,-0.089 0.48599,0.0524 -0.0875,0.14143 1.54933,0.21283 3.63743,0.15868 2.12745,-0.0552 4.12628,0.0354 4.54655,0.20599 0.55801,0.22651 -0.40191,0.30817 -3.75,0.31903 -3.01136,0.01 -4.73697,-0.108 -5.21634,-0.35598 z m 14.89134,-0.093 c -0.12375,-0.12519 -0.225,-0.82914 -0.225,-1.56434 0,-1.02981 -0.0893,-1.27664 -0.38914,-1.075 -0.21403,0.14395 -0.14013,0.0324 0.16422,-0.24787 0.52685,-0.48519 0.47004,-0.51482 -1.18586,-0.61828 l -1.73922,-0.10867 1.73441,-0.0567 c 1.2325,-0.0403 1.78004,0.0621 1.89204,0.35404 0.23473,0.61169 0.01,3.58096 -0.25145,3.31685 z m -17.44233,-1.93096 c -1.22261,-1.35328 -1.24315,-1.39665 -0.66127,-1.39665 0.25099,0 0.35169,0.18165 0.24902,0.44921 -0.10012,0.2609 -0.0445,0.37018 0.13269,0.26067 0.16779,-0.1037 0.6743,0.19684 1.12558,0.66788 0.45128,0.47103 0.68914,0.93761 0.52857,1.03685 -0.16056,0.0992 -0.77913,-0.35885 -1.37459,-1.01796 z m 110.66733,-1.19665 c 0.97967,-0.99 1.84872,-1.8 1.93122,-1.8 0.0825,0 -0.65155,0.81 -1.63122,1.8 -0.97967,0.99 -1.84872,1.8 -1.93122,1.8 -0.0825,0 0.65155,-0.81 1.63122,-1.8 z m -111.93148,-1.54136 c -0.0189,-0.50357 0.0917,-0.76411 0.27598,-0.65023 0.19389,0.11983 0.22737,-0.0187 0.0906,-0.37505 -0.11926,-0.31079 -0.11023,-0.45846 0.0201,-0.32816 0.34481,0.34481 0.29827,2.19477 -0.0552,2.19418 -0.165,-2.7e-4 -0.31417,-0.37861 -0.33148,-0.84074 z m 92.51185,-3.17606 c 0.53921,-0.0668 1.34921,-0.0654 1.8,0.003 0.4508,0.0685 0.01,0.12308 -0.98037,0.1214 -0.99,-0.002 -1.35883,-0.0577 -0.81963,-0.12446 z m -100.32555,-2.78258 c 0,-1.4025 0.0517,-1.97625 0.11484,-1.275 0.0632,0.70125 0.0632,1.84875 0,2.55 -0.0632,0.70125 -0.11484,0.1275 -0.11484,-1.275 z m 35.11654,2.05367 c -0.29123,-0.47123 -0.41595,-1.75477 -0.16994,-1.74908 0.10922,0.002 0.3973,0.13027 0.64017,0.28387 0.37895,0.23965 0.36909,0.30708 -0.0695,0.47539 -0.39848,0.15291 -0.44388,0.32173 -0.20604,0.76614 0.32703,0.61105 0.16195,0.80072 -0.19469,0.22368 z M 196.262,291.9755 c -0.13414,-0.23125 -0.13683,-0.32378 -0.006,-0.20562 0.13085,0.11815 0.50539,-0.12521 0.83229,-0.5408 0.32691,-0.4156 0.66928,-0.68072 0.76083,-0.58917 0.0915,0.0915 0.44741,-0.0691 0.7908,-0.35706 0.47419,-0.39761 0.45243,-0.32881 -0.0905,0.28607 -0.39315,0.44527 -0.82237,0.78181 -0.95382,0.74785 -0.13145,-0.0339 -0.43043,0.19498 -0.66438,0.50873 -0.34798,0.46664 -0.46977,0.49393 -0.66928,0.15 z m 77.78267,-4.68787 c 0.53921,-0.0668 1.34921,-0.0654 1.8,0.003 0.4508,0.0685 0.01,0.12308 -0.98037,0.1214 -0.99,-0.002 -1.35883,-0.0577 -0.81963,-0.12446 z m -67.97994,-1.8278 c -0.0463,-1.18865 -0.10597,-1.28003 -0.72543,-1.11067 -0.60929,0.16657 -0.62107,0.15091 -0.12109,-0.16087 0.79052,-0.49296 1.15985,0.0163 1.01699,1.40223 l -0.12004,1.16453 -0.0504,-1.29522 z m 11.17395,-0.0962 c -0.13203,-0.21363 -0.0873,-0.27105 0.11411,-0.14656 0.20977,0.12965 0.40075,-0.21081 0.52092,-0.92864 0.29507,-1.76262 0.38847,-1.84176 0.4524,-0.38334 0.0526,1.20077 0.0808,1.25052 0.25505,0.45 0.10772,-0.495 0.27736,-0.765 0.37696,-0.6 0.22777,0.3773 -0.16273,1.49844 -0.52405,1.50459 -0.14838,0.002 -0.42919,0.10598 -0.62404,0.2299 -0.19485,0.12391 -0.45196,0.0672 -0.57135,-0.12595 z m 5.02827,-0.6982 c 0.11145,-0.17487 0.24722,-0.85623 0.3017,-1.51414 l 0.0991,-1.1962 0.17519,1.00118 c 0.12143,0.694 0.0289,1.15857 -0.3017,1.51414 -0.26229,0.28213 -0.3857,0.36989 -0.27424,0.19502 z m 9.64821,-4.36034 c 0,-1.2375 0.053,-1.74375 0.11768,-1.125 0.0647,0.61875 0.0647,1.63125 0,2.25 -0.0647,0.61875 -0.11768,0.1125 -0.11768,-1.125 z m -87.39174,1.61173 c -0.019,-0.70504 0.86514,-1.04318 2.44153,-0.93375 l 1.59935,0.11103 -1.71009,0.0555 c -1.27198,0.0413 -1.78844,0.18999 -2.01588,0.58049 -0.16818,0.28875 -0.30989,0.37278 -0.31491,0.18673 z m 60.69122,-2.88429 -0.0148,-2.77744 0.19075,2.25 c 0.13935,1.64385 0.23843,2.00754 0.36777,1.35 0.13837,-0.7034 0.15806,-0.64631 0.0901,0.26132 -0.17874,2.38899 -0.61943,1.63546 -0.63389,-1.08388 z m 13.52193,2.35849 c -0.0905,-0.23585 -0.10914,-0.88041 -0.0414,-1.43237 0.11171,-0.91053 0.12758,-0.88606 0.17114,0.26394 0.0478,1.26131 0.0528,1.26659 1.02301,1.08191 1.15969,-0.22075 1.03551,0.0297 -0.15659,0.31576 -0.58545,0.1405 -0.88029,0.0727 -0.99614,-0.22924 z m -1.12227,-0.68593 c -0.33917,-0.33917 -0.22063,-2.75184 0.14635,-2.97865 0.21459,-0.13262 0.26492,-0.0823 0.1323,0.1323 -0.11774,0.19049 -0.0711,0.34635 0.10364,0.34635 0.17474,0 0.31771,0.14297 0.31771,0.31771 0,0.17473 -0.15556,0.22156 -0.34569,0.10405 -0.25095,-0.1551 -0.29109,0.1278 -0.14645,1.0323 0.19954,1.24786 0.16547,1.41927 -0.20786,1.04594 z m -0.8,-3.68229 c 0,-0.33974 -0.135,-0.61771 -0.3,-0.61771 -0.165,0 -0.3,-0.15153 -0.3,-0.33673 0,-0.2421 0.11896,-0.238 0.42329,0.0146 0.28937,0.24015 0.4848,0.25177 0.61771,0.0367 0.10692,-0.17301 0.35519,-0.30391 0.55171,-0.29088 0.25762,0.0171 0.25268,0.0659 -0.0177,0.175 -0.20625,0.0832 -0.375,0.4021 -0.375,0.70861 0,0.30651 -0.135,0.64073 -0.3,0.7427 -0.165,0.10198 -0.3,-0.0926 -0.3,-0.43229 z m -61.98179,-0.44237 c -0.0896,-0.23356 -0.10561,-0.80731 -0.0355,-1.275 0.10386,-0.69313 0.13573,-0.63588 0.17237,0.30965 0.0389,1.00309 0.12616,1.13875 0.64536,1.00298 0.33023,-0.0864 0.52476,-0.0346 0.4323,0.11501 -0.2591,0.41922 -1.03235,0.32204 -1.2145,-0.15264 z m 50.36879,-2.39227 0.063,-1.76693 1.05,-0.0919 c 0.9157,-0.0802 0.96012,-0.0556 0.34729,0.19251 -0.38649,0.15645 -0.82563,0.20848 -0.97588,0.11562 -0.15199,-0.0939 -0.23178,0.35452 -0.17986,1.0109 0.0513,0.64885 -0.0104,1.43331 -0.13712,1.74325 -0.13726,0.33567 -0.20496,-0.15091 -0.16743,-1.20341 z m 10.64337,-2.50049 c 0.53921,-0.0668 1.34921,-0.0654 1.8,0.003 0.4508,0.0684 0.01,0.12308 -0.98037,0.1214 -0.99,-0.002 -1.35883,-0.0577 -0.81963,-0.12446 z m 4.8,-0.3 c 0.53921,-0.0668 1.34921,-0.0654 1.8,0.003 0.4508,0.0685 0.01,0.12308 -0.98037,0.1214 -0.99,-0.002 -1.35883,-0.0577 -0.81963,-0.12446 z m 24.36393,-3.83945 c -0.32053,-0.38621 -0.2954,-0.42472 0.16248,-0.24901 0.3923,0.15053 0.47674,0.10282 0.30623,-0.17307 -0.18833,-0.30472 -0.10006,-0.30847 0.44132,-0.0187 0.53713,0.28747 0.59101,0.41646 0.2612,0.62534 -0.576,0.36478 -0.73631,0.33953 -1.17123,-0.18452 z m 10.03104,-4.42648 c 0.0301,-0.74766 0.17244,-0.9655 0.63101,-0.966 0.32566,-3.6e-4 0.59245,-0.16265 0.59287,-0.36065 3e-4,-0.198 0.16953,-0.50175 0.37578,-0.675 0.26978,-0.22662 0.2974,-0.22057 0.0984,0.0216 -0.1521,0.1851 -0.21282,0.50263 -0.13493,0.70562 0.0779,0.20299 -0.20696,0.59747 -0.633,0.87662 -0.42605,0.27916 -0.70063,0.6273 -0.61018,0.77365 0.0905,0.14635 0.0467,0.33887 -0.0972,0.42782 -0.14393,0.089 -0.24417,-0.27268 -0.22276,-0.80362 z m 20.66752,0.47581 c 0.10206,-0.16514 0.0743,-1.00412 -0.0617,-1.8644 -0.13599,-0.86029 -0.14864,-1.45479 -0.0281,-1.32111 0.40787,0.45232 0.60096,3.05515 0.24306,3.27635 -0.18867,0.1166 -0.25659,0.0763 -0.15327,-0.0908 z m -6.29442,-3.54246 c 0.001,-1.155 0.0556,-1.59074 0.1205,-0.96831 0.0649,0.62243 0.0639,1.56743 -0.002,2.1 -0.0663,0.53257 -0.11943,0.0233 -0.1181,-1.13169 z m 0.60971,-0.75 c 0,-1.5675 0.0506,-2.20875 0.11236,-1.425 0.0618,0.78375 0.0618,2.06625 0,2.85 -0.0618,0.78375 -0.11236,0.1425 -0.11236,-1.425 z m -78.84419,-0.975 c -0.35456,-1.13437 -0.44624,-2.60054 -0.17316,-2.76931 0.19644,-0.12141 0.3092,0.35324 0.3092,1.3016 0,0.91347 0.14552,1.55143 0.375,1.64403 0.29372,0.11851 0.29168,0.15645 -0.009,0.175 -0.21143,0.013 -0.43716,-0.14507 -0.50163,-0.35132 z m 66.97724,-2.85 c -0.10419,-2.28091 0.0962,-3.07956 0.77053,-3.07041 0.18605,0.003 0.14,0.12999 -0.10233,0.28325 -0.34142,0.21593 -0.41999,0.82268 -0.34903,2.69541 0.0504,1.32921 0.0231,2.41675 -0.0607,2.41675 -0.0837,0 -0.20006,-1.04625 -0.25847,-2.325 z m 11.25176,0.675 c 0.002,-0.99 0.0577,-1.35883 0.12446,-0.81963 0.0668,0.53921 0.0654,1.34921 -0.003,1.8 -0.0685,0.4508 -0.12308,0.01 -0.1214,-0.98037 z"
           style="fill:#a0a0a0" />
        <path
           inkscape:connector-curvature="0"
           id="path3479"
           d="m 263.24935,289.08005 c -0.56061,-0.64269 -1.13505,-1.72755 -1.13505,-2.14359 0,-0.16942 0.29545,-0.5833 0.65657,-0.91972 1.20789,-1.12533 4.14343,-0.52368 4.14343,0.84919 0,0.56547 -1.23512,1.85266 -2.30528,2.40246 -0.83667,0.42985 -0.81821,0.43241 -1.35967,-0.18834 z m -90.98505,-4.00823 c -0.33,-0.19539 -0.64313,-0.38973 -0.69584,-0.43185 -0.0527,-0.0421 0.0684,-0.91141 0.26915,-1.93175 0.279,-1.41812 0.5136,-1.91043 0.99583,-2.08975 1.01845,-0.3787 1.38015,-0.0421 1.39029,1.29368 0.007,0.96587 0.17265,1.36166 0.74175,1.77568 1.36062,0.98989 3.19731,-0.069 2.14212,-1.23493 -0.60429,-0.66773 -0.76301,-1.88923 -0.2683,-2.06478 0.21823,-0.0774 0.375,0.11431 0.375,0.45869 0,0.93795 0.95797,1.86319 2.1,2.02824 1.28242,0.18534 2.13309,-0.25691 1.57249,-0.81751 -0.20487,-0.20487 -0.37249,-0.75049 -0.37249,-1.21249 0,-0.72221 0.11911,-0.84 0.84937,-0.84 0.71143,0 1.10061,0.35211 2.39645,2.16815 l 1.54708,2.16816 -2.17145,0.37899 c -1.1943,0.20845 -2.71145,0.36322 -3.37145,0.34394 -0.66,-0.0193 -2.4825,0.0544 -4.05,0.16386 -1.98382,0.13846 -3.03236,0.0909 -3.45,-0.15633 z"
           style="fill:#f59028;fill-opacity:1" />
        <path
           inkscape:connector-curvature="0"
           id="path3477"
           d="m 138.75426,286.38005 c 0.14073,-0.74065 0.1058,-0.7829 -0.3416,-0.41327 -0.42758,0.35326 -0.49836,0.34505 -0.49836,-0.0578 0,-0.31794 0.2068,-0.42968 0.64059,-0.34614 0.86015,0.16565 0.94796,0.29058 0.71659,1.01957 -0.2912,0.91747 -0.69963,0.75764 -0.51722,-0.20239 z m 3.48139,-14.72865 c 0.11773,-0.19049 0.0928,-0.34635 -0.0555,-0.34635 -0.46868,0 -0.99142,-1.44879 -0.60819,-1.68564 0.19682,-0.12164 0.25143,-0.0718 0.13237,0.12085 -0.11146,0.18035 0.0364,0.4671 0.32865,0.63723 0.29222,0.17012 0.41353,0.31342 0.26958,0.31844 -0.14396,0.005 -0.10365,0.1996 0.0896,0.43241 0.269,0.32413 0.26675,0.47555 -0.01,0.64635 -0.22882,0.14142 -0.28257,0.0963 -0.14687,-0.12329 z m -8.01467,-1.25409 c -0.10917,-0.40824 -0.18455,-1.28226 -0.16751,-1.94226 0.0292,-1.13064 0.0466,-1.10564 0.30172,0.43255 0.28804,1.73687 0.19784,2.7515 -0.13421,1.50971 z M 171.2143,258.9218 c 0,-0.28421 0.14092,-0.51675 0.31315,-0.51675 0.17223,0 0.29124,-0.16875 0.26445,-0.375 -0.0991,-0.7633 0.0333,-1.32527 0.44504,-1.88831 0.37939,-0.51885 0.3997,-0.45258 0.1985,0.6477 -0.24693,1.35035 -1.22114,3.05153 -1.22114,2.13236 z"
           style="fill:#8677d0" />
        <path
           inkscape:connector-curvature="0"
           id="path3475"
           d="m 138.2143,282.85505 c 0,-1.367 0.43263,-1.36691 0.50752,1.1e-4 0.0316,0.57744 -0.0696,1.04989 -0.225,1.04989 -0.15539,0 -0.28252,-0.4725 -0.28252,-1.05 z m -2.89914,-2.25 c 0,-1.2375 0.053,-1.74375 0.11768,-1.125 0.0647,0.61875 0.0647,1.63125 0,2.25 -0.0647,0.61875 -0.11768,0.1125 -0.11768,-1.125 z m 42.90512,-3.225 c 0.4574,-1.64014 0.55939,-1.875 0.81424,-1.875 0.33472,0 0.37252,0.70726 0.0548,1.025 -0.12375,0.12375 -0.24188,0.34875 -0.2625,0.5 -0.0206,0.15125 -0.0544,0.41 -0.075,0.575 -0.0206,0.165 -0.1816,0.3 -0.35772,0.3 -0.17612,0 -0.25433,-0.23625 -0.1738,-0.525 z m -40.50996,-2.475 c 0,-1.0725 0.0545,-1.51125 0.121,-0.975 0.0666,0.53625 0.0666,1.41375 0,1.95 -0.0666,0.53625 -0.121,0.0975 -0.121,-0.975 z m 4.85139,-2.70419 c -0.10055,-0.16269 0.0442,-0.29581 0.32162,-0.29581 0.34784,0 0.42319,-0.1208 0.2427,-0.38914 -0.14395,-0.21402 -0.0352,-0.14363 0.24156,0.15643 0.48522,0.52597 0.5082,0.52362 0.63992,-0.0655 0.12425,-0.55571 0.13301,-0.55208 0.0967,0.0401 -0.0422,0.68922 -1.20157,1.10548 -1.54251,0.55383 z m -11.14655,-5.09581 c 0,-1.2375 0.053,-1.74375 0.11768,-1.125 0.0647,0.61875 0.0647,1.63125 0,2.25 -0.0647,0.61875 -0.11768,0.1125 -0.11768,-1.125 z m 1.19758,0.15 c 0.001,-1.155 0.0556,-1.59074 0.1205,-0.96831 0.0649,0.62243 0.0639,1.56743 -0.002,2.1 -0.0663,0.53257 -0.1194,0.0233 -0.11807,-1.13169 z m 39.84095,-1.35 c -0.0166,-0.5775 0.11157,-1.2525 0.28486,-1.5 0.24663,-0.35227 0.27382,-0.3034 0.12519,0.225 -0.12761,0.45363 -0.0603,0.67651 0.20534,0.67959 0.27743,0.003 0.2938,0.0703 0.0549,0.225 -0.18716,0.12123 -0.40775,0.49041 -0.4902,0.82041 -0.0922,0.36921 -0.16152,0.19612 -0.18011,-0.45 z m -31.38854,-2.09732 c -0.10427,-0.32852 -0.11428,-0.71914 -0.0222,-0.86805 0.092,-0.14891 -0.0357,-0.84618 -0.28384,-1.54948 -0.45632,-1.29334 -0.42488,-1.69368 0.10717,-1.36486 0.16052,0.0992 0.38177,0.88898 0.49166,1.75505 0.1099,0.86606 0.26664,1.81091 0.34833,2.09966 0.20692,0.73146 -0.40798,0.66209 -0.64107,-0.0723 z"
           style="fill:#6b5bc7" />
        <path
           inkscape:connector-curvature="0"
           id="path3473"
           d="m 153.58957,299.94988 c -1.40795,-1.20516 -2.59668,-2.96809 -2.37377,-3.52039 0.11902,-0.29487 0.15616,-0.29349 0.17482,0.007 0.0486,0.78233 1.57501,2.80246 2.77344,3.6706 0.68214,0.49414 1.10931,0.89844 0.94925,0.89844 -0.16005,0 -0.84574,-0.47482 -1.52374,-1.05516 z m 13.12472,0.24431 c -1e-5,-0.13153 0.48843,-0.64923 1.08542,-1.15045 l 1.08543,-0.9113 -1.23542,0.11781 c -0.75951,0.0724 -1.23542,-0.007 -1.23542,-0.2072 0,-0.19391 0.54456,-0.30132 1.35,-0.26626 0.75781,0.033 1.35,0.2055 1.35,0.3933 0,0.18399 -0.54,0.7685 -1.2,1.29889 -0.66,0.53039 -1.20001,0.85673 -1.20001,0.72521 z m 15.49796,-3.76414 c 0.18712,-0.30628 4.05459,-0.27762 4.54548,0.0337 0.22528,0.14287 -0.69134,0.23706 -2.14476,0.2204 -1.39601,-0.016 -2.47633,-0.13034 -2.40072,-0.25409 z m -10.03795,-3.585 c -0.198,-0.198 -0.35793,-0.97425 -0.35541,-1.725 0.003,-1.01173 0.0823,-1.24854 0.30495,-0.915 0.16519,0.2475 0.27098,0.9225 0.23509,1.5 -0.0447,0.71922 0.0553,1.02403 0.31736,0.96757 0.21043,-0.0453 0.2971,0.0559 0.1926,0.225 -0.23844,0.38581 -0.25766,0.38436 -0.69459,-0.0526 z m 25.0093,-1.17123 c 0.0947,-0.15321 0.27717,-0.21365 0.40552,-0.13433 0.29717,0.18366 1.89498,-1.46464 1.65368,-1.70593 -0.0989,-0.099 0.10545,-0.33261 0.45421,-0.51926 0.34875,-0.18664 0.5643,-0.45228 0.479,-0.59031 -0.0853,-0.13803 0.0351,-0.40879 0.26751,-0.60169 0.33725,-0.2799 0.4074,-0.24712 0.34731,0.16225 -0.0414,0.28215 -0.36233,0.74542 -0.71315,1.0295 -0.35083,0.28409 -0.57751,0.57687 -0.50375,0.65063 0.20449,0.20449 -1.60073,1.84654 -2.11264,1.92167 -0.24742,0.0363 -0.37238,-0.0593 -0.27769,-0.21253 z m 46.1807,0.0312 c 0.10198,-0.165 0.58244,-0.3 1.06771,-0.3 0.48526,0 0.88229,0.135 0.88229,0.3 0,0.165 -0.48047,0.3 -1.06771,0.3 -0.63541,0 -0.99263,-0.12146 -0.88229,-0.3 z m -95.85,-0.32116 c -0.59712,-0.11365 0.69683,-0.21491 3,-0.23476 2.53743,-0.0219 3.88876,0.0671 3.61828,0.23827 -0.48424,0.3064 -5.0027,0.30401 -6.61828,-0.004 z m 98.55,0.0212 c -0.10198,-0.165 -0.009,-0.30184 0.20729,-0.3041 0.21599,-0.002 0.69646,-0.0855 1.06771,-0.18499 0.43079,-0.11544 0.675,-0.0481 0.675,0.1862 0,0.20189 -0.19818,0.29104 -0.44039,0.19809 -0.24222,-0.093 -0.52019,-0.0399 -0.61771,0.1179 -0.23035,0.37271 -0.65733,0.36644 -0.8919,-0.0131 z m -66.90125,-0.59798 c 0.0718,-0.11621 -0.28362,-0.22308 -0.78989,-0.23747 -0.50626,-0.0144 -0.99662,-0.10231 -1.08967,-0.19536 -0.25161,-0.2516 2.08689,-0.16372 2.77242,0.10419 0.53284,0.20824 0.51139,0.24654 -0.21592,0.38558 -0.44414,0.0849 -0.74877,0.0593 -0.67694,-0.0569 z m 36.75125,-1.20202 c -0.89995,-0.18943 -0.78206,-0.22666 0.825,-0.26051 1.07633,-0.0227 1.875,0.0883 1.875,0.26051 0,0.33456 -1.11056,0.33456 -2.7,0 z m 7.35,-0.016 -1.2,-0.1989 1.38313,-0.0426 c 0.76072,-0.0234 2.04322,-0.11354 2.85,-0.20029 0.97605,-0.10495 1.26611,-0.0697 0.86687,0.10522 -0.93949,0.41173 -2.58807,0.55399 -3.9,0.33654 z m 41.70145,-0.28169 c -0.14809,-0.23962 -0.12666,-0.32244 0.0545,-0.21048 0.16425,0.10151 0.59415,-0.21513 0.95533,-0.70365 0.36118,-0.48852 0.8214,-0.88615 1.02271,-0.88363 0.26164,0.003 0.25177,0.077 -0.0346,0.25855 -0.22035,0.13967 -0.3891,0.3401 -0.375,0.4454 0.0141,0.1053 -0.0492,0.18554 -0.14063,0.1783 -0.0914,-0.007 -0.40743,0.28467 -0.7022,0.6487 -0.414,0.51127 -0.5915,0.57198 -0.7801,0.26681 z m -59.06935,-1.67689 c -0.10016,-0.26099 -0.1821,-1.00349 -0.1821,-1.65 0,-0.6465 -0.14297,-1.17546 -0.31771,-1.17546 -0.17473,0 -0.22355,-0.15234 -0.10848,-0.33853 0.31346,-0.50719 0.62444,0.22968 0.87086,2.06353 0.20843,1.55116 0.0942,2.03009 -0.26257,1.10046 z m 29.81184,-0.28191 c -0.60539,-0.64441 -1.22213,-2.07175 -0.64643,-1.49604 0.11137,0.11137 0.20249,0.35999 0.20249,0.55249 0,0.1925 0.1575,0.35 0.35,0.35 0.45516,0 0.80107,0.35632 0.88214,0.90868 0.0859,0.58548 0.041,0.56751 -0.7882,-0.31513 z m -91.41894,-0.94298 c -0.37125,-0.0783 -0.675,-0.25624 -0.675,-0.39549 0,-0.13926 0.36402,-0.15584 0.80894,-0.0369 0.44491,0.11899 1.62616,0.0975 2.625,-0.0478 0.99883,-0.14526 2.96356,-0.18754 4.36606,-0.0939 2.50832,0.16741 3.56462,-0.0557 3.18354,-0.67225 -0.10633,-0.17205 -0.0654,-0.39184 0.0908,-0.48843 0.43795,-0.27067 0.58346,0.20928 0.29497,0.97291 -0.25179,0.66653 -0.3644,0.6863 -3.48977,0.61261 -1.77627,-0.0419 -3.97208,0.007 -4.87958,0.10769 -0.9075,0.1011 -1.95375,0.11978 -2.325,0.0415 z m -0.78529,-1.23632 c -0.0801,-0.12966 0.0884,-0.76633 0.37452,-1.41484 0.33743,-0.7648 0.59944,-1.0509 0.7457,-0.81425 0.12568,0.20336 0.077,0.36484 -0.10993,0.36484 -0.18448,0 -0.25198,0.135 -0.15,0.3 0.10198,0.165 0.028,0.3 -0.16439,0.3 -0.19239,0 -0.2721,0.2025 -0.17712,0.45 0.095,0.2475 0.034,0.45 -0.13561,0.45 -0.16956,0 -0.22486,0.135 -0.12288,0.3 0.10198,0.165 0.11791,0.3 0.0354,0.3 -0.0825,0 -0.21556,-0.10609 -0.2957,-0.23575 z m 73.81029,0.0358 c -0.3058,-0.3058 -0.23787,-2.14119 0.0867,-2.34176 0.1692,-0.10458 0.2614,0.37903 0.225,1.1802 -0.0339,0.74656 -0.0729,1.35833 -0.0867,1.35947 -0.0137,10e-4 -0.115,-0.0879 -0.225,-0.19791 z m -14.32531,-1.36226 c 0.72859,-0.77645 1.43954,-1.34075 1.5799,-1.254 0.14036,0.0867 0.17198,0.29237 0.0703,0.45695 -0.10171,0.16458 -0.26416,0.22 -0.36099,0.12317 -0.0968,-0.0968 -0.72457,0.33281 -1.39496,0.95477 -1.20198,1.11514 -1.20051,1.11124 0.10579,-0.28089 z m 7.22531,0.75633 c 0,-0.34133 0.23625,-0.80143 0.525,-1.02245 0.28875,-0.22101 0.42949,-0.28828 0.31276,-0.14949 -0.11674,0.1388 0.0246,0.47185 0.31413,0.74011 0.28952,0.26827 0.33667,0.35786 0.10479,0.19908 -0.30039,-0.20567 -0.54165,-0.1245 -0.83914,0.28234 -0.40618,0.55548 -0.41754,0.55413 -0.41754,-0.0496 z m 11.51012,0.28093 c 0.12774,-0.21263 0.0769,-0.375 -0.11742,-0.375 -0.18848,0 -0.28083,-0.16875 -0.2052,-0.375 0.0756,-0.20625 0.28937,-0.34125 0.475,-0.3 0.27189,0.0604 0.49222,-1.09864 0.38969,-2.05 -0.0104,-0.0962 0.174,-0.175 0.40971,-0.175 0.28495,0 0.33415,0.11378 0.14681,0.33951 -0.15497,0.18672 -0.31587,0.84597 -0.35757,1.46499 -0.0417,0.61902 -0.27616,1.28749 -0.52105,1.48549 -0.35,0.28299 -0.39707,0.27978 -0.21997,-0.015 z m -6.41012,-1.10729 c 0,-1.05597 0.57579,-1.84246 0.6299,-0.86042 0.0212,0.38446 0.1,0.32401 0.2701,-0.20729 0.20297,-0.63379 0.24482,-0.5497 0.2701,0.54271 0.0183,0.79202 -0.0863,1.22089 -0.2701,1.10729 -0.165,-0.10198 -0.3,-0.0424 -0.3,0.13229 0,0.17474 -0.135,0.31771 -0.3,0.31771 -0.165,0 -0.3,-0.46453 -0.3,-1.03229 z m -35.85,-0.97008 c 1.32664,-0.29354 1.43761,-0.38059 1.06211,-0.83304 -0.19551,-0.23557 -0.31196,-0.80292 -0.25879,-1.26078 0.0775,-0.66708 0.28909,-0.8715 1.06514,-1.02891 0.53266,-0.10805 0.89594,-0.0791 0.8073,0.0643 -0.0886,0.14342 -0.4907,0.26077 -0.89347,0.26077 -0.61039,0 -0.73229,0.14687 -0.73229,0.88229 0,0.48527 0.14155,0.96979 0.31457,1.07671 0.53026,0.32772 -0.30775,1.04455 -1.1763,1.0062 -0.60415,-0.0267 -0.64813,-0.0658 -0.18827,-0.16757 z m -1.78299,-0.76438 c -0.25685,-0.36671 -0.46701,-0.87971 -0.46701,-1.14 0,-0.26029 -0.162,-0.63525 -0.36,-0.83325 -0.28,-0.28 -0.24667,-0.36 0.15,-0.36 0.35759,0 0.51,0.24902 0.51,0.83325 0,0.45829 0.21016,1.13329 0.46701,1.5 0.25686,0.36671 0.39951,0.66675 0.31701,0.66675 -0.0825,0 -0.36015,-0.30004 -0.61701,-0.66675 z m 34.81156,0.0205 c 0.0896,-0.14496 0.27723,-0.19289 0.41698,-0.10652 0.13976,0.0864 0.58045,0.033 0.97932,-0.11869 0.42955,-0.16331 0.89847,-0.16606 1.15017,-0.007 0.30968,0.19603 0.18083,0.28062 -0.47504,0.31187 -0.495,0.0236 -1.20022,0.0745 -1.56716,0.11326 -0.36693,0.0387 -0.59386,-0.0482 -0.50427,-0.19318 z m 7.69643,0.0369 c -0.84335,-0.33899 -0.87851,-0.59539 -0.06,-0.43777 0.42013,0.0809 0.69926,-0.0909 0.88099,-0.54223 l 0.26601,-0.66065 0.019,0.675 c 0.0105,0.37125 -0.12395,0.675 -0.29869,0.675 -0.17474,0 -0.23427,0.135 -0.13229,0.3 0.21495,0.3478 0.2135,0.34778 -0.675,-0.009 z m -48.4483,-0.82727 c 0.0969,-0.66044 0.29131,-0.84626 0.92305,-0.88242 0.76612,-0.0439 0.77147,-0.0342 0.12525,0.22694 -0.38909,0.15723 -0.675,0.531 -0.675,0.88243 0,0.33532 -0.11162,0.60967 -0.24804,0.60967 -0.13643,0 -0.19279,-0.37648 -0.12526,-0.83662 z m -26.45782,0.26716 c -0.0852,-0.1378 0.5215,-0.25054 1.34814,-0.25054 0.82664,0 1.43599,0.067 1.35411,0.14886 -0.27127,0.27128 -2.54457,0.35681 -2.70225,0.10168 z m 3.28112,-0.33054 c -0.22842,-0.36959 2.43992,-0.36959 3.3,0 0.42495,0.1826 0.0581,0.26398 -1.25729,0.27891 -1.02152,0.0116 -1.94073,-0.11391 -2.04271,-0.27891 z m 63.09213,-0.225 c -0.77451,-0.90186 -0.918,-1.28528 -0.40771,-1.08947 0.30174,0.11579 0.46558,0.009 0.46558,-0.30343 0,-0.26516 0.15266,-0.4821 0.33925,-0.4821 0.22177,0 0.27876,0.37281 0.16456,1.07651 -0.14239,0.87745 -0.0913,1.04451 0.27633,0.90344 0.2555,-0.0981 0.37157,-0.0445 0.26774,0.12348 -0.26755,0.43291 -0.59609,0.36504 -1.10575,-0.22843 z m 4.56246,-1.7535 c -0.004,-0.83324 1.13834,-2.451 1.2309,-1.743 0.0195,0.14933 0.13855,-0.1335 0.26451,-0.6285 0.21028,-0.82641 0.23113,-0.83867 0.25496,-0.15 0.0327,0.9441 -0.68749,1.93891 -1.18226,1.63313 -0.25892,-0.16003 -0.31989,-0.046 -0.20673,0.38675 0.0883,0.33754 0.0441,0.7974 -0.0982,1.02191 -0.17738,0.27997 -0.26008,0.11652 -0.26323,-0.52029 z m -10.86678,-1.3965 c -0.0635,-1.03125 -0.0166,-2.145 0.10434,-2.475 0.12578,-0.34333 0.22795,0.45876 0.23883,1.875 0.0105,1.36125 -0.0365,2.475 -0.10433,2.475 -0.0678,0 -0.17532,-0.84375 -0.23884,-1.875 z m 21.82835,1.2 c -0.29622,-0.96587 -0.40087,-2.62994 -0.1742,-2.77003 0.13885,-0.0858 0.29871,0.5869 0.35525,1.49491 0.10113,1.62425 0.0457,2.01452 -0.18105,1.27512 z m -40.99147,-4.18986 c 0.72859,-0.77502 1.44613,-1.33407 1.59455,-1.24235 0.14841,0.0917 0.0369,0.4242 -0.24786,0.73883 -0.28474,0.31463 -0.58792,0.50184 -0.67374,0.41602 -0.0858,-0.0858 -0.5704,0.21581 -1.07684,0.67029 -0.50644,0.45448 -0.32469,0.19223 0.40389,-0.58279 z m -18.87469,-1.88514 c -0.38753,-0.4125 -0.59703,-0.75 -0.46556,-0.75 0.13146,0 0.0578,-0.23625 -0.16363,-0.525 -0.22146,-0.28875 -0.036,-0.19822 0.41209,0.20118 0.4481,0.39941 0.74894,0.79198 0.66852,0.8724 -0.0804,0.0804 0.004,0.32739 0.18792,0.54882 0.57967,0.69846 0.0966,0.43598 -0.63934,-0.3474 z m 67.03259,0.42184 c -0.14689,-0.23769 0.83618,-0.39834 1.20449,-0.19684 0.0754,0.0412 0.33452,-0.195 0.57582,-0.525 0.2413,-0.33 0.5788,-0.6 0.75,-0.6 0.1712,0 0.53436,-0.27 0.80703,-0.6 0.47119,-0.57026 0.47373,-0.56283 0.0513,0.15 -0.24445,0.4125 -0.59092,0.75 -0.76994,0.75 -0.17902,0 -0.50005,0.21902 -0.71341,0.4867 -0.46242,0.58019 -1.66817,0.91884 -1.90532,0.53514 z m -20.44633,-1.8315 c 0.4473,-0.28426 6.09378,-0.32038 5.81058,-0.0372 -0.11175,0.11173 -1.54668,0.21782 -3.18875,0.23574 -1.64206,0.0179 -2.82189,-0.0714 -2.62183,-0.19857 z m 9.21374,0.0597 c 0,-0.165 0.37125,-0.30149 0.825,-0.3033 0.45375,-0.002 1.365,-0.0719 2.025,-0.15566 1.13164,-0.14368 1.11456,-0.12716 -0.3,0.29006 -1.78468,0.52639 -2.55,0.57708 -2.55,0.1689 z m 58.29029,-1.08743 c 0.67881,-2.47055 1.24585,-4.0613 1.50476,-4.22131 0.1778,-0.10989 0.23588,-0.005 0.13806,0.25033 -0.0929,0.24201 -0.40462,1.28032 -0.69279,2.30735 -0.28817,1.02704 -0.6546,1.94808 -0.81428,2.04677 -0.16489,0.10191 -0.22354,-0.0636 -0.13575,-0.38314 z M 241.1143,269.2456 c 0,-0.22812 0.99409,-0.71717 4.65,-2.28762 2.58088,-1.10866 3.19965,-1.41373 4.1076,-2.02516 0.85909,-0.57852 3.22836,-1.63126 2.89399,-1.28589 -0.28103,0.29027 -2.53312,1.54038 -4.30159,2.38776 -4.86028,2.32886 -7.35,3.41651 -7.35,3.21091 z m 3.90305,-0.86152 c 0.002,-0.12597 0.54168,-0.45525 1.2,-0.73175 0.65832,-0.2765 1.19695,-0.37775 1.19695,-0.225 0,0.15275 -0.051,0.27772 -0.11336,0.27772 -0.0624,0 -0.60235,0.20431 -1.2,0.45403 -0.59765,0.24971 -1.08527,0.35096 -1.08359,0.225 z m 18.5259,-1.69303 c 0.15871,-0.3102 0.25763,-1.1202 0.21983,-1.8 -0.0455,-0.81743 -0.0251,-0.90101 0.0602,-0.2468 0.14902,1.14338 0.44721,1.12553 2.86751,-0.17165 0.78458,-0.4205 1.49574,-0.69531 1.58035,-0.6107 0.0846,0.0846 -0.65856,0.58686 -1.6515,1.11609 -0.99294,0.52924 -1.8102,0.85308 -1.81614,0.71965 -0.006,-0.13342 -0.35685,0.16241 -0.7798,0.65741 -0.42296,0.495 -0.63917,0.6462 -0.48046,0.336 z m 16.22338,-0.33368 c -0.16103,-0.16102 0.53129,-2.53594 0.82482,-2.82947 0.15643,-0.15643 -0.19157,1.71277 -0.45903,2.46557 -0.10521,0.29612 -0.26982,0.45988 -0.36579,0.3639 z m -29.05002,-0.37122 c 0.001,-0.1271 0.54127,-0.53888 1.2,-0.91506 0.65873,-0.37617 1.19769,-0.54767 1.19769,-0.38109 0,0.16657 -0.54,0.57834 -1.2,0.91505 -0.66,0.33671 -1.19896,0.5082 -1.19769,0.3811 z m 27.31878,-2.2561 c 0.0116,-0.37125 0.1371,-0.945 0.27891,-1.275 0.19968,-0.46469 0.26258,-0.31246 0.27891,0.675 0.0116,0.70125 -0.11391,1.275 -0.27891,1.275 -0.165,0 -0.29051,-0.30375 -0.27891,-0.675 z m 5.27891,-0.125 c -0.31641,-0.31641 -0.23247,-3.04452 0.1,-3.25 0.18739,-0.11581 0.3,0.49688 0.3,1.63229 0,1.83359 -0.0365,1.98121 -0.4,1.61771 z m -28.835,-0.64662 c 1.17887,-1.02011 2.88896,-2.19942 3.01155,-2.07683 0.15601,0.15601 -2.72395,2.32345 -3.08724,2.32345 -0.11512,0 -0.0811,-0.11098 0.0757,-0.24662 z m 25.92784,-1.46067 c -0.004,-0.95849 -0.12472,-2.24896 -0.26841,-2.86771 -0.14368,-0.61875 -0.15233,-1.125 -0.0192,-1.125 0.46488,0 1.05333,5.2666 0.61848,5.53535 -0.21713,0.1342 -0.32606,-0.37366 -0.33086,-1.54264 z m -10.75542,-4.74271 c -0.0458,-1.155 -0.13114,-2.35389 -0.18958,-2.66421 -0.0691,-0.36671 -0.004,-0.46176 0.18641,-0.27154 0.16096,0.16096 0.24628,1.35986 0.18958,2.66421 l -0.10308,2.37154 -0.0833,-2.1 z m -4.63462,-4.32425 c -0.30096,-0.10955 -0.52924,-0.32891 -0.50729,-0.48746 0.022,-0.15856 -0.27182,-0.37608 -0.6528,-0.48339 -0.4684,-0.13192 -0.52506,-0.20478 -0.17496,-0.225 0.63276,-0.0365 2.48079,1.0464 2.13217,1.24945 -0.13745,0.0801 -0.49616,0.0559 -0.79712,-0.0536 z m -15.0813,-9.55075 c 0.31432,-0.37125 0.46215,-0.675 0.3285,-0.675 -0.13365,0 0.002,-0.27083 0.30166,-0.60184 0.29957,-0.33101 0.61182,-0.53468 0.6939,-0.4526 0.0821,0.0821 0.36416,-0.0183 0.62684,-0.22316 0.42403,-0.33063 0.43075,-0.3127 0.0599,0.15985 -0.22976,0.29274 -0.48734,0.46266 -0.5724,0.3776 -0.22168,-0.22168 -0.98094,0.46332 -0.81362,0.73405 0.0768,0.12425 -0.16095,0.4802 -0.5283,0.79101 l -0.66793,0.56509 0.5715,-0.675 z"
           style="fill:#5e5e5d" />
        <path
           inkscape:connector-curvature="0"
           id="path3471"
           d="m 155.16099,276.39969 c -0.1038,-0.16794 -0.0267,-1.59235 0.17127,-3.16534 l 0.35999,-2.85999 1.21271,0.0903 c 1.41378,0.10533 1.84864,0.75077 0.60213,0.89371 -1.1359,0.13025 -1.33633,1.29891 -0.34251,1.99711 l 0.69972,0.49159 -0.9,0.16428 c -0.67473,0.12317 -0.88219,0.31189 -0.82886,0.75397 0.16707,1.38481 -0.46917,2.4519 -0.97445,1.63433 z m -3.44442,-0.96964 c 0.003,-0.78771 0.5454,-4.32722 0.78458,-5.11659 0.12603,-0.41591 0.4139,-0.52033 1.24044,-0.45 1.33834,0.11389 1.71247,0.84159 0.43268,0.84159 -0.73208,0 -0.91846,0.1464 -1.05029,0.825 -0.0881,0.45375 -0.0701,0.86095 0.04,0.90488 1.12184,0.44738 1.19132,0.94518 0.15279,1.09467 -0.41718,0.06 -0.57508,0.38517 -0.64474,1.32749 -0.0624,0.84456 -0.23214,1.24796 -0.525,1.24796 -0.24945,0 -0.43179,-0.28591 -0.43048,-0.675 z m -2.99444,-0.0656 c -0.43801,-0.52776 -0.20397,-4.63238 0.31994,-5.61131 0.40745,-0.76133 1.66909,-0.70139 2.0978,0.0997 0.39104,0.73066 0.22215,2.77203 -0.38076,4.60222 -0.43468,1.31953 -1.35546,1.73062 -2.03698,0.90943 z m 1.4764,-1.88443 c 0.40278,-1.45034 0.40101,-2.68691 -0.004,-2.93734 -0.47689,-0.29473 -0.5317,-0.14641 -0.75645,2.04732 -0.2317,2.26151 0.22979,2.8015 0.76064,0.89002 z"
           style="fill:#c21a1a" />
        <path
           inkscape:connector-curvature="0"
           id="path3467"
           d="m 139.90161,287.39808 c -0.2314,-0.55383 -0.51551,-1.43848 -0.63135,-1.96589 -0.11851,-0.53958 -0.36265,-0.90278 -0.55829,-0.83053 -0.19122,0.0706 -0.31392,0.28027 -0.27267,0.46589 0.0412,0.18562 -0.06,0.3375 -0.225,0.3375 -0.165,0 -0.3,0.35324 -0.3,0.78499 0,0.63716 -0.11294,0.75546 -0.5997,0.62816 -0.65384,-0.17098 -1.1,0.22802 -0.6003,0.53685 0.48283,0.29841 0.0399,0.75 -0.73561,0.75 -0.83325,0 -1.14874,-0.64197 -0.77386,-1.57467 l 0.27144,-0.67533 0.019,0.735 c 0.0254,0.9825 0.5473,0.44858 0.80089,-0.81938 0.19104,-0.95522 0.18265,-0.96353 -0.77867,-0.77126 -0.93241,0.18648 -0.95723,0.16713 -0.6123,-0.47737 0.58619,-1.09531 0.69478,-4.75532 0.23637,-7.96699 -0.2355,-1.65 -0.45558,-4.215 -0.48905,-5.7 -0.0605,-2.68344 -0.55345,-7.27011 -0.82935,-7.71653 -0.74504,-1.2055 -1.30888,1.81269 -1.30888,7.00629 0,3.23831 -0.0866,4.17989 -0.375,4.07877 -0.20625,-0.0723 -0.33614,-0.48855 -0.28865,-0.925 0.0475,-0.43644 -0.02,-0.79344 -0.15,-0.79333 -0.24811,2e-4 -0.17709,-8.05065 0.0815,-9.23747 0.0824,-0.378 0.28078,-0.60628 0.44095,-0.50729 0.16016,0.099 0.2912,-0.0385 0.2912,-0.30544 0,-0.26698 -0.135,-0.40198 -0.3,-0.3 -0.45923,0.28382 -0.36632,-2.44083 0.0991,-2.90625 0.21951,-0.21951 0.34022,-0.57576 0.26825,-0.79167 -0.072,-0.21591 0.35593,-0.82563 0.95089,-1.35494 1.23521,-1.09891 1.48951,-2.16699 0.43637,-1.83274 -0.51314,0.16287 -0.60728,0.10554 -0.45942,-0.27978 0.10228,-0.26654 0.0552,-0.48462 -0.10462,-0.48462 -0.60828,0 -0.25403,-1.2827 0.58634,-2.12308 1.42252,-1.42251 3.25132,-1.16294 4.53806,0.64412 l 0.65671,0.92226 -0.63585,0.44536 c -0.79253,0.55512 -0.83228,1.61614 -0.068,1.816 0.33077,0.0865 0.64075,0.51312 0.7425,1.02191 0.18997,0.94981 0.77141,1.19707 0.81935,0.34843 0.0163,-0.28875 0.21788,0.0751 0.44792,0.80858 0.28038,0.89399 0.31622,1.39665 0.10871,1.52489 -0.21257,0.13138 -0.21191,0.4481 0.002,1.01095 0.17141,0.4508 0.31164,1.27371 0.31164,1.82868 0,0.55497 0.2025,1.21154 0.45,1.45904 0.2475,0.2475 0.45,0.7225 0.45,1.05556 0,0.33305 0.3375,1.2403 0.75,2.01611 0.4125,0.7758 0.75,1.65248 0.75,1.94817 0,0.29568 0.135,0.62104 0.3,0.72302 0.38802,0.23981 0.39077,2.15849 0.003,2.39788 -0.16311,0.1008 -0.23205,0.008 -0.15321,-0.2073 0.0789,-0.21482 -0.26252,-0.85028 -0.75859,-1.41213 -0.49606,-0.56186 -1.11707,-1.77686 -1.38,-2.7 -0.26293,-0.92315 -0.60224,-1.81083 -0.75402,-1.97262 -0.37971,-0.40478 -0.0978,5.02167 0.35411,6.81642 0.19619,0.77917 0.26403,1.65542 0.15075,1.94722 -0.24728,0.63695 -0.51862,3.67901 -0.57299,6.42393 -0.0312,1.57672 0.08,2.12544 0.53202,2.625 0.56512,0.62456 0.56387,0.6316 -0.1125,0.6316 -0.61412,0 -0.66287,0.0996 -0.47716,0.975 0.49706,2.34298 0.53913,2.925 0.21144,2.925 -0.18438,0 -0.52456,-0.45314 -0.75597,-1.00697 z m -1.08731,-4.54303 c 0,-0.5775 -0.135,-1.05 -0.3,-1.05 -0.165,0 -0.3,0.4725 -0.3,1.05 0,0.5775 0.135,1.05 0.3,1.05 0.165,0 0.3,-0.4725 0.3,-1.05 z m 1.1701,-1.125 c 0.0304,-0.83796 -0.39301,-1.13437 -0.64275,-0.45 -0.0753,0.20625 -0.0666,0.915 0.0192,1.575 0.14027,1.07847 0.17823,1.12404 0.37485,0.45 0.12032,-0.4125 0.23223,-1.12125 0.24868,-1.575 z m -3.2701,0.675 c 0,-0.495 -0.135,-0.9 -0.3,-0.9 -0.165,0 -0.3,0.405 -0.3,0.9 0,0.495 0.135,0.9 0.3,0.9 0.165,0 0.3,-0.405 0.3,-0.9 z m 1.14765,-7.43002 c -0.13167,-2.75398 -0.419,-3.76354 -0.86552,-3.04106 -0.29947,0.48454 -0.0243,4.42622 0.35926,5.14608 0.52314,0.98186 0.63217,0.52851 0.50626,-2.10502 z m 38.15235,8.59792 c 0,-0.18265 -0.18099,-0.26264 -0.4022,-0.17775 -0.68217,0.26177 -1.02178,-0.1854 -1.17766,-1.55065 -0.0823,-0.72079 -0.31491,-1.41266 -0.51691,-1.5375 -0.23329,-0.14418 -0.25705,-0.29513 -0.0651,-0.41374 0.16738,-0.10345 0.31819,-1.57152 0.33809,-3.29129 0.0272,-2.34738 -0.11084,-3.57311 -0.56589,-5.02576 -0.89741,-2.86483 -1.11339,-5.51098 -0.49987,-6.1245 0.55083,-0.55083 0.64064,-1.04671 0.18957,-1.04671 -0.165,0 -0.3,-0.27 -0.3,-0.6 0,-0.33 0.18822,-0.6 0.41826,-0.6 0.23913,0 0.41051,-0.2891 0.40015,-0.675 -0.01,-0.37125 0.0877,-1.05118 0.21701,-1.51095 0.22951,-0.81601 0.20938,-0.83312 -0.84373,-0.71707 -0.59336,0.0654 -1.28423,0.28935 -1.53527,0.49769 -0.38786,0.3219 -0.45642,0.26614 -0.45642,-0.3712 0,-0.4125 0.18065,-0.89993 0.40144,-1.08317 0.39468,-0.32755 1.16295,-2.46848 1.05727,-2.94627 -0.0522,-0.23621 0.0902,-0.69336 0.66305,-2.12734 0.17759,-0.44458 0.15573,-0.871 -0.0626,-1.22053 -0.26837,-0.42972 -0.18394,-0.77732 0.42192,-1.73706 0.41658,-0.6599 1.11495,-1.43409 1.55193,-1.72041 0.76368,-0.50038 0.83473,-0.49573 1.83095,0.11997 1.59333,0.98473 2.44579,2.39134 1.44926,2.39134 -0.37765,0 -0.41044,0.0919 -0.1463,0.4102 0.39166,0.47192 -0.0298,0.95301 -0.99211,1.13252 -0.84518,0.15765 -0.89806,0.71912 -0.13471,1.43029 0.5648,0.5262 0.67235,0.94196 0.67235,2.59922 0,1.38796 -0.12785,2.05436 -0.43125,2.24784 -0.28019,0.17868 0.0852,0.22493 1.04309,0.13203 1.64349,-0.15939 2.65016,-0.42267 2.87566,-0.7521 0.0825,-0.12052 0.45375,-0.31392 0.825,-0.42978 0.57775,-0.1803 0.675,-0.1012 0.675,0.54901 0,0.84487 -0.51585,1.20548 -2.14457,1.49917 -1.3611,0.24543 -2.65543,1.2313 -2.65543,2.0226 0,0.32859 0.33911,1.33882 0.75358,2.24494 1.18516,2.59103 2.02009,5.87962 1.56866,6.17855 -0.28651,0.18972 -0.26738,0.30877 0.083,0.51689 0.39048,0.23192 0.42007,0.81839 0.20786,4.11952 -0.1685,2.62112 -0.37608,3.94845 -0.65066,4.16051 -0.64664,0.49938 -0.71184,1.78054 -0.0908,1.78492 1.0092,0.007 0.52769,0.60482 -0.56364,0.69965 l -1.10452,0.096 0.5168,-0.78872 c 0.28423,-0.4338 0.46417,-1.0845 0.39985,-1.44599 -0.0997,-0.56043 -0.19459,-0.48395 -0.64405,0.51917 -0.40207,0.89735 -0.59114,1.07526 -0.79701,0.75 -0.14844,-0.23454 -0.27196,-0.66481 -0.27449,-0.95615 -0.006,-0.74144 0.69878,-2.92028 0.94519,-2.92028 0.40556,0 0.94075,-2.15864 0.58908,-2.37598 -0.22328,-0.138 -0.24363,-0.51003 -0.0624,-1.14178 0.14782,-0.51539 0.19109,-1.01474 0.0962,-1.10966 -0.0949,-0.0949 -0.0151,-0.17258 0.17742,-0.17258 0.1925,0 0.35,-0.135 0.35,-0.3 0,-0.165 -0.18083,-0.3 -0.40184,-0.3 -0.22102,0 -0.56796,-0.37125 -0.77097,-0.825 -0.45635,-1.01996 -1.6191,-2.77018 -1.84219,-2.77295 -0.28028,-0.003 -0.93245,6.67682 -0.77591,7.94795 0.57283,4.65172 0.57231,4.57463 0.0329,4.87647 -0.38746,0.21683 -0.42474,0.34881 -0.14702,0.52045 0.20669,0.12774 0.47435,0.0644 0.6022,-0.14243 0.31481,-0.50936 0.54143,0.18117 0.36403,1.10919 -0.13195,0.69028 -0.66125,0.97382 -0.66125,0.35422 z m 2.1,-30.5679 c 0,-0.165 -0.12396,-0.3 -0.27546,-0.3 -0.15151,0 -0.48901,-0.0819 -0.75,-0.1821 -0.3114,-0.11949 -0.47454,-0.0164 -0.47454,0.3 0,0.31424 0.26114,0.4821 0.75,0.4821 0.4125,0 0.75,-0.135 0.75,-0.3 z"
           style="fill:#1b04aa" />
        <path
           inkscape:connector-curvature="0"
           id="path3465"
           d="m 258.0643,299.34023 c -1.155,-0.38772 -2.82121,-0.71174 -3.70268,-0.72006 -1.10057,-0.0104 -1.82891,-0.19307 -2.32477,-0.58311 -0.64334,-0.50606 -0.66549,-0.58971 -0.20304,-0.76717 0.28547,-0.10955 0.56662,-0.0564 0.62477,0.11799 0.0581,0.17444 0.24072,0.31717 0.40572,0.31717 0.165,0 0.24759,-0.15723 0.18354,-0.34939 -0.0641,-0.19217 0.83594,-0.83342 2,-1.42501 1.96661,-0.99944 2.122,-1.14994 2.19476,-2.1256 0.12025,-1.61256 -0.22858,-1.94545 -1.5735,-1.50158 -0.963,0.31782 -1.18441,0.29978 -1.61064,-0.13119 -0.45911,-0.46421 -0.45668,-0.48549 0.0342,-0.30004 0.40678,0.15367 0.48418,0.0844 0.33629,-0.30103 -0.10566,-0.27535 -0.36847,-0.43297 -0.58402,-0.35026 -0.21555,0.0827 -0.4371,0.0148 -0.49233,-0.1509 -0.0564,-0.16915 -0.82145,0.0343 -1.74439,0.46393 -0.90417,0.42086 -1.84645,0.75587 -2.09395,0.74445 -0.4,-0.0185 -0.4,-0.0386 0,-0.18113 0.2475,-0.0882 1.2196,-0.498 2.16023,-0.91066 1.46124,-0.64104 1.70954,-0.86538 1.70552,-1.54093 -0.0131,-2.19908 0.007,-2.22845 2.6985,-3.85401 1.42342,-0.85984 3.26252,-1.91909 4.08689,-2.35388 0.82438,-0.43479 1.85067,-0.98023 2.28067,-1.21208 0.60871,-0.32821 1.12776,-0.35593 2.3443,-0.12522 0.85937,0.16298 1.79006,0.44336 2.06819,0.62308 0.45605,0.29467 0.45142,0.30968 -0.0472,0.15282 -2.33757,-0.73539 -3.45222,-0.40996 -3.99829,1.16733 -0.46387,1.33987 -0.38232,1.53412 0.45574,1.08561 0.33329,-0.17837 0.9186,-0.31049 1.3007,-0.2936 0.5248,0.0232 0.45324,0.0879 -0.29257,0.26462 -1.98612,0.47057 -2.58401,1.61976 -1.716,3.29831 0.58784,1.13676 1.46982,1.39462 2.49298,0.72884 0.76888,-0.50031 0.78829,-0.50041 0.3796,-0.002 -0.343,0.4183 -0.35306,0.57326 -0.0494,0.76094 0.20974,0.12962 0.35982,0.35031 0.33351,0.49042 -0.0263,0.14011 0.19842,0.36093 0.49938,0.4907 0.30996,0.13365 0.092,0.15256 -0.5028,0.0436 -1.17229,-0.21473 -1.26077,-0.21995 -2.60357,-0.1534 -1.42227,0.0705 -1.89643,0.72523 -1.89643,2.61869 0,0.89571 0.10125,1.64298 0.225,1.66058 0.12375,0.0176 0.8325,0.055 1.575,0.0832 2.63127,0.0998 2.6523,0.40368 0.19521,2.82048 -1.21021,1.19038 -2.39047,2.15084 -2.62279,2.13438 -0.23233,-0.0165 -1.36742,-0.34716 -2.52242,-0.73488 z m 1.95522,-5.96327 c 0.18959,-2.09159 0.0444,-2.38999 -0.97433,-2.00267 -0.63906,0.24297 -0.80491,0.55124 -0.97948,1.8205 -0.24807,1.80368 0.12991,2.50799 1.14556,2.13458 0.53715,-0.19748 0.68057,-0.54395 0.80825,-1.95241 z m 15.29478,2.06084 c -2.96524,-2.02163 -4.18262,-2.95013 -4.04648,-3.08627 0.0829,-0.0829 0.72348,0.27959 1.42358,0.80545 0.70009,0.52587 1.75443,1.21445 2.34297,1.53018 1.0585,0.56783 2.09743,1.54185 1.59166,1.4922 -0.14395,-0.0141 -0.73423,-0.34783 -1.31173,-0.74156 z m -91.8,0.16874 c 0.74063,-0.23866 3.51712,-0.40269 3.275,-0.19348 -0.0687,0.0594 -1.0025,0.18162 -2.075,0.27159 -1.17009,0.0982 -1.65003,0.0669 -1.2,-0.0781 z m 8.07444,-0.42129 c 1.05844,-0.40726 2.34094,-1.04232 2.85,-1.41125 0.85838,-0.62208 0.8859,-0.62554 0.37917,-0.0476 -0.58814,0.67078 -2.79322,1.71522 -4.25361,2.01473 -0.495,0.10152 -0.034,-0.14863 1.02444,-0.55588 z m -12.86011,-0.46008 c -0.35812,-0.50293 -0.70981,-1.42195 -0.78152,-2.04227 l -0.1304,-1.12785 0.31685,1.01156 c 0.17426,0.55637 0.60288,1.39846 0.95248,1.87131 0.3496,0.47286 0.55871,0.93668 0.46468,1.03071 -0.094,0.094 -0.46397,-0.24052 -0.82209,-0.74346 z m 2.22326,-0.03 c -0.62971,-0.50042 -1.34377,-1.20917 -1.58682,-1.575 -0.24304,-0.36582 0.15236,-0.10873 0.87867,0.57132 0.7263,0.68005 1.59056,1.38469 1.92056,1.56588 0.33,0.18118 0.44981,0.33353 0.26625,0.33854 -0.18356,0.005 -0.84896,-0.40031 -1.47866,-0.90074 z m 8.56241,0.0275 c 0.4125,-0.12694 2.1467,-0.93307 3.85377,-1.79139 3.04464,-1.53085 4.93435,-3.11721 6.4133,-5.38378 0.61732,-0.94607 5.70483,-6.07055 5.86638,-5.909 0.062,0.062 -1.0812,1.30602 -2.54035,2.7646 -1.45914,1.45857 -3.46077,3.63669 -4.44805,4.84026 -1.6465,2.00722 -2.08488,2.33617 -5.29735,3.975 -1.92626,0.98268 -3.74876,1.77509 -4.05,1.7609 -0.38539,-0.0181 -0.32544,-0.0942 0.2023,-0.25659 z m -45.7179,-1.39216 c -0.10016,-0.26099 -0.16089,-1.03724 -0.13497,-1.725 l 0.0471,-1.25046 0.17787,1.5 c 0.16039,1.35257 0.25159,1.5 0.92787,1.5 0.58816,0 0.73571,-0.1393 0.68376,-0.64553 -0.0945,-0.92117 0.59639,-1.36166 1.9203,-1.22426 l 1.14594,0.11893 -1.275,0.0504 c -1.24754,0.0493 -1.275,0.073 -1.275,1.10043 0,0.99369 -0.0546,1.05 -1.0179,1.05 -0.65145,0 -1.08346,-0.17084 -1.2,-0.47454 z m 28.89169,-0.43066 -0.72379,-0.63041 0.81181,0.49366 c 1.00228,0.6095 1.43819,0.37437 1.43819,-0.77576 0,-0.48526 0.11375,-0.88229 0.25277,-0.88229 0.13903,0 0.17073,0.5048 0.0704,1.12177 -0.21728,1.33674 -0.83096,1.56007 -1.84942,0.67303 z m 23.42621,-0.20584 c 0.4125,-0.29545 1.425,-1.14015 2.25,-1.87711 l 1.5,-1.33994 -1.27258,1.34793 c -0.69991,0.74136 -1.71241,1.58607 -2.25,1.87712 -0.94415,0.51117 -0.95189,0.5109 -0.22742,-0.008 z m 46.2,0.29766 c -2.86702,-0.50333 -5.28206,-1.92106 -6.64369,-3.90011 -1.13643,-1.65175 -2.12563,-2.30945 -3.10412,-2.06386 -0.41371,0.10383 -0.75219,0.36518 -0.75219,0.58077 0,0.47277 -1.25019,1.69658 -1.73315,1.69658 -0.18945,0 0.24595,-0.6075 0.96758,-1.35 0.72163,-0.7425 1.52024,-1.35 1.77469,-1.35 0.96759,0 2.04591,0.75495 3.02511,2.11791 1.83474,2.55383 4.01425,3.68579 7.98171,4.14543 1.82544,0.21148 1.9597,0.25846 0.73406,0.25688 -0.825,-10e-4 -1.8375,-0.0612 -2.25,-0.1336 z m -88.02241,-0.83662 c -0.27028,-0.4125 -0.36241,-0.75 -0.20472,-0.75 0.15768,0 0.37476,0.27747 0.4824,0.61659 0.15855,0.49956 0.40439,0.59921 1.29521,0.525 0.90829,-0.0757 1.08288,-0.19594 1.00384,-0.69159 -0.0526,-0.33 -0.16047,-1.41 -0.23966,-2.4 -0.207,-2.58779 -0.35136,-3.08948 -0.94304,-3.27727 -0.28984,-0.092 -0.66078,-0.42043 -0.8243,-0.72987 -1.54306,-2.91989 -2.07398,-3.82828 -2.36166,-4.0407 -0.21985,-0.16232 -0.18039,-0.20772 0.11434,-0.13156 0.2475,0.064 0.87964,0.91711 1.40476,1.89591 0.52512,0.9788 1.32241,2.09588 1.77176,2.4824 0.70559,0.60692 0.8475,1.01631 1.04061,3.00193 0.12298,1.26454 0.32131,2.73791 0.44073,3.27416 l 0.21714,0.975 -1.353,0 c -1.11215,0 -1.44047,-0.13351 -1.84441,-0.75 z m 29.93617,-1.23758 c -0.19648,-0.78282 -0.21145,-0.7866 -2.48072,-0.6249 -1.6765,0.11946 -1.96423,0.0942 -1.08304,-0.0951 0.66,-0.1418 1.70959,-0.26559 2.33242,-0.2751 0.93981,-0.0143 1.18093,0.11028 1.41758,0.73271 0.43576,1.14614 1.68947,1.03617 1.95471,-0.17145 0.2656,-1.20928 0.50586,-0.95639 0.25987,0.27353 -0.16758,0.83792 -0.30641,0.94792 -1.19637,0.94792 -0.83651,0 -1.04021,-0.1332 -1.20445,-0.78758 z m 56.08454,-0.50198 c -1.01843,-0.52824 -2.79188,-1.76496 -3.94099,-2.74826 -1.24057,-1.06156 -2.68199,-1.98844 -3.54831,-2.28168 l -1.459,-0.49386 0.0628,-2.81832 c 0.12743,-5.72272 0.51737,-6.94644 2.33725,-7.33479 l 0.9,-0.19205 -1.02807,0.57811 c -1.3621,0.76594 -1.71203,1.88316 -1.89197,6.04035 l -0.14677,3.39083 0.7834,0.30016 c 1.50729,0.57753 3.33341,1.53431 3.33341,1.7465 0,0.35588 3.39656,2.90848 4.50994,3.38934 0.95415,0.41208 2.4419,1.4009 2.09006,1.38913 -0.0825,-0.003 -0.98327,-0.43721 -2.0017,-0.96546 z m 28.21274,-0.54516 c 0.47358,-0.36731 1.04204,-1.08351 1.26326,-1.59156 0.22122,-0.50805 0.4075,-0.70568 0.41396,-0.43918 0.0153,0.62985 -1.0552,1.98255 -1.88653,2.38392 -0.42277,0.20412 -0.34923,0.08 0.20931,-0.35318 z m -56.73604,-0.18698 c 0.94875,-0.0595 2.50125,-0.0595 3.45,0 0.94875,0.0595 0.1725,0.10825 -1.725,0.10825 -1.8975,0 -2.67375,-0.0487 -1.725,-0.10825 z m 9.44331,0.005 c 0.53257,-0.0663 1.47757,-0.0674 2.1,-0.002 0.62243,0.0649 0.18669,0.11917 -0.96831,0.1205 -1.155,10e-4 -1.66426,-0.0518 -1.13169,-0.11808 z m -20.31907,-1.88257 c 0.69031,-0.8245 1.41163,-1.59525 1.60293,-1.71279 0.19131,-0.11755 -0.30982,0.55705 -1.11361,1.49909 -0.80379,0.94203 -1.52512,1.71279 -1.60294,1.71279 -0.0778,0 0.42331,-0.67459 1.11362,-1.49909 z m -29.35123,-1.2582 c -0.0264,-0.60901 0.0605,-1.17436 0.19314,-1.25634 0.13263,-0.082 0.81028,-0.0211 1.50589,0.13513 0.80199,0.1802 1.7291,0.17843 2.53385,-0.005 1.34863,-0.30709 7.82443,-0.622 7.57058,-0.36815 -0.21206,0.21206 -7.42892,0.72943 -9.65784,0.69236 l -1.85636,-0.0309 -0.12063,0.97 c -0.11985,0.96384 -0.12092,0.96297 -0.16863,-0.1373 z m 104.20199,0.65728 -2.7,-0.18662 2.85,-0.0356 c 1.5675,-0.0196 3.12,0.0804 3.45,0.22222 0.699,0.30037 0.74579,0.30037 -3.6,0 z m -7.06254,-2.88822 c -0.97206,-1.00895 -1.10995,-1.24402 -0.5047,-0.86041 0.7101,0.45006 2.26991,2.24863 1.95013,2.24863 -0.0594,0 -0.70982,-0.6247 -1.44543,-1.38822 z m -83.68746,0.76647 c -0.94495,-0.17933 -0.72985,-0.42874 0.25361,-0.29408 0.51523,0.0706 -0.21089,-1.19388 -1.983,-3.4531 -0.95546,-1.21811 -1.48715,-1.64141 -2.1,-1.67192 -0.68384,-0.034 -0.71069,-0.0622 -0.16108,-0.16884 0.36273,-0.0704 0.9033,0.002 1.20126,0.16194 0.52955,0.28341 4.1724,5.39997 3.95114,5.54958 -0.0616,0.0416 -0.58443,-0.014 -1.16193,-0.12358 z m 33.22334,-2.19851 c -0.29241,-3.1033 -0.28178,-3.77974 0.0594,-3.77974 0.15551,0 0.32426,0.57375 0.375,1.275 0.0791,1.09394 0.18598,1.27184 0.75233,1.25278 0.36305,-0.0122 0.59133,0.089 0.5073,0.225 -0.084,0.13597 -0.41482,0.24722 -0.73509,0.24722 -0.71968,0 -0.73287,0.23081 -0.0573,1.00225 0.48068,0.54888 0.48218,0.5839 0.0178,0.41486 -0.39921,-0.14531 -0.52731,0.0195 -0.60166,0.77413 -0.052,0.52732 -0.19495,-0.10786 -0.31779,-1.4115 z m -6.89368,1.20606 c -0.28618,-0.21732 -0.42118,-0.51233 -0.3,-0.65557 0.12119,-0.14325 -0.0159,-0.0796 -0.30466,0.14139 -0.47371,0.36259 -0.525,0.31032 -0.525,-0.53489 0,-0.68865 -0.13904,-0.93914 -0.525,-0.94585 -0.5,-0.009 -0.5,-0.0237 0,-0.31491 0.35767,-0.20832 0.525,-0.67786 0.525,-1.47317 0,-0.64206 0.135,-1.25082 0.3,-1.3528 0.165,-0.10198 0.3,0.0743 0.3,0.39184 0,0.7805 1.17759,2.23096 1.66073,2.04555 0.21368,-0.082 0.77117,-0.0343 1.23889,0.10598 0.8517,0.25545 0.73462,0.31856 -0.79962,0.431 -0.29968,0.022 -0.4152,0.2776 -0.34582,0.76526 0.0911,0.64044 0.0441,0.68242 -0.37481,0.33474 -0.42597,-0.35352 -0.45826,-0.29383 -0.29169,0.53905 0.20977,1.04884 0.17641,1.08007 -0.55802,0.52238 z m 10.71732,-0.19069 c -0.10364,-0.16769 -0.31411,-0.22723 -0.46771,-0.1323 -0.1536,0.0949 -0.27927,-0.0753 -0.27927,-0.37835 0,-0.30303 -0.20891,-0.84922 -0.46424,-1.21376 -0.419,-0.5982 -0.419,-0.64544 0,-0.48465 0.37484,0.14384 0.46512,-0.0736 0.46883,-1.12895 0.002,-0.71891 0.14843,-1.5096 0.32424,-1.7571 0.23747,-0.33433 0.27394,-0.12227 0.14186,0.825 -0.10835,0.77706 -0.0592,1.275 0.12576,1.275 0.16695,0 0.30355,-0.27 0.30355,-0.6 0,-0.33 0.13757,-0.6 0.30571,-0.6 0.18697,0 0.22006,0.32045 0.0852,0.825 -0.12129,0.45375 -0.22512,1.46597 -0.23072,2.24938 -0.011,1.53019 -0.0263,1.58501 -0.31321,1.12073 z m 0.94005,-1.0135 c -0.12857,-0.50694 -0.0905,-0.9981 0.0914,-1.18 0.50276,-0.50276 0.6758,-0.0439 0.39235,1.04049 l -0.26347,1.0079 -0.22024,-0.86839 z m 3.64029,-0.13151 c -0.41559,-0.70352 -0.65922,-0.82682 -1.41468,-0.71595 -0.50196,0.0737 -0.91264,0.25363 -0.91264,0.3999 0,0.14627 -0.13614,0.26595 -0.30254,0.26595 -0.18393,0 -0.16205,-0.22497 0.0558,-0.57384 0.2161,-0.34602 0.65534,-0.55444 1.10641,-0.525 0.87027,0.0568 1.16316,-0.63485 1.21041,-2.85845 0.0343,-1.61642 0.6299,-2.33537 0.6299,-0.76041 0,0.55973 0.10125,1.11927 0.225,1.24342 0.25322,0.25403 0.31413,4.37243 0.0647,4.37356 -0.0882,3e-4 -0.38624,-0.38174 -0.66236,-0.84918 z m -10.72732,0.13219 c 0,-0.28473 -0.135,-0.43427 -0.3,-0.33229 -0.165,0.10198 -0.3,-0.0251 -0.3,-0.28229 0,-0.25724 -0.13166,-0.46771 -0.29258,-0.46771 -0.18711,0 -0.18279,-0.28874 0.012,-0.80102 0.16751,-0.44057 0.31614,-1.37833 0.3303,-2.08393 0.0174,-0.86621 0.23274,-1.5058 0.66303,-1.96916 l 0.63728,-0.68627 0.098,0.6867 c 0.0539,0.37769 -0.0502,0.86538 -0.23148,1.08375 -0.1887,0.22737 -0.30433,1.37312 -0.27056,2.68102 0.0324,1.25618 -0.0322,2.37508 -0.14351,2.48644 -0.11136,0.11136 -0.20247,-0.0305 -0.20247,-0.31524 z m 1.18845,-0.25729 c -0.006,-0.20625 -0.0843,-1.21875 -0.17334,-2.25 -0.089,-1.03125 -0.05,-1.87449 0.0866,-1.87387 0.13659,6e-4 0.29165,1.01313 0.34459,2.25 0.0529,1.23688 0.0192,2.24887 -0.075,2.24887 -0.0942,0 -0.17645,-0.16875 -0.1828,-0.375 z m -53.83845,-0.825 -1.5,-0.20574 1.35,-0.0116 c 0.7425,-0.006 1.755,0.0914 2.25,0.21738 0.79,0.20102 0.80833,0.22759 0.15,0.21737 -0.4125,-0.006 -1.425,-0.10422 -2.25,-0.21737 z m 107.85,-0.95901 c 0.5339,-0.53573 5.1,-3.29401 5.1,-3.0808 0,0.081 -0.70875,0.59336 -1.575,1.13859 -2.69945,1.69908 -3.99299,2.41179 -3.525,1.94221 z m -83.85838,-0.22743 c 0.26348,-0.42632 3.17391,-1.89803 3.36857,-1.70337 0.0828,0.0828 -0.68646,0.57303 -1.70945,1.08944 -1.02298,0.51639 -1.76959,0.79267 -1.65912,0.61393 z m 78.16297,-0.92749 c -0.002,-0.0902 0.46484,-1.03516 1.0386,-2.1 0.57375,-1.06484 1.04625,-1.83033 1.05,-1.7011 0.007,0.25038 -1.26242,2.76252 -1.77655,3.51503 -0.1691,0.2475 -0.30952,0.37623 -0.31205,0.28607 z m -99.57459,-2.86607 c -0.7115,-0.911 -1.23964,-1.71036 -1.17364,-1.77636 0.066,-0.066 0.70214,0.62536 1.41364,1.53636 0.7115,0.911 1.23964,1.71036 1.17364,1.77636 -0.066,0.066 -0.70214,-0.62536 -1.41364,-1.53636 z m 20.20872,-1.58453 c 0.8188,-0.84451 1.53889,-1.53547 1.60021,-1.53547 0.30411,0 -1.88406,2.45452 -2.44317,2.74057 -0.35517,0.18171 0.0242,-0.36058 0.84296,-1.2051 z m -18.81372,-2.56968 c -0.94875,-1.05305 -1.725,-2.02059 -1.725,-2.15009 0,-0.24839 2.97891,2.98452 3.38991,3.67895 0.43406,0.7334 0.0821,0.41018 -1.66491,-1.52886 z m 63.9197,0.5396 c -0.26198,-0.72758 -0.69733,-1.22827 -1.2947,-1.48903 -0.76165,-0.33248 -0.79953,-0.39468 -0.24643,-0.40462 0.79292,-0.0143 1.5314,0.67472 1.7785,1.65924 0.14387,0.57322 0.37905,0.72902 1.10045,0.72902 1.05631,0 1.01138,0.13318 -0.13782,0.40857 -0.72048,0.17265 -0.84688,0.0775 -1.2,-0.90318 z m -47.9447,0.60076 c 0,-0.43087 1.36982,-3.15849 1.93657,-3.85615 0.26808,-0.33 -0.006,0.4125 -0.60975,1.65 -1.17612,2.41193 -1.32682,2.66251 -1.32682,2.20615 z m 37.125,-2.12317 c 0.53625,-0.0666 1.41375,-0.0666 1.95,0 0.53625,0.0665 0.0975,0.121 -0.975,0.121 -1.0725,0 -1.51125,-0.0545 -0.975,-0.121 z m 41.18634,-5.66138 c -2.33028,-1.05778 -2.71134,-1.48195 -2.71134,-3.0181 0,-0.7638 -0.13942,-1.3035 -0.33673,-1.3035 -0.21053,0 -0.23755,-0.14055 -0.0721,-0.375 0.26586,-0.37672 0.29534,-2.05095 0.10961,-6.225 -0.0793,-1.78197 -0.0118,-2.25335 0.32455,-2.26612 0.80954,-0.0307 3.72639,-0.81382 4.08316,-1.0962 0.48053,-0.38034 1.75976,-0.16512 1.67095,0.28113 -0.32089,1.61241 -0.73981,6.67497 -0.83834,10.13119 -0.0659,2.31 -0.12455,4.30125 -0.13042,4.425 -0.016,0.33709 -0.30602,0.26064 -2.09934,-0.5534 z m 4.05567,-3.48835 c -0.67174,-0.95904 -0.57617,-1.95136 0.26935,-2.79689 0.88618,-0.88617 1.68768,-0.93854 2.39541,-0.15651 0.69346,0.76627 0.38557,2.20564 -0.64526,3.01649 -0.98613,0.77569 -1.44197,0.76145 -2.0195,-0.0631 z m 0.50799,-5.84879 c -0.51979,-0.18638 -0.46888,-0.98348 0.10319,-1.61561 0.61351,-0.67792 1.32181,-0.40856 1.32181,0.50269 0,0.73731 -0.77799,1.34492 -1.425,1.11292 z m -12.07388,-5.99902 c -0.003,-1.0411 3.24461,-3.6557 5.09888,-4.10477 0.4125,-0.0999 0.1723,0.0847 -0.53377,0.41027 -1.7413,0.80286 -3.34964,2.0678 -4.01372,3.15674 -0.30265,0.49628 -0.55077,0.73827 -0.55139,0.53776 z m -3.45978,-1.73544 c 1.59224,-2.59881 4.88286,-5.56931 6.13509,-5.53826 0.26046,0.006 0.0338,0.20288 -0.50373,0.43648 -1.54967,0.67351 -2.92839,1.85572 -4.30994,3.69568 -1.56231,2.0807 -2.05769,2.60782 -1.32142,1.4061 z m -3.71689,-2.7 c 1.93816,-2.81855 6.5146,-7.05693 7.60928,-7.04718 0.17395,0.002 -0.37975,0.40201 -1.23045,0.88991 -0.8507,0.48791 -2.29226,1.73539 -3.20347,2.77219 -2.49015,2.83333 -3.63574,4.05459 -3.17536,3.38508 z m 10.92555,-3.15745 c 0.57751,-0.24099 3.38061,-0.40601 3.125,-0.18397 -0.0687,0.0597 -0.935,0.18188 -1.925,0.27147 -1.08679,0.0983 -1.56226,0.0637 -1.2,-0.0875 z m 2.18037,-5.30997 c 0.53921,-0.0668 1.34921,-0.0654 1.8,0.003 0.4508,0.0685 0.01,0.12308 -0.98037,0.1214 -0.99,-0.002 -1.35883,-0.0577 -0.81963,-0.12446 z"
           style="fill:#101110" />
      </g>
      <path
         sodipodi:nodetypes="cccscssccssccsscscccsscsssssccscssccsssssssssscsccsccssscssscsccsssscsscccsscscscssscccscssssscsssssscssssssccscssscssssssssssssscscccscscsssssscscssssscsscsssscccssscccscsccsscsscsssssssscssssccsccscccssssscsssscccssccsscscsssssssssssscssssssssssssssssssccccccscccccsscsscccssscsccccscscsccscsssscssscssssssssssccscssssscscccssccscscssscsscsscccssscsscsccscssssscsssssscsscsssscssssccscssssssssscscccsccscscsssscssssssssssscsccccccccssssscsccssssssssssccscccsscscscssssscsssssssccssssscscssssscssscccssccscscscccssscsccscsccssccscsccccsccsssssssssscccsssssssscssccscscscssscssscssccscccccscsccsscsssssssccsssssssscsssssssccssssscsssssccsssssccscsccsssssssscssccssssssssss"
         inkscape:connector-curvature="0"
         id="path3661"
         d="m 153.24328,301.24653 c -1.61131,-0.82497 -3.73677,-3.21244 -3.72931,-4.18902 0.003,-0.33068 0.13734,-0.80373 0.29958,-1.05123 0.21478,-0.32763 0.25106,-0.20526 0.13342,0.45 -0.12968,0.72235 0.0629,1.19024 0.97542,2.37043 1.80885,2.33934 2.50569,2.57957 7.48244,2.57957 4.68174,0 5.87403,-0.30421 7.86799,-2.00749 l 1.01343,-0.8657 -1.23843,0.11811 c -0.80334,0.0766 -1.23844,-0.003 -1.23844,-0.22772 0,-0.23375 0.60771,-0.31688 1.875,-0.25652 l 1.875,0.0893 0.0907,1.575 c 0.0518,0.89984 -0.0366,1.575 -0.20614,1.575 -0.17096,0 -0.22547,-0.43966 -0.12855,-1.03689 0.31754,-1.95679 -0.0404,-2.13635 -1.62906,-0.81709 -2.47694,2.05698 -3.79642,2.45398 -8.15616,2.45398 -3.47887,0 -3.92942,-0.0648 -5.28687,-0.75975 z m 104.1161,-1.06321 c -0.99,-0.32488 -2.87344,-0.7198 -4.18542,-0.87762 -1.70887,-0.20555 -2.55485,-0.45636 -2.98282,-0.88432 -0.59653,-0.59653 -0.59568,-0.59808 0.58542,-1.06489 0.65055,-0.25711 1.95907,-0.82592 2.90782,-1.26401 1.71053,-0.78984 1.725,-0.80739 1.725,-2.09136 0,-1.10858 -0.0892,-1.29484 -0.61972,-1.29484 -0.34085,0 -0.85998,0.12858 -1.15362,0.28573 -0.62512,0.33456 -1.82666,-0.35792 -1.82666,-1.05274 0,-0.56353 -0.41045,-0.54676 -1.5899,0.065 -1.62328,0.84193 -5.05147,1.5915 -7.3035,1.5969 -4.14399,0.01 -7.57424,-1.68004 -9.39725,-4.62973 -0.74646,-1.20779 -1.91627,-1.78957 -2.7265,-1.35596 -0.32057,0.17157 -0.58285,0.46046 -0.58285,0.64198 0,0.18153 -0.35122,0.65554 -0.78048,1.05337 -0.65818,0.60998 -1.06951,0.71905 -2.625,0.69607 -1.01449,-0.015 -4.61202,0.0722 -7.99452,0.19384 -9.52771,0.34253 -13.43081,0.16189 -14.107,-0.65286 -0.17002,-0.20486 -0.39252,-1.26552 -0.49444,-2.35702 -0.10193,-1.0915 -0.23808,-1.98455 -0.30257,-1.98455 -0.0645,0 -0.77438,0.37531 -1.57756,0.83402 -0.92646,0.52913 -2.17875,1.72385 -3.42557,3.26812 -4.44913,5.51054 -10.42321,8.24257 -17.11148,7.8253 -3.78631,-0.23622 -5.35097,-1.4627 -5.77047,-4.52326 -0.1848,-1.34829 -0.20561,-1.37043 -1.1246,-1.19669 -1.46676,0.27731 -1.93898,0.62773 -2.04137,1.51483 -0.11525,0.99855 -0.88344,1.21802 -1.90969,0.5456 -0.65607,-0.42987 -0.73718,-0.69909 -0.75313,-2.49984 -0.01,-1.10994 -0.12257,-2.65364 -0.25052,-3.43043 -0.12795,-0.7768 -0.15366,-1.53589 -0.0571,-1.68688 0.0965,-0.15099 1.12052,-0.2719 2.27552,-0.2687 1.155,0.003 3.855,-0.1426 6,-0.32402 2.145,-0.18142 4.26673,-0.33619 4.71495,-0.34395 l 0.81496,-0.0141 -1.33404,-1.90836 c -1.56537,-2.23927 -2.03523,-2.67646 -2.73138,-2.54141 -0.55487,0.10764 -0.9535,1.74977 -0.42475,1.74977 0.49191,0 0.36011,0.81668 -0.16428,1.0179 -1.08106,0.41484 -2.18772,0.17471 -2.80369,-0.60836 -0.34197,-0.43475 -0.62177,-0.97475 -0.62177,-1.2 0,-0.22525 -0.19916,-0.40954 -0.44258,-0.40954 -0.35877,0 -0.38322,0.1561 -0.12912,0.82445 0.17241,0.45345 0.51979,1.05244 0.77197,1.3311 0.57943,0.64026 0.33321,1.04549 -0.78437,1.29096 -0.58782,0.1291 -1.13103,0.0264 -1.64656,-0.31142 -0.63218,-0.41423 -0.76934,-0.73862 -0.76934,-1.81959 0,-1.25371 -0.0412,-1.3155 -0.87616,-1.3155 -0.74814,0 -0.90491,0.14247 -1.07289,0.975 -0.31561,1.56426 -1.10758,3.525 -1.42381,3.525 -0.16057,0 -0.19341,-0.23564 -0.0732,-0.525 0.50418,-1.21331 1.04604,-3.2194 1.04604,-3.87268 0,-0.60265 0.14901,-0.70232 1.05,-0.70232 l 1.05,0 0.031,-1.875 c 0.017,-1.03125 0.0776,-2.415 0.13458,-3.075 0.057,-0.66 -0.10564,-1.9425 -0.36139,-2.85 -0.79132,-2.80796 -1.33856,-6.10754 -1.16925,-7.05 0.30941,-1.72233 0.65178,-2.35544 1.11795,-2.06732 0.19588,0.12106 0.241,-0.0294 0.12163,-0.40549 -0.10438,-0.32887 -0.0547,-0.95327 0.11043,-1.38757 0.27543,-0.72442 0.23728,-0.78962 -0.46208,-0.78962 -0.41926,0 -1.04059,0.14894 -1.38073,0.33097 -0.87601,0.46883 -1.09825,-0.046 -0.72127,-1.67084 0.17028,-0.73395 0.40161,-1.1856 0.51405,-1.00366 0.11244,0.18194 0.35844,-0.46509 0.54666,-1.43784 0.18822,-0.97274 0.53342,-2.1169 0.76712,-2.54255 0.36503,-0.66489 0.36548,-0.83396 0.003,-1.2 -0.36269,-0.36644 -0.30835,-0.59875 0.38821,-1.65959 0.44546,-0.67844 1.22719,-1.50933 1.73716,-1.84644 l 0.92722,-0.61293 1.39778,1.19478 c 0.79427,0.67892 1.39777,1.45228 1.39777,1.79116 0,0.94098 -0.56658,1.75694 -1.21997,1.75694 -0.79332,0 -1.06743,0.79334 -0.49623,1.43617 0.73432,0.82642 1.13412,2.69625 0.75461,3.5292 -0.24067,0.52822 -0.23384,0.82866 0.026,1.1417 0.4141,0.49896 2.24327,0.14696 3.83129,-0.73729 0.87898,-0.48944 0.95411,-0.49107 1.06553,-0.0232 0.22295,0.93624 -0.10154,1.55223 -0.90815,1.724 -1.889,0.40227 -3.41207,1.13073 -3.70407,1.77159 -0.24812,0.54457 -0.10728,1.13661 0.72368,3.04199 1.6456,3.77337 2.09176,6.0272 1.85858,9.38879 -0.10976,1.58236 -0.21794,3.21453 -0.2404,3.62703 -0.0319,0.58666 0.12251,0.77229 0.70917,0.85235 0.96787,0.13209 1.65251,0.74677 2.89326,2.59765 0.55304,0.825 1.20816,1.77874 1.45582,2.11942 0.26113,0.3592 0.59794,1.9716 0.80175,3.83814 0.29682,2.71844 0.28521,3.28327 -0.0747,3.63397 -0.63375,0.61754 -2.06262,0.23309 -2.39638,-0.64477 -0.29417,-0.77371 -0.0709,-0.7597 -3.50476,-0.21991 -0.61875,0.0973 -1.29019,0.31334 -1.4921,0.48017 -0.5666,0.46818 0.22643,1.7345 1.92025,3.06623 l 1.44685,1.13756 2.3544,-0.18988 c 3.73411,-0.30114 5.22935,-0.72924 8.67787,-2.4845 3.13139,-1.59385 3.31047,-1.74024 5.73811,-4.69081 2.64127,-3.21023 6.43206,-6.94318 6.73904,-6.63621 0.0999,0.0999 -0.98748,1.31186 -2.41632,2.6933 -1.42884,1.38144 -3.13348,3.22847 -3.78809,4.1045 -1.90344,2.54728 -3.30654,3.68702 -6.50501,5.28407 -2.98101,1.48846 -4.59646,1.94769 -8.16112,2.32002 -2.51562,0.26275 -3.67681,-0.17605 -5.32909,-2.01378 -1.01256,-1.12622 -1.35978,-1.3658 -1.35978,-0.93825 0,1.05398 1.42996,2.5978 2.78042,3.00181 2.64708,0.79191 7.96274,0.26353 11.1671,-1.11002 2.73831,-1.17377 5.68767,-3.50664 7.73129,-6.11527 1.41819,-1.81027 2.40685,-2.74617 3.63051,-3.43676 0.92488,-0.52196 1.80493,-0.94903 1.95569,-0.94903 0.15075,0 0.36666,0.92166 0.47978,2.04813 0.11313,1.12647 0.31167,2.21963 0.44121,2.42923 0.12954,0.2096 0.75944,0.42645 1.39977,0.48191 0.64032,0.0555 1.97423,0.1853 2.96423,0.28856 0.99,0.10327 3.285,0.0785 5.1,-0.055 1.815,-0.13353 3.84,-0.17529 4.5,-0.0928 0.66,0.0825 3.12476,0.006 5.47724,-0.17073 3.6476,-0.27352 4.34176,-0.406 4.71546,-0.9 0.24102,-0.3186 0.44251,-0.67705 0.44776,-0.79657 0.005,-0.11951 0.41454,-0.42673 0.90954,-0.6827 0.80356,-0.41554 0.99336,-0.41713 1.77125,-0.0149 0.47919,0.2478 1.18794,0.87726 1.575,1.3988 1.5934,2.14701 3.03897,3.26828 4.99074,3.87112 2.15557,0.66579 5.17208,0.77195 7.62324,0.26828 1.93943,-0.3985 5.03977,-1.79402 5.03977,-2.26848 0,-0.35778 0.008,-0.35971 -4.48749,1.09182 -1.06563,0.34408 -2.69864,0.70516 -3.62893,0.80239 -1.5869,0.16587 -1.85649,0.091 -4.3625,-1.21229 -1.4691,-0.76399 -3.56751,-2.17879 -4.66314,-3.14401 -1.40444,-1.23725 -2.40362,-1.85856 -3.38726,-2.10625 -0.76736,-0.19322 -1.46782,-0.54056 -1.55658,-0.77187 -0.27024,-0.70424 0.42333,-7.53415 0.87482,-8.61471 0.35794,-0.85669 0.69037,-1.09686 2.15893,-1.55979 1.87738,-0.59179 3.52243,-1.51968 7.09488,-4.00185 2.11281,-1.468 5.65,-3.28389 7.45727,-3.82835 1.48908,-0.4486 6.36061,-3.23706 6.02145,-3.44667 -0.21173,-0.13086 0.29063,-0.68462 1.31822,-1.4531 0.91318,-0.68292 1.66033,-1.11731 1.66033,-0.96533 0,0.15199 -0.61699,0.70084 -1.37108,1.21968 -0.7541,0.51883 -1.30471,1.0097 -1.22359,1.09082 0.0811,0.0811 0.52936,-0.11503 0.99609,-0.43591 0.46672,-0.32087 1.20633,-0.79953 1.64359,-1.06368 0.78638,-0.47506 0.79545,-0.52003 0.83526,-4.14396 0.0285,-2.59668 -0.0663,-3.72956 -0.32572,-3.88987 -0.28541,-0.17639 -0.28019,-0.32954 0.0237,-0.69574 0.21434,-0.25826 0.50248,-0.39986 0.64032,-0.31467 0.34349,0.21228 2.92546,-0.41162 4.05846,-0.98068 0.88612,-0.44507 1.01194,-0.42473 2.85,0.46067 1.05761,0.50946 2.42919,1.12916 3.04794,1.3771 l 1.125,0.45079 0.0139,1.89031 c 0.008,1.03967 0.0474,3.07573 0.0884,4.52459 0.0906,3.20647 0.41805,2.82125 -4.45229,5.23807 -0.825,0.4094 -1.59956,0.91683 -1.72124,1.12765 -0.17181,0.29765 -0.64101,0.21579 -2.1,-0.36639 -2.52888,-1.00909 -3.17766,-1.65184 -3.28889,-3.25828 l -0.0899,-1.29803 -2.4,1.50579 c -2.95382,1.85326 -6.11956,3.45737 -9.37995,4.75291 -1.36397,0.54199 -2.80261,1.23924 -3.19697,1.54945 -1.7553,1.38071 -6.45335,4.3652 -7.67767,4.87731 -3.71935,1.55576 -3.61083,1.36014 -3.77382,6.8024 l -0.10378,3.46516 1.3143,0.35152 c 0.87427,0.23383 2.00124,0.95653 3.36609,2.15858 2.31089,2.03525 6.31526,4.20958 7.75259,4.20958 0.95797,0 3.91658,-0.70721 7.12421,-1.70294 1.60074,-0.49692 1.72502,-0.60074 1.72531,-1.44127 2.6e-4,-0.77515 0.22439,-1.03559 1.55406,-1.80579 0.85458,-0.495 2.03569,-1.1975 2.6247,-1.5611 0.9469,-0.58453 2.05216,-1.19337 5.24684,-2.89027 0.60553,-0.32163 1.03932,-0.37779 1.40528,-0.18194 0.29115,0.15582 0.88112,0.28331 1.31104,0.28331 1.07452,0 2.81394,0.94553 3.9869,2.16725 0.82776,0.86217 0.98444,1.2557 1.0135,2.54561 0.0372,1.65136 -0.30945,2.35272 -1.70578,3.45111 -0.75228,0.59176 -1.25199,0.69239 -3.63665,0.7323 -1.52049,0.0254 -2.90756,0.13467 -3.08237,0.24271 -0.1748,0.10803 -0.31783,1.00879 -0.31783,2.00167 l 0,1.80523 1.125,-0.0648 c 1.2965,-0.0747 2.775,0.26607 2.775,0.63961 0,0.1908 -4.53044,4.85027 -4.63131,4.76321 -0.0103,-0.009 -0.82869,-0.28195 -1.81869,-0.60683 z m -6.15,-2.22704 c 0,-0.0825 -0.0675,-0.15 -0.15,-0.15 -0.0825,0 -0.15,0.0675 -0.15,0.15 0,0.0825 0.0675,0.15 0.15,0.15 0.0825,0 0.15,-0.0675 0.15,-0.15 z m 6.69483,-2.475 c 0.0716,-0.12375 0.22432,-1.00125 0.3393,-1.95 0.18906,-1.56012 0.15536,-1.725 -0.35254,-1.725 -0.92895,0 -1.28159,0.63562 -1.28159,2.31 0,1.37389 0.0792,1.59 0.58229,1.59 0.32027,0 0.64091,-0.10125 0.71254,-0.225 z m -85.41425,-2.93059 c 0.0168,-0.32692 0.0506,-0.7509 0.075,-0.94216 0.0471,-0.36839 2.36373,-0.79946 6.77492,-1.2606 2.9473,-0.30812 3.36477,-0.24423 3.61801,0.55367 0.19284,0.60759 1.25704,1.0002 1.52703,0.56336 0.2315,-0.37458 -0.1714,-5.16657 -0.47581,-5.65912 -0.17241,-0.27896 -0.66954,-0.32309 -1.84292,-0.16357 -1.77646,0.24152 -3.92706,0.38857 -8.65681,0.59195 -2.3312,0.10024 -3.14932,0.23768 -3.14737,0.52875 0.0131,1.95983 0.57597,6.13957 0.85075,6.31777 0.57928,0.37567 1.24481,0.0995 1.2772,-0.53005 z m 4.61942,-1.06212 c 0,-0.15526 -0.135,-0.28229 -0.3,-0.28229 -0.165,0 -0.3,0.21047 -0.3,0.46771 0,0.25723 0.135,0.38427 0.3,0.28229 0.165,-0.10198 0.3,-0.31244 0.3,-0.46771 z m 75.6,0.46771 c 0,-0.0825 -0.0675,-0.15 -0.15,-0.15 -0.0825,0 -0.15,0.0675 -0.15,0.15 0,0.0825 0.0675,0.15 0.15,0.15 0.0825,0 0.15,-0.0675 0.15,-0.15 z m 14.625,-2.3852 c 1.8215,-1.97281 0.97354,-4.64297 -1.90883,-6.01075 -1.54293,-0.73217 -3.63684,-0.40175 -4.03146,0.63615 -0.44412,1.16813 -0.36476,1.26344 0.90963,1.09251 1.3917,-0.18667 2.89279,0.34584 3.34225,1.18565 0.4261,0.79618 -0.12202,2.06017 -1.2574,2.89959 -0.73477,0.54324 -0.81987,0.72803 -0.50622,1.09924 0.6349,0.75141 2.33554,0.30685 3.45203,-0.90239 z m -3.44464,-0.62561 c 1.7614,-1.19691 1.46795,-2.60453 -0.63045,-3.02421 -1.83577,-0.36715 -2.95727,1.06056 -2.105,2.67974 0.69291,1.31642 1.20938,1.38145 2.73545,0.34447 z m -88.68036,-5.73919 c -0.11,-0.11 -0.2,-0.02 -0.2,0.2 0,0.22 0.09,0.31 0.2,0.2 0.11,-0.11 0.11,-0.29 0,-0.4 z m -0.8,-0.85 c 0,-0.0825 -0.0675,-0.15 -0.15,-0.15 -0.0825,0 -0.15,0.0675 -0.15,0.15 0,0.0825 0.0675,0.15 0.15,0.15 0.0825,0 0.15,-0.0675 0.15,-0.15 z m 3.27891,-1.44271 c 0.0116,-0.13348 -0.11391,-0.15927 -0.27891,-0.0573 -0.165,0.10198 -0.29051,0.48119 -0.27891,0.84271 0.0203,0.6337 0.0303,0.63576 0.27891,0.0573 0.14181,-0.33 0.26732,-0.70922 0.27891,-0.84271 z m 0.9,0.0177 c 0.0116,-0.12374 -0.11391,-0.22499 -0.27891,-0.22499 -0.165,0 -0.29051,0.37125 -0.27891,0.825 0.0187,0.73105 0.0504,0.75668 0.27891,0.225 0.14181,-0.33 0.26732,-0.70125 0.27891,-0.825 z m -2.39551,-1.53133 c 0.1477,-0.38848 0.50259,-1.79547 0.78864,-3.12664 0.58498,-2.7222 0.50029,-3.13023 -1.18056,-5.68815 l -0.93893,-1.42887 -0.18706,2.25 c -0.26409,3.17644 -0.30328,8.26222 -0.0655,8.5 0.44334,0.44334 1.33015,0.15976 1.58341,-0.50634 z m 89.1166,-14.68248 2.55,-1.27305 0.0509,-3.86292 c 0.028,-2.12461 -0.0598,-4.15408 -0.1951,-4.50994 -0.16638,-0.43761 -0.94076,-0.9196 -2.39277,-1.48927 -1.18072,-0.46324 -2.19282,-0.7936 -2.24911,-0.73413 -0.0563,0.0595 -0.28494,2.15229 -0.50813,4.65072 -0.3978,4.45316 -0.40028,8.51515 -0.005,8.49953 0.10967,-0.004 1.3469,-0.58076 2.7494,-1.28094 z m -1.67098,-2.16511 c -0.3834,-0.9176 -0.38473,-1.16152 -0.0103,-1.88561 0.23654,-0.45742 0.76629,-1.01161 1.17722,-1.23154 0.65128,-0.34855 0.84507,-0.32794 1.51042,0.16061 0.90586,0.66516 1.07878,1.19704 0.71846,2.20992 -0.4182,1.17565 -1.1424,1.80055 -2.08663,1.80055 -0.70998,0 -0.94932,-0.19267 -1.30918,-1.05393 z m 0.53098,-5.60607 c -0.51299,-0.51299 -0.44705,-0.96822 0.22882,-1.57989 1.09907,-0.99464 2.34571,0.252 1.35107,1.35106 -0.61167,0.67588 -1.0669,0.74182 -1.57989,0.22883 z m -92.46,8.31 c 0,-0.2475 -0.0531,-0.45 -0.1179,-0.45 -0.0649,0 -0.19561,0.2025 -0.29059,0.45 -0.095,0.2475 -0.0419,0.45 0.1179,0.45 0.15983,0 0.29059,-0.2025 0.29059,-0.45 z m 4.5,-11.84058 c 0,-0.15983 -0.2025,-0.21288 -0.45,-0.11791 -0.2475,0.095 -0.45,0.22574 -0.45,0.29059 0,0.0648 0.2025,0.1179 0.45,0.1179 0.2475,0 0.45,-0.13076 0.45,-0.29058 z m 0.9,-0.75942 c 0,-0.0825 -0.0675,-0.15 -0.15,-0.15 -0.0825,0 -0.15,0.0675 -0.15,0.15 0,0.0825 0.0675,0.15 0.15,0.15 0.0825,0 0.15,-0.0675 0.15,-0.15 z m 96.45,43.26557 c -0.495,-0.35811 -1.63574,-1.18536 -2.53498,-1.83834 -0.89924,-0.65298 -1.48998,-1.23558 -1.31275,-1.29465 0.35527,-0.11843 5.28776,3.08172 5.44773,3.53442 0.17202,0.48683 -0.66112,0.27779 -1.6,-0.40143 z m -131.377,-1.77141 c -0.0676,-0.21679 -0.19739,-1.80065 -0.28847,-3.51969 -0.11473,-2.16569 -0.0697,-3.02962 0.1467,-2.81323 0.17176,0.17175 0.38984,1.61199 0.48461,3.20052 0.15213,2.54991 0.23743,2.88824 0.72824,2.88824 0.41622,0 0.55592,-0.22351 0.55592,-0.88945 0,-0.57233 0.20689,-1.00016 0.58028,-1.2 0.31915,-0.1708 2.34749,-0.31055 4.50742,-0.31055 3.91292,0 3.92818,0.003 4.2123,0.75 0.27944,0.73499 1.01064,0.95998 1.69128,0.52041 0.52144,-0.33677 -0.0133,-5.49829 -0.61518,-5.93843 -0.28695,-0.20981 -0.96201,-0.26312 -1.77322,-0.14001 -0.72044,0.10934 -2.2177,0.10483 -3.32725,-0.01 -1.10956,-0.11484 -2.58173,-0.0804 -3.2715,0.0765 -0.68977,0.15689 -1.96866,0.1975 -2.84199,0.0902 -1.81264,-0.22264 -1.79575,-0.0827 -0.40366,-3.34489 l 0.78784,-1.84625 3.49258,-0.20984 c 1.92091,-0.11542 3.76118,-0.12459 4.08949,-0.0204 0.32831,0.1042 1.01821,0.96194 1.5331,1.90609 1.12383,2.06075 1.65057,2.76665 2.06448,2.76665 0.47036,0 0.70207,0.81624 0.97936,3.45 0.13897,1.32 0.34019,2.68395 0.44716,3.031 0.17384,0.56405 0.0441,0.65162 -1.22293,0.82528 -1.46263,0.20048 -2.22956,-0.1067 -2.22956,-0.89301 0,-0.32878 -0.75129,-0.41233 -3.675,-0.40868 -2.02125,0.002 -3.83157,0.10422 -4.02293,0.22598 -0.19136,0.12176 -0.39386,0.62594 -0.45,1.1204 -0.0874,0.76982 -0.2425,0.91256 -1.07913,0.99319 -0.61313,0.0591 -1.02283,-0.0526 -1.09994,-0.3 z m 10.8157,-8.13286 c 0.0706,-0.0706 -0.32782,-0.99078 -0.88539,-2.04483 -1.17571,-2.22264 -1.26746,-2.25322 -5.76382,-1.92063 l -2.71051,0.20049 -0.66449,1.71367 c -0.36547,0.94252 -0.66449,1.86748 -0.66449,2.05546 0,0.2469 1.46599,0.31159 5.28016,0.233 2.90409,-0.0598 5.33793,-0.16655 5.40854,-0.23716 z m -19.40509,2.31895 c -0.30826,-0.37143 -0.31595,-0.67415 -0.0367,-1.4463 0.46308,-1.28063 0.44773,-1.40143 -0.14896,-1.17245 -0.40556,0.15563 -0.45338,0.0817 -0.24872,-0.38442 0.44025,-1.00278 0.53251,-5.56289 0.17554,-8.67708 -0.18913,-1.65 -0.40355,-4.215 -0.4765,-5.7 -0.32264,-6.56825 -0.6345,-8.18893 -1.35614,-7.04749 -0.25726,0.40691 -0.36153,2.20306 -0.47877,8.24749 -0.0537,2.76721 -0.0654,2.85 -0.40277,2.85 -0.47242,0 -1.06375,-1.29894 -0.65358,-1.43566 0.18866,-0.0629 0.34302,-0.24606 0.34302,-0.40705 0,-0.16098 -0.10794,-0.22599 -0.23987,-0.14445 -0.34399,0.2126 -0.38172,-5.72551 -0.059,-9.28711 0.36692,-4.04939 0.85624,-5.78788 1.79707,-6.38485 1.39968,-0.88811 1.57748,-1.54088 0.4197,-1.54088 -0.58357,0 -0.73674,-0.11818 -0.60343,-0.46558 0.10245,-0.26698 0.0522,-0.3874 -0.11791,-0.2823 -0.44133,0.27276 -0.35958,-0.37864 0.19389,-1.545 0.60279,-1.27028 1.84412,-1.96521 3.07179,-1.71967 0.95227,0.19045 3.40202,2.54113 2.84258,2.72761 -0.17585,0.0586 -0.56331,0.28469 -0.86102,0.50238 -0.73709,0.53897 -0.39561,1.26929 0.83362,1.7829 1.1943,0.49901 1.40365,1.07528 2.35955,6.49486 0.36331,2.05986 0.84092,3.92555 1.06135,4.14598 0.22043,0.22043 0.4813,0.76259 0.57971,1.2048 0.0984,0.44221 0.38501,1.37268 0.63689,2.06771 0.51743,1.42781 0.36288,2.18631 -0.4455,2.18631 -0.59687,0 -1.26942,-0.54041 -1.26942,-1.02 0,-0.16667 0.16,-0.14 0.36,0.06 0.6349,0.6349 0.87002,0.38471 0.3641,-0.38742 -0.26935,-0.41109 -0.58575,-0.68808 -0.70312,-0.61555 -0.11736,0.0725 -0.45738,-0.80884 -0.75559,-1.9586 -0.29821,-1.14977 -0.64112,-2.15163 -0.76202,-2.22635 -0.12091,-0.0747 -0.16868,0.90674 -0.10616,2.18103 0.133,2.71098 0.21139,3.27549 0.49411,3.55821 0.33434,0.33434 0.23825,2.99822 -0.23825,6.60467 -0.47152,3.56878 -0.29335,4.94988 0.69289,5.37125 0.41838,0.17875 0.37657,0.2501 -0.24596,0.41983 -0.52038,0.14188 -0.72322,0.38182 -0.66252,0.78371 0.39801,2.63532 0.41522,3.12922 0.10903,3.12922 -0.36547,0 -1.54651,-2.39302 -1.54651,-3.13354 0,-0.25655 -0.14112,-0.46646 -0.31359,-0.46646 -0.18939,0 -0.25342,0.44559 -0.16167,1.125 0.0836,0.61875 0.0766,0.855 -0.0155,0.525 -0.27553,-0.98722 -0.8174,-1.33033 -0.59224,-0.375 0.19506,0.82757 0.013,0.97925 -1.00085,0.83388 -0.35475,-0.0509 -0.36489,0.0209 -0.0556,0.39353 0.31302,0.37716 0.27484,0.51109 -0.22141,0.77667 -0.80841,0.43265 -1.09571,0.40516 -1.55548,-0.14883 z m 0.99118,-1.78741 c 0.0796,-0.41644 0.0279,-0.82941 -0.11502,-0.9177 -0.14287,-0.0883 -0.25977,0.0389 -0.25977,0.28262 0,0.24374 -0.0819,0.65671 -0.1821,0.9177 -0.10015,0.261 -0.0484,0.47454 0.11503,0.47454 0.16342,0 0.36226,-0.34072 0.44186,-0.75716 z m 3.43693,-4.41784 c -0.0715,-0.37125 -0.13001,-0.0675 -0.13001,0.675 0,0.7425 0.0585,1.04625 0.13001,0.675 0.0715,-0.37125 0.0715,-0.97875 0,-1.35 z m -2.91172,0.80729 c 0,-0.25723 -0.135,-0.38427 -0.3,-0.28229 -0.165,0.10198 -0.3,0.31244 -0.3,0.46771 0,0.15526 0.135,0.28229 0.3,0.28229 0.165,0 0.3,-0.21047 0.3,-0.46771 z m 2.1,-0.28229 c 0,-0.0825 -0.0675,-0.15 -0.15,-0.15 -0.0825,0 -0.15,0.0675 -0.15,0.15 0,0.0825 0.0675,0.15 0.15,0.15 0.0825,0 0.15,-0.0675 0.15,-0.15 z m -1.14629,-7.64931 c -0.11346,-3.18233 -0.65371,-3.66246 -0.65371,-0.58097 0,1.71811 0.32575,3.27712 0.68556,3.28097 0.0354,3e-4 0.0211,-1.21462 -0.0318,-2.7 z m -0.44878,-12.05694 c -0.0958,-0.23932 -0.16685,-0.16823 -0.18125,0.18125 -0.013,0.31625 0.0579,0.49344 0.15757,0.39375 0.0997,-0.0997 0.11035,-0.35844 0.0237,-0.575 z m 3.99507,-0.0937 c 0,-0.0825 -0.0675,-0.15 -0.15,-0.15 -0.0825,0 -0.15,0.0675 -0.15,0.15 0,0.0825 0.0675,0.15 0.15,0.15 0.0825,0 0.15,-0.0675 0.15,-0.15 z m -1.46625,-5.33625 c -0.245,-0.245 -0.33375,-0.21143 -0.33375,0.12625 0,0.59636 0.40341,0.99977 0.5525,0.5525 0.0632,-0.18975 -0.0352,-0.49519 -0.21875,-0.67875 z m -4.23375,-3.81375 c 0,-0.165 -0.0595,-0.3 -0.13229,-0.3 -0.0728,0 -0.21573,0.135 -0.31771,0.3 -0.10198,0.165 -0.0424,0.3 0.13229,0.3 0.17474,0 0.31771,-0.135 0.31771,-0.3 z m 3.9,34.35 c 0,-0.0825 0.0675,-0.15 0.15,-0.15 0.0825,0 0.15,0.0675 0.15,0.15 0,0.0825 -0.0675,0.15 -0.15,0.15 -0.0825,0 -0.15,-0.0675 -0.15,-0.15 z m 134.02133,-0.3821 c -0.95659,-0.20503 -0.21165,-0.66794 1.07138,-0.66577 2.21673,0.004 5.30729,0.37648 5.30729,0.64006 0,0.24305 -5.26562,0.26428 -6.37867,0.0257 z m -56.32133,-3.5179 c 0,-0.9075 -0.135,-1.65 -0.3,-1.65 -0.165,0 -0.3,0.66236 -0.3,1.47191 0,1.32422 -0.0602,1.45617 -0.6,1.31502 -0.48593,-0.12708 -0.6,-0.40921 -0.6,-1.48394 l 0,-1.32702 -1.34976,0.087 c -1.03311,0.0666 -1.34981,0.20603 -1.35,0.59431 -1.3e-4,0.27902 -0.13524,0.59073 -0.30024,0.69271 -0.165,0.10198 -0.3,0.47444 -0.3,0.82771 0,0.49956 -0.08,0.56229 -0.36,0.28229 -0.48996,-0.48996 -0.84,-0.45246 -0.84,0.09 0,0.2475 -0.1276,0.45 -0.28356,0.45 -0.15596,0 -0.32471,-0.64125 -0.375,-1.425 -0.0839,-1.30727 -0.16002,-1.43288 -0.92153,-1.52042 -0.90651,-0.1042 -0.83571,-0.65458 0.0842,-0.65458 0.42393,0 0.6163,-0.28639 0.75567,-1.125 0.27839,-1.67511 0.52077,-2.16799 0.66387,-1.35 0.1141,0.65224 0.97635,0.98342 0.97635,0.375 0,-0.165 0.14977,-0.3 0.33282,-0.3 0.20379,0 0.28525,0.40753 0.21011,1.05114 -0.10333,0.88506 -0.0414,1.02533 0.39193,0.8878 0.28306,-0.0898 0.60147,-0.0229 0.7076,0.14886 0.10612,0.17171 0.50523,0.3122 0.8869,0.3122 0.76124,0 0.8505,-0.3057 1.25066,-4.28343 0.19899,-1.97803 0.71998,-3.12444 0.71998,-1.58428 0,0.42224 0.1251,0.76771 0.278,0.76771 0.1529,0 0.34109,0.23625 0.4182,0.525 0.11873,0.44462 0.17339,0.42165 0.35699,-0.15 0.11923,-0.37125 0.33604,-0.675 0.4818,-0.675 0.3654,0 0.33527,1.42117 -0.035,1.65 -0.4009,0.24777 -0.39125,3.75 0.0103,3.75 0.20022,0 0.23811,-0.55885 0.10678,-1.575 -0.20148,-1.55887 -0.19741,-1.56954 0.39723,-1.0419 0.4257,0.37773 0.57671,0.83675 0.51813,1.575 -0.0813,1.02449 -0.0632,1.0419 1.0821,1.0419 l 1.16476,0 0.19988,-1.50673 c 0.21919,-1.65233 0.57119,-2.13722 0.8694,-1.19763 0.1055,0.3324 0.3355,0.60436 0.51111,0.60436 0.19835,0 0.25941,0.44637 0.16121,1.17853 -0.12146,0.90551 -0.0651,1.14283 0.24342,1.02445 0.22082,-0.0847 0.46102,-0.37882 0.53377,-0.65352 0.0914,-0.34509 0.14303,-0.29084 0.16708,0.17554 0.0334,0.64775 0.6348,0.9976 0.6348,0.36928 0,-0.17598 0.31706,-0.22613 0.7472,-0.11817 0.88192,0.22134 0.97439,0.0373 1.17676,-2.34274 0.0803,-0.94415 0.32009,-2.02415 0.53291,-2.4 0.35919,-0.63436 0.40431,-0.55428 0.62912,1.11663 0.13321,0.99 0.2594,2.24037 0.28044,2.7786 0.0314,0.80316 0.13644,0.94744 0.58591,0.80479 0.7023,-0.2229 1.81027,0.1226 1.58128,0.4931 -0.0963,0.15581 -0.30667,0.20197 -0.46749,0.10258 -0.16083,-0.0994 -0.48309,-0.0225 -0.71613,0.17093 -0.23304,0.19341 -0.56463,0.26456 -0.73686,0.15812 -0.19144,-0.11833 -0.31313,0.16309 -0.31313,0.72417 0,0.50474 -0.135,0.91771 -0.3,0.91771 -0.165,0 -0.3,0.297 -0.3,0.66 0,1.12438 -0.55208,0.18872 -0.65495,-1.11 -0.0802,-1.01193 -0.20996,-1.21622 -0.82824,-1.30349 -0.43926,-0.062 -0.88227,0.10038 -1.10504,0.40504 -0.20452,0.27969 -0.51583,0.41955 -0.69181,0.31079 -0.19055,-0.11777 -0.31996,0.0764 -0.31996,0.47995 0,0.77523 -0.46072,0.44465 -0.68608,-0.49229 -0.0842,-0.34992 -0.15883,-0.14641 -0.17912,0.48827 -0.056,1.75194 -1.22322,2.30229 -1.24434,0.58673 -0.0137,-1.11488 -0.66937,-1.83658 -1.59861,-1.75967 -0.73193,0.0606 -1.16805,0.53467 -0.49185,0.53467 0.165,0 0.3,0.28444 0.3,0.6321 0,0.43861 -0.13775,0.57923 -0.45,0.45941 -0.32782,-0.1258 -0.45968,0.0488 -0.48564,0.6429 -0.0209,0.47953 -0.154,0.16662 -0.32288,-0.75941 -0.3761,-2.06222 -0.71906,-2.01876 -0.58872,0.0746 0.0658,1.05618 -0.0152,1.65041 -0.225,1.65041 -0.19729,0 -0.32776,-0.65682 -0.32776,-1.65 z m -0.3921,-3.36929 c -0.0761,-0.29189 -0.1433,-0.12571 -0.14942,0.36929 -0.006,0.495 0.0561,0.73382 0.1383,0.53071 0.0822,-0.20311 0.0872,-0.60811 0.0111,-0.9 z m 5.3421,-0.0807 c 0.10198,-0.165 0.11791,-0.3 0.0354,-0.3 -0.0825,0 -0.23343,0.135 -0.33541,0.3 -0.10198,0.165 -0.11791,0.3 -0.0354,0.3 0.0825,0 0.23343,-0.135 0.33541,-0.3 z m -5.35,-2 c -0.11,-0.11 -0.2,-0.02 -0.2,0.2 0,0.22 0.09,0.31 0.2,0.2 0.11,-0.11 0.11,-0.29 0,-0.4 z m -51.25973,3.94027 c -0.0789,-0.0789 -0.94145,-0.20502 -1.91684,-0.28031 -0.97539,-0.0753 -1.84093,-0.14619 -1.92343,-0.15755 -0.0825,-0.0114 0.0862,-0.15825 0.37498,-0.32643 0.58894,-0.34302 4.12502,-0.0472 4.12502,0.34506 0,0.30972 -0.47035,0.60861 -0.65973,0.41923 z m 105.05973,-1.02266 c 0,-0.18281 0.61919,-0.70031 1.37597,-1.15 0.75678,-0.44968 2.03928,-1.2486 2.85,-1.77537 0.90657,-0.58904 1.47403,-0.80901 1.47403,-0.57139 0,0.2125 -1.18125,1.11599 -2.625,2.00776 -3.13577,1.93688 -3.075,1.90745 -3.075,1.489 z m -83.54648,-0.62332 c 0.21898,-0.3543 2.9769,-1.79429 3.43651,-1.79429 0.6853,0 0.2235,0.49292 -1.19451,1.275 -1.50955,0.83256 -2.59032,1.08289 -2.242,0.51929 z m 18.45905,-1.64429 c -0.34286,-6.04829 -0.26597,-6.53218 1.13067,-7.11591 0.51366,-0.21468 3.58606,-0.35538 8.45676,-0.38727 4.2075,-0.0275 8.9325,-0.14865 10.5,-0.26911 3.80683,-0.29254 5.10204,-0.004 5.74873,1.27964 0.27431,0.54456 0.54888,1.04026 0.61015,1.10153 0.0613,0.0613 0.91684,-0.0593 1.90126,-0.26787 1.361,-0.28839 2.36491,-0.79589 4.18986,-2.11806 2.28612,-1.65629 6.03834,-3.72856 7.65,-4.22493 0.74845,-0.23052 2.47523,-1.06789 5.81728,-2.82098 0.972,-0.50987 1.9845,-0.92463 2.25,-0.92168 0.51921,0.006 -6.13647,3.38429 -9.99604,5.07414 -1.29325,0.56623 -3.62844,1.95449 -5.18932,3.08502 -2.08583,1.51076 -3.2877,2.1629 -4.53494,2.4607 -0.93334,0.22285 -1.88188,0.45459 -2.10787,0.51498 -0.24376,0.0651 -0.54882,-0.28285 -0.75,-0.85554 -0.74186,-2.11182 0.0954,-2.00927 -14.35178,-1.75802 -6.87751,0.11961 -9.15328,0.25554 -9.96641,0.59528 l -1.05374,0.44029 -0.0928,4.14389 c -0.0629,2.80847 -0.13114,3.46714 -0.21182,2.0439 z m 59.69697,1.2572 c -0.008,-0.20278 2.31568,-5.19285 2.59938,-5.5822 0.0501,-0.0688 0.16849,-0.0476 0.26309,0.047 0.20144,0.20143 -1.68007,4.30088 -2.37651,5.17799 -0.26203,0.33 -0.48071,0.49074 -0.48596,0.35721 z m -99.44306,-3.3847 c -0.75156,-0.92263 -1.36122,-1.83388 -1.35479,-2.025 0.0123,-0.36437 3.26839,3.08674 3.28103,3.4775 0.0195,0.60149 -0.68704,0.0688 -1.92624,-1.4525 z m 19.03352,-0.28541 c 0,-0.40959 2.80594,-3.10708 3.06528,-2.94681 0.16074,0.0994 -0.35686,0.83966 -1.15023,1.64515 -1.31171,1.33172 -1.91505,1.74182 -1.91505,1.30166 z m -17.65832,-3.91199 c -2.05441,-2.43144 -2.36769,-3.41256 -0.40647,-1.27296 1.67825,1.83088 2.76479,3.15373 2.76479,3.36611 0,0.51237 -0.62707,-0.0442 -2.35832,-2.09315 z m 15.85832,1.35803 c 0,-0.23679 1.70164,-3.71925 2.325,-4.75819 0.0413,-0.0687 0.16804,-0.0319 0.28177,0.0818 0.24134,0.24134 -2.01109,4.99323 -2.36684,4.99323 -0.13196,0 -0.23993,-0.14256 -0.23993,-0.31681 z m -38.25,-2.38319 c 0.10198,-0.165 0.24494,-0.3 0.31771,-0.3 0.0728,0 0.13229,0.135 0.13229,0.3 0,0.165 -0.14297,0.3 -0.31771,0.3 -0.17473,0 -0.23427,-0.135 -0.13229,-0.3 z m 136.65004,-0.765 c 2e-5,-0.15675 0.33854,-1.365 0.75225,-2.685 0.42786,-1.36511 0.83335,-3.56495 0.94039,-5.10163 0.16938,-2.43182 0.10996,-2.91845 -0.59495,-4.87264 -0.89626,-2.48464 -1.85018,-4.44913 -2.29344,-4.72308 -0.35963,-0.22226 -0.40732,-0.75265 -0.0677,-0.75265 0.4743,0 2.23577,3.32649 2.96987,5.60852 0.91202,2.83514 0.82049,5.34347 -0.34748,9.52159 -0.65082,2.32811 -1.35909,3.89422 -1.35896,3.00489 z m -140.40004,-0.75271 c 0,-0.17473 0.135,-0.23427 0.3,-0.13229 0.165,0.10198 0.3,0.24494 0.3,0.31771 0,0.0728 -0.135,0.13229 -0.3,0.13229 -0.165,0 -0.3,-0.14297 -0.3,-0.31771 z m 138.75044,-4.10729 c 1.08451,-2.65277 0.97291,-6.60273 -0.25428,-9 -0.44345,-0.86625 -0.67174,-1.575 -0.50731,-1.575 0.53129,0 1.49827,2.31375 1.86795,4.46956 0.31137,1.8158 0.28784,2.40644 -0.17394,4.36518 -0.29372,1.2459 -0.67196,2.26526 -0.84054,2.26526 -0.17368,0 -0.2135,-0.22752 -0.0919,-0.525 z m -1.52007,-3.14509 c 0.1584,-1.47913 0.0941,-2.22995 -0.26448,-3.08815 -0.58019,-1.38858 -0.38867,-1.74278 0.26199,-0.48454 0.55914,1.08126 0.65675,4.99327 0.13266,5.31717 -0.24716,0.15275 -0.28255,-0.32157 -0.13017,-1.74448 z m -2.35715,-0.79147 c 0.12564,-0.94714 0.0765,-1.53412 -0.13967,-1.6677 -0.18345,-0.11338 -0.33355,-0.34971 -0.33355,-0.52518 0,-0.20117 0.16623,-0.18106 0.45,0.0544 0.52161,0.4329 0.64448,3.6 0.13967,3.6 -0.19785,0 -0.24006,-0.52979 -0.11645,-1.46156 z m -26.57322,-10.55039 c 0,-1.23643 3.30178,-5.79188 5.10231,-7.03965 1.94683,-1.34915 6.59769,-2.51115 6.59769,-1.6484 0,0.165 -0.44629,0.3 -0.99175,0.3 -0.54546,0 -1.86171,0.2912 -2.925,0.6471 -1.59814,0.53494 -2.27126,0.99075 -3.88325,2.62962 -1.0725,1.09038 -2.33735,2.75668 -2.81077,3.7029 -0.85325,1.70536 -1.08923,2.01049 -1.08923,1.40843 z m 4.51764,-0.22795 c -0.0691,-1.52812 2.87518,-4.1495 5.60736,-4.99231 1.3551,-0.41802 0.6276,0.32911 -1.08665,1.11597 -1.59675,0.73293 -3.19294,2.15366 -4.14571,3.69 -0.20811,0.33559 -0.36472,0.41341 -0.375,0.18634 z m -8.71764,-1.58976 c 0,-0.34631 0.21141,-1.07518 0.46981,-1.61971 0.69105,-1.45629 5.30499,-6.81296 6.70247,-7.78142 1.63609,-1.13381 4.49556,-2.13232 7.34203,-2.5638 2.10066,-0.31843 2.41551,-0.30317 2.84868,0.13804 0.45129,0.45966 0.42681,0.48127 -0.33393,0.29479 -1.17529,-0.28811 -4.46732,0.35336 -7.17781,1.39863 -2.11243,0.81464 -2.55904,1.14259 -4.77438,3.50592 -2.82082,3.00923 -3.94155,4.55129 -4.45677,6.13221 -0.41162,1.26303 -0.6201,1.42957 -0.6201,0.49534 z"
         style="fill:#000000" />
      <g
         id="g4148">
        <path
           style="fill:#069d3b"
           d="m 191.51103,257.90178 c -0.11179,-0.11179 -0.1169,-0.85429 -0.0113,-1.65 0.21122,-1.59218 -0.31837,-2.07844 -0.67712,-0.62173 -0.28726,1.16645 -1.05611,2.28299 -1.30015,1.88811 -0.26617,-0.43066 1.53904,-5.66701 2.01689,-5.85038 0.26167,-0.10041 0.38137,0.23857 0.39609,1.12169 0.0116,0.69607 0.12033,1.51815 0.24165,1.82685 0.17787,0.45264 0.29224,0.32201 0.59095,-0.675 0.20371,-0.67995 0.50906,-1.23627 0.67856,-1.23627 0.35521,0 0.22322,0.53532 -0.83213,3.375 -0.79875,2.14922 -0.79014,2.135 -1.1034,1.82173 z m 3.86822,-1.80068 c 0.22479,-0.63033 0.41464,-1.45404 0.42188,-1.83047 0.0125,-0.65109 0.74886,-1.22989 1.10788,-0.87087 0.26317,0.26317 -0.80283,2.81964 -1.40175,3.36166 -0.51251,0.46382 -0.51829,0.43402 -0.12801,-0.66032 z m -9.64649,-0.55208 c -0.46084,-0.70333 -0.46036,-0.8477 0.007,-2.07103 0.66512,-1.74159 1.79417,-2.94042 2.65418,-2.81822 0.59107,0.084 0.66521,0.259 0.62568,1.47688 -0.0656,2.02117 -1.29413,4.12959 -2.42324,4.15886 -0.20244,0.005 -0.591,-0.33067 -0.86345,-0.74649 z m 2.01728,-1.2049 c 0.666,-1.50561 0.6571,-2.98907 -0.0179,-2.98907 -0.2377,0 -0.76401,0.64479 -1.16957,1.43286 -0.61521,1.19548 -0.68136,1.55582 -0.39924,2.175 0.49186,1.07951 0.90715,0.91756 1.58675,-0.61879 z"
           id="path3469"
           inkscape:connector-curvature="0"
           transform="translate(-1.6049237,0.40122472)" />
        <ellipse
           transform="matrix(0.86586507,0.5002776,-0.5002776,0.86586507,0,0)"
           ry="0.6921652"
           rx="0.49440375"
           cy="127.73144"
           cx="296.70541"
           id="path4145"
           style="fill:#069d3b;fill-opacity:1" />
      </g>
    </g>
  </g>
</svg>
