<?xml version="1.0" encoding="UTF-8" standalone="no"?>
<!-- Created with Inkscape (http://www.inkscape.org/) -->

<svg
   xmlns:dc="http://purl.org/dc/elements/1.1/"
   xmlns:cc="http://creativecommons.org/ns#"
   xmlns:rdf="http://www.w3.org/1999/02/22-rdf-syntax-ns#"
   xmlns:svg="http://www.w3.org/2000/svg"
   xmlns="http://www.w3.org/2000/svg"
   xmlns:sodipodi="http://sodipodi.sourceforge.net/DTD/sodipodi-0.dtd"
   xmlns:inkscape="http://www.inkscape.org/namespaces/inkscape"
   width="320pt"
   height="320pt"
   viewBox="0 0 400.00001 400"
   id="svg2"
   version="1.1"
   inkscape:version="0.91 r13725"
   sodipodi:docname="3-logos-sm.svg">
  <defs
     id="defs4" />
  <sodipodi:namedview
     id="base"
     pagecolor="#808080"
     bordercolor="#666666"
     borderopacity="1.0"
     inkscape:pageopacity="0"
     inkscape:pageshadow="2"
     inkscape:zoom="1.4"
     inkscape:cx="221.63726"
     inkscape:cy="251.98225"
     inkscape:document-units="px"
     inkscape:current-layer="layer1"
     showgrid="false"
     units="pt"
     inkscape:window-width="1280"
     inkscape:window-height="752"
     inkscape:window-x="0"
     inkscape:window-y="0"
     inkscape:window-maximized="1" />
  <metadata
     id="metadata7">
    <rdf:RDF>
      <cc:Work
         rdf:about="">
        <dc:format>image/svg+xml</dc:format>
        <dc:type
           rdf:resource="http://purl.org/dc/dcmitype/StillImage" />
        <dc:title></dc:title>
      </cc:Work>
    </rdf:RDF>
  </metadata>
  <g
     inkscape:label="Calque 1"
     inkscape:groupmode="layer"
     id="layer1"
     transform="translate(0,-652.36222)">
    <g
       id="g4170"
       transform="translate(-145,243.57143)"
       style="fill:#ffffff;fill-opacity:0.12">
      <path
         inkscape:connector-curvature="0"
         style="fill:#ffffff;fill-opacity:0.12"
         d="m 417.9164,674.66512 c -1.66504,0.10654 1.10241,0.31534 0,0 z m -0.17116,0.2358 c -11.24452,3.76964 -22.7092,9.19517 -34.7295,8.51066 -7.67998,6.11998 3.60893,17.35733 -0.2848,26.84021 1.3811,16.41792 -2.78428,32.99208 0.55966,49.27655 3.78868,11.71454 17.54632,14.61871 27.61577,18.8978 11.13117,3.13385 19.35255,-10.36889 30.42619,-12.8151 11.30489,-4.14259 23.2499,-12.56752 19.47393,-26.32722 -0.51562,-15.73263 -0.73728,-31.47321 -0.81746,-47.21364 -14.36183,-5.07432 -27.45292,-13.35573 -42.24358,-17.16926 z m 7.23297,7.24852 c 10.54971,4.30594 25.3768,6.13795 31.31681,16.72239 1.8551,18.35782 0.67826,36.83964 0.64772,55.25492 -11.9281,5.81444 -23.60635,12.19607 -35.86663,17.28602 -3.79883,-11.111 -1.34104,-24.0293 -1.48174,-35.80804 1.14964,-17.74497 2.27783,-35.82325 5.10338,-53.23995 l 0.28053,-0.2152 0,-7e-5 z"
         id="path4281" />
      <path
         inkscape:connector-curvature="0"
         style="fill:#ffffff;fill-opacity:0.12"
         d="m 510.5966,680.15635 c -0.48792,7.96926 11.35482,18.93622 13.12476,29.4664 5.63327,12.75338 9.14304,26.57387 6.8834,40.5737 -0.91938,18.12579 -6.89938,35.31692 -11.45559,52.7011 4.47169,0.96554 7.57856,-16.51508 9.91597,-22.95502 6.73816,-22.52547 8.76222,-47.52272 -1.14608,-69.47128 -4.33839,-10.19062 -8.7841,-20.60702 -15.74079,-29.31733 l -1.5816,-0.99757 -7e-5,0 z"
         id="path4277" />
      <path
         inkscape:connector-curvature="0"
         style="fill:#ffffff;fill-opacity:0.12"
         d="m 439.03336,696.99578 c -13.85252,-0.51846 -9.12046,22.20701 2.12413,13.12476 5.3604,-3.27845 5.4913,-13.17291 -2.12413,-13.12476 z"
         id="path4275" />
      <path
         inkscape:connector-curvature="0"
         style="fill:#ffffff;fill-opacity:0.12"
         d="m 502.82876,698.43078 c 2.98656,11.39708 9.45362,22.13116 9.7821,34.34428 1.58934,13.47106 -0.8904,27.06819 -5.06573,39.76171 6.67389,-3.51177 7.77928,-20.32613 9.29958,-29.44467 0.87492,-15.31906 -6.05081,-29.34829 -13.90963,-41.98634 0.0838,0.16407 -1.54196,-2.73648 -0.10653,-2.67498 z"
         id="path4273" />
      <path
         inkscape:connector-curvature="0"
         style="fill:#ffffff;fill-opacity:0.12"
         d="m 493.86065,719.29902 c 3.20338,11.28863 5.93845,23.37518 3.30203,35.47204 0.83984,14.6886 5.60174,-6.96927 3.66667,-11.78805 -0.66477,-8.03105 -0.53622,-17.95633 -6.9687,-23.68399 z"
         id="path4271" />
      <path
         inkscape:connector-curvature="0"
         style="fill:#ffffff;fill-opacity:0.12"
         d="m 440.80764,725.38641 c -11.28969,2.20999 -18.80426,16.69078 -10.69374,26.27793 9.74083,10.98798 25.16103,-5.65238 22.03044,-16.98922 -1.89608,-4.45182 -6.61579,-8.28638 -11.3367,-9.28871 z"
         id="path4269" />
      <path
         inkscape:connector-curvature="0"
         style="fill:#ffffff;fill-opacity:0.12"
         d="m 479.34165,727.59456 c 4.41538,6.29754 0.7539,17.81719 3.18904,25.65961 3.57639,-6.06814 3.60054,-21.41135 -3.18904,-25.65961 z"
         id="path4267" />
    </g>
    <g
       style="fill:#ffffff;fill-opacity:0.12000002"
       transform="matrix(-5.3430678,0,0,5.3430681,963.46597,-816.686)"
       id="g4307">
      <path
         id="path4265"
         d="m 166.77044,276.01371 c -0.71606,1.02978 -1.1626,2.32111 -1.74219,3.46364 -0.2572,0.50959 -1.33859,2.81885 -0.21167,1.36301 0.86078,-1.47538 1.66115,-3.02266 2.14157,-4.66548 0.0223,-0.10832 -0.10714,-0.15167 -0.18771,-0.16117 z"
         style="fill:#ffffff;fill-opacity:0.12000002"
         inkscape:connector-curvature="0" />
      <path
         id="path4263"
         d="m 174.68746,278.91306 c -1.09895,0.30618 -2.15765,1.27428 -3.2288,1.84451 -0.59793,0.48986 -2.24727,1.01712 -1.96582,1.79005 1.73876,-0.92092 3.44156,-1.96127 4.98954,-3.18274 0.11305,-0.13325 0.44696,-0.3212 0.20508,-0.45182 z"
         style="fill:#ffffff;fill-opacity:0.12000002"
         inkscape:connector-curvature="0" />
      <path
         id="path4261"
         d="m 162.66859,282.79753 c -0.0813,-0.0152 0.0262,0.0342 0,0 z m 0.004,0.0106 c -1.06529,0.24919 -2.20229,0.96022 -3.24492,1.51393 -2.07008,1.11437 -4.08178,2.33858 -6.07944,3.57447 -0.61524,0.77074 -0.90155,1.70413 -1.59463,2.48152 1.39347,-0.471 0.7126,1.04079 1.30431,1.78686 0.34302,1.54035 1.96041,0.86984 3.01099,0.74098 0.82365,0.68083 0.58914,2.72489 -0.68536,2.96533 -1.35205,0.6631 -2.76319,1.20002 -4.13084,1.82295 0.0239,1.23781 2.09563,1.32136 3.10599,1.4908 1.95831,0.23346 3.87124,0.74035 5.72146,1.41475 1.55663,-1.37543 2.98247,-2.9072 4.36487,-4.45755 -0.42592,-0.85001 -1.97471,-0.66746 -2.88796,-0.67442 -0.51024,0.0848 -0.96917,0.11523 -0.77994,-0.54064 0.0367,-1.015 -0.13196,-2.09879 0.30282,-3.04237 1.88219,-0.42758 3.878,0.0121 5.73929,-0.52515 1.27462,-0.63758 2.42211,-1.88767 2.29152,-3.40803 0.15127,-1.23587 -0.4299,-2.39836 -1.41021,-3.13364 -1.07368,-0.93433 -2.40073,-1.69223 -3.85942,-1.68857 -0.41131,-0.0368 -0.75903,-0.28353 -1.16853,-0.32122 z m 1.59885,0.9965 c 2.08794,0.0202 4.32022,1.63242 4.49312,3.80867 0.0568,1.85749 -1.73408,3.59637 -3.5816,3.48456 -1.90186,-0.65009 0.63303,-1.6658 0.9307,-2.58839 0.82857,-1.19203 -0.33793,-2.5011 -1.57723,-2.6136 -0.87997,-0.34596 -3.26861,0.62942 -2.34419,-1.10935 0.34839,-0.77436 1.31728,-0.96248 2.0792,-0.98189 z m -1.10024,2.18477 c 0.42208,0.81619 2.48931,0.31356 2.49777,1.80587 -0.23,1.20098 -1.56184,2.03345 -2.69981,2.19359 -1.56011,-0.55785 -1.33375,-2.73803 -0.28,-3.70664 0.13237,-0.12665 0.28243,-0.2924 0.48204,-0.29282 z m -9.39842,6.04876 c 0.5767,0.38441 -0.55649,0.33747 0,0 z m 5.08112,0 c 1.00122,0.52751 0.0551,2.30127 0.0763,3.2894 -0.66138,1.15207 -1.68817,-0.15505 -1.29783,-1.08782 0.007,-0.8375 0.0298,-2.25567 1.22152,-2.20158 z m -6.51048,5.71818 c 0.57569,0.38465 -0.55618,0.33657 0,0 z"
         style="fill:#ffffff;fill-opacity:0.12000002"
         inkscape:connector-curvature="0" />
      <path
         id="path4255"
         d="m 173.15859,287.4661 c -0.9817,-0.2223 -2.09012,0.73729 -0.45532,0.70807 1.8138,0.0946 3.65201,0.17783 5.45639,-0.0573 -0.87931,-0.82861 -2.50031,-1.33916 -3.82802,-1.49602 -0.54048,-0.0609 -1.22564,0.18947 -1.17305,0.84523 z"
         style="fill:#ffffff;fill-opacity:0.12000002"
         inkscape:connector-curvature="0" />
      <path
         id="path4249"
         d="m 170.16236,292.97307 c 0.29224,0.84527 1.64275,1.43527 2.39282,2.0954 0.79017,0.41806 2.05429,1.93198 2.75445,1.27384 -1.31708,-1.29734 -2.91353,-2.31279 -4.51061,-3.2383 -0.17795,-0.051 -0.47859,-0.31645 -0.63666,-0.13094 z"
         style="fill:#ffffff;fill-opacity:0.12000002"
         inkscape:connector-curvature="0" />
    </g>
    <g
       style="fill:#ffffff;fill-opacity:0.12000002"
       transform="matrix(5.3468484,0,0,5.3468487,-758.05141,-555.32999)"
       id="g4421">
      <path
         id="path4435"
         d="m 183.63383,252.41118 c -5.52195,0.53519 -11.03934,1.11595 -16.55657,1.69737 -1.72606,1.80324 0.32173,4.46737 0.0907,6.63686 0.54091,3.06396 0.50345,6.36133 2.25112,9.0583 1.37818,1.77526 1.80128,5.76172 4.81469,4.94871 5.67304,-1.03632 11.36481,-1.98126 17.01557,-3.13907 1.9923,-2.26627 -2.1405,-3.87703 -3.20285,-5.59388 -1.66506,-1.37209 -1.53577,-3.58056 -1.8913,-5.49527 -0.42413,-2.5328 -0.81749,-5.07123 -1.30565,-7.59283 -0.20305,-0.47885 -0.78175,-0.48664 -1.2157,-0.52019 z m 0.27853,0.55503 c 0.82263,3.21183 1.14605,6.53618 1.76576,9.79437 0.6452,1.65147 0.14113,3.2517 -1.90051,2.28762 -3.1642,0.68045 -6.39781,1.25306 -9.62975,1.66327 -1.1665,-0.0712 -4.42555,0.95631 -1.60963,0.95044 4.03383,-0.79551 8.18475,-1.10456 12.20899,-1.97683 2.16145,-0.28517 1.95512,3.67233 0.026,1.8183 -1.52936,1.71152 -4.085,1.15535 -6.15888,1.80318 -2.09988,0.1443 -4.75598,1.30737 -6.32183,0.35134 -1.25544,3.01711 -2.60395,-1.71412 -3.30626,-2.9774 -0.65246,-3.77028 -1.15909,-7.5723 -1.74456,-11.35662 1.4643,-1.64303 4.09113,-0.61778 6.03684,-1.27119 3.54398,-0.36825 7.08761,-0.74029 10.63383,-1.08648 z m -0.55983,0.64076 c -0.12187,0.003 -0.32768,0.0215 -0.66085,0.0512 l -3.7e-4,-1.8e-4 c -0.66214,0.0591 -5.078,0.47079 -6.86396,0.64002 -1.50431,0.14254 -1.76799,0.1602 -1.79102,0.12055 -0.011,-0.019 -0.0426,-0.10615 -0.07,-0.19392 -0.0605,-0.19316 -0.0631,-0.19517 -0.23245,-0.18065 -0.16762,0.0144 -0.17174,0.0416 -0.0396,0.25807 0.0548,0.0899 0.0881,0.1697 0.0739,0.17752 -0.0142,0.008 -0.31823,0.0423 -0.67559,0.0767 -0.35735,0.0344 -0.98157,0.0945 -1.38695,0.13365 -0.0915,0.0146 -0.18345,0.0271 -0.27577,0.0385 3.94435,-0.24013 10.53702,1.75659 11.74981,-0.47467 0.0179,-0.01 0.0795,-0.10865 0.13678,-0.21954 0.0573,-0.11091 0.12323,-0.23617 0.14673,-0.27835 0.0624,-0.11195 0.0925,-0.15319 -0.1106,-0.14895 z m -11.92272,1.1215 c -0.2118,0.0129 -0.41652,0.0318 -0.61181,0.0586 0.20515,-0.0149 0.40933,-0.0335 0.61181,-0.0586 z m -0.61181,0.0586 c -0.87765,0.0637 -1.77168,0.0651 -2.61408,0.26969 -0.0602,0.045 0.27202,0.48079 0.38748,0.5084 0.0409,0.01 0.0531,0.0353 0.0512,0.1071 -0.004,0.14865 -10e-4,0.15554 0.0765,0.18562 0.37982,-0.62184 1.13023,-0.93788 2.09886,-1.07081 z m 13.91742,8.63249 c -0.36256,0.66797 -1.12752,1.03695 -2.12946,1.22695 0.91086,-0.11307 1.84218,-0.16194 2.70883,-0.41992 0.0603,-0.05 -0.30907,-0.48634 -0.43079,-0.50896 -0.0431,-0.008 -0.0573,-0.0341 -0.0592,-0.10894 -0.004,-0.15502 -0.007,-0.16192 -0.0894,-0.18913 z m -2.12946,1.22695 c -0.21287,0.0264 -0.42457,0.0567 -0.63411,0.0936 0.21995,-0.0247 0.43211,-0.0553 0.63411,-0.0936 z m -0.63411,0.0936 c -4.09584,0.45995 -10.1197,-2.6255 -12.21379,1.11966 -0.0181,0.0112 -0.0769,0.11739 -0.13069,0.23595 -0.0538,0.11857 -0.11601,0.25252 -0.13825,0.2977 -0.0945,0.19189 -0.11235,0.19065 0.80887,0.0608 l 3.6e-4,1.8e-4 c 0.68658,-0.0967 5.26445,-0.76061 7.11577,-1.03191 1.55938,-0.22852 1.83294,-0.2611 1.85904,-0.22103 0.0125,0.0192 0.05,0.1084 0.0833,0.19835 0.0733,0.19798 0.0762,0.20001 0.2518,0.17586 0.17384,-0.0239 0.17675,-0.0525 0.0276,-0.27098 -0.0619,-0.0907 -0.10085,-0.17212 -0.0865,-0.18101 0.0144,-0.009 0.32934,-0.0611 0.69975,-0.11595 0.3704,-0.0548 1.01727,-0.1506 1.43745,-0.21291 0.0945,-0.0201 0.18964,-0.0379 0.28517,-0.0548 z m 4.57357,0.36149 c 0.26951,0.013 -0.10989,0.13948 0,0 z m 0.10858,0.10931 c 1.41724,1.75766 4.05829,3.61869 4.6768,5.34668 -1.7909,0.98468 -3.96054,0.7636 -5.89472,1.29847 -2.32199,0.28606 1.32306,-0.59586 -0.54268,-1.65055 -2.84754,-2.31634 2.64722,-0.77074 2.71749,-2.54237 -0.27488,-0.78717 -1.96498,-1.59696 -0.95689,-2.45223 z m -4.1721,0.089 0,1.9e-4 z m -0.76757,0.25273 c 0.16384,-0.008 -0.0789,0.21986 -0.0384,0.005 0.0147,-0.003 0.0274,-0.005 0.0384,-0.005 z m 0.0649,0.0588 c 0.2379,0.0257 -0.0632,0.13851 0,0 z m 2.81169,0.18802 -0.002,5.1e-4 z m -7.82306,1.17478 -0.002,5.1e-4 z m -2.03526,0.30913 -0.001,1.9e-4 z m 12.1087,0.7438 c 0.29364,0.11221 -0.13273,0.10139 0,0 z m -1.67451,0.0464 c 0.11959,10e-4 -0.0493,0.12041 0,0 z m -1.70825,1.39469 c 2.61321,2.13415 -2.14299,2.49002 -3.64471,2.36062 -2.94157,-1.57993 1.21913,-2.20223 2.73464,-2.18384 0.3058,-0.0448 0.61066,-0.0994 0.91007,-0.17678 z m -5.496,0.45439 c -0.21184,1.47536 1.94253,2.72268 2.51528,2.69039 -2.34671,0.70463 -4.84746,0.62104 -7.16369,1.44631 -1.18673,0.4437 -3.29011,-3.56369 -1.88485,-2.49168 1.38529,-1.5832 3.73637,-0.86227 5.67001,-1.50142 0.28795,-0.0465 0.57576,-0.0943 0.86325,-0.1436 z m -6.79705,1.25994 c 0.007,0.13944 -0.42852,0.007 0,0 z m 0.45569,0.33568 -0.002,0.001 z m 12.41305,0.2612 c -0.70263,1.04129 -3.67325,0.47403 -1.12225,0.20683 0.37883,-0.0289 0.76859,-0.0514 1.12225,-0.20683 z m 0.10543,0.25402 c 0.11004,0.0142 -0.24922,0.12027 -0.0787,3.7e-4 0.0378,-0.003 0.063,-0.003 0.0787,-3.7e-4 z m -2.90312,0.37421 c 0.53217,0.20789 -0.61286,0.20183 0,0 z m -9.03415,1.26251 c 0.1854,0.2526 -0.28449,0.009 0,0 z"
         style="color:#000000;font-style:normal;font-variant:normal;font-weight:normal;font-stretch:normal;font-size:medium;line-height:normal;font-family:sans-serif;text-indent:0;text-align:start;text-decoration:none;text-decoration-line:none;text-decoration-style:solid;text-decoration-color:#000000;letter-spacing:normal;word-spacing:normal;text-transform:none;direction:ltr;block-progression:tb;writing-mode:lr-tb;baseline-shift:baseline;text-anchor:start;white-space:normal;clip-rule:nonzero;display:inline;overflow:visible;visibility:visible;opacity:1;isolation:auto;mix-blend-mode:normal;color-interpolation:sRGB;color-interpolation-filters:linearRGB;solid-color:#000000;solid-opacity:1;fill:#ffffff;fill-opacity:0.12000002;fill-rule:nonzero;stroke:none;stroke-width:1;stroke-linecap:butt;stroke-linejoin:miter;stroke-miterlimit:4;stroke-dasharray:none;stroke-dashoffset:0;stroke-opacity:1;color-rendering:auto;image-rendering:auto;shape-rendering:auto;text-rendering:auto;enable-background:accumulate"
         inkscape:connector-curvature="0" />
    </g>
  </g>
</svg>
