<?xml version="1.0" encoding="UTF-8" standalone="no"?>
<svg
   xmlns:dc="http://purl.org/dc/elements/1.1/"
   xmlns:cc="http://creativecommons.org/ns#"
   xmlns:rdf="http://www.w3.org/1999/02/22-rdf-syntax-ns#"
   xmlns:svg="http://www.w3.org/2000/svg"
   xmlns="http://www.w3.org/2000/svg"
   xmlns:xlink="http://www.w3.org/1999/xlink"
   xmlns:sodipodi="http://sodipodi.sourceforge.net/DTD/sodipodi-0.dtd"
   xmlns:inkscape="http://www.inkscape.org/namespaces/inkscape"
   version="1.1"
   id="svg2"
   viewBox="0 0 1050.6918 620.15925"
   height="175.02272mm"
   width="296.52856mm"
   inkscape:version="0.91 r13725"
   sodipodi:docname="grande-config-white.svg"
   inkscape:export-filename="/Users/julienlafosse/Documents/Travail/2015-2016/Foule Complexe/Plaquette Step up/grandeconfig5.png"
   inkscape:export-xdpi="300"
   inkscape:export-ydpi="300">
  <sodipodi:namedview
     pagecolor="#000000"
     bordercolor="#666666"
     borderopacity="1"
     objecttolerance="10"
     gridtolerance="10"
     guidetolerance="10"
     inkscape:pageopacity="1"
     inkscape:pageshadow="2"
     inkscape:window-width="1280"
     inkscape:window-height="980"
     id="namedview10"
     showgrid="false"
     inkscape:zoom="0.52"
     inkscape:cx="457.65488"
     inkscape:cy="486.00425"
     inkscape:window-x="1"
     inkscape:window-y="0"
     inkscape:window-maximized="0"
     inkscape:current-layer="layer3"
     fit-margin-top="0"
     fit-margin-left="0"
     fit-margin-right="0"
     fit-margin-bottom="0" />
  <defs
     id="defs4">
    <linearGradient
       id="linearGradient4155"
       inkscape:collect="always">
      <stop
         id="stop4157"
         offset="0"
         style="stop-color:#e91e63;stop-opacity:1" />
      <stop
         id="stop4159"
         offset="1"
         style="stop-color:#e91e63;stop-opacity:0" />
    </linearGradient>
    <linearGradient
       inkscape:collect="always"
       xlink:href="#linearGradient4155"
       id="linearGradient4163"
       x1="959.24207"
       y1="482.41977"
       x2="903.48901"
       y2="412.31131"
       gradientUnits="userSpaceOnUse" />
    <radialGradient
       inkscape:collect="always"
       xlink:href="#linearGradient4155"
       id="radialGradient4183"
       cx="273.78415"
       cy="512.06464"
       fx="273.78415"
       fy="512.06464"
       r="91.040665"
       gradientTransform="matrix(0.98899507,-0.00749538,0.00782711,1.032776,-0.57720139,-44.707406)"
       gradientUnits="userSpaceOnUse" />
  </defs>
  <metadata
     id="metadata7">
    <rdf:RDF>
      <cc:Work
         rdf:about="">
        <dc:format>image/svg+xml</dc:format>
        <dc:type
           rdf:resource="http://purl.org/dc/dcmitype/StillImage" />
        <dc:title></dc:title>
      </cc:Work>
    </rdf:RDF>
  </metadata>
  <g
     inkscape:groupmode="layer"
     id="layer3"
     inkscape:label="color"
     transform="translate(-6.3679027,-57.528197)">
    <path
       style="fill:#ffffff;fill-opacity:0.12156863;fill-rule:evenodd;stroke:none;stroke-width:1px;stroke-linecap:butt;stroke-linejoin:miter;stroke-opacity:1"
       d="m 236.99875,548.60399 c 100.42319,0 273.15109,10.71181 453.91285,-2.67795 124.36388,-9.21214 271.79244,-18.71374 317.3373,-18.74566 42.9074,-0.0301 125.0002,-172.97051 -116.43176,-364.466 C 691.72447,4.0078071 303.03618,20.134307 98.906773,243.63211 29.451589,319.6774 -29.795063,390.27536 32.863767,488.3054 c 56.59414,88.5418 110.626213,57.23423 204.134983,60.29859 z"
       id="path4333"
       inkscape:connector-curvature="0"
       sodipodi:nodetypes="csssssc"
       inkscape:export-xdpi="300"
       inkscape:export-ydpi="300" />
    <path
       style="fill:#ffffff;fill-opacity:1;fill-rule:evenodd;stroke:#000000;stroke-width:1px;stroke-linecap:butt;stroke-linejoin:miter;stroke-opacity:1"
       d="m 131.01615,528.85366 c 0,0 9.3583,-4.0107 10.6952,-12.0321 1.3369,-8.02139 -1.3369,-18.71659 6.6845,-18.71659 8.02139,0 42.78078,1.3369 42.78078,1.3369 l 6.6845,22.72729 54.81288,4.0107 0,-22.72729 22.72729,-4.0107 20.05349,4.0107 6.6845,22.72729 -117.64716,0 -41.44388,1.3369 z"
       id="path4153"
       inkscape:connector-curvature="0" />
    <path
       style="fill:url(#linearGradient4163);fill-opacity:1;fill-rule:evenodd;stroke:none;stroke-width:1px;stroke-linecap:butt;stroke-linejoin:miter;stroke-opacity:1"
       d="m 958.55695,500.77877 20.89207,7.62961 2.75285,-10.82924 -7.89396,-12.39949 -4.81862,-132.74517 -149.96989,118.9325 z"
       id="path4155"
       inkscape:connector-curvature="0"
       sodipodi:nodetypes="ccccccc" />
    <path
       style="fill:url(#radialGradient4183);fill-opacity:1;fill-rule:evenodd;stroke:#000000;stroke-width:1px;stroke-linecap:butt;stroke-linejoin:miter;stroke-opacity:0"
       d="m 250.00147,503.25537 c 0,0 7.85345,-3.92672 22.25144,-3.92672 14.39799,0 24.86925,3.92672 24.86925,3.92672 l 66.75432,-91.62357 c 0,0 -62.82759,-31.4138 -99.47702,-31.4138 -36.64943,0 -81.15231,32.7227 -81.15231,32.7227 z"
       id="path4165"
       inkscape:connector-curvature="0" />
    <g
       id="layer1-6"
       inkscape:label="Calque 1"
       transform="matrix(0.62006964,0,0,0.62006964,195.69381,343.38392)">
      <path
         sodipodi:nodetypes="csssssssssccsssssssssssscccsscsssssssssssssscccscccsssssssssssssssssscsssccssccsssssssssssscssscssssccsssssssssssss"
         inkscape:connector-curvature="0"
         id="path4240"
         d="m 150.8821,231.73736 c -0.57157,2.32244 -0.26819,3.22164 1.54957,4.59278 1.68342,1.2698 2.0809,2.27013 1.55743,3.91945 -0.8752,2.75752 -4.26884,4.09994 -10.36469,4.09994 -6.53725,0 -11.25792,-3.38532 -14.61443,-10.4804 -2.4491,-5.17696 -4.63416,-6.81468 -6.04548,-4.53113 -0.81341,1.31613 2.68498,9.08576 6.11704,13.58542 3.32465,4.35885 2.57199,6.29305 -3.20073,8.22532 -5.12294,1.71478 -10.36345,0.73135 -14.49855,-2.72078 -3.1419,-2.62297 -3.36749,-3.23642 -3.74542,-10.18476 -0.22118,-4.06652 -0.85714,-7.95617 -1.41325,-8.64367 l -1.07331,-5.33438 0.68415,-20.74694 c 0.68784,-20.85866 0.22128,-26.17489 -3.34975,-38.16868 -2.714823,-9.11806 -6.202173,-30.28781 -6.259853,-38 -0.0775,-10.3642 2.45959,-18.30919 6.009713,-18.81955 1.94262,-0.27927 2.22284,-0.92229 2.22284,-5.10078 0,-2.62967 0.51087,-6.246703 1.13526,-8.037833 0.91087,-2.61293 0.86146,-3.43514 -0.25,-4.15984 -1.65172,-1.07697 -8.053443,-0.20652 -12.774293,1.73694 -3.96986,1.6343 -6.11097,0.51586 -6.11097,-3.19216 0,-4.96105 2.29069,-12.6374 4.47417,-14.99341 1.48723,-1.60475 3.04565,-5.69747 4.45536,-11.7007 1.19243,-5.07797 3.23474,-11.70767 4.53847,-14.73267 l 2.370403,-5.5 -1.99445,-3.23979 -1.994453,-3.2398 2.325253,-4.72749 c 2.57428,-5.23379 12.55205,-15.80839 17.51755,-18.56537 l 3.19231,-1.77246 7.47324,6.51777 c 9.81472,8.55988 12.10098,12.20586 10.74143,17.12976 -1.2587,4.55864 -4.74144,8.39738 -7.61861,8.39738 -2.49207,0 -5.48067,2.88682 -5.48067,5.29401 0,0.90009 1.3118,3.70503 2.91512,6.2332 3.75319,5.91817 5.52522,13.31751 4.62414,19.30875 -1.40052,9.31201 -1.23976,10.51315 1.59047,11.88408 3.66452,1.77504 11.37112,0.17558 21.06083,-4.37105 4.2298,-1.98472 8.3923,-3.3393 9.25,-3.01017 1.05574,0.40512 1.55944,1.90054 1.55944,4.6298 0,4.60532 -2.36681,7.63035 -6.72456,8.59469 -10.00183,2.21333 -20.49912,6.80818 -23.73551,10.389473 -3.1108,3.44231 -2.21019,8.27412 4.76979,25.59014 3.53772,8.77639 7.43137,19.78208 8.65257,24.45708 2.87974,11.02424 3.61433,27.85702 2.11311,48.42085 -5.78339,15.04411 -6.89531,19.11422 -1.65068,30.96698 z m -25.82055,11.883 c -1.01652,-1.01651 -1.85525,0.51389 -1.02122,1.86338 0.63003,1.01942 0.86558,1.02021 1.2043,0.004 0.2316,-0.69479 0.14921,-1.53513 -0.18308,-1.86742 z m -5.60417,-6.27083 c 0,-0.55 -0.45,-1 -1,-1 -0.55,0 -1,0.45 -1,1 0,0.55 0.45,1 1,1 0.55,0 1,-0.45 1,-1 z m 21.31837,-5.42096 c 1.59417,-4.67862 1.24088,-6.28806 -0.97636,-4.44792 -1.17417,0.97448 -2.00734,8.86888 -0.93601,8.86888 0.2233,0 1.08386,-1.98943 1.91237,-4.42096 z m 6.48542,-1.30694 c 0.66202,-1.98459 0.71459,-3.45172 0.13648,-3.80901 -1.8214,-1.1257 -2.94027,0.6993 -2.94027,4.79593 0,4.5338 1.09021,4.15006 2.80379,-0.98692 z m -18.82886,-9.75914 c 2.18778,-1.13134 3.22979,-2.74592 4.3563,-6.75 3.02234,-10.74264 5.83352,-24.34005 6.38013,-30.86009 0.50521,-6.02608 0.25363,-7.38053 -2.44005,-13.13678 -1.65183,-3.52989 -5.47303,-10.10682 -8.49155,-14.6154 l -5.48822,-8.19743 -0.68544,7.27337 c -1.37171,14.55554 -2.56598,49.47291 -1.95891,57.27337 0.83716,10.75689 2.16866,12.19795 8.32774,9.01296 z m -27.33656,-99.01296 c 0.31659,-0.825 0.27825,-2.27489 -0.0852,-3.22197 -0.56605,-1.47512 -0.79423,-1.51096 -1.591673,-0.25 -1.25115,1.97837 -1.20908,4.97197 0.0699,4.97197 0.567273,0 1.290413,-0.675 1.606993,-1.5 z m 30.36163,-82.000003 c 0,-1.61396 -0.91589,-1.85324 -3.41821,-0.89301 -2.43449,0.9342 -1.87474,2.39301 0.91821,2.39301 1.55556,0 2.5,-0.56667 2.5,-1.5 z M 38.957376,238.23809 c -3.85,-0.49336 -9.46313,-1.16507 -12.47363,-1.49269 -5.11813,-0.55698 -5.34544,-0.69275 -3.5,-2.09048 1.58376,-1.19954 4.14656,-1.38922 12.97363,-0.96024 12.86567,0.62524 15.71605,1.28409 15.28987,3.53414 -0.37358,1.97238 -3.05548,2.19262 -12.28987,1.00927 z m 155.500004,-8.72926 c 0,-2.72816 18.94202,-13.1593 23.8961,-13.1593 l 2.45253,0 -2.28121,2.42823 c -2.45968,2.61821 -16.81985,10.13736 -21.31742,11.16205 -1.66135,0.37851 -2.75,0.20789 -2.75,-0.43098 z M 54.656157,208.94935 c -4.177521,-4.53207 -12.610731,-15.63253 -14.361251,-18.9034 -0.87221,-1.62973 -0.75202,-1.72102 1.01837,-0.77354 2.43445,1.30288 16.720201,16.77985 19.410831,21.02941 1.91134,3.01875 1.91095,3.04771 -0.0412,3.04771 -1.08396,0 -3.79601,-1.98008 -6.02678,-4.40018 z M 179.45738,199.9965 c 0,-1.56996 18.38417,-19.64697 19.9808,-19.64697 2.21127,0 -1.97725,5.67935 -9.77186,13.25 -7.82988,7.60491 -10.20894,9.09564 -10.20894,6.39697 z M 65.887927,181.94193 C 52.910117,168.31719 40.436716,150.2121 51.059046,160.41788 c 4.740731,4.55482 19.621271,21.70208 21.879951,25.21286 3.6858,5.72904 0.16527,3.88726 -7.05107,-3.68881 z m 101.238533,1.98761 c -0.31047,-0.80907 3.0175,-8.69556 7.39549,-17.52553 7.31549,-14.7546 9.93543,-18.57765 9.93543,-14.49787 0,2.27642 -6.64286,17.96394 -10.6278,25.09819 -4.02681,7.20921 -5.86528,9.10859 -6.70312,6.92521 z"
         style="fill:#ffffff;fill-opacity:1" />
    </g>
    <ellipse
       style="fill:#ffffff;fill-opacity:1"
       id="path4160"
       cx="972.56427"
       cy="500.44696"
       rx="9.2553787"
       ry="7.8670716" />
  </g>
  <g
     inkscape:groupmode="layer"
     id="layer2"
     inkscape:label="tracé"
     transform="translate(-6.3679027,-57.528197)">
    <g
       transform="matrix(4.2934558,0,0,4.2934558,-1404.1867,-3306.9678)"
       id="layer1">
      <g
         id="g4398"
         transform="translate(-2,-1)">
        <path
           style="fill-opacity:1;fill:#ffffff"
           d="m 374.9974,928.18787 c -0.53111,-0.85936 7.63044,-15.17411 13.60457,-23.86139 l 2.92267,-4.25 -3.79804,0.0459 c -3.7295,0.045 -3.91534,0.23501 -10.29804,10.52771 -3.575,5.76502 -7.30976,11.48189 -8.29946,12.70414 -1.7454,2.15552 -1.74889,2.11714 -0.11596,-1.27771 0.92594,-1.925 4.3232,-7.59108 7.54947,-12.59128 3.22627,-5.00024 5.86595,-9.3055 5.86595,-9.56727 0,-0.26177 -1.82711,-0.22069 -4.06025,0.0913 -3.91632,0.54712 -4.28841,0.93945 -10.49651,11.06723 -3.53994,5.775 -6.60122,10.95 -6.80284,11.5 -0.20162,0.55 -0.63812,0.75258 -0.96999,0.45017 -0.33187,-0.30241 2.30652,-5.39443 5.86309,-11.3156 3.55658,-5.9212 6.4665,-10.96128 6.4665,-11.20019 0,-0.23892 -1.2375,-0.41797 -2.75,-0.39789 -2.13319,0.0283 -3.33588,0.98157 -5.36212,4.25 -7.74283,12.48957 -10.04869,15.88602 -10.4873,15.44741 -0.47832,-0.47832 6.3112,-11.99067 9.80109,-16.61878 2.41155,-3.19808 2.26652,-4.11514 -0.65078,-4.11514 -2.74657,0 -5.44724,3.1412 -10.53201,12.25 -1.76539,3.1625 -3.59241,5.75 -4.06004,5.75 -0.80217,0 3.50399,-8.22033 7.46476,-14.25 l 1.80642,-2.75 -3.06179,0 c -2.65736,0 -3.67161,0.89161 -7.67845,6.75 -2.53916,3.7125 -5.01364,7.41197 -5.49885,8.22104 -0.4852,0.80907 -1.12664,1.22658 -1.42543,0.92779 -0.29878,-0.29878 1.70175,-3.72972 4.44563,-7.6243 2.74388,-3.89458 4.98887,-7.34959 4.98887,-7.67779 0,-0.32821 -0.7875,-0.58028 -1.75,-0.56015 -0.9625,0.0201 -3.99447,2.94512 -6.73772,6.5 -2.74324,3.55487 -5.36139,6.46341 -5.81809,6.46341 -0.82007,0 0.81556,-2.41075 5.93665,-8.75 l 2.62548,-3.25 -2.91416,0 c -2.24192,0 -3.65557,0.96466 -6.12816,4.18178 -1.7677,2.29999 -3.214,3.49473 -3.214,2.65499 0,-0.83974 0.9,-2.34128 2,-3.33677 2.58989,-2.34382 2.53484,-3.5 -0.16667,-3.5 -1.19166,0 -1.85907,-0.30759 -1.48312,-0.68354 0.37594,-0.37595 3.71344,-0.75554 7.41666,-0.84354 3.70322,-0.088 9.09563,-0.49763 11.98313,-0.91029 4.62137,-0.66046 5.25,-1.03009 5.25,-3.08692 0,-1.6618 0.64979,-2.42889 2.25,-2.65616 1.47836,-0.20996 2.28668,-1.04456 2.35694,-2.43357 0.19024,-3.76067 1.3062,-4.39778 7.45957,-4.25868 5.77534,0.13055 5.96693,0.22293 6.74785,3.25353 0.7553,2.93117 1.11661,3.13739 5.99469,3.42143 5.14038,0.29931 5.19095,0.27376 5.19095,-2.62277 0,-2.79609 0.23143,-2.94789 5.25,-3.4436 5.70518,-0.56354 7.46202,0.23008 7.93997,3.58673 0.24347,1.70992 0.88057,2.11095 2.96752,1.86794 2.24973,-0.26197 2.7602,0.15822 3.32694,2.73853 0.36819,1.67639 1.00639,3.25622 1.41822,3.51075 0.41183,0.25452 11.73971,0.59718 25.17307,0.76146 l 24.42428,0.2987 0.98713,-2.25 c 0.54292,-1.2375 1.26471,-2.25 1.60398,-2.25 0.33926,0 1.84955,-1.14244 3.3562,-2.53875 1.50664,-1.39631 4.72235,-3.47087 7.14602,-4.61013 2.42367,-1.13925 4.40667,-2.62078 4.40667,-3.29227 0,-2.02731 4.15203,-3.51374 10.59738,-3.79385 l 6.09738,-0.265 0.58247,-20.34968 c 0.55001,-19.21596 0.73347,-20.70499 3.29292,-26.72715 2.59493,-6.10563 4.86821,-8.21092 8.17985,-7.57538 2.47847,0.47564 1.18266,-1.63304 -1.75,-2.84779 -1.65,-0.68345 -3,-1.94906 -3,-2.81245 0,-1.38563 0.14666,-1.3946 1.25,-0.0765 0.6875,0.82134 3.275,2.81858 5.75,4.43832 2.475,1.61973 4.75154,3.2837 5.05897,3.69771 0.30744,0.41401 1.43244,0.10807 2.5,-0.67987 1.55574,-1.14823 1.69291,-1.68416 0.69103,-2.69992 -0.6875,-0.69703 -1.25,-2.06149 -1.25,-3.03214 0,-2.41935 -3.06553,-3.93764 -5.35896,-2.65418 -1.39396,0.7801 -2.33543,0.51527 -4.11646,-1.15792 -1.72929,-1.62457 -2.44194,-1.83707 -2.83792,-0.84621 -0.3498,0.8753 -0.55549,0.92002 -0.60771,0.13214 -0.1541,-2.32473 2.27995,-2.65412 3.70897,-0.50191 1.13338,1.70697 1.81551,1.94032 3.31931,1.13551 2.50643,-1.3414 5.68094,0.37002 6.96862,3.75688 1.2386,3.25776 1.91676,2.6815 1.20503,-1.02398 -0.29885,-1.55591 -1.49431,-3.24684 -2.6617,-3.76485 -5.44587,-2.41653 -8.12703,-4.67793 -8.28298,-6.98621 -0.15104,-2.23544 -0.12614,-2.24917 0.31933,-0.1761 0.28548,1.32852 1.48278,2.49924 2.92658,2.86161 1.34389,0.3373 2.85394,1.34679 3.35566,2.24332 0.50172,0.89653 1.17,1.37228 1.48507,1.05721 0.97555,-0.97555 -2.85347,-8.93222 -4.07888,-8.47588 -0.63583,0.23678 -1.94307,-0.43914 -2.90499,-1.50205 -1.01216,-1.11842 -1.26238,-1.93256 -0.59396,-1.93256 0.63525,0 1.15499,0.45 1.15499,1 0,0.55 0.45857,1 1.01905,1 0.57231,0 0.78888,-1.20558 0.49402,-2.75 -0.28877,-1.5125 -0.22502,-2.08304 0.14166,-1.26786 0.36669,0.81518 1.2687,2.08415 2.00448,2.81993 0.73578,0.73578 1.63961,2.54382 2.00851,4.01786 0.3689,1.47404 1.38455,3.8557 2.257,5.29259 1.37176,2.25922 1.92362,2.47741 4.08078,1.61348 1.37198,-0.54946 3.28178,-1.08738 4.24401,-1.19536 2.70205,-0.30323 2.86365,-0.91049 1.36194,-5.11795 -1.13692,-3.18539 -1.53411,-3.5749 -2.13676,-2.09547 -0.41762,1.02519 -0.24654,2.31093 0.39253,2.95 0.62303,0.62303 1.1166,1.60528 1.09682,2.18278 -0.0198,0.5775 -1.14255,-0.3 -2.49504,-1.95 -1.35248,-1.65 -2.4613,-2.40686 -2.46403,-1.68191 -0.003,0.91017 -0.93343,0.65698 -3.00497,-0.81809 -1.65,-1.1749 -3,-2.55555 -3,-3.06809 0,-0.51255 0.92302,-0.009 2.05115,1.11924 2.97719,2.97719 8.71958,1.1209 7.37464,-2.38393 -0.59043,-1.53865 -3.35224,-2.19978 -7.67579,-1.83745 -0.9625,0.0807 -1.76431,-0.18554 -1.7818,-0.59156 -0.0175,-0.40602 -0.71026,-1.63602 -1.53949,-2.73334 -1.29333,-1.71147 -1.64206,-1.78256 -2.45288,-0.5 -0.81081,1.28255 -0.94738,1.2547 -0.96052,-0.19585 -0.0258,-2.85467 1.80743,-3.00918 3.58135,-0.30185 0.92649,1.414 2.40875,2.45207 3.29393,2.30683 0.88518,-0.14525 2.21112,0.11298 2.94654,0.57383 1.75329,1.09869 3.64939,-0.79741 2.5507,-2.5507 -0.46085,-0.73542 -0.70002,-2.17382 -0.53149,-3.19644 0.17417,-1.05688 -0.13046,-1.58931 -0.70586,-1.23369 -0.55676,0.34409 -1.29947,0.16094 -1.65048,-0.407 -0.35101,-0.56794 -1.12663,-0.73076 -1.72361,-0.3618 -0.66942,0.41372 -0.7958,0.20222 -0.32975,-0.55187 0.41561,-0.67247 1.46167,-0.95176 2.32456,-0.62063 0.8629,0.33112 1.86334,0.12562 2.22321,-0.45666 0.35987,-0.58229 1.43032,2.55247 2.37877,6.96613 0.94844,4.41366 2.12216,8.02483 2.60825,8.02483 0.48608,0 1.17152,0.90653 1.52318,2.01452 0.35166,1.10799 1.06432,1.75189 1.5837,1.4309 0.51937,-0.32099 0.68328,-1.00597 0.36424,-1.52219 -0.69433,-1.12346 1.89689,-3.92323 3.63101,-3.92323 0.81232,0 0.66761,0.61747 -0.42857,1.82874 -2.07793,2.29609 -2.06788,2.83065 0.095,5.05297 4.13148,4.24499 7.47675,3.05754 6.28408,-2.23062 -0.39625,-1.75691 -0.37265,-4.08464 0.0525,-5.17274 0.65426,-1.67467 0.80787,-1.51785 1.00072,1.02165 0.1253,1.65 0.20693,3.5625 0.1814,4.25 -0.0255,0.6875 0.41646,1.25 0.98222,1.25 1.73454,0 3.68003,-3.3387 3.78761,-6.5 0.0562,-1.65 0.50579,-3.9 0.9992,-5 0.60404,-1.34665 0.73029,-0.24043 0.38646,3.38627 l -0.51064,5.38628 3.47133,-2.88628 c 1.90924,-1.58745 3.28386,-3.47214 3.05471,-4.18821 -0.22915,-0.71606 0.0282,-1.02701 0.57191,-0.69098 1.36312,0.84247 1.24688,3.49292 -0.15323,3.49292 -0.62795,0 -2.34938,1.26369 -3.8254,2.8082 -1.47602,1.54451 -3.21223,2.63201 -3.85826,2.41667 -0.64603,-0.21535 -1.1746,0.0487 -1.1746,0.58684 0,0.5381 -1.0767,2.01466 -2.39267,3.28124 -1.31597,1.26657 -2.16783,2.8888 -1.89301,3.60496 0.3251,0.8472 -0.34122,1.30209 -1.90733,1.30209 -1.32385,0 -2.93949,0.5325 -3.59032,1.18333 -0.65084,0.65084 -1.45861,0.90806 -1.79506,0.57161 -0.33645,-0.33645 0.30964,-1.40063 1.43575,-2.36484 l 2.04749,-1.75311 -2.20243,-1.1203 c -1.76056,-0.89553 -3.15066,-0.70865 -6.92885,0.93151 -2.59954,1.12849 -4.73704,2.57217 -4.75,3.20818 -0.0135,0.66089 -0.88054,0.93228 -2.02357,0.63337 -1.52146,-0.39787 -2,-0.0307 -2,1.5346 0,1.13169 0.43035,2.32358 0.95633,2.64866 0.52598,0.32507 0.69405,1.27451 0.37349,2.10986 -0.33882,0.88297 0.78301,3.21842 2.67963,5.57852 2.83199,3.52403 2.98063,3.97024 1.1265,3.38176 -1.60692,-0.51002 -2.13595,-0.25876 -2.13595,1.01446 0,1.33506 0.61377,1.56964 2.90698,1.11099 2.26597,-0.45319 3.24669,-0.0949 4.44755,1.625 1.47852,2.11754 1.54402,2.12586 1.62629,0.2064 0.11211,-2.61564 3.93393,-7.23671 4.83866,-5.85056 0.37429,0.57344 1.94988,1.35347 3.50132,1.73341 2.17895,0.53361 3.3696,0.17045 5.23272,-1.59603 1.32656,-1.25775 2.42659,-2.96182 2.44452,-3.78682 0.0179,-0.825 0.503,-2.175 1.07795,-3 0.77754,-1.11571 0.88136,-0.66736 0.40523,1.75 -0.50523,2.56508 -0.30727,3.25 0.93932,3.25 0.86871,0 1.57946,-0.45 1.57946,-1 0,-0.55 1.125,-1 2.5,-1 1.72012,0 2.49522,0.54592 2.48469,1.75 -0.0127,1.45301 -0.17139,1.50328 -0.93497,0.29621 -0.77537,-1.22571 -1.36128,-1.24983 -3.73468,-0.15375 -7.31918,3.38014 -7.81331,3.76682 -7.57683,5.92926 0.13102,1.19805 -0.23304,2.17828 -0.80902,2.17828 -0.57597,0 -0.77726,-0.43681 -0.44731,-0.97068 0.32995,-0.53388 -0.65599,-1.27093 -2.19098,-1.63789 -1.535,-0.36696 -3.4021,-1.15067 -4.14911,-1.74157 -1.01676,-0.80427 -1.70812,-0.59585 -2.75,0.82902 -1.79756,2.4583 -1.9063,6.15519 -0.14179,4.82048 0.6875,-0.52003 2.23691,-0.99524 3.44312,-1.05601 2.13739,-0.10768 2.25404,1.04496 0.43081,4.25665 -1.35069,2.37927 -0.95249,3.47861 0.90075,2.48679 2.59868,-1.39077 4.9065,-1.1754 2.47532,0.231 -1.1,0.63633 -2.82207,2.20008 -3.82682,3.47499 -1.00476,1.27491 -2.49595,2.98713 -3.31376,3.80495 -0.81782,0.81781 -1.20669,1.94038 -0.86416,2.4946 0.34253,0.55422 0.17751,1.00767 -0.36669,1.00767 -0.54421,0 -1.18448,-1.0125 -1.42284,-2.25 -0.31661,-1.6438 -0.47006,-1.38283 -0.56955,0.96861 -0.10498,2.48129 0.20745,3.08676 1.36382,2.64302 1.29512,-0.49699 1.50304,1.65855 1.52224,15.78138 0.0295,21.70431 -0.46056,21.02662 14.92683,20.64179 6.66112,-0.16659 11.52953,-0.7118 11.72903,-1.31353 0.18758,-0.56581 -1.01494,-1.82974 -2.67227,-2.80875 -2.4509,-1.44779 -2.83116,-2.12038 -2.03735,-3.60362 2.43971,-4.55864 7.52896,-2.25767 6.60924,2.9882 -0.50068,2.85577 0.2063,4.38046 2.42228,5.22401 0.825,0.31405 -1.2,0.61388 -4.5,0.66629 l -6,0.0953 -5.10177,7.23365 c -2.80597,3.97851 -6.62234,10.04616 -8.48082,13.48366 -1.85848,3.4375 -3.75821,6.25 -4.22163,6.25 -1.65473,0 11.321,-21.10918 14.69907,-23.91273 2.91493,-2.41918 1.68878,-3.0874 -5.64485,-3.07626 -11.57699,0.0176 -14.23995,0.73636 -16.10917,4.34823 -2.51695,4.86346 -16.64083,24.84372 -16.64083,23.54083 0,-1.06299 6.30703,-10.77398 13.18438,-20.30012 1.54859,-2.14502 2.81562,-4.28252 2.81562,-4.75 0,-0.46748 -1.92146,-0.84996 -4.26992,-0.84996 l -4.26991,0 -8.28504,12.47495 c -4.55678,6.86122 -8.77984,12.78075 -9.3846,13.15451 -1.38889,0.85838 -1.09342,0.3672 7.39033,-12.28536 8.92127,-13.30509 8.82148,-12.93823 3.40218,-12.50722 l -4.44548,0.35357 -8.19805,12.90477 c -4.50893,7.09763 -8.37644,12.90478 -8.59446,12.90478 -0.71318,0 2.76938,-6.16301 8.76697,-15.51471 3.23839,-5.04944 5.88798,-9.47431 5.88798,-9.83304 0,-0.35874 -2.21127,-0.65225 -4.91393,-0.65225 l -4.91394,0 -3.77225,6.75 c -4.31498,7.72117 -13.39988,21.84264 -13.39988,20.82865 0,-1.06867 3.02877,-6.70124 5.95725,-11.07865 1.47179,-2.2 4.11236,-6.5875 5.86792,-9.75 l 3.19193,-5.75 -6.29392,0 -6.29392,0 -3.29157,6.75 c -4.26337,8.74283 -11.27236,20.44867 -11.88001,19.84102 -0.26055,-0.26056 1.10599,-3.08763 3.03676,-6.28238 4.49725,-7.44138 10.23662,-19.12351 9.65435,-19.65084 -1.00613,-0.9112 -11.94884,0.66024 -11.94958,1.71603 -0.002,3.01815 -11.62223,24.33648 -12.68562,23.27309 -0.23602,-0.23601 0.92302,-2.62662 2.57564,-5.31247 3.77734,-6.13896 9.49479,-18.28377 8.89151,-18.88704 -0.24967,-0.24967 -2.52772,-0.1697 -5.06234,0.17771 -4.41621,0.60531 -4.77165,0.90782 -8.52246,7.25327 -8.45803,14.3089 -11.5256,19.12528 -11.92597,18.72491 -0.58569,-0.58569 1.76393,-4.93875 8.19117,-15.17551 3.04637,-4.85201 5.53886,-9.13786 5.53886,-9.52412 0,-0.38625 -2.06817,-0.86677 -4.59593,-1.06781 -4.25033,-0.33804 -4.71218,-0.14073 -6.14187,2.624 -2.65197,5.12834 -12.11296,19.09511 -14.23701,21.01734 -3.11237,2.81666 -2.40585,0.82897 1.35386,-3.8089 4.3577,-5.37554 12.65981,-18.79641 12.14384,-19.63127 -0.21854,-0.35359 -2.56052,-0.39408 -5.20441,-0.09 l -4.80707,0.55293 -5.78919,9.5 c -3.18406,5.225 -6.69241,11.01921 -7.79634,12.87603 -1.10393,1.85682 -2.23443,3.14876 -2.51221,2.87098 -0.27778,-0.27779 2.71485,-5.847 6.65028,-12.37604 3.93543,-6.52903 7.35755,-12.20847 7.60471,-12.62097 0.24716,-0.4125 -1.93968,-0.73149 -4.85964,-0.70886 l -5.30902,0.0411 -7,11.53516 c -3.85,6.34433 -7.64888,12.06332 -8.44196,12.70886 -0.79308,0.64554 -1.17991,0.72371 -0.85964,0.17371 0.32027,-0.55 3.78166,-6.30789 7.69196,-12.79532 3.9103,-6.48735 7.10964,-11.99985 7.10964,-12.24993 0,-0.25007 -2.1375,-0.45377 -4.75,-0.45267 l -4.75,0.002 -6.74185,10.24799 c -6.26081,9.51679 -12.8403,18.19549 -11.18075,14.748 0.39714,-0.825 4.27546,-6.7875 8.61848,-13.25 l 7.89641,-11.75 -3.79615,-0.15844 c -5.71644,-0.2386 -7.66965,0.0907 -8.52133,1.43671 -0.42518,0.67195 -4.33968,6.83185 -8.69888,13.68867 -4.3592,6.85681 -7.70803,12.81931 -7.44186,13.25 0.26618,0.43068 0.25896,0.78306 -0.016,0.78306 -0.27501,0 -0.74714,-0.39987 -1.04919,-0.88861 z m -8.56884,-32.61139 c 0.69443,-0.83674 0.80272,-1.5 0.24489,-1.5 -0.55,0 -1.5602,0.675 -2.24489,1.5 -0.69443,0.83674 -0.80272,1.5 -0.24489,1.5 0.55,0 1.5602,-0.675 2.24489,-1.5 z m 14.12755,-0.25 c 1.26952,-1.61876 1.22246,-1.63998 -0.62755,-0.28297 -1.1,0.80687 -2.1875,1.59437 -2.41667,1.75 -0.22916,0.15563 0.0532,0.28297 0.62756,0.28297 0.57432,0 1.66182,-0.7875 2.41666,-1.75 z m -7.63463,-0.23855 c 0.35034,-0.56686 -0.0511,-0.7345 -0.94098,-0.39301 -1.73242,0.66479 -2.04939,1.38156 -0.61096,1.38156 0.51754,0 1.21592,-0.44485 1.55194,-0.98855 z m 152.0612,-0.76145 c 0.42245,-0.9625 0.66054,-10.75 0.5291,-21.75 -0.18237,-15.26175 -0.57591,-20.52472 -1.6611,-22.21482 -0.78217,-1.21815 -1.42212,-2.8575 -1.42212,-3.64301 0,-0.78551 -0.70352,-1.69816 -1.56338,-2.02812 -2.21687,-0.85069 -0.78516,-2.61405 2.1224,-2.61405 2.70869,0 3.25439,-2.08004 1.03001,-3.92611 -0.98118,-0.81431 -1.61145,-0.84664 -2.0691,-0.10614 -0.36197,0.58568 -1.07163,0.80931 -1.57703,0.49696 -0.50539,-0.31235 -2.1618,0.58501 -3.6809,1.99414 -1.5191,1.40913 -3.3245,2.34647 -4.012,2.08299 -1.66771,-0.63916 -1.59623,0.92593 0.10684,2.33935 0.77996,0.6473 2.69321,0.8588 4.5,0.49744 2.11833,-0.42367 3.14316,-0.23985 3.14316,0.56376 0,0.73058 -0.76169,0.95063 -1.96669,0.56818 -2.89127,-0.91765 -3.23177,1.62556 -3.39225,25.3368 -0.1107,16.35766 0.15429,21.19927 1.23138,22.4979 1.86659,2.25051 7.68009,2.18671 8.68168,-0.0953 z m 4.62921,-2.46667 c -0.71756,-0.71756 -1.18333,-0.7766 -1.18333,-0.15 0,1.33478 1.18261,2.51739 1.85,1.85 0.28417,-0.28416 -0.0158,-1.04916 -0.66667,-1.7 z m -160.18333,0.21667 c 0,-0.55 -0.92656,-1 -2.05902,-1 -1.13246,0 -1.7809,0.45 -1.44098,1 0.33992,0.55 1.26648,1 2.05902,1 0.79254,0 1.44098,-0.45 1.44098,-1 z m 4,-1.40349 c 0,-2.17056 -0.48356,-2.43706 -4.98971,-2.75 -3.4907,-0.24241 -5.14302,0.0536 -5.5,0.98528 -0.78408,2.04635 -0.61067,3.16821 0.48971,3.16821 0.55,0 1,-0.675 1,-1.5 0,-2.4376 6.06014,-1.98604 6.71025,0.5 0.72752,2.78204 2.28975,2.50675 2.28975,-0.40349 z m 17,0.40349 c 0,-0.55 0.87344,-1 1.94098,-1 1.06754,0 2.2191,0.45 2.55902,1 1.01152,1.63668 2.5,1.13713 2.5,-0.83902 0,-1.71902 -2.37275,-2.08293 -8.25,-1.26532 -1.13568,0.15799 -0.89841,3.10434 0.25,3.10434 0.55,0 1,-0.45 1,-1 z m 137.98469,-3.75 c -0.0111,-2.00139 -0.25818,-2.36635 -0.90748,-1.34068 -0.49069,0.77512 -0.66066,2.01262 -0.3777,2.75 0.81146,2.11462 1.30181,1.57691 1.28518,-1.40932 z m 29.01531,0.80902 c 0,-1.35037 -1.82294,-2.28649 -3.01631,-1.54894 -0.55897,0.34546 -0.75742,1.04702 -0.44098,1.55902 0.75067,1.21461 3.45729,1.20672 3.45729,-0.0101 z m -29.63837,-22.55902 c 0.31658,-0.825 0.13972,-1.5 -0.39301,-1.5 -0.53274,0 -0.96862,0.675 -0.96862,1.5 0,0.825 0.17686,1.5 0.39301,1.5 0.21616,0 0.65203,-0.675 0.96862,-1.5 z m 0.63837,-3.94098 c 0,-0.79254 -0.45,-1.7191 -1,-2.05902 -0.55,-0.33992 -1,0.30852 -1,1.44098 0,1.13246 0.45,2.05902 1,2.05902 0.55,0 1,-0.64844 1,-1.44098 z m 2.39301,-12.14081 c 1.01323,-2.64044 0.68141,-5.4201 -0.64301,-5.38641 -4.42151,0.1125 -6.74044,6.9682 -2.35699,6.9682 1.31616,0 2.66616,-0.7118 3,-1.58179 z m -4.66384,-6.02238 c -0.3323,-0.33229 -1.1948,-0.36782 -1.91667,-0.0789 -0.79773,0.31923 -0.56078,0.55619 0.60417,0.60417 1.05416,0.0434 1.64479,-0.19293 1.3125,-0.52522 z m -15.11294,-4.57996 c 2.47201,-3.9159 2.72857,-4.06482 4.00222,-2.323 0.74849,1.02362 1.69631,1.5257 2.10628,1.11574 1.00358,-1.00358 -3.89504,-4.69205 -5.47473,-4.12225 -0.6875,0.24798 -1.25,-0.26511 -1.25,-1.14019 0,-1.29853 -0.27487,-1.36294 -1.49499,-0.35033 -1.20379,0.99906 -1.97279,0.92768 -3.94786,-0.36644 -3.20723,-2.10146 -4.29342,-0.40204 -1.98998,3.11345 1.27388,1.94419 1.41123,2.76435 0.51307,3.06374 -1.2751,0.42503 2.4724,5.19341 4.08153,5.19341 0.44723,0 2.00174,-1.88286 3.45446,-4.18413 z m 20.88377,3.18413 c 1.15833,-1.87422 -0.50781,-3.01207 -2.54636,-1.73898 -1.0745,0.67104 -1.95364,1.56183 -1.95364,1.97953 0,1.12422 3.78145,0.92208 4.5,-0.24055 z m -17,-2 c 1.08086,-1.74886 -0.52195,-3.22667 -2.08903,-1.92611 -0.77603,0.64405 -1.41097,1.5659 -1.41097,2.04855 0,1.20559 2.73844,1.10978 3.5,-0.12244 z m 1.75148,-9.52851 c -1.96366,-2.70043 -2.81002,-2.9948 -3.83628,-1.33428 -0.76581,1.23911 3.53083,5.01418 4.80832,4.22465 0.42869,-0.26495 -0.009,-1.56561 -0.97204,-2.89037 z m 11.74852,-19.54709 c 0,-0.4739 -0.675,-0.60261 -1.5,-0.28603 -0.825,0.31659 -1.5,0.96334 -1.5,1.43723 0,0.4739 0.675,0.60261 1.5,0.28603 0.825,-0.31659 1.5,-0.96334 1.5,-1.43723 z m -9,112.80602 c 0,-0.40901 3.30553,-5.80318 7.34563,-11.98704 4.0401,-6.18386 7.90156,-12.29442 8.58102,-13.57903 0.67947,-1.2846 1.48565,-2.08539 1.79151,-1.77952 0.30587,0.30587 -1.79122,4.28191 -4.66019,8.83565 -6.17557,9.80209 -13.05797,19.55804 -13.05797,18.50994 z m 29,-7.18641 c 0,-1.82988 11.9685,-19.90884 12.69738,-19.17996 0.27753,0.27752 -0.62296,1.99665 -2.00108,3.82027 -1.37812,1.82362 -4.14512,6.12818 -6.14889,9.56568 -3.24329,5.56392 -4.54741,7.22554 -4.54741,5.79401 z m 11,-1.11954 c 0,-0.92242 7.61034,-13.6001 10.42636,-17.36875 4.20207,-5.62359 2.9643,-2.86124 -3.52395,7.86441 -5.62044,9.2911 -6.90241,11.05632 -6.90241,9.50434 z m 5,-21.42447 c 0.825,-0.53316 1.95,-0.96937 2.5,-0.96937 0.55,0 0.325,0.43621 -0.5,0.96937 -0.825,0.53316 -1.95,0.96937 -2.5,0.96937 -0.55,0 -0.325,-0.43621 0.5,-0.96937 z m 4.8125,-0.68311 c 0.72187,-0.28887 1.58437,-0.25335 1.91667,0.0789 0.33229,0.3323 -0.25834,0.56864 -1.3125,0.52522 -1.16495,-0.048 -1.4019,-0.28494 -0.60417,-0.60416 z m -24.8125,-9.31689 c -1.17323,-0.7582 -0.91378,-0.97271 1.19098,-0.98469 1.48004,-0.008 2.9691,0.43469 3.30902,0.98469 0.78917,1.2769 -2.52414,1.2769 -4.5,0 z m 2.92061,-4.63966 c -2.30781,-2.50913 -2.31835,-2.5786 -0.2263,-1.49068 2.32069,1.20682 3.794,2.97537 3.07644,3.69293 -0.23624,0.23624 -1.5188,-0.75477 -2.85014,-2.20225 z m 2.0802,-3.85883 c -1.92393,-3.59489 -0.73134,-4.0082 1.35829,-0.47074 0.96469,1.63307 1.35457,2.96923 0.86642,2.96923 -0.48816,0 -1.48928,-1.12432 -2.22471,-2.49849 z m 4.68271,0.11614 c -0.37594,-0.97967 -0.63832,-3.20692 -0.58307,-4.94944 0.0978,-3.08598 0.12438,-3.06613 1.02237,0.76468 0.99042,4.22507 0.68663,7.11889 -0.4393,4.18476 z M 536.301,853.32648 c -1.23251,-1.57158 -1.20054,-1.61548 0.31364,-0.43061 1.92321,1.50496 5.17132,0.29757 6.16489,-2.29161 0.32244,-0.84028 1.75194,-1.52778 3.17666,-1.52778 1.47229,0 2.32364,-0.43164 1.97237,-1 -0.33992,-0.55 -0.14148,-1 0.44098,-1 0.58246,0 1.05902,0.675 1.05902,1.5 0,1.40967 -1.07995,1.89795 -3.57274,1.61535 -0.59001,-0.0669 -2.13095,1.0048 -3.42432,2.38152 -2.77487,2.95371 -4.26145,3.13634 -6.1305,0.75313 z m 10.8218,-10.82982 c 2.59046,-2.38186 2.63573,-2.54321 0.58995,-2.10256 -1.2187,0.26249 -2.17791,0.18591 -2.13158,-0.17018 0.26031,-2.00084 -0.32023,-3.14744 -1.59359,-3.14744 -0.79254,0 -1.7191,-0.45 -2.05902,-1 -0.33992,-0.55 0.35065,-1 1.5346,-1 1.31164,0 2.35697,0.78137 2.67565,2 0.28947,1.10691 1.36402,2 2.40638,2 1.03585,0 1.88337,0.37156 1.88337,0.82569 0,1.00127 -4.33103,5.17431 -5.37021,5.17431 -0.40773,0 0.52128,-1.16092 2.06445,-2.57982 z m -22.03424,-14.67018 c -0.363,-1.5125 -0.90991,-3.94009 -1.21536,-5.39465 -0.41702,-1.98589 -0.84047,-2.35952 -1.7,-1.5 -1.43429,1.4343 -2.74464,1.47518 -2.74464,0.0856 0,-0.58246 0.41157,-0.80465 0.91459,-0.49377 0.50302,0.31089 1.06552,0.18378 1.25,-0.28247 0.18448,-0.46624 1.79791,-1.13279 3.58541,-1.48123 2.4086,-0.4695 3.25,-0.27455 3.25,0.75301 0,1.39241 2.33789,1.55893 3.63772,0.25909 0.38259,-0.38259 1.18311,-0.68872 1.77895,-0.6803 0.64493,0.009 0.57872,0.33574 -0.16361,0.80713 -0.99591,0.63241 -0.99591,1.33234 0,3.47688 1.58267,3.40801 4.50374,3.51786 5.3363,0.20068 0.3451,-1.375 1.059,-2.5 1.58644,-2.5 0.96184,0 0.16025,3.95386 -1.03819,5.12089 -0.35069,0.34149 -1.87511,0.91257 -3.38761,1.26905 -2.07757,0.48967 -2.75,0.27672 -2.75,-0.87089 0,-1.87384 -1.41839,-1.9578 -3.1875,-0.18869 -0.7317,0.73169 -1.85105,1.15679 -2.48745,0.94466 -0.6364,-0.21214 -1.34788,0.4267 -1.58106,1.41964 -0.32208,1.37144 -0.58261,1.14439 -1.08399,-0.94466 z m 3.75655,-4.10687 c -0.34679,-0.90372 -1.04822,-1.64313 -1.55872,-1.64313 -0.51083,0 -0.42629,0.93781 0.18801,2.08565 1.27334,2.37925 2.32344,2.04024 1.37071,-0.44252 z m 20.73257,-5.30978 c -0.74298,-0.80571 -1.14461,-1.67119 -0.8925,-1.9233 0.25211,-0.25211 1.03663,0.23837 1.74338,1.08995 1.66916,2.01122 0.91574,2.74912 -0.85088,0.83335 z m -5.14912,-3.78831 c 0,-1.64029 2.19097,-4.54504 3.42819,-4.54504 1.36855,0 2.62567,2.17091 2.50842,4.33179 -0.0349,0.64251 -0.51712,0.0432 -1.07169,-1.33179 l -1.00831,-2.5 -1.9283,2.36078 c -1.06057,1.29843 -1.92831,2.05635 -1.92831,1.68426 z m -20.68959,-14.62403 c 0.37902,-1.44938 0.14577,-1.9263 -0.77019,-1.57482 -0.90324,0.34661 -1.15111,-0.11814 -0.79312,-1.4871 0.32422,-1.23983 0.87471,-1.63728 1.45877,-1.05322 0.95088,0.95088 5.77084,-0.67252 5.78633,-1.94888 0.0141,-1.16422 -3.4461,-1.99529 -3.80646,-0.91422 -0.19382,0.58148 -1.02205,1.05723 -1.8405,1.05723 -1.29965,0 -1.29448,-0.19362 0.0408,-1.52894 2.32558,-2.32557 0.88583,-4.73797 -2.5286,-4.23684 -3.38243,0.49644 -3.84483,-0.732 -0.60748,-1.61387 1.62558,-0.44282 2.80504,0.0442 4.25,1.75501 1.1,1.30236 3.0125,2.89152 4.25,3.53147 2.92675,1.5135 2.85694,2.90273 -0.18421,3.66601 -1.49532,0.3753 -2.82523,1.73262 -3.44798,3.51906 -1.15424,3.31104 -2.63395,3.98983 -1.8074,0.82911 z m 3.68959,0.26045 c 0,-1.49426 1.79801,-2.43491 5.41643,-2.83366 2.26487,-0.24959 3.44369,0.19856 4.35322,1.65496 0.68602,1.09848 0.84163,1.99724 0.34581,1.99724 -0.49581,0 -1.13916,-0.61938 -1.42965,-1.3764 -0.57565,-1.50011 -5.23992,-1.10303 -7.43581,0.63304 -0.83591,0.66087 -1.25,0.63596 -1.25,-0.0752 z"
           id="path4406"
           inkscape:connector-curvature="0" />
      </g>
      <path
         id="path3500"
         d="m 378.42856,921.07648 c 0.5887,-1.1 1.29537,-2 1.57037,-2 0.275,0 0.0183,0.9 -0.57037,2 -0.5887,1.1 -1.29537,2 -1.57037,2 -0.275,0 -0.0183,-0.9 0.57037,-2 z m 48.5,0 c 0.99549,-1.1 2.03498,-2 2.30998,-2 0.275,0 -0.31449,0.9 -1.30998,2 -0.99549,1.1 -2.03498,2 -2.30998,2 -0.275,0 0.31449,-0.9 1.30998,-2 z m 13.37156,-1.5 c 0.54004,-1.1 1.71469,-2.9 2.61033,-4 1.62844,-2 1.62844,-2 0.64655,0 -0.54004,1.1 -1.71469,2.9 -2.61033,4 -1.62844,2 -1.62844,2 -0.64655,0 z m -77.87156,-1.5 c 0.5887,-1.1 1.29537,-2 1.57037,-2 0.275,0 0.0183,0.9 -0.57037,2 -0.5887,1.1 -1.29537,2 -1.57037,2 -0.275,0 -0.0183,-0.9 0.57037,-2 z m 9,0 c 0.5887,-1.1 1.29537,-2 1.57037,-2 0.275,0 0.0183,0.9 -0.57037,2 -0.5887,1.1 -1.29537,2 -1.57037,2 -0.275,0 -0.0183,-0.9 0.57037,-2 z m 34,0 c 0.5887,-1.1 1.29537,-2 1.57037,-2 0.275,0 0.0183,0.9 -0.57037,2 -0.5887,1.1 -1.29537,2 -1.57037,2 -0.275,0 -0.0183,-0.9 0.57037,-2 z m 128.56429,-0.29313 c 0.37553,-0.98622 0.93469,-1.54122 1.24258,-1.23333 0.30789,0.30789 6.4e-4,1.11479 -0.68278,1.79313 -0.98762,0.98026 -1.10248,0.8654 -0.5598,-0.5598 z m -152.56429,-1.70687 c 0.5887,-1.1 1.29537,-2 1.57037,-2 0.275,0 0.0183,0.9 -0.57037,2 -0.5887,1.1 -1.29537,2 -1.57037,2 -0.275,0 -0.0183,-0.9 0.57037,-2 z m 13.51128,-1.37688 c 0.94531,-1.44271 1.90782,-2.62312 2.13891,-2.62312 0.72338,0 -1.6049,3.85397 -2.75929,4.56743 -0.6041,0.37335 -0.32492,-0.50159 0.62038,-1.94431 z m -19.81782,-2.7 c 0.9936,-1.69229 2.44556,-3.60479 3.22658,-4.25 0.78103,-0.64522 0.15873,0.73938 -1.38288,3.07688 -3.23702,4.90819 -4.51358,5.72045 -1.8437,1.17312 z m 10,-2 c 0.9936,-1.69229 2.44556,-3.60479 3.22658,-4.25 0.78103,-0.64522 0.15873,0.73938 -1.38288,3.07688 -3.23702,4.90819 -4.51358,5.72045 -1.8437,1.17312 z m 25.30654,0.0769 c 0.5887,-1.1 1.29537,-2 1.57037,-2 0.275,0 0.0183,0.9 -0.57037,2 -0.5887,1.1 -1.29537,2 -1.57037,2 -0.275,0 -0.0183,-0.9 0.57037,-2 z m 12,0 c 0.5887,-1.1 1.29537,-2 1.57037,-2 0.275,0 0.0183,0.9 -0.57037,2 -0.5887,1.1 -1.29537,2 -1.57037,2 -0.275,0 -0.0183,-0.9 0.57037,-2 z m 95,-1 c 1.1749,-1.65 2.36119,-3 2.63619,-3 0.275,0 -0.46129,1.35 -1.63619,3 -1.1749,1.65 -2.36119,3 -2.63619,3 -0.275,0 0.46129,-1.35 1.63619,-3 z m -118.48872,-0.3769 c 0.94531,-1.44271 1.90782,-2.62312 2.13891,-2.62312 0.72338,0 -1.6049,3.85397 -2.75929,4.56743 -0.6041,0.37335 -0.32492,-0.50159 0.62038,-1.94431 z m -55.51128,0.99932 c 0,-0.20765 0.7875,-0.99515 1.75,-1.75 1.58606,-1.24387 1.62143,-1.2085 0.37755,0.37756 -1.30636,1.66575 -2.12755,2.19548 -2.12755,1.37244 z m 25,-1.62244 c 0.5887,-1.1 1.29537,-2 1.57037,-2 0.275,0 0.0183,0.9 -0.57037,2 -0.5887,1.1 -1.29537,2 -1.57037,2 -0.275,0 -0.0183,-0.9 0.57037,-2 z m -27.5,-3 c 0.99549,-1.1 2.03497,-2 2.30998,-2 0.27499,0 -0.31449,0.9 -1.30998,2 -0.99549,1.1 -2.03497,2 -2.30998,2 -0.27499,0 0.31449,-0.9 1.30998,-2 z m 146.5,0 c 0.5887,-1.1 1.29537,-2 1.57037,-2 0.275,0 0.0183,0.9 -0.57037,2 -0.5887,1.1 -1.29537,2 -1.57037,2 -0.275,0 -0.0183,-0.9 0.57037,-2 z m 78,0 c 0.5887,-1.1 1.29537,-2 1.57037,-2 0.275,0 0.0183,0.9 -0.57037,2 -0.5887,1.1 -1.29537,2 -1.57037,2 -0.275,0 -0.0183,-0.9 0.57037,-2 z M 334.8347,903.18019 c 1.33352,-1.47352 1.42381,-2.01328 0.40499,-2.42105 -0.72112,-0.28862 -0.22019,-0.56029 1.11318,-0.60371 l 2.42432,-0.079 -2.34863,2.5 c -2.71784,2.89301 -4.15999,3.43926 -1.59386,0.60371 z m 68.03716,-0.32622 c 2.06127,-2.94287 1.96332,-3.77749 -0.4433,-3.77749 -1.1,0 -2,-0.45 -2,-1 0,-0.55 -0.47656,-1 -1.05902,-1 -0.58246,0 -0.7809,0.45 -0.44098,1 0.68891,1.11468 0.1706,1.1401 -23,1.12808 -14.64255,-0.008 -16.12726,0.15585 -17.5,1.92657 -1.39204,1.79562 -1.5,1.57945 -1.5,-3.00353 0,-4.30644 0.2512,-4.91363 1.96295,-4.74476 1.43481,0.14154 2.14287,-0.61351 2.63168,-2.80636 l 0.66874,-3 0.11831,2.75 c 0.12062,2.80356 2.11832,3.98238 2.11832,1.25 0,-0.825 0.43588,-1.5 0.96861,-1.5 0.53274,0 0.7096,0.675 0.39302,1.5 -0.42452,1.10626 0.13679,1.5 2.13837,1.5 2.15024,0 2.58739,-0.3635 2.10453,-1.75 -0.58042,-1.66667 -0.54455,-1.66667 0.75326,0 2.26314,2.90637 3.87292,2.15889 3.23043,-1.5 l -0.5707,-3.25 1.33779,3.5 1.33779,3.5 -3.36749,0.31161 c -2.01433,0.1864 -3.10967,0.72878 -2.72587,1.34977 0.3715,0.6011 -0.30246,0.5329 -1.6009,-0.162 -1.8815,-1.00695 -2.54614,-0.89652 -4.12861,0.68595 -1.84814,1.84813 -1.84716,1.8861 0.0484,1.8861 1.06398,0 1.77085,-0.26482 1.57081,-0.5885 -0.56595,-0.91572 6.84977,-0.50935 8.42053,0.46144 0.86282,0.53325 1.16781,0.49052 0.79575,-0.11148 -0.97729,-1.58128 3.06464,-4.33289 6.36471,-4.33289 1.67617,0 2.79558,0.40775 2.48757,0.90612 -0.30801,0.49837 -1.36476,0.69567 -2.34834,0.43846 -1.04508,-0.27329 -2.6032,0.45961 -3.749,1.76345 -1.94997,2.21891 -1.94975,2.22691 0.0393,1.46492 2.69877,-1.03388 4.52798,-1.40259 7.5,-1.51175 1.48925,-0.0547 2.02909,-0.39142 1.33524,-0.83285 -0.86495,-0.55028 -0.8006,-1.23902 0.25,-2.67581 0.77812,-1.06414 1.41476,-1.39879 1.41476,-0.74367 0,0.65512 0.45,1.19113 1,1.19113 0.55,0 1,-0.675 1,-1.5 0,-0.825 0.85185,-1.5 1.89301,-1.5 1.04116,0 2.15203,0.675 2.46862,1.5 0.9063,2.36179 2.63837,1.75096 2.63837,-0.93045 0,-1.72539 -0.65271,-2.55617 -2.25,-2.86382 -1.97597,-0.38059 -1.92317,-0.44995 0.43358,-0.56955 2.22508,-0.11291 2.73764,0.33367 3,2.61382 0.23377,2.03172 0.94644,2.83901 2.72853,3.09079 1.80404,0.25489 2.06343,0.55629 1.02896,1.19563 -0.76073,0.47016 -1.02189,1.21609 -0.58035,1.65763 0.44154,0.44155 1.38333,0.009 2.09287,-0.96147 1.17153,-1.60216 1.34737,-1.47778 1.91365,1.35364 0.45534,2.27666 0.0668,3.89982 -1.43992,6.01585 -1.13493,1.59386 -2.28338,2.89793 -2.55212,2.89793 -0.26873,0 0.21191,-1.00013 1.0681,-2.22251 z m -40.00573,-8.67325 c -0.59659,-0.5966 -4.43757,3.0004 -4.43757,4.15571 0,0.52248 1.09415,-0.10311 2.43144,-1.39021 1.3373,-1.2871 2.24006,-2.53158 2.00613,-2.7655 z m 42.56243,3.89576 c 0,-0.55 -0.47656,-1 -1.05902,-1 -0.58246,0 -0.7809,0.45 -0.44098,1 0.33992,0.55 0.81648,1 1.05902,1 0.24254,0 0.44098,-0.45 0.44098,-1 z m -11.48521,-2.1811 c 0.37441,-0.3746 1.26623,-0.45643 1.98183,-0.18183 0.71559,0.2746 1.59436,0.0247 1.95282,-0.55526 0.41859,-0.6773 -0.44911,-0.92636 -2.4256,-0.69623 -2.62506,0.30564 -2.99001,0.0832 -2.4832,-1.51364 0.32728,-1.03116 0.11472,-1.87194 -0.47325,-1.87194 -0.58707,0 -1.06739,0.62686 -1.06739,1.39301 0,0.76616 -0.675,1.65203 -1.5,1.96862 -0.825,0.31658 -1.5,0.94813 -1.5,1.40345 0,0.98614 4.53868,1.03043 5.51479,0.0538 z m -44.05127,5.27503 c 0.691,-1.14652 0.14977,-1.29286 -2.93195,-0.79277 -5.0248,0.81542 -3.73913,-0.34889 1.42879,-1.29391 4.3155,-0.78915 5.08155,-0.0973 2.34768,2.12031 -1.44133,1.16915 -1.56643,1.16416 -0.84452,-0.0336 z m -9.65102,-0.77704 c 0.72188,-0.28887 1.58438,-0.25335 1.91667,0.0789 0.33229,0.3323 -0.25834,0.56864 -1.3125,0.52522 -1.16495,-0.048 -1.4019,-0.28494 -0.60417,-0.60416 z m 111,0 c 0.72187,-0.28887 1.58437,-0.25335 1.91667,0.0789 0.33229,0.3323 -0.25834,0.56864 -1.3125,0.52522 -1.16495,-0.048 -1.4019,-0.28494 -0.60417,-0.60416 z m -41.54347,-1.00988 c 0.97297,-0.25354 2.32297,-0.23687 3,0.037 0.67703,0.27393 -0.11903,0.48137 -1.76903,0.46099 -1.65,-0.0204 -2.20394,-0.2445 -1.23097,-0.49804 z m 48.43846,-0.98713 c 0.88056,-2.29469 6.87995,-7.47867 10.78584,-9.31988 1.75014,-0.825 4.57703,-2.82204 6.28198,-4.43787 2.35529,-2.23217 4.20329,-3.00197 7.69335,-3.20474 2.72684,-0.15843 4.35365,0.12109 4.00337,0.68787 -0.32454,0.52511 0.13805,0.95474 1.02797,0.95474 0.88992,0 1.33992,-0.45 1,-1 -0.33992,-0.55 0.36101,-1 1.55761,-1 1.64856,0 2.05474,-0.46237 1.67657,-1.90851 -0.2745,-1.04968 -0.16698,-3.72468 0.23893,-5.94444 0.46842,-2.56162 0.33416,-4.4751 -0.36754,-5.23819 -0.82031,-0.89206 -0.78304,-1.02018 0.14443,-0.49655 0.77574,0.43797 1.25,0.0918 1.25,-0.91231 0,-0.88992 -0.40735,-1.36628 -0.90521,-1.05858 -0.51617,0.31901 -0.74058,-1.91199 -0.52215,-5.19099 0.21069,-3.16273 0.5809,-9.35043 0.82269,-13.75043 0.43275,-7.87506 3.92416,-19.03862 5.62548,-17.98714 0.42329,0.26161 1.02765,-0.19676 1.34302,-1.0186 0.31537,-0.82185 1.28908,-1.49426 2.1638,-1.49426 0.94335,0 1.3328,0.50856 0.95723,1.25 -0.34825,0.6875 -0.0185,0.50466 0.73271,-0.40631 1.54973,-1.87923 3.58707,-1.12996 7.46093,2.7439 1.23552,1.23552 3.24865,2.9484 4.47362,3.8064 1.22497,0.85801 1.98556,1.80166 1.69021,2.09701 -0.29535,0.29536 -1.67044,-0.35455 -3.05576,-1.44424 -1.38531,-1.08969 -2.87615,-1.65849 -3.31298,-1.26401 -0.43683,0.39449 -0.47054,0.15475 -0.0749,-0.53275 0.44489,-0.77308 0.12452,-1.25 -0.83967,-1.25 -0.85746,0 -1.55902,0.50175 -1.55902,1.11501 0,0.68478 -0.95106,0.49185 -2.46482,-0.5 -2.83734,-1.8591 -5.53518,-2.11388 -5.53518,-0.52274 0,0.60075 0.94293,2.28825 2.0954,3.75 1.80502,2.28942 1.87431,2.70254 0.5,2.98105 -2.13126,0.43193 -2.01502,1.00603 0.6546,3.23312 2.74648,2.2912 4.12594,2.40043 5.74086,0.45457 0.67967,-0.81894 1.68281,-1.21269 2.22921,-0.875 0.60418,0.3734 0.46182,0.95973 -0.36331,1.49635 -1.06816,0.69467 -0.82872,1.29124 1.12562,2.80458 1.95254,1.51195 2.78723,1.67046 3.91066,0.74265 1.23207,-1.01756 1.23922,-0.876 0.052,1.03052 -0.75696,1.21556 -1.62716,1.80421 -1.93377,1.3081 -0.30661,-0.49611 -0.4395,3.68434 -0.29532,9.28989 0.14419,5.60554 0.39455,16.10327 0.55637,23.32828 0.20456,9.13306 0.70234,13.62813 1.6334,14.75 1.13365,1.36596 1.10296,1.61362 -0.19992,1.61362 -0.84651,0 -1.76609,0.5625 -2.0435,1.25 -0.37562,0.9309 -0.52454,0.94158 -0.58333,0.0418 -0.1009,-1.54405 -19.87798,-0.56137 -22.02091,1.09417 -1.13551,0.87725 -1.26215,0.81565 -0.59588,-0.28989 0.70632,-1.17198 -0.21179,-1.29645 -5.55804,-0.75352 -3.52226,0.3577 -11.22881,0.88038 -17.12566,1.16151 -9.78706,0.4666 -10.66484,0.36338 -10.07097,-1.18422 z m 32.79251,-2.03295 c -1.1,-0.26458 -2.4275,-0.88738 -2.95,-1.38399 -0.5225,-0.49662 -1.4225,-0.88863 -2,-0.87114 -0.5775,0.0175 -0.17649,0.6925 0.89113,1.5 1.06762,0.80751 2.86762,1.416 4,1.3522 2.00867,-0.11317 2.0101,-0.12773 0.0589,-0.59707 z m -23.5,-4.28693 c 0,-0.55 -0.47656,-1 -1.05902,-1 -0.58246,0 -0.7809,0.45 -0.44098,1 0.33992,0.55 0.81648,1 1.05902,1 0.24254,0 0.44098,-0.45 0.44098,-1 z m 4,-2.10699 c 0,-1.43762 -1.73512,-1.02567 -2.34208,0.55606 -0.37166,0.96852 -0.0755,1.26467 0.89301,0.89301 0.79699,-0.30583 1.44907,-0.95791 1.44907,-1.44907 z m 8,0.52366 c 0,-1.76593 -2.15276,-1.45839 -2.77083,0.39583 -0.21771,0.65313 0.31666,1.1875 1.1875,1.1875 0.87083,0 1.58333,-0.7125 1.58333,-1.58333 z m 19,-3.41667 c 0,-0.55 -0.47656,-1 -1.05902,-1 -0.58246,0 -0.7809,0.45 -0.44098,1 0.33992,0.55 0.81648,1 1.05902,1 0.24254,0 0.44098,-0.45 0.44098,-1 z m 8,-1 c 0,-0.55 -0.19844,-1 -0.44098,-1 -0.24254,0 -0.7191,0.45 -1.05902,1 -0.33992,0.55 -0.14148,1 0.44098,1 0.58246,0 1.05902,-0.45 1.05902,-1 z m -5.427,-11.52147 c -1.05985,-0.80183 -2.17182,-1.21305 -2.47104,-0.91383 -0.62769,0.6277 1.9121,2.41269 3.39804,2.38818 0.55,-0.009 0.13285,-0.67253 -0.927,-1.47435 z m -2.573,-3.47853 c 0,-0.55 -0.47656,-1 -1.05902,-1 -0.58246,0 -0.7809,0.45 -0.44098,1 0.33992,0.55 0.81648,1 1.05902,1 0.24254,0 0.44098,-0.45 0.44098,-1 z m 3,-2 c 0,-0.55 -0.47656,-1 -1.05902,-1 -0.58246,0 -0.7809,0.45 -0.44098,1 0.33992,0.55 0.81648,1 1.05902,1 0.24254,0 0.44098,-0.45 0.44098,-1 z m 8,-1.44098 c 0,-0.24254 -0.45,-0.7191 -1,-1.05902 -0.55,-0.33992 -1,-0.14148 -1,0.44098 0,0.58246 0.45,1.05902 1,1.05902 0.55,0 1,-0.19844 1,-0.44098 z m -12.81667,-5.77569 c -0.71756,-0.71756 -1.18333,-0.7766 -1.18333,-0.15 0,1.33478 1.18261,2.51739 1.85,1.85 0.28417,-0.28416 -0.0158,-1.04916 -0.66667,-1.7 z m 29.20968,32.63488 c 0.33385,-0.86998 0.61388,-2.33248 0.6223,-3.25 0.013,-1.41336 0.15701,-1.44418 0.9428,-0.20175 0.58796,0.92964 0.53753,1.93633 -0.13776,2.75 -0.78978,0.95164 -0.66096,1.28354 0.49819,1.28354 2.11638,0 3.16339,-1.91807 1.79433,-3.28713 -0.61208,-0.61208 -1.1099,-1.58537 -1.10628,-2.16287 0.004,-0.5775 0.8861,0.28427 1.96106,1.91505 2.15944,3.27601 1.39936,4.49219 -2.82464,4.51964 -1.74138,0.0113 -2.19845,-0.39783 -1.75,-1.56648 z m 30.80194,-2.91821 c 0.0204,-1.65 0.2445,-2.20394 0.49804,-1.23097 0.25354,0.97297 0.23687,2.32297 -0.0371,3 -0.27393,0.67703 -0.48137,-0.11903 -0.46099,-1.76903 z m -4.69495,-4.5 c 0.33992,-0.55 0.81648,-1 1.05902,-1 0.24254,0 0.44098,0.45 0.44098,1 0,0.55 -0.47656,1 -1.05902,1 -0.58246,0 -0.7809,-0.45 -0.44098,-1 z m 4.25,-0.39205 c -1.82704,-1.38692 -2.29081,-2.60795 -0.99055,-2.60795 0.4177,0 1.32152,0.9 2.00848,2 1.45544,2.33054 1.34119,2.39878 -1.01793,0.60795 z m -29.75,-2.60795 c 0,-0.55 0.47656,-1 1.05902,-1 0.58246,0 0.7809,0.45 0.44098,1 -0.33992,0.55 -0.81648,1 -1.05902,1 -0.24254,0 -0.44098,-0.45 -0.44098,-1 z m 21.40499,-4.25 -1.90499,-2.25 2.25,1.90499 c 1.2375,1.04774 2.25,2.06024 2.25,2.25 0,0.80025 -0.80479,0.20945 -2.59501,-1.90499 z m 2.87315,-3 c -1.49918,-1.93844 -2.44224,-3.75 -1.95217,-3.75 0.24421,0 1.18114,1.125 2.08207,2.5 1.68584,2.57291 1.59195,3.47635 -0.1299,1.25 z m -25.27814,-18.94805 c 0,-1.17441 0.3375,-1.72802 0.75,-1.23025 0.4125,0.49777 1.12523,1.18514 1.58385,1.5275 0.45861,0.34236 0.12111,0.89597 -0.75,1.23025 -1.14039,0.43761 -1.58385,0.01 -1.58385,-1.5275 z m -2.67108,-10.65218 c -0.34813,-1.33121 -1.13426,-2.05471 -1.90941,-1.75726 -0.83699,0.32119 -1.11481,-0.023 -0.76159,-0.94344 0.68306,-1.78003 2.09335,-1.85617 3.68732,-0.19907 1.37104,1.42534 1.52066,3.21744 0.3651,4.373 -0.43432,0.43431 -1.05596,-0.22864 -1.38142,-1.47323 z m 5.94011,-3.84276 c 0.97297,-0.25354 2.32297,-0.23687 3,0.037 0.67703,0.27392 -0.11903,0.48137 -1.76903,0.46099 -1.65,-0.0204 -2.20394,-0.2445 -1.23097,-0.49805 z m 3.80992,-2.89034 c 0.048,-1.16495 0.28494,-1.4019 0.60416,-0.60417 0.28887,0.72187 0.25335,1.58437 -0.0789,1.91667 -0.3323,0.33229 -0.56864,-0.25834 -0.52522,-1.3125 z m -16.07895,-1.587 c 2.50444,-2.44233 3.77489,-2.89249 2.54444,-0.90158 -0.3607,0.58364 -1.64326,1.5738 -2.85013,2.20037 -1.98752,1.03185 -1.95871,0.90946 0.30569,-1.29879 z m 19.75,-4.49195 c 0.6875,-0.27741 1.8125,-0.27741 2.5,0 0.6875,0.27741 0.125,0.50438 -1.25,0.50438 -1.375,0 -1.9375,-0.22697 -1.25,-0.50438 z m -17.25555,-2.34385 c -0.99854,-1.10337 -1.57924,-2.24242 -1.29044,-2.53121 0.28879,-0.28879 1.2714,0.61397 2.18358,2.00613 1.993,3.0417 1.59573,3.27525 -0.89314,0.52508 z m -4.49445,-5.99387 c 0,-0.55 0.45,-1 1,-1 0.55,0 1,0.45 1,1 0,0.55 -0.45,1 -1,1 -0.55,0 -1,-0.45 -1,-1 z m 10.63948,0.30615 c -0.35171,-0.35172 -0.60395,-1.57698 -0.56053,-2.72282 0.0556,-1.46823 0.24753,-1.64046 0.64994,-0.58333 0.31405,0.825 1.00157,1.78125 1.52782,2.125 0.60712,0.39658 0.6033,0.84349 -0.0105,1.22281 -0.532,0.3288 -1.25505,0.31005 -1.60676,-0.0417 z m -7.63948,-9.30615 c 0,-0.55 0.47656,-1 1.05902,-1 0.58246,0 0.7809,0.45 0.44098,1 -0.33992,0.55 -0.81648,1 -1.05902,1 -0.24254,0 -0.44098,-0.45 -0.44098,-1 z m 13.73333,-0.12409 c 0.67834,-0.68342 1.48524,-0.99067 1.79313,-0.68278 0.30789,0.30788 -0.24711,0.86705 -1.23333,1.24258 -1.4252,0.54268 -1.54006,0.42782 -0.5598,-0.5598 z m 6.26667,-4.87591 c 0,-0.55 0.47656,-1 1.05902,-1 0.58246,0 0.7809,0.45 0.44098,1 -0.33992,0.55 -0.81648,1 -1.05902,1 -0.24254,0 -0.44098,-0.45 -0.44098,-1 z m -14.29709,-3.49682 c -1.36638,-2.86533 -1.39275,-3.32139 -0.16479,-2.85018 0.80403,0.30854 1.46188,1.37533 1.46188,2.37065 0,0.99533 0.54034,1.98979 1.20075,2.20993 0.7857,0.2619 0.84266,0.62156 0.16478,1.04051 -0.56977,0.35214 -1.76795,-0.89477 -2.66262,-2.77091 z m 13.45498,-0.50318 c 0,-1.375 0.22698,-1.9375 0.50439,-1.25 0.27741,0.6875 0.27741,1.8125 0,2.5 -0.27741,0.6875 -0.50439,0.125 -0.50439,-1.25 z m -28.65789,-2 c 0.33992,-0.55 0.81648,-1 1.05902,-1 0.24254,0 0.44098,0.45 0.44098,1 0,0.55 -0.47656,1 -1.05902,1 -0.58246,0 -0.7809,-0.45 -0.44098,-1 z m 11.27816,-9.43152 c -0.81551,-2.47717 -1.11588,-4.2772 -0.66748,-4.00008 0.89115,0.55076 3.04647,7.60778 2.49267,8.16158 -0.18834,0.18834 -1.00967,-1.68434 -1.82519,-4.1615 z m 4.78613,3.13839 c 0.37553,-0.98622 0.93469,-1.54122 1.24258,-1.23333 0.30789,0.30789 6.4e-4,1.11479 -0.68278,1.79313 -0.98762,0.98026 -1.10248,0.8654 -0.5598,-0.5598 z"
         style="fill-opacity:1;fill:#ffffff"
         transform="translate(-2,-1)"
         inkscape:connector-curvature="0" />
      <path
         transform="translate(-2,-1)"
         style="fill:#ffffff;fill-opacity:1;stroke:none;stroke-opacity:1"
         d="m 378.42856,921.07648 c 0.5887,-1.1 1.29537,-2 1.57037,-2 0.275,0 0.0183,0.9 -0.57037,2 -0.5887,1.1 -1.29537,2 -1.57037,2 -0.275,0 -0.0183,-0.9 0.57037,-2 z m 48.5,0 c 0.99549,-1.1 2.03498,-2 2.30998,-2 0.275,0 -0.31449,0.9 -1.30998,2 -0.99549,1.1 -2.03498,2 -2.30998,2 -0.275,0 0.31449,-0.9 1.30998,-2 z m 13.37156,-1.5 c 0.54004,-1.1 1.71469,-2.9 2.61033,-4 1.62844,-2 1.62844,-2 0.64655,0 -0.54004,1.1 -1.71469,2.9 -2.61033,4 -1.62844,2 -1.62844,2 -0.64655,0 z m -77.87156,-1.5 c 0.5887,-1.1 1.29537,-2 1.57037,-2 0.275,0 0.0183,0.9 -0.57037,2 -0.5887,1.1 -1.29537,2 -1.57037,2 -0.275,0 -0.0183,-0.9 0.57037,-2 z m 9,0 c 0.5887,-1.1 1.29537,-2 1.57037,-2 0.275,0 0.0183,0.9 -0.57037,2 -0.5887,1.1 -1.29537,2 -1.57037,2 -0.275,0 -0.0183,-0.9 0.57037,-2 z m 34,0 c 0.5887,-1.1 1.29537,-2 1.57037,-2 0.275,0 0.0183,0.9 -0.57037,2 -0.5887,1.1 -1.29537,2 -1.57037,2 -0.275,0 -0.0183,-0.9 0.57037,-2 z m 128.56429,-0.29313 c 0.37553,-0.98622 0.93469,-1.54122 1.24258,-1.23333 0.30789,0.30789 6.4e-4,1.11479 -0.68278,1.79313 -0.98762,0.98026 -1.10248,0.8654 -0.5598,-0.5598 z m -152.56429,-1.70687 c 0.5887,-1.1 1.29537,-2 1.57037,-2 0.275,0 0.0183,0.9 -0.57037,2 -0.5887,1.1 -1.29537,2 -1.57037,2 -0.275,0 -0.0183,-0.9 0.57037,-2 z m 13.51128,-1.37688 c 0.94531,-1.44271 1.90782,-2.62312 2.13891,-2.62312 0.72338,0 -1.6049,3.85397 -2.75929,4.56743 -0.6041,0.37335 -0.32492,-0.50159 0.62038,-1.94431 z m -19.81782,-2.7 c 0.9936,-1.69229 2.44556,-3.60479 3.22658,-4.25 0.78103,-0.64522 0.15873,0.73938 -1.38288,3.07688 -3.23702,4.90819 -4.51358,5.72045 -1.8437,1.17312 z m 10,-2 c 0.9936,-1.69229 2.44556,-3.60479 3.22658,-4.25 0.78103,-0.64522 0.15873,0.73938 -1.38288,3.07688 -3.23702,4.90819 -4.51358,5.72045 -1.8437,1.17312 z m 25.30654,0.0769 c 0.5887,-1.1 1.29537,-2 1.57037,-2 0.275,0 0.0183,0.9 -0.57037,2 -0.5887,1.1 -1.29537,2 -1.57037,2 -0.275,0 -0.0183,-0.9 0.57037,-2 z m 12,0 c 0.5887,-1.1 1.29537,-2 1.57037,-2 0.275,0 0.0183,0.9 -0.57037,2 -0.5887,1.1 -1.29537,2 -1.57037,2 -0.275,0 -0.0183,-0.9 0.57037,-2 z m 95,-1 c 1.1749,-1.65 2.36119,-3 2.63619,-3 0.275,0 -0.46129,1.35 -1.63619,3 -1.1749,1.65 -2.36119,3 -2.63619,3 -0.275,0 0.46129,-1.35 1.63619,-3 z m -118.48872,-0.3769 c 0.94531,-1.44271 1.90782,-2.62312 2.13891,-2.62312 0.72338,0 -1.6049,3.85397 -2.75929,4.56743 -0.6041,0.37335 -0.32492,-0.50159 0.62038,-1.94431 z m -55.51128,0.99932 c 0,-0.20765 0.7875,-0.99515 1.75,-1.75 1.58606,-1.24387 1.62143,-1.2085 0.37755,0.37756 -1.30636,1.66575 -2.12755,2.19548 -2.12755,1.37244 z m 25,-1.62244 c 0.5887,-1.1 1.29537,-2 1.57037,-2 0.275,0 0.0183,0.9 -0.57037,2 -0.5887,1.1 -1.29537,2 -1.57037,2 -0.275,0 -0.0183,-0.9 0.57037,-2 z m -27.5,-3 c 0.99549,-1.1 2.03497,-2 2.30998,-2 0.27499,0 -0.31449,0.9 -1.30998,2 -0.99549,1.1 -2.03497,2 -2.30998,2 -0.27499,0 0.31449,-0.9 1.30998,-2 z m 146.5,0 c 0.5887,-1.1 1.29537,-2 1.57037,-2 0.275,0 0.0183,0.9 -0.57037,2 -0.5887,1.1 -1.29537,2 -1.57037,2 -0.275,0 -0.0183,-0.9 0.57037,-2 z m 78,0 c 0.5887,-1.1 1.29537,-2 1.57037,-2 0.275,0 0.0183,0.9 -0.57037,2 -0.5887,1.1 -1.29537,2 -1.57037,2 -0.275,0 -0.0183,-0.9 0.57037,-2 z M 334.8347,903.18019 c 1.33352,-1.47352 1.42381,-2.01328 0.40499,-2.42105 -0.72112,-0.28862 -0.22019,-0.56029 1.11318,-0.60371 l 2.42432,-0.079 -2.34863,2.5 c -2.71784,2.89301 -4.15999,3.43926 -1.59386,0.60371 z m 68.03716,-0.32622 c 2.06127,-2.94287 1.96332,-3.77749 -0.4433,-3.77749 -1.1,0 -2,-0.45 -2,-1 0,-0.55 -0.47656,-1 -1.05902,-1 -0.58246,0 -0.7809,0.45 -0.44098,1 0.68891,1.11468 0.1706,1.1401 -23,1.12808 -14.64255,-0.008 -16.12726,0.15585 -17.5,1.92657 -1.39204,1.79562 -1.5,1.57945 -1.5,-3.00353 0,-4.30644 0.2512,-4.91363 1.96295,-4.74476 1.43481,0.14154 2.14287,-0.61351 2.63168,-2.80636 l 0.66874,-3 0.11831,2.75 c 0.12062,2.80356 2.11832,3.98238 2.11832,1.25 0,-0.825 0.43588,-1.5 0.96861,-1.5 0.53274,0 0.7096,0.675 0.39302,1.5 -0.42452,1.10626 0.13679,1.5 2.13837,1.5 2.15024,0 2.58739,-0.3635 2.10453,-1.75 -0.58042,-1.66667 -0.54455,-1.66667 0.75326,0 2.26314,2.90637 3.87292,2.15889 3.23043,-1.5 l -0.5707,-3.25 1.33779,3.5 1.33779,3.5 -3.36749,0.31161 c -2.01433,0.1864 -3.10967,0.72878 -2.72587,1.34977 0.3715,0.6011 -0.30246,0.5329 -1.6009,-0.162 -1.8815,-1.00695 -2.54614,-0.89652 -4.12861,0.68595 -1.84814,1.84813 -1.84716,1.8861 0.0484,1.8861 1.06398,0 1.77085,-0.26482 1.57081,-0.5885 -0.56595,-0.91572 6.84977,-0.50935 8.42053,0.46144 0.86282,0.53325 1.16781,0.49052 0.79575,-0.11148 -0.97729,-1.58128 3.06464,-4.33289 6.36471,-4.33289 1.67617,0 2.79558,0.40775 2.48757,0.90612 -0.30801,0.49837 -1.36476,0.69567 -2.34834,0.43846 -1.04508,-0.27329 -2.6032,0.45961 -3.749,1.76345 -1.94997,2.21891 -1.94975,2.22691 0.0393,1.46492 2.69877,-1.03388 4.52798,-1.40259 7.5,-1.51175 1.48925,-0.0547 2.02909,-0.39142 1.33524,-0.83285 -0.86495,-0.55028 -0.8006,-1.23902 0.25,-2.67581 0.77812,-1.06414 1.41476,-1.39879 1.41476,-0.74367 0,0.65512 0.45,1.19113 1,1.19113 0.55,0 1,-0.675 1,-1.5 0,-0.825 0.85185,-1.5 1.89301,-1.5 1.04116,0 2.15203,0.675 2.46862,1.5 0.9063,2.36179 2.63837,1.75096 2.63837,-0.93045 0,-1.72539 -0.65271,-2.55617 -2.25,-2.86382 -1.97597,-0.38059 -1.92317,-0.44995 0.43358,-0.56955 2.22508,-0.11291 2.73764,0.33367 3,2.61382 0.23377,2.03172 0.94644,2.83901 2.72853,3.09079 1.80404,0.25489 2.06343,0.55629 1.02896,1.19563 -0.76073,0.47016 -1.02189,1.21609 -0.58035,1.65763 0.44154,0.44155 1.38333,0.009 2.09287,-0.96147 1.17153,-1.60216 1.34737,-1.47778 1.91365,1.35364 0.45534,2.27666 0.0668,3.89982 -1.43992,6.01585 -1.13493,1.59386 -2.28338,2.89793 -2.55212,2.89793 -0.26873,0 0.21191,-1.00013 1.0681,-2.22251 z m -40.00573,-8.67325 c -0.59659,-0.5966 -4.43757,3.0004 -4.43757,4.15571 0,0.52248 1.09415,-0.10311 2.43144,-1.39021 1.3373,-1.2871 2.24006,-2.53158 2.00613,-2.7655 z m 42.56243,3.89576 c 0,-0.55 -0.47656,-1 -1.05902,-1 -0.58246,0 -0.7809,0.45 -0.44098,1 0.33992,0.55 0.81648,1 1.05902,1 0.24254,0 0.44098,-0.45 0.44098,-1 z m -11.48521,-2.1811 c 0.37441,-0.3746 1.26623,-0.45643 1.98183,-0.18183 0.71559,0.2746 1.59436,0.0247 1.95282,-0.55526 0.41859,-0.6773 -0.44911,-0.92636 -2.4256,-0.69623 -2.62506,0.30564 -2.99001,0.0832 -2.4832,-1.51364 0.32728,-1.03116 0.11472,-1.87194 -0.47325,-1.87194 -0.58707,0 -1.06739,0.62686 -1.06739,1.39301 0,0.76616 -0.675,1.65203 -1.5,1.96862 -0.825,0.31658 -1.5,0.94813 -1.5,1.40345 0,0.98614 4.53868,1.03043 5.51479,0.0538 z m -44.05127,5.27503 c 0.691,-1.14652 0.14977,-1.29286 -2.93195,-0.79277 -5.0248,0.81542 -3.73913,-0.34889 1.42879,-1.29391 4.3155,-0.78915 5.08155,-0.0973 2.34768,2.12031 -1.44133,1.16915 -1.56643,1.16416 -0.84452,-0.0336 z m -9.65102,-0.77704 c 0.72188,-0.28887 1.58438,-0.25335 1.91667,0.0789 0.33229,0.3323 -0.25834,0.56864 -1.3125,0.52522 -1.16495,-0.048 -1.4019,-0.28494 -0.60417,-0.60416 z m 111,0 c 0.72187,-0.28887 1.58437,-0.25335 1.91667,0.0789 0.33229,0.3323 -0.25834,0.56864 -1.3125,0.52522 -1.16495,-0.048 -1.4019,-0.28494 -0.60417,-0.60416 z m -41.54347,-1.00988 c 0.97297,-0.25354 2.32297,-0.23687 3,0.037 0.67703,0.27393 -0.11903,0.48137 -1.76903,0.46099 -1.65,-0.0204 -2.20394,-0.2445 -1.23097,-0.49804 z m 48.43846,-0.98713 c 0.88056,-2.29469 6.87995,-7.47867 10.78584,-9.31988 1.75014,-0.825 4.57703,-2.82204 6.28198,-4.43787 2.35529,-2.23217 4.20329,-3.00197 7.69335,-3.20474 2.72684,-0.15843 4.35365,0.12109 4.00337,0.68787 -0.32454,0.52511 0.13805,0.95474 1.02797,0.95474 0.88992,0 1.33992,-0.45 1,-1 -0.33992,-0.55 0.36101,-1 1.55761,-1 1.64856,0 2.05474,-0.46237 1.67657,-1.90851 -0.2745,-1.04968 -0.16698,-3.72468 0.23893,-5.94444 0.46842,-2.56162 0.33416,-4.4751 -0.36754,-5.23819 -0.82031,-0.89206 -0.78304,-1.02018 0.14443,-0.49655 0.77574,0.43797 1.25,0.0918 1.25,-0.91231 0,-0.88992 -0.40735,-1.36628 -0.90521,-1.05858 -0.51617,0.31901 -0.74058,-1.91199 -0.52215,-5.19099 0.21069,-3.16273 0.5809,-9.35043 0.82269,-13.75043 0.43275,-7.87506 3.92416,-19.03862 5.62548,-17.98714 0.42329,0.26161 1.02765,-0.19676 1.34302,-1.0186 0.31537,-0.82185 1.28908,-1.49426 2.1638,-1.49426 0.94335,0 1.3328,0.50856 0.95723,1.25 -0.34825,0.6875 -0.0185,0.50466 0.73271,-0.40631 1.54973,-1.87923 3.58707,-1.12996 7.46093,2.7439 1.23552,1.23552 3.24865,2.9484 4.47362,3.8064 1.22497,0.85801 1.98556,1.80166 1.69021,2.09701 -0.29535,0.29536 -1.67044,-0.35455 -3.05576,-1.44424 -1.38531,-1.08969 -2.87615,-1.65849 -3.31298,-1.26401 -0.43683,0.39449 -0.47054,0.15475 -0.0749,-0.53275 0.44489,-0.77308 0.12452,-1.25 -0.83967,-1.25 -0.85746,0 -1.55902,0.50175 -1.55902,1.11501 0,0.68478 -0.95106,0.49185 -2.46482,-0.5 -2.83734,-1.8591 -5.53518,-2.11388 -5.53518,-0.52274 0,0.60075 0.94293,2.28825 2.0954,3.75 1.80502,2.28942 1.87431,2.70254 0.5,2.98105 -2.13126,0.43193 -2.01502,1.00603 0.6546,3.23312 2.74648,2.2912 4.12594,2.40043 5.74086,0.45457 0.67967,-0.81894 1.68281,-1.21269 2.22921,-0.875 0.60418,0.3734 0.46182,0.95973 -0.36331,1.49635 -1.06816,0.69467 -0.82872,1.29124 1.12562,2.80458 1.95254,1.51195 2.78723,1.67046 3.91066,0.74265 1.23207,-1.01756 1.23922,-0.876 0.052,1.03052 -0.75696,1.21556 -1.62716,1.80421 -1.93377,1.3081 -0.30661,-0.49611 -0.43187,3.68414 -0.29532,9.28989 0.39745,16.31576 0.39455,16.10327 0.55637,23.32828 0.20456,9.13306 0.70234,13.62813 1.6334,14.75 1.13365,1.36596 1.10296,1.61362 -0.19992,1.61362 -0.84651,0 -1.76609,0.5625 -2.0435,1.25 -0.37562,0.9309 -0.52454,0.94158 -0.58333,0.0418 -0.1009,-1.54405 -19.87798,-0.56137 -22.02091,1.09417 -1.13551,0.87725 -1.26215,0.81565 -0.59588,-0.28989 0.70632,-1.17198 -0.21179,-1.29645 -5.55804,-0.75352 -3.52226,0.3577 -11.22881,0.88038 -17.12566,1.16151 -9.78706,0.4666 -10.66484,0.36338 -10.07097,-1.18422 z m 32.79251,-2.03295 c -1.1,-0.26458 -2.4275,-0.88738 -2.95,-1.38399 -0.5225,-0.49662 -1.4225,-0.88863 -2,-0.87114 -0.5775,0.0175 -0.17649,0.6925 0.89113,1.5 1.06762,0.80751 2.86762,1.416 4,1.3522 2.00867,-0.11317 2.0101,-0.12773 0.0589,-0.59707 z m -23.5,-4.28693 c 0,-0.55 -0.47656,-1 -1.05902,-1 -0.58246,0 -0.7809,0.45 -0.44098,1 0.33992,0.55 0.81648,1 1.05902,1 0.24254,0 0.44098,-0.45 0.44098,-1 z m 4,-2.10699 c 0,-1.43762 -1.73512,-1.02567 -2.34208,0.55606 -0.37166,0.96852 -0.0755,1.26467 0.89301,0.89301 0.79699,-0.30583 1.44907,-0.95791 1.44907,-1.44907 z m 8,0.52366 c 0,-1.76593 -2.15276,-1.45839 -2.77083,0.39583 -0.21771,0.65313 0.31666,1.1875 1.1875,1.1875 0.87083,0 1.58333,-0.7125 1.58333,-1.58333 z m 19,-3.41667 c 0,-0.55 -0.47656,-1 -1.05902,-1 -0.58246,0 -0.7809,0.45 -0.44098,1 0.33992,0.55 0.81648,1 1.05902,1 0.24254,0 0.44098,-0.45 0.44098,-1 z m 8,-1 c 0,-0.55 -0.19844,-1 -0.44098,-1 -0.24254,0 -0.7191,0.45 -1.05902,1 -0.33992,0.55 -0.14148,1 0.44098,1 0.58246,0 1.05902,-0.45 1.05902,-1 z m -5.427,-11.52147 c -1.05985,-0.80183 -2.17182,-1.21305 -2.47104,-0.91383 -0.62769,0.6277 1.9121,2.41269 3.39804,2.38818 0.55,-0.009 0.13285,-0.67253 -0.927,-1.47435 z m -2.573,-3.47853 c 0,-0.55 -0.47656,-1 -1.05902,-1 -0.58246,0 -0.7809,0.45 -0.44098,1 0.33992,0.55 0.81648,1 1.05902,1 0.24254,0 0.44098,-0.45 0.44098,-1 z m 3,-2 c 0,-0.55 -0.47656,-1 -1.05902,-1 -0.58246,0 -0.7809,0.45 -0.44098,1 0.33992,0.55 0.81648,1 1.05902,1 0.24254,0 0.44098,-0.45 0.44098,-1 z m 8,-1.44098 c 0,-0.24254 -0.45,-0.7191 -1,-1.05902 -0.55,-0.33992 -1,-0.14148 -1,0.44098 0,0.58246 0.45,1.05902 1,1.05902 0.55,0 1,-0.19844 1,-0.44098 z m -12.81667,-5.77569 c -0.71756,-0.71756 -1.18333,-0.7766 -1.18333,-0.15 0,1.33478 1.18261,2.51739 1.85,1.85 0.28417,-0.28416 -0.0158,-1.04916 -0.66667,-1.7 z m 29.20968,32.63488 c 0.33385,-0.86998 0.61388,-2.33248 0.6223,-3.25 0.013,-1.41336 0.15701,-1.44418 0.9428,-0.20175 0.58796,0.92964 0.53753,1.93633 -0.13776,2.75 -0.78978,0.95164 -0.66096,1.28354 0.49819,1.28354 2.11638,0 3.16339,-1.91807 1.79433,-3.28713 -0.61208,-0.61208 -1.1099,-1.58537 -1.10628,-2.16287 0.004,-0.5775 0.8861,0.28427 1.96106,1.91505 2.15944,3.27601 1.39936,4.49219 -2.82464,4.51964 -1.74138,0.0113 -2.19845,-0.39783 -1.75,-1.56648 z m 30.80194,-2.91821 c 0.0204,-1.65 0.2445,-2.20394 0.49804,-1.23097 0.25354,0.97297 0.23687,2.32297 -0.0371,3 -0.27393,0.67703 -0.48137,-0.11903 -0.46099,-1.76903 z m -4.69495,-4.5 c 0.33992,-0.55 0.81648,-1 1.05902,-1 0.24254,0 0.44098,0.45 0.44098,1 0,0.55 -0.47656,1 -1.05902,1 -0.58246,0 -0.7809,-0.45 -0.44098,-1 z m 4.25,-0.39205 c -1.82704,-1.38692 -2.29081,-2.60795 -0.99055,-2.60795 0.4177,0 1.32152,0.9 2.00848,2 1.45544,2.33054 1.34119,2.39878 -1.01793,0.60795 z m -29.75,-2.60795 c 0,-0.55 0.47656,-1 1.05902,-1 0.58246,0 0.7809,0.45 0.44098,1 -0.33992,0.55 -0.81648,1 -1.05902,1 -0.24254,0 -0.44098,-0.45 -0.44098,-1 z m 21.40499,-4.25 -1.90499,-2.25 2.25,1.90499 c 1.2375,1.04774 2.25,2.06024 2.25,2.25 0,0.80025 -0.80479,0.20945 -2.59501,-1.90499 z m 2.87315,-3 c -1.49918,-1.93844 -2.44224,-3.75 -1.95217,-3.75 0.24421,0 1.18114,1.125 2.08207,2.5 1.68584,2.57291 1.59195,3.47635 -0.1299,1.25 z m -25.27814,-18.94805 c 0,-1.17441 0.3375,-1.72802 0.75,-1.23025 0.4125,0.49777 1.12523,1.18514 1.58385,1.5275 0.45861,0.34236 0.12111,0.89597 -0.75,1.23025 -1.14039,0.43761 -1.58385,0.01 -1.58385,-1.5275 z m -2.67108,-10.65218 c -0.34813,-1.33121 -1.13426,-2.05471 -1.90941,-1.75726 -0.83699,0.32119 -1.11481,-0.023 -0.76159,-0.94344 0.68306,-1.78003 2.09335,-1.85617 3.68732,-0.19907 1.37104,1.42534 1.52066,3.21744 0.3651,4.373 -0.43432,0.43431 -1.05596,-0.22864 -1.38142,-1.47323 z m 5.94011,-3.84276 c 0.97297,-0.25354 2.32297,-0.23687 3,0.037 0.67703,0.27392 -0.11903,0.48137 -1.76903,0.46099 -1.65,-0.0204 -2.20394,-0.2445 -1.23097,-0.49805 z m 3.80992,-2.89034 c 0.048,-1.16495 0.28494,-1.4019 0.60416,-0.60417 0.28887,0.72187 0.25335,1.58437 -0.0789,1.91667 -0.3323,0.33229 -0.56864,-0.25834 -0.52522,-1.3125 z m -16.07895,-1.587 c 2.50444,-2.44233 3.77489,-2.89249 2.54444,-0.90158 -0.3607,0.58364 -1.64326,1.5738 -2.85013,2.20037 -1.98752,1.03185 -1.95871,0.90946 0.30569,-1.29879 z m 19.75,-4.49195 c 0.6875,-0.27741 1.8125,-0.27741 2.5,0 0.6875,0.27741 0.125,0.50438 -1.25,0.50438 -1.375,0 -1.9375,-0.22697 -1.25,-0.50438 z m -17.25555,-2.34385 c -0.99854,-1.10337 -1.57924,-2.24242 -1.29044,-2.53121 0.28879,-0.28879 1.2714,0.61397 2.18358,2.00613 1.993,3.0417 1.59573,3.27525 -0.89314,0.52508 z m -4.49445,-5.99387 c 0,-0.55 0.45,-1 1,-1 0.55,0 1,0.45 1,1 0,0.55 -0.45,1 -1,1 -0.55,0 -1,-0.45 -1,-1 z m 10.63948,0.30615 c -0.35171,-0.35172 -0.60395,-1.57698 -0.56053,-2.72282 0.0556,-1.46823 0.24753,-1.64046 0.64994,-0.58333 0.31405,0.825 1.00157,1.78125 1.52782,2.125 0.60712,0.39658 0.6033,0.84349 -0.0105,1.22281 -0.532,0.3288 -1.25505,0.31005 -1.60676,-0.0417 z m -7.63948,-9.30615 c 0,-0.55 0.47656,-1 1.05902,-1 0.58246,0 0.7809,0.45 0.44098,1 -0.33992,0.55 -0.81648,1 -1.05902,1 -0.24254,0 -0.44098,-0.45 -0.44098,-1 z m 13.73333,-0.12409 c 0.67834,-0.68342 1.48524,-0.99067 1.79313,-0.68278 0.30789,0.30788 -0.24711,0.86705 -1.23333,1.24258 -1.4252,0.54268 -1.54006,0.42782 -0.5598,-0.5598 z m 6.26667,-4.87591 c 0,-0.55 0.47656,-1 1.05902,-1 0.58246,0 0.7809,0.45 0.44098,1 -0.33992,0.55 -0.81648,1 -1.05902,1 -0.24254,0 -0.44098,-0.45 -0.44098,-1 z m -14.29709,-3.49682 c -1.36638,-2.86533 -1.39275,-3.32139 -0.16479,-2.85018 0.80403,0.30854 1.46188,1.37533 1.46188,2.37065 0,0.99533 0.54034,1.98979 1.20075,2.20993 0.7857,0.2619 0.84266,0.62156 0.16478,1.04051 -0.56977,0.35214 -1.76795,-0.89477 -2.66262,-2.77091 z m 13.45498,-0.50318 c 0,-1.375 0.22698,-1.9375 0.50439,-1.25 0.27741,0.6875 0.27741,1.8125 0,2.5 -0.27741,0.6875 -0.50439,0.125 -0.50439,-1.25 z m -28.65789,-2 c 0.33992,-0.55 0.81648,-1 1.05902,-1 0.24254,0 0.44098,0.45 0.44098,1 0,0.55 -0.47656,1 -1.05902,1 -0.58246,0 -0.7809,-0.45 -0.44098,-1 z m 11.27816,-9.43152 c -0.81551,-2.47717 -1.11588,-4.2772 -0.66748,-4.00008 0.89115,0.55076 3.04647,7.60778 2.49267,8.16158 -0.18834,0.18834 -1.00967,-1.68434 -1.82519,-4.1615 z m 4.78613,3.13839 c 0.37553,-0.98622 0.93469,-1.54122 1.24258,-1.23333 0.30789,0.30789 6.4e-4,1.11479 -0.68278,1.79313 -0.98762,0.98026 -1.10248,0.8654 -0.5598,-0.5598 z"
         id="path4414"
         inkscape:connector-curvature="0"
         sodipodi:nodetypes="cscscsssssssssscscsccscsccscscsssscscscsssssssssssscscsccscscssssssssssssscscscssssscscsccscsccsccscccsssscsssscsssssssscccssssscsssssssssssssssssssssscssscccsscssssscscsssssscccsssccccccccccccccccccssscssssssssssssssscsscsssssssssssssscsssssssssssscccscssccssssssscssssssssssssssssscsssssssssssssssscsccscsssscssscscccssssssssssssssscsssssssssssscscsscccccccscccssssssssscsssssssccsscccsssssscssssssssssssssssssssssssssssss" />
    </g>
  </g>
</svg>
