<?xml version="1.0" encoding="UTF-8" standalone="no"?>
<svg
   xmlns:dc="http://purl.org/dc/elements/1.1/"
   xmlns:cc="http://creativecommons.org/ns#"
   xmlns:rdf="http://www.w3.org/1999/02/22-rdf-syntax-ns#"
   xmlns:svg="http://www.w3.org/2000/svg"
   xmlns="http://www.w3.org/2000/svg"
   xmlns:sodipodi="http://sodipodi.sourceforge.net/DTD/sodipodi-0.dtd"
   xmlns:inkscape="http://www.inkscape.org/namespaces/inkscape"
   viewBox="0 0 900.00001 300"
   height="300"
   width="900"
   version="1.1"
   id="svg4862"
   inkscape:version="0.91 r13725"
   sodipodi:docname="logos-partenaires.svg">
  <sodipodi:namedview
     pagecolor="#ffffff"
     bordercolor="#666666"
     borderopacity="1"
     objecttolerance="10"
     gridtolerance="10"
     guidetolerance="10"
     inkscape:pageopacity="0"
     inkscape:pageshadow="2"
     inkscape:window-width="989"
     inkscape:window-height="860"
     id="namedview8"
     showgrid="false"
     inkscape:zoom="0.44777778"
     inkscape:cx="825.1861"
     inkscape:cy="150"
     inkscape:window-x="36"
     inkscape:window-y="18"
     inkscape:window-maximized="0"
     inkscape:current-layer="svg4862" />
  <metadata
     id="metadata4868">
    <rdf:RDF>
      <cc:Work
         rdf:about="">
        <dc:format>image/svg+xml</dc:format>
        <dc:type
           rdf:resource="http://purl.org/dc/dcmitype/StillImage" />
        <dc:title />
      </cc:Work>
    </rdf:RDF>
  </metadata>
  <defs
     id="defs4866" />
  <path
     id="path5412"
     d="m 465.45811,293.30798 c -1.15917,-0.38264 -2.06718,-1.17207 -2.60515,-2.26496 -0.29653,-0.6024 -0.33884,-0.78832 -0.37301,-1.63901 -0.049,-1.21887 0.18324,-2.06055 0.79931,-2.89742 1.08818,-1.47821 3.0514,-2.08139 4.90799,-1.50793 1.96704,0.60755 3.26134,2.72955 2.92609,4.79729 -0.2324,1.4332 -1.0844,2.60301 -2.35226,3.22962 -0.70418,0.34803 -0.79232,0.36681 -1.82509,0.38886 -0.69558,0.0148 -1.22617,-0.0234 -1.47788,-0.10645 z m 13.84493,-1.3017 c -1.5488,-0.49264 -2.57419,-1.8372 -2.67548,-3.50825 -0.0557,-0.9188 0.16767,-1.75336 0.66127,-2.47078 1.08358,-1.57495 3.20024,-2.13249 4.97157,-1.3096 0.26193,0.12169 0.74518,0.48849 1.07388,0.8151 0.82655,0.82131 1.0632,1.43154 1.06786,2.75367 0.003,0.90295 -0.0216,1.03451 -0.30818,1.63956 -0.39828,0.84074 -1.04105,1.48226 -1.87756,1.87395 -0.55969,0.26207 -0.78965,0.31203 -1.54139,0.33487 -0.60107,0.0182 -1.03972,-0.0228 -1.37197,-0.12852 z m -29.17493,-0.57043 c -2.98189,-0.72331 -4.48414,-4.00763 -3.11618,-6.81277 0.97453,-1.99841 3.21265,-3.04021 5.41552,-2.52084 1.65752,0.39079 3.02763,1.67579 3.49865,3.28133 0.24002,0.81813 0.2052,2.16395 -0.0766,2.9624 -0.83054,2.35275 -3.28822,3.68004 -5.72132,3.08988 z m 40.70839,-2.76857 c -1.45473,-0.52433 -2.29183,-1.73834 -2.29343,-3.32607 -6.6e-4,-0.6477 0.0467,-0.89055 0.26974,-1.38527 0.33882,-0.75129 1.00517,-1.41617 1.77772,-1.77384 0.49884,-0.23094 0.71683,-0.27258 1.42353,-0.27183 0.70925,9.9e-4 0.92715,0.0432 1.45212,0.28308 0.78305,0.35777 1.49401,1.11103 1.78998,1.89646 0.30647,0.8133 0.24498,2.11111 -0.13502,2.85008 -0.35399,0.68839 -0.94106,1.25948 -1.61997,1.5759 -0.70309,0.32768 -1.97517,0.4 -2.66467,0.15149 z m -57.07421,-3.62223 c -1.70805,-0.43309 -3.21921,-1.82168 -3.75252,-3.44812 -0.28094,-0.85679 -0.26483,-2.5149 0.0328,-3.37541 0.70407,-2.03573 2.45736,-3.35847 4.63817,-3.49919 4.06099,-0.26205 6.85034,3.97265 5.01351,7.61138 -0.33403,0.66174 -1.12219,1.56214 -1.73861,1.98625 -1.08189,0.74436 -2.8866,1.05642 -4.19332,0.72509 z m 67.11966,-1.22876 c -0.62782,-0.24864 -1.21748,-0.80854 -1.56984,-1.49054 -0.36574,-0.70795 -0.38871,-1.84577 -0.052,-2.58044 0.28387,-0.61955 0.81175,-1.17006 1.44239,-1.50425 0.4189,-0.22197 0.61322,-0.26031 1.32535,-0.26149 0.71618,-0.001 0.91354,0.0374 1.39225,0.27254 0.65506,0.32168 1.09676,0.79082 1.43015,1.51903 0.20712,0.45242 0.23563,0.63772 0.20462,1.32982 -0.056,1.24959 -0.57515,2.06682 -1.67271,2.63308 -0.61154,0.31551 -1.81144,0.35499 -2.50011,0.0823 z m 8.07271,-5.73328 c -0.93056,-0.34559 -1.43335,-1.01116 -1.50024,-1.98595 -0.0411,-0.59978 -0.0159,-0.7288 0.23773,-1.20982 0.79018,-1.49927 3.0137,-1.5954 3.89592,-0.16844 0.69613,1.12595 0.29967,2.63764 -0.84489,3.22154 -0.5184,0.26448 -1.29396,0.32633 -1.78852,0.14267 z m -90.65678,-4.82477 c -1.29553,-0.34843 -2.76634,-1.4444 -3.39957,-2.53315 -1.35925,-2.33703 -1.01035,-5.12107 0.87499,-6.98205 0.74863,-0.73894 1.52465,-1.20541 2.46335,-1.48066 0.78843,-0.23119 2.25521,-0.23115 3.04337,10e-5 1.81652,0.53296 3.26345,1.88883 3.892,3.64702 0.26283,0.73523 0.35719,2.28677 0.18673,3.07046 -0.429,1.97227 -2.15229,3.78001 -4.08281,4.28284 -0.72271,0.18824 -2.27004,0.18587 -2.97806,-0.004 z m 96.31572,-1.92639 c -0.22189,-0.22189 -0.11651,-0.4605 0.80153,-1.8148 4.19608,-6.1901 7.98821,-13.8296 10.45727,-21.06693 2.68302,-7.86441 3.95729,-15.838 3.6402,-22.77813 -0.19754,-4.32341 -0.74422,-7.60889 -1.96126,-11.78687 -1.84897,-6.34733 -4.14266,-11.41108 -7.41057,-16.36013 -6.35651,-9.62663 -16.01927,-17.14009 -29.71919,-23.10875 -3.2553,-1.41823 -7.14464,-2.96141 -15.0232,-5.96073 -2.2542,-0.85817 -5.12578,-1.96224 -6.38128,-2.4535 -19.32316,-7.56087 -31.93483,-14.62929 -42.45031,-23.79198 -1.92718,-1.67924 -6.25426,-6.01375 -7.84625,-7.85971 -4.95675,-5.74745 -8.68275,-11.39002 -11.92832,-18.06393 -5.46491,-11.23751 -8.76171,-24.06165 -9.51484,-37.011419 -0.12583,-2.163607 -0.12577,-8.476175 9e-5,-10.553655 0.3921,-6.471478 1.32775,-12.183394 2.95192,-18.020422 3.11707,-11.202346 7.56915,-19.983684 13.61016,-26.844882 2.21393,-2.514515 5.44783,-5.461475 7.96674,-7.259874 0.9659,-0.689617 1.24293,-0.798104 1.46665,-0.574373 0.22844,0.228433 0.11104,0.504426 -0.5503,1.293717 -3.02331,3.608207 -5.99831,8.522556 -8.10477,13.388121 -2.45565,5.672137 -3.8703,11.071514 -4.54629,17.352185 -0.21443,1.992275 -0.24353,7.886456 -0.0485,9.817353 0.32755,3.242377 0.81768,6.106639 1.53788,8.987391 2.414,9.655616 6.46926,16.927306 13.34963,23.937891 3.91,3.984005 7.62156,6.998886 13.0098,10.567807 7.51342,4.97655 14.39004,8.54888 29.07806,15.1058 11.38453,5.08222 18.15973,8.41526 24.51901,12.06206 7.71695,4.42538 13.82461,8.72788 19.73857,13.90473 1.78507,1.56257 6.20391,5.95167 7.6215,7.57017 9.40522,10.73835 15.62631,22.3658 19.7195,36.8565 1.91805,6.79029 2.97293,12.95454 3.38653,19.78964 0.12766,2.10927 0.12657,7.7914 -0.002,9.94385 -0.96169,16.1143 -6.15832,30.92278 -14.97255,42.66624 -3.19592,4.25801 -6.4302,7.6772 -10.38049,10.97394 -1.4329,1.19584 -1.7435,1.36426 -2.01506,1.09269 z m -39.15286,-1.25398 c -2.06452,-0.31296 -3.68446,-1.75269 -4.21503,-3.74609 -0.16338,-0.61386 -0.18205,-1.90595 -0.0367,-2.53693 0.31703,-1.37587 1.43025,-2.74248 2.74857,-3.3742 3.43591,-1.64647 7.35551,0.79442 7.35551,4.58056 0,3.12825 -2.7826,5.54202 -5.8524,5.07666 z m -16.69075,-1.51693 c -2.12282,-0.48481 -3.84319,-2.17477 -4.40086,-4.32312 -0.19559,-0.75349 -0.19452,-2.16724 0.002,-2.92645 0.48976,-1.89005 1.85789,-3.37549 3.74913,-4.07057 0.89526,-0.32904 2.44942,-0.41455 3.36161,-0.18493 2.14775,0.54062 3.78597,2.14622 4.31992,4.23392 0.53815,2.1042 -0.0154,4.11118 -1.55975,5.6549 -0.75413,0.75381 -1.33971,1.1208 -2.36528,1.48229 -0.71592,0.25235 -2.29112,0.32027 -3.10699,0.13396 z m 30.27644,-4.11544 c -3.3358,-1.13685 -4.30585,-5.37664 -1.8021,-7.8765 2.82504,-2.82067 7.54287,-1.20425 8.11667,2.78093 0.33557,2.33056 -1.27459,4.69609 -3.55427,5.22164 -0.77919,0.17963 -2.03107,0.12245 -2.7603,-0.12607 z m -82.67455,-8.46643 c -1.53106,-0.37061 -3.23936,-1.75747 -3.92339,-3.18509 -0.51476,-1.07433 -0.68472,-1.90609 -0.6314,-3.08977 0.11648,-2.58536 1.69832,-4.64957 4.21145,-5.49569 0.70348,-0.23685 0.9734,-0.27586 1.89988,-0.27458 0.89511,0.001 1.21562,0.0455 1.873,0.2587 3.57089,1.15806 5.27149,5.21043 3.61073,8.60404 -0.72343,1.47828 -2.341,2.76563 -4.00721,3.18917 -0.72595,0.18455 -2.25691,0.18113 -3.03306,-0.006 z m 93.37374,-1.91437 c -1.08062,-0.25476 -2.36637,-1.25197 -2.85339,-2.21307 -0.45138,-0.89075 -0.58758,-1.54956 -0.5371,-2.5979 0.0406,-0.84219 0.0879,-1.0424 0.40345,-1.70691 1.36218,-2.86837 5.17199,-3.50229 7.43684,-1.23745 1.12639,1.1264 1.5862,2.6799 1.25764,4.24903 -0.34408,1.64324 -1.80199,3.13184 -3.43628,3.5086 -0.51732,0.11926 -1.76084,0.118 -2.27116,-0.002 z m 6.02336,-12.85431 c -0.64673,-0.13631 -1.60168,-0.61576 -2.07651,-1.04257 -1.03097,-0.92673 -1.52568,-2.17048 -1.446,-3.63535 0.077,-1.41304 0.6277,-2.48195 1.69801,-3.29521 0.85943,-0.65303 1.39704,-0.81158 2.75186,-0.81158 1.16791,0 1.19313,0.004 1.92181,0.36505 2.2932,1.13376 3.1943,3.82009 2.04023,6.08225 -0.25361,0.49716 -0.97951,1.28465 -1.53925,1.66992 -0.85012,0.58515 -2.33608,0.88121 -3.35015,0.66749 z M 400.98396,233.7478 c -1.9913,-0.33531 -3.81582,-1.67567 -4.67285,-3.43286 -0.55207,-1.13194 -0.70346,-1.79356 -0.70346,-3.07438 0,-1.25206 0.15888,-1.97261 0.66082,-2.99687 0.44407,-0.90616 1.52997,-2.08284 2.39483,-2.59507 1.93996,-1.14896 4.39341,-1.24302 6.46717,-0.24792 1.07747,0.517 2.22887,1.6349 2.78076,2.69981 1.00872,1.94641 1.01335,4.40394 0.0119,6.30972 -1.27063,2.418 -4.15664,3.8061 -6.93917,3.33757 z m 104.1827,-6.30169 c -2.48209,-0.86708 -3.5878,-3.63715 -2.40617,-6.02803 0.61533,-1.24502 1.74875,-2.07198 3.16954,-2.31254 2.34978,-0.39783 4.55664,1.19819 4.95148,3.58096 0.30657,1.85003 -0.70215,3.75837 -2.4261,4.5898 -0.61216,0.29522 -0.78827,0.33347 -1.66624,0.3619 -0.8234,0.0266 -1.08509,-0.004 -1.62251,-0.19209 z m -73.92202,-6.41782 c -0.78702,-0.34091 -1.27626,-1.08973 -1.27626,-1.95346 0,-1.30015 0.8304,-2.14285 2.11524,-2.14658 0.7448,-0.002 1.33519,0.3 1.75529,0.89835 0.39598,0.564 0.47616,1.55138 0.17375,2.13956 -0.53151,1.03374 -1.75219,1.50214 -2.76802,1.06213 z m 71.17581,-6.16284 c -1.96611,-0.42956 -3.23973,-2.01603 -3.23973,-4.0355 0,-0.99882 0.18324,-1.62963 0.69673,-2.3986 1.40182,-2.09924 4.5796,-2.39966 6.37643,-0.60282 0.29678,0.29677 0.62256,0.76425 0.80777,1.15912 0.26679,0.56878 0.31591,0.79687 0.34961,1.62325 0.0333,0.81585 0.005,1.05377 -0.18205,1.57078 -0.53275,1.46701 -1.65242,2.43794 -3.13586,2.71927 -0.64564,0.12245 -0.98273,0.1153 -1.6729,-0.0355 z m -68.99373,-2.03294 c -0.75047,-0.1452 -1.47832,-0.82091 -1.6939,-1.57257 -0.24875,-0.86736 -0.0444,-1.64702 0.59436,-2.26659 1.66902,-1.61913 4.30116,-0.15952 3.82742,2.12244 -0.24883,1.19867 -1.46139,1.96174 -2.72788,1.71672 z M 405.0323,209.2991 c -2.1806,-0.56938 -3.84039,-1.91543 -4.77317,-3.87088 -1.1073,-2.32139 -0.9305,-5.04263 0.46699,-7.18758 0.60747,-0.93238 1.77065,-1.97543 2.74911,-2.46518 1.21905,-0.61018 1.86693,-0.7535 3.37329,-0.74618 1.18035,0.005 1.34915,0.031 2.24644,0.33502 3.19025,1.0812 5.09227,3.86021 4.93924,7.21663 -0.14941,3.27654 -2.28016,5.92221 -5.41542,6.72407 -1.02787,0.26289 -2.56674,0.26036 -3.58648,-0.005 z m 32.43379,-3.94102 c -0.16889,-0.0543 -0.51795,-0.25974 -0.77568,-0.4563 -1.31536,-1.00316 -1.50701,-2.94945 -0.41282,-4.19251 0.58532,-0.66496 1.19791,-0.92438 2.1828,-0.92438 1.22012,0 2.09255,0.49991 2.62923,1.50657 0.17676,0.33157 0.21653,0.56773 0.21709,1.28947 6.7e-4,0.79671 -0.028,0.93526 -0.29068,1.40965 -0.35508,0.64106 -0.90679,1.13016 -1.50466,1.33387 -0.49615,0.16906 -1.57004,0.18672 -2.04528,0.0336 z m 57.97348,-1.00507 c -1.16045,-0.32002 -2.04241,-1.07228 -2.5749,-2.19623 -0.2874,-0.60668 -0.31066,-0.73292 -0.31066,-1.68659 0,-0.95433 0.0232,-1.07963 0.31164,-1.68866 0.39648,-0.83693 1.04063,-1.48107 1.87755,-1.87755 0.62032,-0.29387 0.72221,-0.31165 1.78683,-0.31165 1.01941,0 1.1835,0.0255 1.69037,0.26312 2.29212,1.07431 3.01012,4.00398 1.49037,6.0811 -0.89463,1.22271 -2.74663,1.83689 -4.2712,1.41646 z m -50.70935,-5.16234 c -0.5309,-0.16332 -1.25025,-0.71398 -1.5829,-1.21173 -1.13173,-1.69344 -0.56622,-3.86067 1.23868,-4.74703 0.47329,-0.23244 0.67521,-0.27199 1.38832,-0.27199 0.71311,0 0.91503,0.0395 1.38832,0.27199 0.64903,0.31873 1.2931,0.97867 1.58603,1.62514 0.15468,0.34136 0.20907,0.66091 0.21215,1.24648 0.003,0.69706 -0.033,0.86299 -0.31981,1.44549 -0.33022,0.67078 -0.80231,1.14655 -1.49226,1.50392 -0.39726,0.20577 -1.91619,0.29226 -2.41853,0.13773 z m 41.27918,-1.74953 c -0.30581,-0.10133 -0.7091,-0.27878 -0.8962,-0.39443 -0.51553,-0.31861 -1.13659,-1.04239 -1.42815,-1.66434 -0.23084,-0.49242 -0.26119,-0.67692 -0.26119,-1.58797 0,-0.95236 0.0233,-1.07942 0.30628,-1.66897 1.15641,-2.40936 4.33386,-2.97765 6.20226,-1.10926 1.89788,1.89789 1.38696,5.0412 -1.01132,6.22186 -0.82552,0.40641 -2.04187,0.49125 -2.91168,0.20311 z m -31.65634,-2.99497 c -1.04054,-0.26287 -1.81083,-0.91111 -2.28571,-1.92356 -0.2123,-0.45263 -0.25536,-0.68513 -0.25536,-1.3789 0,-0.6965 0.0428,-0.9257 0.2587,-1.3862 0.58873,-1.25558 1.51368,-1.86663 2.924,-1.93168 0.6882,-0.0317 0.94488,0 1.40216,0.17217 0.7337,0.27664 1.46852,0.94557 1.81602,1.65321 0.24253,0.4939 0.27492,0.66973 0.27492,1.4925 0,0.82039 -0.0327,0.99932 -0.27199,1.48649 -0.68687,1.39868 -2.37429,2.19197 -3.86274,1.81597 z m 21.75925,-1.09743 c -1.09058,-0.30574 -1.85656,-0.96336 -2.35862,-2.02496 -0.86541,-1.82989 -0.0906,-4.0093 1.747,-4.91395 0.60047,-0.29561 0.73097,-0.32206 1.58892,-0.32206 0.84052,0 0.99904,0.0305 1.57313,0.30254 1.69145,0.80164 2.52604,2.62882 2.01801,4.41814 -0.54232,1.91005 -2.64528,3.07941 -4.56844,2.54029 z m -11.32924,-1.08365 c -2.26614,-0.72337 -3.19712,-3.41595 -1.87286,-5.41669 1.49514,-2.2589 4.94377,-2.00941 6.15218,0.44506 0.29249,0.59413 0.32266,0.73821 0.32266,1.54108 0,0.76472 -0.0378,0.96756 -0.27723,1.48553 -0.56779,1.22859 -1.74393,2.01094 -3.10782,2.06732 -0.47644,0.0196 -0.90799,-0.0238 -1.21693,-0.1223 z m -43.93888,-4.26658 c -3.48395,-0.47785 -6.40461,-3.18095 -7.14232,-6.61027 -0.22021,-1.02364 -0.19131,-2.76306 0.0622,-3.74339 0.67926,-2.62685 2.7069,-4.95098 5.10226,-5.84837 1.21278,-0.45435 1.67708,-0.53212 3.15001,-0.52777 1.69404,0.005 2.25338,0.13101 3.6815,0.82913 2.9212,1.42798 4.67836,4.24887 4.67836,7.51047 0,3.35826 -1.85607,6.2722 -4.88715,7.67266 -1.37645,0.63596 -3.19333,0.91664 -4.64485,0.71754 z m 97.40811,-55.73417 c -1.68783,-0.69811 -2.53825,-2.43449 -2.0302,-4.14527 0.3818,-1.28564 1.31723,-2.10973 2.67408,-2.35577 1.4792,-0.26823 2.91232,0.43814 3.62186,1.78513 0.24607,0.46717 0.27326,0.61646 0.27333,1.50052 7e-5,0.8741 -0.0297,1.04246 -0.27192,1.53558 -0.30371,0.61848 -0.91544,1.23398 -1.55899,1.56863 -0.58509,0.30424 -2.09181,0.36611 -2.70816,0.11118 z m 10.52774,-7.12762 c -1.02388,-0.33797 -2.07758,-1.15889 -2.57334,-2.00486 -0.63279,-1.07977 -0.80174,-2.62264 -0.41343,-3.77534 1.06757,-3.16908 5.12474,-4.13346 7.48016,-1.77805 1.46564,1.46565 1.75106,3.55644 0.74355,5.44672 -0.3989,0.74843 -1.19773,1.49117 -2.02093,1.87902 -0.60333,0.28428 -0.76142,0.31488 -1.74341,0.33739 -0.69512,0.0159 -1.21983,-0.0214 -1.4726,-0.10491 z m 7.0407,-12.18325 c -1.57851,-0.38221 -3.20052,-1.67769 -3.87816,-3.09744 -1.13973,-2.38788 -0.70318,-5.0542 1.12717,-6.88455 2.00301,-2.00299 5.20051,-2.30977 7.53936,-0.72331 1.19003,0.8072 2.13803,2.18772 2.46027,3.58274 0.17044,0.73781 0.15033,2.0792 -0.0424,2.8314 -0.53121,2.07286 -2.26756,3.8052 -4.29244,4.28251 -0.75397,0.17773 -2.19783,0.18201 -2.91379,0.008 z m -55.09664,-20.474159 0,-1.079909 1.4726,0 1.4726,0 0,-7.559362 0,-7.559362 -1.4726,0 -1.4726,0 0,-1.030822 0,-1.030823 4.17236,0 4.17238,0 0,1.030823 0,1.030822 -1.52168,0 -1.5217,0 0,7.559362 0,7.559362 3.14156,0 3.14155,0 0,-2.257992 0,-2.257991 1.17809,0 1.17808,0 0,3.3379 0,3.337901 -6.97032,0 -6.97032,0 0,-1.079909 z m 18.75114,0 0,-1.079909 2.15982,0 2.15982,0 0,-2.501573 0,-2.501572 -3.05935,-5.05779 -3.05934,-5.057789 -1.2112,0 -1.21122,0 0,-1.030822 0,-1.030823 3.82877,0 3.82877,0 0,1.030823 0,1.030822 -1.27625,0 c -0.70195,0 -1.27626,0.02732 -1.27626,0.06074 0,0.03341 1.04515,1.890748 2.32257,4.127429 1.54353,2.702646 2.35541,4.033873 2.42043,3.968832 0.0538,-0.05383 1.1723,-1.900126 2.48549,-4.102888 l 2.38762,-4.005019 -1.3229,-0.02732 -1.32289,-0.02732 0,-1.028054 0,-1.02805 3.82877,0 3.82877,0 0,1.030821 0,1.030823 -1.26877,0 -1.26876,0 -3.09996,5.038356 -3.09996,5.038361 0,2.521002 0,2.521005 2.25799,0 2.25799,0 0,1.079908 0,1.079909 -5.64497,0 -5.64498,0 0,-1.079909 z m 24.88699,1.009516 c -2.50017,-0.347823 -5.02861,-1.869866 -6.48811,-3.905636 -1.64121,-2.289226 -2.18131,-5.511812 -1.41294,-8.430544 0.84272,-3.201169 3.41803,-5.751179 6.72296,-6.656937 1.0851,-0.297384 4.07003,-0.324984 5.05594,-0.04676 1.84033,0.51936 3.15985,1.256421 4.40258,2.459177 1.24859,1.208435 2.09693,2.681437 2.5787,4.477565 0.32495,1.211395 0.32927,3.679528 0.008,4.951866 -0.23699,0.940519 -0.88705,2.41054 -1.38786,3.138447 -1.40572,2.043133 -3.71088,3.489591 -6.27762,3.939109 -0.75543,0.132298 -2.49357,0.172304 -3.20232,0.0737 z m 3.73059,-2.415466 c 1.10904,-0.364285 1.94479,-0.883608 2.79723,-1.73812 1.49991,-1.503577 2.17215,-3.220248 2.16778,-5.535766 -0.003,-2.015814 -0.70978,-3.870841 -1.98336,-5.211601 -1.17092,-1.23267 -2.37701,-1.881636 -4.03367,-2.170411 -1.61311,-0.281188 -2.99851,-0.0676 -4.57353,0.705073 -2.54725,1.249658 -4.10667,4.122831 -3.91235,7.208372 0.0771,1.224119 0.28314,2.015542 0.80517,3.092465 0.90252,1.861859 2.5744,3.242166 4.58289,3.783592 1.06906,0.288185 3.06098,0.224055 4.14984,-0.133604 z m 9.2774,1.40595 0,-1.079909 1.47261,0 1.4726,0 0,-7.559362 0,-7.559362 -1.4726,0 -1.47261,0 0,-1.030822 0,-1.030823 2.52796,0.0014 2.52797,0.0014 6.28311,7.661822 c 3.45571,4.214 6.35944,7.758712 6.45273,7.87714 0.16115,0.204569 0.16973,-0.126481 0.17181,-6.632286 l 0.002,-6.847604 -1.5217,0 -1.52168,0 0,-1.030823 0,-1.030822 4.12328,0 4.12329,0 0,1.030822 0,1.030823 -1.42351,0 -1.42353,0 0,7.559362 0,7.559361 1.42353,0 1.42351,0 0,1.079909 0,1.079909 -2.62675,0 -2.62676,0 -6.18431,-7.527789 c -3.40139,-4.140283 -6.23815,-7.597218 -6.30393,-7.682079 -0.0944,-0.121739 -0.12025,1.238599 -0.12272,6.44788 l -0.003,6.60217 1.52168,0 1.52169,0 0,1.079909 0,1.079909 -4.17238,0 -4.17237,0 0,-1.079909 z m -119.08449,-31.906398 0,-1.079909 1.4726,0 1.4726,0 0,-7.559362 0,-7.559362 -1.4726,0 -1.4726,0 0,-1.079908 0,-1.079909 4.17237,0 4.17238,0 0,1.079909 0,1.079908 -1.57077,0 -1.57078,0 0,7.559362 0,7.559362 3.19063,0 3.19065,0 0,-2.257991 0,-2.257992 1.17808,0 1.17808,0 0,3.337901 0,3.3379 -6.97032,0 -6.97032,0 0,-1.079909 z m 25.81963,1.016626 c -3.93588,-0.364918 -6.58036,-2.61638 -7.63779,-6.502673 l -0.25694,-0.944318 -0.0345,-4.884134 -0.0345,-4.884134 -1.3686,0 -1.36861,0 0,-1.079908 0,-1.079909 4.31964,0 4.31964,0 0,1.079909 0,1.079908 -1.82544,0 -1.82544,0 0.047,4.442352 c 0.0503,4.744993 0.0815,5.088414 0.58858,6.478622 0.93375,2.559646 3.13276,4.096167 5.8623,4.096167 1.77552,0 3.14653,-0.567116 4.38375,-1.813334 0.90068,-0.907218 1.43305,-1.85581 1.82089,-3.244494 0.20817,-0.745321 0.21938,-0.984641 0.25169,-5.3697 l 0.0338,-4.589613 -1.47795,0 -1.47795,0 0,-1.079908 0,-1.079909 2.65077,0 2.65076,0 4.09839,8.197489 c 2.25412,4.50862 4.12061,8.197421 4.14775,8.197343 0.0271,-8.5e-5 1.92693,-3.677911 4.22174,-8.172946 l 4.17238,-8.1728 2.52797,-0.02621 2.52797,-0.02621 0,1.081566 0,1.081567 -1.32536,0 -1.32534,0 0,7.559362 0,7.559362 1.32534,0 1.32536,0 0,1.079908 0,1.079909 -4.07421,0 -4.0742,0 0,-1.079909 0,-1.079908 1.57078,0 1.57077,0 -0.002,-6.258562 -0.002,-6.258563 -0.34415,0.638128 c -0.1893,0.35097 -1.87561,3.653282 -3.74736,7.338471 l -3.40319,6.700343 -0.99589,0 -0.99589,0 -3.57473,-7.213555 -3.57474,-7.213556 -0.0562,3.212986 c -0.0605,3.456159 -0.10673,3.835969 -0.65474,5.383606 -0.15506,0.437906 -0.47821,1.144757 -0.7181,1.570777 -0.56378,1.001193 -2.02505,2.498425 -2.98869,3.062238 -1.4741,0.862485 -3.48935,1.297675 -5.25228,1.134222 z m 34.06622,-1.016626 0,-1.079909 2.35617,0 2.35616,0 0,-7.559362 0,-7.559362 -2.35616,0 -2.35617,0 0,-1.079908 0,-1.079909 5.84133,0 5.84132,0 0,1.079909 0,1.079908 -2.30707,0 -2.30709,0 0,7.559362 0,7.559362 2.30709,0 2.30707,0 0,1.079909 0,1.079909 -5.84132,0 -5.84133,0 0,-1.079909 z m 14.43152,0 0,-1.079909 1.4235,0 1.42352,0 0,-7.559362 0,-7.559362 -1.42352,0 -1.4235,0 0,-1.079908 0,-1.079909 7.51026,0 7.51028,0 0,2.847032 0,2.847032 -1.17808,0 -1.17809,0 0,-1.767123 0,-1.767124 -3.68151,0 -3.6815,0 0,3.239727 0,3.239727 2.74886,0 2.74885,0 0,1.079908 0,1.079909 -2.74885,0 -2.74886,0 0,3.239727 0,3.239726 3.6815,0 3.68151,0 0,-1.816209 0,-1.816211 1.17809,0 1.17808,0 0,2.896119 0,2.896119 -7.51028,0 -7.51026,0 0,-1.079909 z m 17.96575,0 0,-1.079909 1.42351,0 1.42351,0 0,-7.559362 0,-7.559362 -1.42351,0 -1.42351,0 0,-1.079908 0,-1.079909 5.09639,0 c 5.80882,0 6.10022,0.02715 7.4547,0.694856 2.23769,1.103077 3.37863,3.647723 2.81911,6.287441 -0.39198,1.849243 -1.91944,3.424018 -3.81155,3.929599 -0.25718,0.06873 -0.45598,0.153743 -0.44178,0.188938 0.0142,0.03519 0.75476,1.438266 1.64569,3.117936 l 1.61986,3.053946 0.90811,0.0029 0.9081,0.0029 0,1.07991 0,1.079909 -2.94521,0 -2.9452,0 0,-1.075783 0,-1.07578 0.72457,-0.02867 0.72459,-0.02868 -1.47653,-3.018835 -1.47653,-3.018837 -1.80056,0 -1.80056,0 0,3.04338 0,3.043379 1.42351,0 1.42352,0 0,1.07991 0,1.079909 -4.02512,0 -4.02511,0 0,-1.079909 z m 10.27384,-9.267084 c 1.15933,-0.308683 1.99587,-0.988302 2.47543,-2.011091 0.21595,-0.460502 0.25872,-0.689722 0.25872,-1.386211 0,-0.712507 -0.0396,-0.915182 -0.27118,-1.386655 -0.30205,-0.615064 -1.01234,-1.334878 -1.62627,-1.648085 -0.82683,-0.421819 -1.40526,-0.499507 -3.71906,-0.499507 l -2.18828,0 0,3.534247 0,3.534247 2.28254,-0.0014 c 1.61906,-6.53e-4 2.42948,-0.04029 2.7881,-0.13578 z m 8.4773,9.267084 0,-1.079909 1.4726,0 1.4726,0 0,-7.559362 0,-7.559362 -1.4726,0 -1.4726,0 0,-1.079908 0,-1.079909 7.55936,0 7.55936,0 0,2.847032 0,2.847032 -1.17809,0 -1.17807,0 0,-1.767123 0,-1.767124 -3.7306,0 -3.73059,0 0,3.239727 0,3.239727 2.79794,0 2.79796,0 0,1.079908 0,1.079909 -2.79796,0 -2.79794,0 0,3.239727 0,3.239726 3.73059,0 3.7306,0 0,-1.816209 0,-1.816211 1.17807,0 1.17809,0 0,2.896119 0,2.896119 -7.55936,0 -7.55936,0 0,-1.079909 z m 18.84931,-1.865297 0,-2.945205 1.129,0 1.129,0 0,1.87491 0,1.874912 2.13526,-0.04267 c 1.87275,-0.03741 2.20591,-0.06855 2.7097,-0.253178 1.62981,-0.597274 2.52033,-1.618874 2.51589,-2.88622 -0.002,-0.785865 -0.22458,-1.277063 -0.82632,-1.829634 -0.58948,-0.541308 -1.2852,-0.855229 -3.27534,-1.477894 -2.27277,-0.711098 -3.04573,-1.029661 -3.82324,-1.575685 -1.24105,-0.871549 -1.78157,-1.896588 -1.86616,-3.538869 -0.0588,-1.14071 0.0756,-1.841685 0.52522,-2.740438 0.63704,-1.273357 1.89547,-2.198465 3.64307,-2.678105 0.69669,-0.191212 1.07136,-0.213753 4.17687,-0.251249 l 3.41153,-0.0412 0,2.904796 0,2.904802 -1.0799,0 -1.07991,0 0,-1.755674 c 0,-1.737711 -0.002,-1.756279 -0.2209,-1.814869 -0.3842,-0.102963 -3.67373,-0.0666 -4.21663,0.04661 -2.06632,0.430907 -3.30617,2.083312 -2.80878,3.743429 0.18196,0.607318 0.87455,1.301571 1.68513,1.689167 0.38588,0.184512 1.4747,0.566445 2.41962,0.848746 3.25295,0.971838 4.34835,1.601751 5.14258,2.957298 0.74668,1.274352 0.74031,3.509148 -0.0141,4.92977 -0.40759,0.767596 -1.41773,1.713724 -2.28149,2.136938 -1.44499,0.707981 -2.58607,0.860543 -6.45491,0.863004 l -2.67523,0.0017 0,-2.945207 z M 499.03346,40.128903 c -0.59395,-0.817156 -1.09464,-1.521581 -1.11263,-1.565385 -0.018,-0.04381 0.51213,-0.07871 1.17807,-0.07757 l 1.21081,0.002 0.98174,1.482364 c 0.53995,0.815302 0.99646,1.521216 1.01446,1.568695 0.018,0.04748 -0.46796,0.08391 -1.07991,0.08094 l -1.11264,-0.0054 -1.0799,-1.485739 z m -54.33905,-12.247776 0,-1.079909 1.4726,0 1.4726,0 0,-7.559362 0,-7.559362 -1.4726,0 -1.4726,0 0,-1.030822 0,-1.0308215 7.51028,0 7.51027,0 0,2.8470315 0,2.847033 -1.129,0 -1.12899,0 0,-1.816211 0,-1.81621 -3.7306,0 -3.73059,0 0,3.288814 0,3.288812 2.79795,0 2.79794,0 0,1.030823 0,1.030822 -2.79794,0 -2.79795,0 0,3.239727 0,3.239726 1.57078,0 1.57077,0 0,1.079909 0,1.079909 -4.22146,0 -4.22146,0 0,-1.079909 z m 17.67123,0 0,-1.079909 1.47261,0 1.4726,0 0,-7.559362 0,-7.559362 -1.4726,0 -1.47261,0 0,-1.030822 0,-1.0308215 7.51028,0 7.51027,0 0,2.8470315 0,2.847033 -1.12899,0 -1.12899,0 0,-1.816211 0,-1.81621 -3.7306,0 -3.7306,0 0,3.288814 0,3.288812 2.74887,0 2.74885,0 0,1.030823 0,1.030822 -2.74885,0 -2.74887,0 0,3.239727 0,3.239726 3.7306,0 3.7306,0 0,-1.767123 0,-1.767124 1.12899,0 1.12899,0 0,2.847033 0,2.847032 -7.51027,0 -7.51028,0 0,-1.079909 z m 21.30366,0 0,-1.079909 2.2089,0 2.20891,0 0,-7.559362 0,-7.559362 -2.74886,0 -2.74886,0 0,1.865298 0,1.865297 -1.17808,0 -1.17809,0 0,-2.89612 0,-2.8961185 9.03197,0 9.03197,0 0,2.8961185 0,2.89612 -1.17809,0 -1.17808,0 0,-1.865297 0,-1.865298 -2.74886,0 -2.74886,0 0,7.559362 0,7.559362 2.30708,0 2.30707,0 0,1.079909 0,1.079909 -5.69406,0 -5.69406,0 0,-1.079909 z m 17.37672,0 0,-1.079909 1.47259,0 1.47261,0 0,-7.559362 0,-7.559362 -1.47261,0 -1.47259,0 0,-1.030822 0,-1.0308215 7.51027,0 7.51028,0 0,2.8470315 0,2.847033 -1.17808,0 -1.17809,0 0,-1.816211 0,-1.81621 -3.6815,0 -3.68151,0 0,3.288814 0,3.288812 2.74885,0 2.74887,0 0,1.030823 0,1.030822 -2.74887,0 -2.74885,0 0,3.239727 0,3.239726 3.68151,0 3.6815,0 0,-1.767123 0,-1.767124 1.17809,0 1.17808,0 0,2.847033 0,2.847032 -7.51028,0 -7.51027,0 0,-1.079909 z m 26.31051,0.04908 0,-0.932649 15.95319,0 15.9532,0 0,0.932649 0,0.932647 -15.9532,0 -15.95319,0 0,-0.932647 z m -0.0982,-7.412102 0,-0.883563 0.83447,0 0.83447,0 0,-4.123287 0,-4.123289 -0.83447,0 -0.83447,0 0,-0.943097 0,-0.9430944 3.36244,0.047818 c 2.77017,0.039398 3.4662,0.077325 3.95148,0.2153864 3.04516,0.866302 4.87021,3.881422 4.22104,6.97345 -0.45172,2.151534 -2.26292,4.013486 -4.39249,4.515589 -0.4757,0.11216 -1.34891,0.145078 -3.87821,0.146203 l -3.26426,0.0014 0,-0.883562 z m 6.49916,-0.992407 c 3.21403,-0.672443 4.29548,-4.822984 1.84725,-7.089621 -0.88783,-0.821968 -1.38285,-0.98004 -3.21685,-1.02722 l -1.49715,-0.03851 0,4.1321 0,4.132098 1.17326,0 c 0.64528,0 1.40734,-0.04899 1.69349,-0.108841 z m 6.26339,0.992407 0,-0.883563 0.83447,0 0.83449,0 0,-4.123287 0,-4.123289 -0.83449,0 -0.83447,0 0,-0.932648 0,-0.932648 4.66325,0 4.66323,0 0,1.96347 0,1.963471 -0.98173,0 -0.98174,0 0,-1.030823 0,-1.030822 -1.86529,0 -1.8653,0 0,1.619863 0,1.619864 1.57078,0 1.57078,0 0,0.883562 0,0.883562 -1.57078,0 -1.57078,0 0,1.619863 0,1.619862 1.8653,0 1.86529,0 0,-1.030821 0,-1.030822 0.98174,0 0.98173,0 0,1.914383 0,1.914385 -4.66323,0 -4.66325,0 0,-0.883562 z m 11.97717,-1.079909 0,-1.96347 0.93265,0 0.93265,0 0,1.079909 0,1.079907 1.02713,0 c 1.17429,0 1.90552,-0.208075 2.32976,-0.662951 0.5187,-0.556145 0.5931,-0.953227 0.27606,-1.473219 -0.27442,-0.45008 -0.64174,-0.644078 -2.10559,-1.112032 -2.07909,-0.664624 -2.77857,-1.118258 -3.20501,-2.078533 -0.18234,-0.410607 -0.22784,-0.683212 -0.22515,-1.349064 0.004,-1.088974 0.25322,-1.683859 0.98342,-2.351207 0.9245,-0.8449503 1.99214,-1.0825597 4.87086,-1.0840608 l 1.54624,-9.829e-4 0,2.0125577 0,2.012557 -0.88356,0 -0.88357,0 0,-1.089766 0,-1.089768 -1.25171,0.03474 c -1.11598,0.03099 -1.29907,0.06132 -1.68847,0.279837 -1.00649,0.564795 -1.09212,1.695571 -0.1715,2.264578 0.17257,0.106645 0.88805,0.375374 1.59,0.597167 0.70193,0.221794 1.52382,0.527411 1.82642,0.679148 0.66969,0.335829 1.38076,1.100558 1.55068,1.667724 0.17451,0.582413 0.15649,1.663066 -0.0374,2.246981 -0.20565,0.619142 -0.91012,1.412489 -1.53577,1.729534 -0.90236,0.45726 -1.43789,0.533704 -3.73888,0.533704 l -2.1392,0 0,-1.963471 z M 466.99616,8.9399939 c 0.018,-0.050499 0.6011,-0.7573491 1.29577,-1.5707757 l 1.26305,-1.4789622 1.5349,6.549e-4 1.5349,6.549e-4 1.20842,1.4298709 c 0.66464,0.786429 1.23264,1.4929471 1.26222,1.570044 0.0448,0.1166057 -0.14281,0.1401648 -1.11597,0.1401648 l -1.16976,0 -0.86127,-1.2310638 -0.86127,-1.2310669 -0.88014,1.2310669 -0.88015,1.2310638 -1.18172,0 c -0.69113,0 -1.16812,-0.038116 -1.14898,-0.09181 z"
     style="fill:#000000" />
  <g
     transform="matrix(0.25368868,0,0,0.25368868,748.21823,199.42477)"
     id="layer1">
    <path
       inkscape:connector-curvature="0"
       id="path4147"
       d="m -374.46523,-182.17348 0.25092,-541.75 468.500001,0 468.499999,0 0.25092,541.75 0.25091,541.75 -469.001829,0 -469.001831,0 0.25091,-541.75 z M -131.4922,139.0277 c 2.04717,-1.34345 4.46551,-3.88021 5.3741,-5.63722 1.59632,-3.08694 1.57615,-3.25597 -0.59857,-5.01695 -4.2159,-3.41384 -6.93127,-3.39648 -10.16628,0.065 -5.68468,6.08259 -14.13107,3.01284 -15.44133,-5.61199 l -0.64565,-4.25 14.52082,0 c 15.86994,0 15.7348,0.0527 15.7348,-6.13897 0,-10.58675 -6.62961,-19.758019 -15.6865,-21.700379 -2.73046,-0.58557 -5.8305,-0.88838 -6.88898,-0.6729 -1.05849,0.21548 -3.18862,0.65914 -4.73363,0.98591 -1.545,0.32676 -4.75031,2.38345 -7.12289,4.57042 -5.6536,5.211309 -6.91253,9.776449 -6.41353,23.256719 0.34444,9.30497 0.67339,10.84069 3.11108,14.52429 5.88431,8.89178 19.84657,11.60457 28.95656,5.62609 z m -20.44668,-30.00908 c -1.08228,-1.08229 0.5005,-4.51398 2.98237,-6.46622 5.10902,-4.018759 14.2422,-0.82606 14.2422,4.97867 0,1.89697 -0.60494,2.04545 -8.33333,2.04545 -4.58334,0 -8.58439,-0.25106 -8.89124,-0.5579 z m 72.894711,30.91014 c 5.1068,-2.42333 8.33502,-8.08983 8.30762,-14.58237 -0.0345,-8.18318 -3.65108,-11.3314 -16.41856,-14.29237 -10.55229,-2.44724 -11.5592,-3.01149 -11.5592,-6.4775 0,-2.35331 0.58561,-3.27215 2.5651,-4.02475 5.16765,-1.964739 9.19424,-1.187469 13.36408,2.57973 l 3.93494,3.55499 4.06794,-2.07531 c 2.55929,-1.30565 4.06794,-2.76634 4.06794,-3.93862 0,-3.195439 -7.20466,-8.759739 -12.93273,-9.988189 -6.78639,-1.45542 -8.71555,-1.40147 -14.83165,0.41482 -11.337171,3.36678 -15.782961,16.776139 -8.106961,24.452149 2.19121,2.1912 4.99833,3.3579 12.078741,5.02019 11.23398,2.63742 12.7926,3.41934 12.7926,6.41773 0,3.27218 -2.27226,4.81092 -7.90329,5.35199 -4.46175,0.42872 -5.15198,0.18013 -8.89888,-3.20497 l -4.061951,-3.66973 -4.06794,2.07531 c -2.23737,1.14142 -4.06794,2.74777 -4.06794,3.56967 0,3.01881 6.43204,8.62626 11.535901,10.05701 5.95749,1.67004 15.20181,1.10081 20.13424,-1.23978 z m 84.2663404,0.17202 c 5.6171396,-2.92355 9.0635196,-8.45775 9.0635196,-14.55423 0,-8.29306 -4.8376796,-12.12908 -18.9234496,-15.00531 -5.8077104,-1.18589 -10.0765504,-3.63183 -10.0765504,-5.77359 0,-0.44488 0.63872,-1.68238 1.41939,-2.75 1.10854,-1.51602 2.62939,-1.94113 6.9444604,-1.94113 4.90646,0 5.90985003,0.37294 8.96175,3.33096 l 3.43668,3.33096 4.1188596,-2.10128 c 2.28814,-1.16733 4.11886,-2.82778 4.11886,-3.7358 0,-0.89898 -1.78134,-3.329059 -3.95853,-5.400169 -6.2929396,-5.98633 -19.0673796,-7.54823 -27.2266,-3.32893 -6.75225,3.49172 -10.32231,12.860689 -7.48666,19.647349 1.86262,4.45787 6.75779,7.17144 16.7158504,9.26618 8.51335003,1.79084 10.95594,2.98021 10.95594,5.33478 0,3.92574 -2.55858997,5.65595 -8.36385,5.65595 -4.90646,0 -5.9098504,-0.37294 -8.9617504,-3.33096 l -3.43668,-3.33096 -4.11886,2.10128 c -2.26537,1.15571 -4.11886,2.77375 -4.11886,3.59565 0,3.02392 6.43134,8.6263 11.5359,10.04898 5.6263804,1.56811 15.3746904,1.03562 19.4005804,-1.05973 z m 158.3408486,1.41561 c 13.56202,-3.7662 17.28562,-21.58932 5.72503,-27.40304 -1.3763,-0.69213 -5.87736,-2.04907 -10.00236,-3.01543 -9.21811,-2.15951 -12.23073,-3.89638 -11.81127,-6.80957 0.81,-5.625449 11.75539,-6.096799 17.27802,-0.74406 l 3.29553,3.19415 4.11886,-2.10128 c 2.26537,-1.15571 4.11886,-2.73262 4.11886,-3.50424 0,-2.315699 -4.99243,-7.519659 -8.86968,-9.245479 -5.00682,-2.22862 -17.60767,-2.25616 -21.7612,-0.0476 -6.86501,3.65039 -10.33843,10.756229 -8.92933,18.267379 0.90219,4.80913 6.53249,8.78965 14.75563,10.43196 12.08156,2.41291 14.60638,3.9357 13.30803,8.02643 -0.29804,0.93905 -1.67942,2.22566 -3.06972,2.85912 -5.07963,2.31443 -11.00201,0.92776 -14.77589,-3.45963 l -2.26287,-2.63075 -4.19749,2.14139 c -2.30861,1.1778 -4.19748,2.79162 -4.19748,3.58631 0,0.79468 1.3348,2.96513 2.96622,4.82322 4.9104,5.59264 15.56383,8.06026 24.31111,5.63112 z m 36.37987,-1.50616 c 5.7376,-5.7376 -1.37611,-14.46881 -8.16449,-10.02089 -1.9597,1.28404 -2.49271,2.47684 -2.49271,5.5783 0,3.2753 0.46684,4.19827 2.75,5.43691 3.83756,2.08191 4.97386,1.93902 7.9072,-0.99432 z m 36.41007,1.45844 c 3.4827,-0.7469 6.43098,-2.25094 9.04922,-4.61636 4.98882,-4.5071 5.09169,-7.32923 0.34958,-9.59058 -4.8638,-2.31938 -6.00445,-2.14224 -8.46607,1.31479 -2.84256,3.99201 -8.83822,4.25269 -12.54545,0.54545 -2.29705,-2.29704 -2.45455,-3.13411 -2.45455,-13.04545 0,-9.91134 0.1575,-10.74841 2.45455,-13.04545 3.70673,-3.706739 9.75168,-3.447189 12.70357,0.54545 2.56274,3.4663 3.48885,3.61286 8.30795,1.31479 4.74211,-2.26135 4.63924,-5.083479 -0.34958,-9.590579 -8.71184,-7.87063 -24.80144,-6.58317 -31.28228,2.50315 -2.12478,2.979019 -2.36339,4.504499 -2.65944,17.002619 -0.30272,12.77949 -0.1669,14.01171 1.96191,17.79941 3.17557,5.65018 7.83453,8.34102 17.0641,9.85561 0.38543,0.0633 3.02535,-0.38353 5.86649,-0.99285 z m 51.80408,-1.64846 c 1.9251,-0.95903 4.84544,-3.4314 6.48966,-5.49416 2.82195,-3.54027 3.01482,-4.36506 3.44132,-14.71677 0.52758,-12.80481 -0.753,-19.28 -4.62079,-23.364669 -8.10829,-8.56295 -25.77525,-7.65426 -32.42456,1.66774 -2.02936,2.845059 -2.28963,4.540289 -2.58074,16.809429 -0.28459,11.99476 -0.0858,14.11153 1.64359,17.5 2.847,5.57828 6.06143,7.86521 13.68017,9.73283 3.30916,0.81119 10.64579,-0.27842 14.37135,-2.1344 z m -16.4168,-10.69824 c -2.29705,-2.29704 -2.45455,-3.13411 -2.45455,-13.04545 0,-9.91134 0.1575,-10.74841 2.45455,-13.04545 3.45117,-3.451179 9.31555,-3.392629 12.62114,0.12601 2.24303,2.3876 2.42431,3.35368 2.42431,12.91944 0,9.56576 -0.18128,10.53184 -2.42431,12.91944 -3.30559,3.51864 -9.16997,3.57719 -12.62114,0.12601 z m -450.69103,11.62186 c 0.98607,-0.62594 1.20566,-8.25322 1,-34.73468 l -0.26352,-33.932629 -5.25,-0.30226 -5.25,-0.30226 0,34.385589 c 0,18.91208 0.3,34.6856 0.66667,35.05226 0.92841,0.92842 7.5635,0.80733 9.09685,-0.16602 z m 244.654691,0.2257 c 1.38257,-0.53054 1.58179,-3.67925 1.58179,-25 l 0,-24.393009 -5.5,0 -5.5,0 0,16.049659 c 0,20.49337 -1.01627,22.95034 -9.49289,22.95034 -2.49007,0 -3.98193,-0.77558 -5.91822,-3.07673 -2.5552,-3.03669 -2.58889,-3.29041 -2.58889,-19.5 l 0,-16.423269 -5.5,0 -5.5,0 0.022,17.249999 c 0.0186,14.62855 0.30251,17.85787 1.86808,21.25 2.13579,4.62763 5.42189,7.91663 9.42506,9.43339 4.08425,1.54748 12.31892,1.30723 15.73456,-0.45907 2.53159,-1.30914 2.95034,-1.32097 2.95034,-0.0833 0,2.25065 4.79722,3.39153 8.41821,2.00202 z m 27.43615,-1.09724 c 0.81085,-1.44892 1.3497,-1.52382 3.59674,-0.5 3.269219,1.48955 11.463349,1.56519 15.233799,0.14061 3.8309,-1.44741 8.27321,-5.76278 9.93826,-9.65426 1.8416,-4.30411 1.85927,-23.19174 0.0258,-27.57986 -1.59165,-3.809339 -7.65693,-9.415169 -11.12995,-10.286839 -2.72204,-0.68319 -10.80195,-0.0758 -14.269009,1.07257 -2.24309,0.74299 -2.25,0.71116 -2.25,-10.37136 l 0,-11.11663 -5.5,0 -5.5,0 0,34.416669 c 0,26.59766 0.28398,34.53125 1.25,34.92105 2.92432,1.17999 7.68341,0.60368 8.60436,-1.04195 z m 4.06995,-11.87502 c -2.11089,-2.2458 -2.46859,-3.70841 -2.76684,-11.31331 -0.32386,-8.258 -0.19638,-8.90775 2.33889,-11.92075 3.556109,-4.22619 8.960279,-4.45732 12.867279,-0.55033 2.46713,2.46714 2.63636,3.22805 2.63636,11.85398 0,8.39825 -0.21798,9.45282 -2.45225,11.86364 -3.38926,3.65707 -9.21982,3.68791 -12.623439,0.0668 z m 225.875689,12.37925 c 0.83545,-0.83545 1.2,-6.16566 1.2,-17.54545 0,-16.0211 0.0487,-16.39417 2.45455,-18.8 3.34023,-3.34023 7.76351,-3.26408 10.47287,0.18031 1.90263,2.41881 2.07258,3.96036 2.07258,18.8 0,11.23955 0.36565,16.53079 1.2,17.36514 0.66,0.66 2.82,1.2 4.8,1.2 1.98,0 4.14,-0.54 4.8,-1.2 0.83268,-0.83268 1.2,-6.0657 1.2,-17.09563 0,-14.46718 0.18585,-16.15663 2.06809,-18.8 2.65821,-3.7331 7.00736,-3.91982 10.47736,-0.44982 2.40784,2.40783 2.45455,2.76872 2.45455,18.96481 0,18.47693 0.0414,18.58064 7.41521,18.58064 4.66807,0 4.88638,-1.02187 4.43013,-20.7367 -0.33732,-14.57582 -0.55262,-16.10002 -2.85791,-20.23308 -3.41219,-6.117569 -8.67481,-8.993479 -16.48743,-9.010029 -4.25342,-0.009 -6.9531,0.56839 -9.27417,1.98355 -4.07238,2.48293 -4.7921,2.48259 -7.95296,-0.004 -3.12245,-2.45612 -11.01754,-2.70052 -15.32253,-0.47432 -2.6446,1.36757 -2.95034,1.36757 -2.95034,0 0,-1.16389 -1.18482,-1.52542 -5,-1.52542 l -5,0 0,24.999999 0,25 4.3,0 c 2.365,0 4.84,-0.54 5.5,-1.2 z m -360.799999,-24.33498 0,-5.53499 -10.25,0.28499 -10.25,0.28498 -0.31663,3.85516 c -0.53623,6.52882 -0.34792,6.64484 10.78525,6.64484 l 10.03138,0 0,-5.53498 z m 5.78941,-109.5318786 c 18.98997,-2.08635 40.4345504,-8.02053 54.6447,-15.12136 14.74588,-7.3685504 31.23087,-20.6245704 40.80424,-32.8117804 9.2859,-11.82126 17.8528,-30.58499 21.91521,-48 2.92998,-12.560441 3.63935,-40.756581 1.40702,-55.926751 -5.95309,-40.45521 -26.76651,-69.40305 -69.06058,-96.05123 -10.3077396,-6.49458 -35.82347,-19.625 -57.138,-29.40325 -38.00912,-17.43707 -58.00562,-31.87145 -65.504131,-47.28384 -3.11683,-6.40631 -3.32638,-7.49339 -3.34162,-17.33493 -0.0255,-16.48622 4.3331,-28.00935 14.403751,-38.08 10.24888,-10.24888 22.86716,-14.87908 40.6199,-14.90522 17.52148,-0.0258 27.7553,4.01081 38.98271,15.37627 6.8093004,6.89302 9.1535404,10.04721 18.8471804,25.35895 3.91004,6.17617 5.00017,7.24636 7.3600396,7.2254 1.54194,-0.0137 17.62332,-7.44026 36.27017,-16.75 l 33.5,-16.7254 -0.051,-4.56094 c -0.0714,-6.38973 -6.46701,-18.8544 -16.47907,-32.11694 -23.58391,-31.24059 -52.21996,-46.823 -95.40758,-51.9164 -13.95043,-1.64526 -44.31325,-0.60276 -56.66481,1.94559 -28.369451,5.85311 -50.499031,17.49771 -69.450531,36.54493 -25.60357,25.73287 -37.74705,61.3715 -34.48298,101.20052 1.61359,19.68944 4.06398,29.38879 11.09145,43.90324 5.98287,12.35693 12.2992,20.76556 23.75073,31.61823 17.35602,16.44838 33.10311,26.17382 82.357651,50.86431 45.75527,22.93636 54.83032,28.56624 66.0728404,40.98964 11.4884,12.69509 15.87296,28.43599 12.43563,44.64483 -4.18343997,19.727091 -17.9031304,33.747571 -39.6723304,40.542111 -6.63423,2.07066 -9.46241,2.33987 -24.5,2.33216 -18.67859,-0.01 -24.99329,-1.15336 -35.72664,-6.47109 -12.742551,-6.31318 -19.220841,-13.3795 -26.351931,-28.743861 -5.28033,-11.37679 -6.77759,-13.27633 -10.46469,-13.27633 -2.81575,0 -66.82146,31.274831 -68.24978,33.348591 -1.36174,1.9771 0.11913,9.31177 3.29354,16.31278 7.30042,16.10074 26.04254,39.27319 39.57474,48.92957 15.58171,11.1188804 41.506,19.9881504 69.924761,23.9228004 11.40344,1.57883 42.58344,1.81535 55.28941,0.4194 z m 308.210589,-9.79956 c 4.125,-1.13188 12.15466,-3.90075 17.84368,-6.15305 5.68903,-2.2522904 11.3018,-3.9568104 12.47284,-3.7878004 1.52894,0.22065 2.64908,1.71072 3.97347,5.2857204 1.01437,2.73815 2.3192,5.55065 2.89961,6.25 1.35531,1.63305003 61.85456,1.85347003 64.87614,0.23637 1.89909,-1.01637 1.93426,-3.75059 1.93426,-150.3775614 0,-137.69767 -0.12894,-149.44938 -1.65369,-150.71482 -1.33055,-1.10425 -8.33522,-1.37244 -35.84631,-1.37244 -27.51109,0 -34.51576,0.26819 -35.84631,1.37244 -1.51648,1.25857 -1.65513,9.14101 -1.67105,95 -0.0189,102.01465 -0.007,101.78765 -5.67766,112.407951 -3.9014,7.30733 -13.59534,16.74149 -20.54841,19.99775 -8.64217,4.04729 -13.74154,4.99586 -24.49832,4.55713 -8.41504,-0.34323 -10.70075,-0.84008 -16.60542,-3.60958 -12.41369,-5.82245 -19.68031,-13.5374 -24.56504,-26.080641 l -2.58779,-6.64505 -0.24293,-95.5 c -0.13362,-52.525 -0.46539,-96.45553 -0.73728,-97.62341 -0.96018,-4.12431 -4.2316,-4.47226 -39.17017,-4.16613 -26.59387,0.23301 -33.37555,0.56391 -34.73712,1.69492 -1.57263,1.30633 -1.67023,8.60002 -1.38492,103.5 l 0.30694,102.094621 3.11245,11.5 c 8.52788,31.50913 24.64895,52.71796 53.35303,70.19107 8.52339,5.18846 28.01339,11.6354404 41.6347,13.7720804 10.0233,1.57226003 34.77321,0.52807003 43.3653,-1.82957 z"
       style="fill:#000000" />
  </g>
  <path
     inkscape:connector-curvature="0"
     id="path4771"
     d="m 263.74928,213.56815 c -5.24627,-0.41143 -9.85299,-2.34881 -13.65246,-5.74162 -4.4702,-3.99172 -6.36572,-8.06148 -7.12965,-15.3075 -0.29345,-2.78345 -0.29345,-19.07361 0,-21.85706 0.69383,-6.58127 2.37837,-10.62146 5.90963,-14.17367 3.51918,-3.54003 7.72473,-5.76732 12.38599,-6.55969 6.98146,-1.18673 13.58682,0.15232 18.61702,3.77408 4.81962,3.47015 7.52019,7.63561 8.65726,13.3534 0.56414,2.83663 0.72265,5.08219 0.82909,11.74245 0.22162,13.87244 -0.56103,19.48734 -3.3759,24.21945 -2.45276,4.12341 -7.14155,7.81349 -11.98729,9.434 -2.8032,0.93747 -6.87731,1.38096 -10.25369,1.11616 z m 5.4105,-11.40547 c 1.70565,-0.5185 3.04959,-1.32861 4.3224,-2.60548 2.88908,-2.89848 3.40289,-5.61112 3.40289,-17.9667 0,-12.12249 -0.50888,-14.9358 -3.22199,-17.81181 -1.86949,-1.98178 -4.06403,-2.96318 -6.98241,-3.12267 -5.20768,-0.28457 -9.48365,2.65689 -10.67399,7.34275 -0.58977,2.32193 -0.87863,6.78913 -0.87863,13.59173 0,6.8026 0.28886,11.26981 0.87863,13.59173 0.95197,3.7474 4.00084,6.50082 8.01034,7.23401 1.11604,0.20409 4.12538,0.0558 5.14276,-0.25356 z m -257.299097,-44.62192 0.03969,-55.56104 63.537056,-0.0401 63.537061,-0.0401 0,55.60011 0,55.60009 -15.19627,-0.008 -15.19618,-0.008 0.55833,-0.42441 c 0.87538,-0.66529 3.02475,-2.87095 4.09308,-4.20019 l 0.97206,-1.20945 1.36075,-0.19035 c 2.75066,-0.38478 5.53966,-1.32505 5.53966,-1.86755 0,-0.14665 -0.2406,-0.59934 -0.5347,-1.00596 -0.29408,-0.40662 -0.61715,-0.98334 -0.71787,-1.28163 -0.31759,-0.93982 -0.21044,-2.63715 0.31575,-5.00336 0.42507,-1.91163 0.48746,-2.46447 0.4211,-3.73288 -0.12208,-2.3335 -0.55889,-3.08016 -3.50108,-5.98381 -2.6589,-2.62407 -3.01666,-3.18739 -3.02419,-4.76192 0,-0.5254 -0.0611,-0.95528 -0.12971,-0.95528 -0.20653,0 -0.93403,0.61153 -3.22406,2.7101 -3.857,3.53462 -4.91121,3.83428 -6.35111,1.80521 -0.39252,-0.55313 -0.40229,-0.62841 -0.32497,-2.50293 0.12645,-3.06375 0.0413,-7.34605 -0.16598,-8.35061 -0.10446,-0.50647 -0.32529,-1.18723 -0.49063,-1.51279 -0.16534,-0.32556 -0.30005,-0.68453 -0.29941,-0.7977 0,-0.11318 0.47023,-0.40004 1.04342,-0.63748 1.95949,-0.81163 3.59474,-1.89824 5.11267,-3.39728 0.79972,-0.78972 1.65629,-1.78625 1.90354,-2.21451 1.20582,-2.08854 1.57707,-4.37295 1.18812,-7.31151 -0.1713,-1.29415 -0.17479,-1.86805 -0.0183,-2.95185 0.42412,-2.93356 1.49841,-5.37486 3.04285,-6.91462 1.08833,-1.08518 2.1766,-1.71765 4.38161,-2.54655 0.93053,-0.34977 2.44227,-0.9181 3.3594,-1.26294 2.69231,-1.01227 3.89225,-1.86551 5.38168,-3.82681 0.74987,-0.98749 2.68271,-4.63394 2.68271,-5.06115 0,-0.10882 -0.35259,0.0418 -0.79544,0.33983 -1.7617,1.18554 -3.79955,1.56348 -5.30699,0.98425 -0.41673,-0.16016 -0.75718,-0.3391 -0.75639,-0.39765 0,-0.0586 0.4407,-0.38952 0.97761,-0.73547 2.54149,-1.63763 5.48393,-5.51664 7.08655,-9.34227 0.41927,-1.0009 1.50689,-4.07764 1.50689,-4.26287 0,-0.0498 -0.24305,0.2277 -0.54016,0.61676 -1.05325,1.37945 -3.20104,2.73065 -5.12625,3.22507 -1.02658,0.26365 -3.42742,0.52466 -3.42742,0.37263 0,-0.0508 0.44245,-0.32822 0.98308,-0.61641 1.34823,-0.71858 2.83694,-2.22265 3.45917,-3.49493 0.39023,-0.79784 0.54025,-1.3868 0.67606,-2.65446 0.28282,-2.63874 -0.20122,-6.64996 -1.02595,-8.50173 l -0.2486,-0.55835 0.0905,0.81937 c 0.11185,1.01235 -0.29099,3.09783 -0.83687,4.33212 -0.43316,0.9794 -2.44425,4.09021 -2.56578,3.96871 -0.0412,-0.0412 0,-0.49001 0.0956,-0.99731 0.5704,-3.08515 -0.2991,-6.1303 -2.40727,-8.43097 -1.75567,-1.91602 -4.18524,-3.06732 -6.81888,-3.23128 -7.27738,-0.45308 -12.51888,4.74544 -13.40322,13.29325 -0.1894,1.83078 -0.0262,3.15389 0.69757,5.64317 0.48459,1.66768 0.56436,2.17547 0.56436,3.5924 0,1.76977 -0.25059,3.25245 -0.88108,5.21354 -0.21742,0.67603 -0.39522,1.30422 -0.39522,1.39598 0,0.28621 0.39657,0.18643 1.54761,-0.38943 2.08659,-1.04388 3.67778,-3.21211 4.06292,-5.5363 0.13049,-0.78758 0.10851,-1.54233 -0.0991,-3.40265 -0.53143,-4.76252 -0.5781,-5.44701 -0.47579,-6.97736 0.0572,-0.85556 0.1501,-1.5554 0.20646,-1.55524 0.0563,1.2e-4 0.30544,0.32154 0.5535,0.71419 0.49491,0.78336 2.75859,3.22859 2.87821,3.109 0.0412,-0.0411 -0.0262,-0.46248 -0.14884,-0.93644 -0.6743,-2.59963 -0.66652,-5.24227 0.0223,-7.62014 0.75749,-2.61398 1.01087,-2.8579 3.1839,-3.06548 2.508,-0.23956 4.5017,0.39812 6.03051,1.92885 2.15239,2.15524 2.4491,4.88711 0.89394,8.23266 -1.03682,2.23062 -3.282,5.31821 -5.88565,8.0939 -1.21097,1.29106 -1.43085,1.56813 -3.79184,4.7793 -4.11808,5.60084 -5.69935,9.63152 -5.69554,14.5182 0,2.76768 0.1882,3.50793 1.66462,6.62094 1.38457,2.9195 1.65159,3.83465 1.65255,5.66369 0,1.67903 -0.33903,2.72253 -1.2979,3.98446 -1.15232,1.51648 -3.41147,3.01645 -6.02488,4.00015 l -1.05469,0.39696 -0.64723,-0.55399 c -0.850846,-0.72832 -2.647147,-1.65232 -4.919316,-2.53049 -2.970765,-1.14818 -3.957344,-1.7081 -4.874702,-2.76646 -2.021895,-2.33268 -3.323836,-4.5598 -3.905832,-6.6811 -0.467689,-1.70471 -0.390846,-4.35169 0.163205,-5.6214 0.201055,-0.46067 0.419263,-0.83759 0.484831,-0.83759 0.06585,0 0.165347,0.34653 0.221538,0.77005 0.144072,1.08616 0.785598,2.27822 1.659701,3.08392 l 0.74821,0.68965 0.124618,-0.87582 c 0.164941,-1.15958 1.001023,-2.89007 2.1354,-4.41962 4.362171,-5.88203 7.108219,-12.24493 7.723075,-17.89537 0.305992,-2.81221 -0.01585,-6.30676 -0.782419,-8.50133 -0.313306,-0.8966 -0.393951,-1.34038 -0.359902,-1.98098 0.0095,-0.18283 0.635017,-1.11614 1.389503,-2.07403 1.58484,-2.012 1.64508,-1.8961 -0.932767,-1.7959 -0.768051,0.0298 -1.396473,-0.003 -1.396398,-0.0733 7.6e-5,-0.0702 0.09771,-0.32143 0.217019,-0.55839 0.119297,-0.23694 0.261624,-0.61781 0.316315,-0.84636 0.0989,-0.41373 0.09397,-0.41603 -1.107782,-0.5176 -2.767728,-0.23397 -4.558151,-1.01583 -8.279985,-3.61566 -3.792402,-2.64917 -5.402476,-3.3865 -8.003428,-3.66511 -1.822816,-0.19526 -5.122599,0.0557 -6.034007,0.45881 -1.218994,0.53925 -1.164541,1.611 0.11335,2.22963 0.715187,0.34621 1.243284,0.46341 4.032593,0.89477 2.047373,0.31665 3.437982,0.95766 3.818912,1.76033 0.249322,0.5254 0.247256,0.59547 -0.03651,1.23506 -0.748851,1.6891 -1.669383,1.52002 -3.095233,-0.56851 -0.348307,-0.51013 -0.860845,-1.06774 -1.138902,-1.2391 -1.497449,-0.92265 -4.601092,-1.30448 -8.893248,-1.09407 -2.549592,0.125 -3.564428,0.35897 -3.759298,0.8667 -0.187013,0.48745 2.158183,6.46304 2.719299,6.92874 0.180901,0.15014 0.798454,0.13337 2.83519,-0.0769 4.769292,-0.49243 7.266416,0.0379 7.95009,1.68842 0.159786,0.38568 0.161849,0.5785 0.0095,0.91227 -0.124463,0.27311 -0.233528,0.35743 -0.307507,0.23776 -0.218684,-0.35381 -2.266056,-0.99332 -3.77303,-1.17852 -1.994905,-0.24515 -3.634914,-0.0406 -7.258318,0.90557 -4.374392,1.14221 -6.778722,1.15701 -8.305303,0.0511 -0.884657,-0.64084 -1.260031,-1.51269 -1.260031,-2.92645 0,-2.10799 0.881641,-3.18693 2.506173,-3.06688 0.622633,0.046 1.018963,0.19186 1.54174,0.56728 0.387042,0.27795 0.853463,0.50534 1.036585,0.50534 0.477374,0 0.97102,-0.56081 0.97102,-1.10322 0,-0.65968 -1.203992,-1.69219 -2.367739,-2.03049 -2.529032,-0.73521 -4.771038,0.58062 -5.548933,3.25664 -0.393234,1.35262 -0.2471,3.53638 0.308936,4.61751 0.581436,1.13034 1.215183,1.81679 2.14445,2.32253 2.257961,1.22896 4.814775,1.21358 9.499054,-0.0572 2.691279,-0.73005 4.469881,-0.99337 5.957011,-0.88194 1.423548,0.10665 3.381542,0.63964 3.501878,0.95325 0.214953,0.56026 -1.056827,2.4701 -1.916639,2.87809 -0.513808,0.24379 -0.754956,0.25641 -2.002524,0.10473 -1.646122,-0.20015 -3.142618,-0.63675 -4.127529,-1.20424 -0.803454,-0.46293 -1.217327,-0.49437 -2.06158,-0.15656 -1.177083,0.47098 -3.069353,3.7978 -4.557515,8.01273 -0.317507,0.89941 -0.553495,1.63529 -0.524364,1.63529 0.02937,0 0.799486,-0.35145 1.711845,-0.781 2.365516,-1.11369 3.957185,-1.54495 4.207462,-1.13999 0.135893,0.21994 -0.176297,0.64464 -0.932284,1.26797 -0.538971,0.44447 -0.586438,0.52303 -0.260278,0.431 0.219399,-0.0619 1.121519,-0.15459 2.004827,-0.20599 1.867425,-0.10866 2.616824,0.12418 2.944334,0.91472 0.276072,0.66654 0.07779,1.21008 -0.604616,1.65977 -1.142792,0.75278 -3.282162,1.09298 -8.093762,1.28709 -1.403942,0.0566 -3.120471,0.2096 -3.814544,0.33994 -2.531255,0.47532 -4.882325,1.57078 -6.974069,3.24954 -0.544447,0.43694 -1.114137,0.79443 -1.266065,0.79443 -0.26115,0 -0.260753,-0.0502 0.0079,-0.91735 0.56834,-1.84164 0.837984,-4.43707 0.920139,-8.85775 0.146451,-7.87643 -0.580088,-12.26203 -2.755019,-16.62887 -1.897826,-3.81049 -5.194752,-7.46995 -8.110193,-9.00207 -1.17867,-0.61937 -2.056422,-0.63735 -4.179996,-0.0856 -1.875125,0.48719 -2.330352,0.73698 -2.770499,1.52001 -0.355688,0.63296 -0.957684,0.94484 -1.831863,0.94915 -1.216374,0.006 -1.045158,0.47498 0.376882,1.03227 1.472207,0.57698 1.69351,0.76289 1.904335,1.59997 0.285916,1.13573 1.260826,1.8287 2.576659,1.83157 0.223764,0 0.493011,0.0871 0.598266,0.19235 0.261785,0.26174 0.241385,1.00439 -0.03413,1.23279 -0.312269,0.2592 -1.936641,-0.52792 -3.246204,-1.57302 -1.125409,-0.89815 -2.008795,-1.21969 -2.665244,-0.97013 -0.233369,0.0888 -1.227487,0.30493 -2.209143,0.48041 -0.981736,0.17548 -2.000223,0.40274 -2.263516,0.50505 -0.503251,0.19558 -1.036983,0.58951 -1.036983,0.76541 0,0.0572 0.50087,0.0998 1.113025,0.0949 0.999119,-0.008 1.156604,0.0346 1.538487,0.41635 0.233924,0.23393 0.612553,0.76566 0.841318,1.18163 0.627951,1.14189 1.202165,1.3911 2.928458,1.27083 1.441805,-0.10043 1.914336,0.01 2.098094,0.48839 0.212175,0.55295 -0.152642,0.67799 -1.285353,0.44055 -1.571904,-0.3295 -3.967344,0.0142 -4.696185,0.67381 -0.140021,0.12677 -0.67415,0.33974 -1.186846,0.47328 -0.512696,0.13354 -1.253126,0.38477 -1.645407,0.55828 -1.061669,0.46962 -2.854082,1.69364 -3.156906,2.15578 -0.428318,0.65375 -0.111683,0.74936 1.292418,0.39026 1.902113,-0.48648 2.025861,-0.46308 3.459252,0.65472 1.157238,0.90244 2.49244,1.00061 4.956067,0.36442 1.820513,-0.47015 2.418301,-0.44048 3.644598,0.18094 0.997055,0.50524 1.266778,1.02127 1.266778,2.42345 0,1.26799 -0.404426,2.84323 -1.280194,4.98587 -1.248442,3.0545 -1.466729,4.7707 -1.035552,8.14106 0.408156,3.19103 0.613743,3.38035 1.462919,1.34714 0.665021,-1.59227 1.650249,-2.62346 2.50649,-2.62346 1.491812,0 2.554354,2.12365 2.554354,5.10531 0,3.19939 -1.396322,5.97863 -3.446871,6.86076 -0.687007,0.29554 -1.034361,0.34374 -2.052611,0.28479 -1.748041,-0.10119 -2.607139,-0.57185 -4.80128,-2.63051 -1.106358,-1.03796 -2.113097,-1.83491 -2.602219,-2.05985 -2.775657,-1.27663 -7.767364,-0.65225 -9.653442,1.2075 -0.315286,0.31082 -0.970544,0.83496 -1.456252,1.16477 -1.236139,0.83934 -1.595558,1.65395 -0.917916,2.08061 0.195505,0.12314 0.396648,0.0553 0.841318,-0.2839 0.533811,-0.40717 0.663433,-0.43693 1.498003,-0.34404 0.502457,0.0559 1.272574,0.16917 1.71129,0.25162 0.438717,0.0824 1.411483,0.1542 2.161756,0.15944 1.362031,0.009 1.74693,0.14618 1.74693,0.62042 0,0.18592 -0.201459,0.20817 -1.091196,0.12049 -1.975458,-0.19465 -4.500759,0.44541 -5.047111,1.27922 -0.137879,0.21037 -0.360213,0.38249 -0.494202,0.38249 -0.675419,0 -2.394489,1.35562 -2.872895,2.26552 -0.22289,0.42396 -0.312745,1.24437 -0.13629,1.24437 0.05001,0 0.223288,-0.0712 0.385852,-0.15818 0.162485,-0.087 0.702169,-0.26408 1.199149,-0.39354 1.093182,-0.28471 1.561744,-0.15715 3.095865,0.84285 1.484589,0.96775 1.999587,0.90461 3.394084,-0.41611 0.714791,-0.67697 1.08818,-0.61048 1.08818,0.1938 0,0.50326 -0.09383,0.62117 -0.965305,1.21295 -0.979751,0.66534 -1.230027,1.03536 -1.571824,2.32382 -0.09549,0.35976 -0.430224,0.99028 -0.743922,1.40116 -0.802582,1.05107 -1.214628,2.07048 -1.308214,3.23644 -0.06747,0.84317 -0.0373,1.02022 0.18987,1.10738 0.174709,0.0671 0.423239,-0.0427 0.702567,-0.31029 l 0.432207,-0.41408 0.954272,0.2505 c 0.637239,0.16728 1.378303,0.2276 2.230575,0.18159 1.51007,-0.0815 2.217637,-0.39642 3.749217,-1.66845 2.568721,-2.13345 4.609426,-2.34036 6.188395,-0.62744 1.158905,1.25734 1.220819,2.47925 0.170343,3.36321 -0.465149,0.3914 -0.468563,0.40401 -0.109064,0.40217 1.047778,-0.006 2.723586,-0.71092 4.87915,-2.05435 1.305038,-0.8134 2.892024,-1.21203 4.745478,-1.19202 2.324081,0.0251 4.23564,0.6872 6.381599,2.2104 1.16327,0.82568 3.278432,3.01308 4.148007,4.28975 0.362832,0.53257 0.658353,0.83587 0.684866,0.70288 0.0254,-0.12865 -0.139784,-0.87369 -0.367517,-1.65561 -0.885213,-3.03866 -0.677086,-5.21835 0.622475,-6.5179 1.211056,-1.21108 3.320978,-1.6023 4.739208,-0.87874 1.497766,0.7641 2.300586,1.65659 3.580859,3.98092 1.164779,2.11454 2.053484,3.37554 3.222946,4.57317 1.847819,1.89225 3.683255,2.96832 6.735383,3.94875 4.290489,1.37822 6.069011,2.80777 6.069011,4.8781 0,0.78277 -0.04921,0.89539 -0.641049,1.45815 -0.883466,0.84037 -2.031735,1.16899 -4.065375,1.16344 -2.732079,-0.008 -4.662847,-0.57817 -10.178204,-3.00856 -4.214208,-1.85701 -7.23776,-2.99324 -9.472939,-3.55989 -1.54047,-0.39053 -2.003477,-0.43688 -4.279932,-0.4284 -2.313524,0.008 -2.687231,0.0506 -3.988539,0.44771 -3.07475,0.93836 -4.774768,2.54674 -5.754598,5.44436 -0.521984,1.54381 -0.704472,4.42388 -0.396171,6.25193 0.484596,2.87282 3.349712,6.74016 6.17498,8.33486 2.662704,1.50295 4.128401,2.48939 5.206262,3.50387 1.17605,1.10689 1.865202,2.2616 1.866948,3.12824 0,1.21075 -1.365206,2.22825 -2.949413,2.19424 -1.175178,-0.0253 -3.194689,-0.7197 -5.971934,-2.05376 -3.120868,-1.4991 -4.137529,-1.81633 -5.810957,-1.8133 -2.494503,0.005 -4.313747,0.68741 -5.926054,2.22451 -0.688993,0.65678 -1.203197,0.99302 -1.834721,1.19962 -0.482613,0.15789 -1.202007,0.44946 -1.598575,0.64794 -0.879498,0.44014 -2.181122,1.79575 -2.317017,2.41307 -0.05477,0.24888 -0.124542,0.53524 -0.155023,0.63635 -0.113112,0.37476 0.141212,0.34621 1.000389,-0.11227 1.212247,-0.64689 1.601512,-0.61239 2.587534,0.22931 0.920139,0.78538 1.897271,1.12878 3.129837,1.09992 0.704155,-0.0165 0.981181,-0.13338 2.074124,-0.87532 0.693834,-0.47096 1.861392,-1.09475 2.594598,-1.38619 1.181686,-0.46967 1.360205,-0.50284 1.57111,-0.29193 0.515951,0.51594 -0.665973,1.49734 -2.266057,1.88155 -1.462045,0.35107 -1.920845,0.71449 -2.586898,2.04939 l -0.603901,1.21022 -12.005702,0.0408 -12.005622,0.0409 0.04048,-55.56102 z m 51.970547,55.42728 c 0,-0.0725 0.179233,-0.30011 0.398314,-0.5059 0.355212,-0.3337 0.440622,-0.35151 0.789802,-0.16462 0.28925,0.15479 0.716537,0.17773 1.635882,0.0878 0.684389,-0.0669 1.423786,-0.13737 1.643185,-0.15656 0.219398,-0.0192 0.913154,-0.42339 1.541819,-0.89819 2.766926,-2.08993 4.935191,-3.10029 6.395331,-2.98004 1.067543,0.0879 1.094451,-0.14538 0.104064,-0.90157 -1.539677,-1.17566 -3.239458,-1.52239 -5.541154,-1.13031 -2.079838,0.35429 -2.34988,0.14301 -1.256778,-0.98336 0.827586,-0.85278 1.663665,-1.22183 2.944652,-1.29984 0.592311,-0.036 1.076908,-0.12677 1.076908,-0.20157 0,-0.0748 -0.226542,-0.39398 -0.503409,-0.70933 -0.986578,-1.12361 -2.449259,-1.59039 -5.765632,-1.83992 -4.523144,-0.34036 -5.384306,-1.02974 -5.369542,-4.29853 0.0095,-2.15262 0.608346,-3.31562 2.115876,-4.11049 0.802819,-0.42327 0.902279,-0.43603 3.300577,-0.42362 1.360126,0.008 3.5857,0.0402 4.945827,0.0737 4.417174,0.10879 6.595361,-0.6617 10.255196,-3.62754 0.682727,-0.55321 1.299488,-1.00584 1.370604,-1.00584 0.07142,0 0.221151,0.41281 0.333231,0.91736 0.560636,2.52343 2.921866,5.35068 5.479472,6.5609 2.143504,1.01426 4.484969,1.47706 8.885868,1.7563 3.199057,0.20297 5.648557,0.85981 6.402707,1.71687 0.49413,0.56157 0.96547,1.69915 0.97492,2.35288 0.0246,1.69361 -1.30933,2.87598 -3.47196,3.07793 -0.85266,0.0796 -1.22566,0.014 -2.726042,-0.47951 -3.136272,-1.0316 -3.638094,-1.12588 -6.045836,-1.13592 l -2.233507,-0.009 -1.017457,0.55154 c -0.559533,0.30334 -1.431965,0.96615 -1.938703,1.47289 -0.506748,0.50675 -1.556593,1.34426 -2.332974,1.86116 -1.618426,1.07747 -2.504821,1.9144 -2.952349,2.78739 -0.242105,0.47233 -0.271002,0.66087 -0.127798,0.83339 0.158271,0.1908 0.248208,0.19025 0.623507,-0.004 0.682802,-0.35314 1.874644,-0.60917 2.317804,-0.49795 0.22099,0.0555 0.584137,0.37642 0.807033,0.71322 0.939341,1.41945 2.142221,1.31182 4.123473,-0.3689 1.870049,-1.58643 2.420685,-1.87725 2.935848,-1.5504 0.360052,0.22846 0.03887,0.61825 -1.019599,1.23724 -0.566995,0.33158 -1.387359,0.97982 -1.823132,1.44055 -0.644706,0.68171 -0.792269,0.94345 -0.792269,1.40563 l 0,0.56794 -13.241838,0 c -7.283006,0 -13.241921,-0.0592 -13.241921,-0.13173 z m 143.10796,-12.81452 0,-12.94625 -9.41284,-18.47325 c -5.17714,-10.1603 -9.41294,-18.51445 -9.41294,-18.56476 0,-0.0503 3.02657,-0.0728 6.7257,-0.0498 l 6.72578,0.0416 5.7931,12.50556 c 3.18619,6.87806 5.81524,12.52768 5.84231,12.55472 0.027,0.0271 2.63182,-5.61753 5.78841,-12.5435 l 5.73928,-12.59267 6.74181,-0.002 6.74182,-0.002 -0.97849,1.95438 c -0.53809,1.07489 -4.8104,9.47129 -9.49381,18.65865 l -8.5155,16.70429 0,12.85061 0,12.85063 -6.14227,0 -6.14236,0 0,-12.94625 z m 94.92672,-18.56302 0,-31.50928 5.54401,0.007 5.54401,0.007 12.36441,19.13855 12.36441,19.13854 0.0405,-19.14449 0.0405,-19.14449 6.2214,0 6.22151,0 0,31.51131 0,31.51131 -5.59895,-0.0419 -5.59894,-0.0419 -12.30947,-19.0791 -12.30956,-19.07912 -0.0405,19.11901 -0.0405,19.11899 -6.22142,0 -6.22141,0 0,-31.50927 z m -150.92549,-0.23931 0,-31.58904 6.22213,0 6.22205,0 0,26.00512 0,26.00511 14.2789,0 14.27891,0 0,5.58392 0,5.58393 -20.50104,0 -20.50095,0 0,-31.58904 z m 8.97572,-43.83379 c -0.0595,-0.15355 -2.70192,-8.17646 -5.87216,-17.82867 l -5.76404,-17.54946 1.99537,-0.0449 c 1.0974,-0.0246 2.04278,0.0112 2.10072,0.0798 0.0579,0.0686 2.1454,6.49188 4.63871,14.27407 2.4934,7.78219 4.57824,14.06409 4.63293,13.9598 0.0547,-0.1043 2.13143,-6.52538 4.61498,-14.26908 l 4.51552,-14.07947 2.06373,0 c 1.58174,0 2.04753,0.0466 1.99419,0.19943 -0.0381,0.10968 -2.68001,8.15052 -5.87057,17.86855 l -5.80112,17.66912 -1.57007,0 c -1.34782,0 -1.5854,-0.0395 -1.67819,-0.27919 z m 20.37975,-17.58935 0,-17.86855 1.99426,0 1.99427,0 0,17.86855 0,17.86854 -1.99427,0 -1.99426,0 0,-17.86854 z m 14.19912,0 0,-17.86855 1.9145,0 1.91449,0 0,16.1136 0,16.11361 9.09383,0 9.09384,0 0,1.75494 0,1.75494 -11.00833,0 -11.00833,0 0,-17.86854 z m 28.55781,0 0,-17.86855 1.99426,0 1.99427,0 0,16.1136 0,16.11361 9.09376,0 9.09384,0 0,1.75494 0,1.75494 -11.08811,0 -11.08802,0 0,-17.86854 z m 28.71726,0 0,-17.86855 11.08812,0 11.0881,0 0,1.75494 0,1.75495 -9.09383,0 -9.09384,0 0,6.22209 0,6.22208 7.73775,0 7.73768,0 0,1.75495 0,1.75495 -7.73768,0 -7.73775,0 0,6.38162 0,6.38163 9.09384,0 9.09383,0 0,1.75494 0,1.75494 -11.0881,0 -11.08812,0 0,-17.86854 z m 42.43785,0.0113 0,-17.87986 7.00574,0 c 7.51685,0 8.27863,0.0617 10.42276,0.84352 3.05436,1.11385 5.24762,3.30816 6.36406,6.36731 0.9041,2.47746 1.01269,3.57534 1.01444,10.25887 0,6.30321 -0.0821,7.43128 -0.73647,9.92994 -0.5427,2.07177 -1.32678,3.46626 -2.76898,4.92442 -1.4511,1.46725 -3.02475,2.3532 -5.2677,2.96578 -1.20852,0.33006 -1.66835,0.3518 -8.65512,0.40922 l -7.37873,0.0607 0,-17.87984 z m 14.67055,13.97391 c 3.86494,-1.12391 5.50789,-3.35705 6.08115,-8.26553 0.27441,-2.35011 0.10288,-12.16126 -0.23813,-13.61695 -0.72027,-3.0746 -2.49697,-5.07371 -5.34573,-6.01477 -0.96697,-0.31943 -1.44252,-0.35132 -6.11394,-0.41002 l -5.06537,-0.0637 0,14.38905 0,14.38905 4.90583,-0.0771 c 3.82819,-0.0602 5.09711,-0.13266 5.77619,-0.33013 z m 18.99255,-13.98522 0,-17.86855 11.16779,0 11.16788,0 0,1.75495 0,1.75494 -9.17361,0 -9.1736,0 0,6.22209 0,6.22209 7.81753,0 7.81752,0 0,1.75494 0,1.75495 -7.81752,0 -7.81753,0 0,6.38162 0,6.38163 9.1736,0 9.17361,0 0,1.75495 0,1.75494 -11.16788,0 -11.16779,0 0,-17.86855 z"
     style="fill:#000000" />
</svg>
