<?xml version="1.0" encoding="UTF-8" standalone="no"?>
<!-- Created with Inkscape (http://www.inkscape.org/) -->

<svg
   xmlns:dc="http://purl.org/dc/elements/1.1/"
   xmlns:cc="http://creativecommons.org/ns#"
   xmlns:rdf="http://www.w3.org/1999/02/22-rdf-syntax-ns#"
   xmlns:svg="http://www.w3.org/2000/svg"
   xmlns="http://www.w3.org/2000/svg"
   xmlns:sodipodi="http://sodipodi.sourceforge.net/DTD/sodipodi-0.dtd"
   xmlns:inkscape="http://www.inkscape.org/namespaces/inkscape"
   width="650pt"
   height="350pt"
   viewBox="0 0 812.49999 437.50001"
   id="svg2"
   version="1.1"
   inkscape:version="0.91 r13725"
   sodipodi:docname="principe-black.svg"
   inkscape:export-filename="/Users/julienlafosse/Desktop/principe2.png"
   inkscape:export-xdpi="300"
   inkscape:export-ydpi="300">
  <defs
     id="defs4" />
  <sodipodi:namedview
     id="base"
     pagecolor="#000000"
     bordercolor="#666666"
     borderopacity="1.0"
     inkscape:pageopacity="1"
     inkscape:pageshadow="2"
     inkscape:zoom="0.65059367"
     inkscape:cx="174.18934"
     inkscape:cy="339.74913"
     inkscape:document-units="px"
     inkscape:current-layer="g5689"
     showgrid="false"
     fit-margin-top="0"
     fit-margin-left="0"
     fit-margin-right="0"
     fit-margin-bottom="0"
     inkscape:window-width="1280"
     inkscape:window-height="980"
     inkscape:window-x="0"
     inkscape:window-y="0"
     inkscape:window-maximized="1"
     units="pt" />
  <metadata
     id="metadata7">
    <rdf:RDF>
      <cc:Work
         rdf:about="">
        <dc:format>image/svg+xml</dc:format>
        <dc:type
           rdf:resource="http://purl.org/dc/dcmitype/StillImage" />
        <dc:title></dc:title>
      </cc:Work>
    </rdf:RDF>
  </metadata>
  <g
     inkscape:label="Calque 1"
     inkscape:groupmode="layer"
     id="layer1"
     transform="translate(-124.7143,131.99499)">
    <g
       id="g3737"
       transform="matrix(6.839459,0,0,6.839459,-759.80869,-1900.3211)">
      <g
         id="g5689"
         transform="matrix(0.78176491,0,0,0.78176491,27.950858,78.753204)">
        <path
           sodipodi:nodetypes="sssssssssssssssssssscsccscssccccscscsccccsssssccccsccssssscsssscsssccssssccsssscsssscscscccscscscscscccssscscccscsscscsscsccsssscsssssscsssccscccscssccscssscssscssscsssssssscssssccssssssss"
           inkscape:connector-curvature="0"
           id="path3661"
           d="m 260.82304,270.53778 c -0.3763,0.004 -0.92656,0.0754 -1.80237,0.20818 -2.71261,0.41119 -5.43751,1.36276 -6.99666,2.44325 -1.33176,0.92292 -5.72879,6.02768 -6.38734,7.41548 -0.24624,0.51892 -0.44767,1.21354 -0.44767,1.54356 0,0.8903 0.19883,0.73147 0.59109,-0.47215 0.49099,-1.50658 1.55882,-2.9759 4.24697,-5.84362 2.11116,-2.25218 2.53678,-2.5647 4.54987,-3.34103 2.58302,-0.99611 5.72043,-1.60749 6.84045,-1.33292 0.72497,0.1777 0.7482,0.15719 0.31813,-0.28085 -0.2322,-0.23651 -0.42868,-0.34461 -0.91247,-0.3399 z m -1.2034,4.7809 c -1.3335,0.0248 -4.1743,0.88899 -5.56575,1.85327 -1.71586,1.18909 -4.86228,5.53017 -4.86228,6.70846 0,0.57375 0.2248,0.28298 1.03792,-1.34219 0.45116,-0.90171 1.6566,-2.4897 2.67865,-3.5288 1.53619,-1.5618 2.17755,-1.99606 3.70053,-2.50584 1.01329,-0.33916 2.26769,-0.61666 2.7875,-0.61666 0.51981,0 0.94514,-0.12878 0.94514,-0.28602 0,-0.20555 -0.27721,-0.29049 -0.72171,-0.28222 z m -0.25527,3.47303 c -0.10946,0.004 -0.282,0.0393 -0.52413,0.11402 -2.60369,0.80318 -5.40927,3.30126 -5.34342,4.75751 0.01,0.2164 0.159,0.1421 0.35732,-0.17771 0.90796,-1.46408 2.42895,-2.81782 3.95062,-3.51629 1.32732,-0.60925 2.03398,-1.19353 1.55961,-1.17753 z m 0.70797,6.25558 c 0.23759,0 -0.45186,0.11091 -0.76853,0.26996 -1.07971,0.5423 -3.54028,1.13682 -3.86761,0.93452 -0.13136,-0.0812 -0.40615,0.0538 -0.61041,0.2999 -0.2896,0.34898 -0.29458,0.49511 -0.0226,0.6632 0.24723,0.15277 0.33767,1.23222 0.31052,3.70679 0.16233,0.99314 -0.16563,3.46328 -0.1241,4.06491 l 0.0854,1.23714 c 0.106,1.53089 0.72425,2.14318 3.13421,3.10482 1.39038,0.5548 1.83756,0.6328 2.0013,0.34915 0.11596,-0.2009 0.85424,-0.68425 1.64044,-1.07439 4.6413,-2.30317 4.32924,-1.93616 4.2429,-4.99183 -0.0391,-1.38072 -0.0767,-3.32097 -0.0844,-4.31175 l -0.0133,-1.80155 -1.07195,-0.42943 c -0.58965,-0.23628 -1.89665,-0.82702 -2.90452,-1.31252 -1.09476,-0.52734 -2.34337,-0.70892 -1.94742,-0.70892 z m 0.95493,1.0842 c -0.0292,-0.15189 1.0678,0.29207 2.12267,0.70593 1.38372,0.54287 2.12168,1.00216 2.28024,1.41919 0.12894,0.33912 0.21255,2.27317 0.18587,4.29788 l -0.0485,3.68119 -2.42991,1.21319 c -1.33655,0.66726 -2.51563,1.217 -2.62015,1.22081 -0.37668,0.0149 -0.37419,-3.85616 0.005,-8.0999 0.21269,-2.38093 0.43047,-4.37533 0.48413,-4.43203 0.004,-0.004 0.0226,0.004 0.0207,-0.006 z m 14.62902,0.25227 c -0.32365,0 -0.27822,0.50555 0.0645,0.71736 0.42242,0.26106 1.33171,2.13308 2.18581,4.50088 0.67176,1.86229 0.72828,2.32602 0.56686,4.64348 -0.102,1.46441 -0.4884,3.56083 -0.89614,4.86174 -0.39426,1.25792 -0.71679,2.40926 -0.71682,2.55863 -1.2e-4,0.84751 0.67463,-0.6448 1.29484,-2.86342 1.11304,-3.98163 1.20032,-6.37208 0.33119,-9.07389 -0.69958,-2.17471 -2.37824,-5.34478 -2.83023,-5.34478 z m -12.61058,1.80781 c -0.24385,0.006 -0.51456,0.10919 -0.77641,0.34616 -0.64409,0.58291 -0.70684,1.0166 -0.21798,1.50547 0.48886,0.48886 0.92256,0.4261 1.50546,-0.21799 0.7109,-0.78553 0.22049,-1.6503 -0.51107,-1.63364 z m 11.51686,0.76525 c 0.1567,0 0.061,0.67533 0.48359,1.50084 1.16948,2.28453 1.27571,6.04894 0.2422,8.57696 -0.11588,0.28349 -0.0779,0.50019 0.0876,0.50019 0.16065,0 0.52099,-0.97129 0.8009,-2.1586 0.44007,-1.86663 0.46246,-2.42949 0.16573,-4.15989 -0.35229,-2.05443 -2.28635,-4.2595 -1.78005,-4.2595 z m -1.26272,2.93827 c -0.10136,0.0225 -0.0231,0.45496 0.28793,1.19931 0.34172,0.81784 0.40294,1.53333 0.25199,2.9429 -0.14521,1.35599 -0.11144,1.80805 0.1241,1.66249 0.49944,-0.30868 0.4063,-4.0368 -0.12654,-5.06721 -0.27129,-0.52459 -0.45865,-0.755 -0.53748,-0.73749 z m -10.00432,0.29391 c -0.17878,0.003 -0.3669,0.0808 -0.63843,0.22614 -0.39161,0.20959 -0.89634,0.73755 -1.12175,1.17346 -0.35683,0.69004 -0.35558,0.92275 0.01,1.7972 0.34294,0.82075 0.57116,1.00419 1.24776,1.00419 0.89982,0 1.58997,-0.59547 1.9885,-1.71584 0.34337,-0.96524 0.17856,-1.47218 -0.6847,-2.10607 -0.35665,-0.26188 -0.57128,-0.37908 -0.80117,-0.37908 z m 7.96003,0.87411 c -0.0734,-0.009 -0.11295,0.0345 -0.11295,0.13035 0,0.16722 0.14304,0.39241 0.31786,0.50046 0.20599,0.12728 0.25277,0.68685 0.13307,1.58928 -0.11775,0.88778 -0.0775,1.39281 0.11104,1.39281 0.48108,0 0.36401,-3.0183 -0.13307,-3.43085 -0.13522,-0.11219 -0.24255,-0.17317 -0.31595,-0.18205 z m -6.17044,-57.87012 c 0,-0.0316 -0.0588,0.0138 -0.0767,0.0384 -0.27035,0.37104 -2.48461,5.1265 -2.47699,5.31975 0.005,0.12724 0.2132,-0.026 0.46291,-0.34045 0.66368,-0.83586 2.45696,-4.74244 2.265,-4.9344 -0.0563,-0.0563 -0.12147,-0.0833 -0.17417,-0.0833 z m 7.91702,2.89935 c 0.10698,-0.16047 -0.65857,0.21281 -1.30653,0.63381 -0.7726,0.50199 -1.99502,1.26335 -2.7162,1.69188 -0.72119,0.42855 -1.31116,0.92168 -1.31116,1.0959 0,0.39877 -0.0579,0.42687 2.93038,-1.41893 1.37585,-0.84983 2.50149,-1.71062 2.50149,-1.91313 0,-0.0566 -0.13366,-0.036 -0.098,-0.0895 z m -12.01867,3.88449 c 0.11492,0.22985 -0.55373,0.0898 -0.91439,0.28139 -3.04444,1.6171 -4.09789,2.19727 -5.00026,2.75431 -0.5613,0.3465 -1.68682,1.01605 -2.50121,1.48777 -1.26714,0.73398 -1.48072,0.98231 -1.48097,1.721 -2.20072,2.55675 -0.19535,0.47233 -2.9e-4,1.66657 -0.46576,0.1669 0.2713,0.96193 0.28602,1.45648 0,0.66215 1.14515,1.32193 1.74087,1.0031 0.27983,-0.14976 0.77461,-0.27214 1.09943,-0.27214 0.50558,0 0.59054,0.17743 0.59054,1.23388 0,1.22358 -0.0139,1.24016 -1.64398,1.99286 -0.90414,0.41748 -2.15095,0.95973 -2.7709,1.20475 -1.12556,0.44485 -1.12664,0.44632 -0.55816,1.0148 0.40784,0.40783 1.21425,0.64666 2.84275,0.84254 1.25028,0.15039 3.045,0.52695 3.98845,0.83655 0.94344,0.30961 1.72316,0.56972 1.73297,0.57829 0.0961,0.083 4.41352,-4.35742 4.41352,-4.53925 0,-0.35597 -1.40883,-0.68069 -2.64436,-0.60959 l -1.07221,0.0617 0,-1.72018 c 0,-0.94618 0.1363,-1.80473 0.30288,-1.90768 0.16659,-0.10296 1.48847,-0.20711 2.93746,-0.23132 2.27251,-0.038 2.74876,-0.13383 3.46567,-0.69776 1.33066,-1.04673 1.66093,-1.71508 1.62547,-3.28878 -0.0277,-1.22924 -0.17698,-1.60421 -0.96581,-2.42583 -1.11781,-1.16427 -2.77532,-2.06553 -3.79931,-2.06553 -0.4097,0 -0.97193,-0.12146 -1.24939,-0.26995 -0.13078,-0.07 -0.579,-0.10805 -0.42481,-0.10805 z m 1.60234,1.00693 c 0.58597,-0.005 1.21097,0.1139 1.76236,0.37555 2.74682,1.30347 3.55508,3.8482 1.81924,5.72823 -1.06399,1.15237 -2.68483,1.57603 -3.28987,0.85995 -0.2989,-0.35375 -0.21771,-0.53003 0.4825,-1.04772 1.08199,-0.79995 1.60428,-2.00427 1.19822,-2.76301 -0.42833,-0.80032 -1.85885,-1.30781 -3.1851,-1.12992 -1.21445,0.16289 -1.28999,0.072 -0.86676,-1.0412 0.23505,-0.61818 1.10278,-0.97304 2.07941,-0.98188 z m -0.91002,2.57089 c 0,0.0443 0.0893,-0.001 0.13497,0 0.15106,0.004 0.30923,0.0219 0.47325,0.0547 1.99972,0.39994 2.27917,1.74131 0.60061,2.88194 -1.4543,0.98821 -1.9465,0.92631 -2.60681,-0.3282 -0.71305,-1.35468 1.39798,-3.9833 1.39798,-2.60845 z m 9.79748,1.09073 c -1.22269,-0.002 -1.93265,0.43896 -1.02106,0.63435 1.06072,0.22736 6.07874,0.20713 6.07874,-0.0245 0,-0.25118 -5.05768,-2.72235 -5.05768,-0.60986 z m -19.38598,4.57218 c 0.0786,0 0.14287,0.0642 0.14287,0.14287 0,0.0786 -0.0642,0.14315 -0.14287,0.14315 -0.0786,0 -0.14315,-0.0645 -0.14315,-0.14315 0,-0.0786 0.0645,-0.14287 0.14315,-0.14287 z m 5.08081,0 c 0.484,0 0.51598,0.15723 0.33582,1.64399 -0.10958,0.90413 -0.25507,1.74022 -0.32331,1.85815 -0.0683,0.11793 -0.37377,0.21444 -0.67898,0.21444 -0.47943,0 -0.55489,-0.20598 -0.55489,-1.51526 0,-1.59564 0.33609,-2.20132 1.22136,-2.20132 z m 11.30894,0.93479 c -0.002,0.0189 -0.0338,-0.002 -0.0443,10e-4 -0.16889,0.0563 0.39407,0.61132 1.25103,1.23359 0.85695,0.62228 1.94404,1.41075 2.41575,1.75203 0.89474,0.64727 1.68873,0.84656 1.52479,0.38262 -0.14768,-0.41793 -5.09226,-3.95598 -5.14721,-3.36988 z m -17.8193,4.78309 c 0.0786,0 0.14288,0.0643 0.14288,0.14287 0,0.0786 -0.0642,0.14287 -0.14288,0.14287 -0.0786,0 -0.14287,-0.0642 -0.14287,-0.14287 0,-0.0786 0.0642,-0.14287 0.14287,-0.14287 z"
           style="fill:#000000;fill-opacity:1" />
        <g
           style="fill:#000000;fill-opacity:1"
           transform="matrix(0.06807129,0,0,0.06807129,194.546,237.9837)"
           id="g5164">
          <path
             inkscape:connector-curvature="0"
             id="path5152"
             d="m 400.49805,23.3125 c -16.94031,2.948994 -28.42304,24.150123 -34.75391,37.507812 3.88986,8.555628 -9.07404,24.353497 -13.00781,40.031248 7.83376,2.40788 -9.01095,14.19933 -13.53089,20.02719 4.20861,23.77112 40.4108,25.79221 52.2826,34.66239 -10.66983,17.47229 -28.99938,42.41376 -46.79663,15.33777 -17.35557,-18.10793 -49.55709,7.57653 -22.02276,22.26135 20.28521,0.48732 36.36763,8.26392 31.46416,29.37345 16.18784,18.97681 7.16509,44.5503 11.61861,67.61767 -9.22548,11.75836 -44.78546,9.71187 -56.05649,-5.81009 -17.38731,-2.57648 -27.58885,17.98237 -19.78364,21.69047 5.9388,23.67959 36.38175,8.57795 54.03988,14.92773 10.32896,0.75801 24.7488,3.04938 30.52033,11.72897 10.62514,5.43742 12.95788,10.71416 2.20135,15.83225 6.06468,3.66699 11.81755,9.44308 3.27576,13.00779 7.51339,8.82689 -3.15654,28.7908 1.42145,31.58438 -10.70637,2.85551 11.60853,7.45426 -6.46386,9.399 -0.46558,8.7134 -8.86253,19.9789 -11.00773,31.35976 -5.963,25.31484 -0.14145,51.33566 -6.94959,76.59608 -5.51141,24.64167 7.15398,48.00018 7.60751,72.69783 7.41937,23.9431 6.32218,48.99814 11.99535,73.18483 3.19755,19.37368 6.67941,35.12508 7.44243,55.06423 -12.67781,5.96825 -46.94529,17.6166 -17.71845,29.53489 19.75476,1.00808 40.24478,-5.20447 57.76953,3.43525 18.24444,-13.89314 -1.6635,-38.47102 7.56806,-54.79436 -3.48099,-17.7845 -1.24819,-37.88541 0.83788,-55.09961 19.9164,14.37345 16.13462,48.9854 33.0355,66.06624 -10.14196,11.86019 -42.40493,58.43865 -4.8783,46.136 17.81873,-10.53395 50.30519,-30.91197 44.19741,-52.83399 -0.60293,-13.81542 6.05766,-32.09899 -7.90729,-44.4659 -6.49016,-19.75042 -10.85429,-45.6481 -19.74024,-67.24219 -10.38214,-25.40103 -15.22884,-51.86599 -12.29101,-79.10352 1.35599,-7.76181 2.07363,-19.77108 -0.18068,-30.21609 -2.18155,-12.71134 5.55436,-28.70984 4.29476,-42.20225 6.94732,-6.1723 1.62094,-23.49158 5.64768,-29.09338 -1.6624,-2.69163 10.93892,-3.92831 -2.31122,-10.29948 -4.56014,-7.32182 5.5793,-9.49333 10.59915,-18.43615 1.56469,-15.42446 -9.25669,-37.03374 -11.80551,-45.96554 1.23177,-9.82284 -14.82563,-28.1602 -14.90188,-43.03653 1.40687,-11.84917 -1.88887,-24.6069 3.15931,-30.69121 -0.4251,-19.64615 8.24985,-35.83583 5.7162,-56.83113 1.33707,-14.4924 7.27082,-33.63869 -9.4255,-42.04061 -9.66717,-4.97979 1.17507,-18.04298 -4.20438,-21.43958 16.31254,-1.10521 4.58425,-24.49113 16.015,-32.912528 C 453.05413,92.209367 459.31531,72.123138 444.08123,58.936498 432.5863,45.382725 435.5471,27.997516 411.22433,24.038221 l -5.20361,-0.52007 -5.52256,-0.205571 -1.1e-4,-8e-5 z"
             style="fill:#000000;fill-opacity:1" />
          <path
             inkscape:connector-curvature="0"
             style="fill:#000000;fill-opacity:1"
             d="m 439.20703,60.556641 c 0.055,-0.01306 0.10484,-6.37e-4 0.14649,0.04102 0.1666,0.16661 6.4e-4,0.603643 -0.36914,0.970703 -0.53441,0.53044 -0.59644,0.466523 -0.30274,-0.304687 0.1524,-0.400245 0.36048,-0.667837 0.52539,-0.707036 z"
             id="path5150" />
          <path
             inkscape:connector-curvature="0"
             style="fill:#000000;fill-opacity:1"
             d="m 439.75,66.121094 c 0.28444,-0.01973 0.54515,0.02052 0.73633,0.138672 0.4887,0.30205 0.19424,0.607465 -0.97656,1.015625 -0.9445,0.32919 -1.67579,0.370215 -1.67579,0.0918 0,-0.593768 1.06269,-1.186906 1.91602,-1.246097 z"
             id="path5148" />
          <path
             style="fill:#000000;fill-opacity:1"
             d="m -234.81836,84.195312 c -27.17853,21.294208 -34.66703,55.181548 -33.03467,88.090748 -1.99189,17.84567 49.25547,16.12535 20.40603,39.9702 -20.44164,21.1509 -9.68331,47.31503 -14.11174,71.59134 -3.74183,22.86872 6.94312,40.80985 -2.97212,52.06408 -0.44708,22.16265 -13.03026,37.75076 -12.41783,54.29017 -11.27998,25.11574 -17.79145,52.90935 -39.437,73.34424 0.82093,40.09904 44.25011,-3.55357 44.92022,-24.72038 -0.0184,-15.23941 22.10457,-48.19563 19.28211,-16.76238 -9.77956,12.10379 1.14326,12.12739 -7.26012,21.47591 6.48728,14.64911 -20.85679,39.8506 -8.88589,48.86581 -5.98499,27.61041 1.59802,44.50014 5.6985,67.35862 -2.88623,9.96383 5.45766,18.72992 10.30182,30.06993 -6.28517,21.69961 -7.14124,52.35785 -2.28319,70.02795 -8.61741,18.89279 4.82386,52.56788 -9.13975,76.12592 -5.10215,26.30661 -13.10764,52.00384 -16.88647,78.84653 -11.76244,29.30371 48.61378,29.91485 53.98914,0.95624 5.6848,-24.01751 5.43863,-48.76044 10.7773,-73.29528 2.48076,-35.28898 8.59932,-70.90264 2.4929,-106.02638 14.28886,-2.04031 37.91192,24.47045 51.04435,24.95583 30.30095,13.19695 20.50852,54.08261 -12.58309,47.34578 -21.54464,8.6792 -23.40385,39.45771 -33.61825,59.8259 -1.31715,30.40452 5.44207,60.95232 8.7004,91.24313 -0.14741,29.95472 66.5742,30.52586 58.12532,-2.57596 6.09826,-16.05806 49.52632,-5.38345 70.323179,-10.52827 22.488788,-6.34999 47.838196,-5.5349 47.036569,24.11516 7.688445,23.95205 47.28276,7.48724 60.261524,-5.33252 C 28.833745,837.96878 17.61614,808.67918 25.42196,777.46869 19.311289,749.211 16.617081,698.64708 -21.909755,698.7286 c -24.452401,-5.57529 -67.02364,14.71792 -79.443445,-4.60204 12.781626,-19.70078 -16.11101,-47.31782 -33.31001,-66.34391 -23.07106,-23.4038 -68.02335,-46.42287 -33.73489,-81.67356 24.82253,-30.40928 30.07884,-70.09485 30.00617,-108.02502 2.63316,-23.83654 -5.92605,-55.38484 -11.58781,-72.64326 5.7758,-8.29832 -3.378,-53.55935 7.95681,-39.39624 6.7287,27.31698 4.26097,55.58903 9.45443,83.71805 -1.75667,15.31243 8.56155,33.80714 6.07037,40.36176 -10.07874,16.5503 17.42396,51.23451 33.750323,54.35386 2.351718,-28.43306 -8.776623,-59.91114 -5.191686,-90.3097 5.425014,-42.18268 2.237412,-85.53334 -4.499067,-127.52422 -5.21409,-28.01443 -13.01954,-56.84913 -35.23999,-76.54026 -18.57397,-10.84928 -63.38327,-36.36733 -36.24412,-58.59038 19.67958,-14.53826 -14.69373,-48.83102 -29.39588,-54.687534 -10.05713,-5.015926 -19.2012,-14.794883 -31.49981,-12.630834 z M -7.8828125,716.82617 c 12.572339,18.80967 14.8538944,57.0071 -18.5099335,40.57346 -50.286096,-3.00223 -100.632924,12.15336 -150.443624,2.30757 -15.97344,-8.69363 7.35241,-50.28263 20.34792,-37.19911 -30.10241,34.33408 43.56678,20.13611 47.58141,-4.38131 33.672086,-0.63424 67.353713,-0.56499 101.0242275,-1.30061 z m -35.7558595,53.16211 c 32.346327,-10.06546 59.818836,15.39036 49.5004135,48.18707 7.0768815,15.91134 12.3666585,53.8198 -16.0108005,40.41076 -3.860321,-21.43711 -10.937592,-39.95088 -36.871419,-31.88508 -34.548567,7.25446 -69.803452,3.06494 -104.496452,7.33257 -28.7756,1.01559 5.14186,42.5332 -25.87355,26.43774 -19.27793,-22.10437 -16.03939,-61.28898 -13.61384,-87.3523 31.43824,-1.19914 63.89145,8.40617 96.148494,0.10901 17.012882,-1.78572 34.086026,-3.55357 51.217154,-3.23977 z"
             id="path5146"
             inkscape:connector-curvature="0" />
          <path
             inkscape:connector-curvature="0"
             style="fill:#000000;fill-opacity:1"
             d="m -238.02539,102.35938 0,1.95703 c 0,1.40947 -0.33722,2.19426 -1.20313,2.80078 -1.39906,0.97992 -1.85583,1.04198 -2.30664,0.3125 -0.43165,-0.69839 0.37535,-2.13768 2.10743,-3.75781 z"
             id="path5144" />
          <path
             style="fill:#000000;fill-opacity:1"
             d="m -823.18945,134.26562 c -18.32756,3.05788 -43.89398,9.11146 -39.07033,32.0918 -2.54131,15.07689 -12.8687,58.25371 11.51082,52.32722 15.78504,-18.68585 17.98137,28.09432 -2.02449,28.12982 -25.51972,-0.15136 -33.65802,28.99827 -41.2349,48.72599 -4.25473,16.97331 -6.89743,42.00504 -4.10257,53.92964 -3.53198,17.06721 -0.94101,40.1917 -2.21154,58.08851 -1.88666,18.55085 6.3722,37.13572 -4.08591,54.73243 -9.71147,21.92948 -16.60008,46.21726 -10.98438,70.12304 0.78836,13.94476 14.45073,35.9917 25.57903,13.8045 8.03297,-21.25289 12.75481,-45.25044 6.55887,-68.38466 4.57352,-31.61974 8.70305,-63.34793 13.15937,-94.92121 3.15592,-12.00897 3.57479,-37.77939 10.95664,-42.99277 4.02307,13.97556 -1.86406,43.9359 0.31091,46.83272 -5.59153,20.50832 -5.97974,44.12342 -8.21716,65.61064 2.45223,6.53436 -2.58186,14.63314 -1.71094,28.6543 -1.29954,12.35459 -2.30621,19.04118 -1.09385,27.88814 -0.23931,26.38032 8.25696,52.16528 8.08085,78.65117 1.45516,23.27684 7.99386,46.05798 16.15769,68.19789 6.58953,30.95387 -0.91998,63.26052 9.08578,93.61241 16.16585,25.41907 -9.01068,45.08107 -26.17116,60.07034 -7.41181,9.91251 20.59893,14.01161 28.21159,12.85827 16.0033,-3.6149 27.34747,-18.74894 40.69199,-23.86611 11.69898,3.03833 16.65836,23.81976 32.95508,22.21289 23.96572,8.22259 43.93931,-18.6555 21.31006,-35.8025 -9.51646,-22.57518 -12.92134,-47.33677 -10.12975,-71.73068 -0.38269,-20.00267 2.82105,-40.32109 5.04536,-60.68703 3.17656,-13.00299 2.5176,-20.36503 4.4346,-33.02849 -4.25589,-14.68089 5.42781,-13.94216 3.74542,-31.28868 -7.57418,-10.37179 6.81611,-9.77206 3.25275,-23.35713 -2.86314,-14.24736 5.89375,-21.45531 4.65039,-35.73438 -0.51376,-16.51337 4.29559,-19.57972 5.41797,-29.91797 1.59908,-14.58416 11.3555,-13.01179 11.02149,1.16016 1.11034,6.96083 0.1817,31.67463 16.98632,23.98047 17.91038,21.23711 36.14953,4.52373 25.36542,-18.29691 -16.17223,-18.78802 -16.9532,-44.59445 -23.89471,-67.82028 -2.14951,-30.55875 -7.33916,-60.78473 -7.78689,-91.46101 -3.72542,-12.81298 0.4512,-33.48081 -10.58222,-44.52141 12.0531,6.84571 -2.17904,-16.27568 -5.15053,-8.55284 -3.69658,13.7568 -5.69199,-16.76706 -0.61511,-14.8267 16.6004,11.19221 -0.20061,-18.76188 -1.15819,-18.4603 7.16157,-14.39224 -21.01248,-26.20651 -35.29492,-27.3711 -26.11841,-5.89379 -11.1055,-26.63764 -7.5293,-42.88281 -16.50828,-12.79446 -14.21572,-41.55213 -33.81108,-49.75509 -8.99107,-2.58458 -18.31445,-5.08099 -27.62847,-6.02229 z"
             id="path5142"
             inkscape:connector-curvature="0" />
          <path
             inkscape:connector-curvature="0"
             style="fill:#000000;fill-opacity:1"
             d="m -125.55273,235.20312 c 0.1232,0.0251 0.23469,0.23346 0.38867,0.63477 0.43863,1.14305 0.16403,1.53472 -0.70117,1 -0.40184,-0.24835 -0.45574,-0.6766 -0.14844,-1.17383 0.20313,-0.32866 0.33773,-0.486 0.46094,-0.46094 z"
             id="path5140" />
          <path
             inkscape:connector-curvature="0"
             style="fill:#000000;fill-opacity:1"
             d="m -256.7168,240.25 c 0.12226,-0.0406 0.30312,0.0683 0.56446,0.28516 0.44643,0.3705 0.81054,0.97802 0.81054,1.35156 0,0.37354 -0.36411,0.98301 -0.81054,1.35351 -0.69691,0.5784 -0.8125,0.38642 -0.8125,-1.35351 0,-1.08745 0.0443,-1.56897 0.24804,-1.63672 z"
             id="path5138" />
          <path
             inkscape:connector-curvature="0"
             style="fill:#000000;fill-opacity:1"
             d="m -129.30273,242.1582 c 3.17638,0 3.2061,0.0142 3.58007,1.75782 0.54323,2.53274 0.70181,2.6544 2.18946,1.67968 1.73348,-1.13583 1.94922,-0.848 1.19922,1.59571 -0.33787,1.10093 -0.87715,1.98966 -1.19922,1.97656 -1.92093,-0.0785 -8.97461,-5.24808 -8.97461,-6.57813 0,-0.23721 1.44302,-0.43164 3.20508,-0.43164 z"
             id="path5136" />
          <path
             inkscape:connector-curvature="0"
             style="fill:#000000;fill-opacity:1"
             d="m -118.66211,252.6582 c 0.0619,-0.0183 0.13002,-0.007 0.20117,0.0371 0.28466,0.1759 0.38058,0.67638 0.21289,1.11328 -0.42922,1.11855 -0.73047,0.98626 -0.73047,-0.32031 0,-0.4596 0.13084,-0.77503 0.31641,-0.83007 z"
             id="path5134" />
          <path
             inkscape:connector-curvature="0"
             style="fill:#000000;fill-opacity:1"
             d="m -258.07812,270.29492 c 0.28003,0 0.65982,0.24535 0.84374,0.54297 0.18393,0.29762 -0.0457,0.54102 -0.50976,0.54102 -0.46395,0 -0.84375,-0.2434 -0.84375,-0.54102 0,-0.29762 0.22969,-0.54297 0.50977,-0.54297 z"
             id="path5132" />
          <path
             inkscape:connector-curvature="0"
             style="fill:#000000;fill-opacity:1"
             d="m -259.29492,297.41211 c 0.2691,0 0.77286,0.16045 1.51758,0.48047 1.04339,0.44839 1.0415,0.4672 -0.10157,0.5039 -0.65205,0.0209 -1.33756,-0.20628 -1.52148,-0.5039 -0.19778,-0.32002 -0.16364,-0.48047 0.10547,-0.48047 z"
             id="path5130" />
          <path
             inkscape:connector-curvature="0"
             style="fill:#000000;fill-opacity:1"
             d="m -895.39648,344.98828 c 1.2732,-0.0243 2.61523,0.55196 2.61523,1.12305 0,0.73899 -1.29416,0.57445 -2.4668,-0.3125 -0.90609,-0.68533 -0.92712,-0.79575 -0.14843,-0.81055 z"
             id="path5128" />
          <path
             inkscape:connector-curvature="0"
             style="fill:#000000;fill-opacity:1"
             d="m -256.70898,347.66793 c 0.29104,-0.0491 0.55664,0.14932 0.55664,0.63867 0,0.34721 -0.32809,0.74152 -0.72852,0.875 -0.45512,0.15172 -0.65788,-0.0959 -0.54102,-0.66016 0.10504,-0.50707 0.42185,-0.80441 0.7129,-0.85351 z"
             id="path5126" />
          <path
             inkscape:connector-curvature="0"
             style="fill:#000000;fill-opacity:1"
             d="m -267.04883,354.20894 1.25391,1.84571 c 1.54503,2.27375 1.54478,2.25432 -0.0488,2.65429 -0.7164,0.17981 -1.64144,0.45591 -2.05664,0.61524 -1.36449,0.52359 -1.45893,-0.36 -0.29492,-2.75586 z"
             id="path5124" />
          <path
             inkscape:connector-curvature="0"
             style="fill:#000000;fill-opacity:1"
             d="m -265.97266,362.47848 c 0.0753,-0.0105 0.17684,0.0926 0.3086,0.30078 0.26548,0.41943 0.3562,1.08733 0.20312,1.48632 -0.43912,1.14428 -0.70431,0.8542 -0.69531,-0.76171 0.004,-0.67687 0.0581,-1.00785 0.18359,-1.02539 z"
             id="path5122" />
          <path
             inkscape:connector-curvature="0"
             style="fill:#000000;fill-opacity:1"
             d="m -258.40234,367.4609 c 0.35144,0.004 0.35546,1.01467 0.35546,4.21094 0,2.57586 -0.10831,4.68359 -0.24023,4.68359 -0.13193,0 -0.61872,-0.54168 -1.08203,-1.20313 -1.24556,-1.77832 -1.10538,-5.96583 0.24023,-7.18359 0.3357,-0.30383 0.56682,-0.50973 0.72657,-0.50781 z"
             id="path5120" />
          <path
             inkscape:connector-curvature="0"
             style="fill:#000000;fill-opacity:1"
             d="m -153.24023,372.63277 c 0.29542,0.0446 0.84966,0.22838 1.71289,0.5293 0.9369,0.32661 1.56836,0.81341 1.40234,1.08203 -0.4987,0.80693 -1.63433,0.5549 -2.67383,-0.59375 -0.70792,-0.78226 -0.93378,-1.09198 -0.4414,-1.01758 z"
             id="path5118" />
          <path
             inkscape:connector-curvature="0"
             style="fill:#000000;fill-opacity:1"
             d="m 479.5,387.17773 c -1.8037,0 -3.24609,0.24039 -3.24609,0.54102 0,0.30062 1.44239,0.54102 3.24609,0.54102 1.8038,0 3.24805,-0.2404 3.24805,-0.54102 0,-0.30063 -1.44425,-0.54102 -3.24805,-0.54102 z"
             id="path5116" />
          <path
             inkscape:connector-curvature="0"
             style="fill:#000000;fill-opacity:1"
             d="m -249.80078,391.37891 c 0.83699,0.0949 1.60943,2.14694 0.95117,3.37695 -0.31807,0.59432 -0.78131,1.08008 -1.03125,1.08008 -0.78625,0 -1.1806,-3.34629 -0.49219,-4.17578 0.18308,-0.2206 0.37912,-0.30315 0.57227,-0.28125 z"
             id="path5114" />
          <path
             inkscape:connector-curvature="0"
             style="fill:#000000;fill-opacity:1"
             d="m -254.05273,394.91797 c 0.17837,0.0308 0.50623,0.31791 1.10546,0.88086 0.72202,0.67829 1.55187,1.08471 1.84375,0.90429 0.30999,-0.19155 0.41282,0.1263 0.2461,0.76368 -0.15698,0.60027 -0.46521,1.20288 -0.6836,1.33789 -0.62072,0.3836 -2.71875,-2.1109 -2.71875,-3.23242 0,-0.4594 0.0287,-0.68513 0.20704,-0.6543 z"
             id="path5112" />
          <path
             inkscape:connector-curvature="0"
             style="fill:#000000;fill-opacity:1"
             d="m -282.91797,399.62305 c -0.63025,0 -1.70688,3.2487 -1.29687,3.91211 0.18334,0.2967 0.80821,-0.21215 1.38867,-1.12891 0.98938,-1.5626 0.9485,-2.7832 -0.0918,-2.7832 z"
             id="path5110" />
          <path
             inkscape:connector-curvature="0"
             style="fill:#000000;fill-opacity:1"
             d="m -257.49609,413.42188 -0.004,3.06835 c -0.003,1.68694 0.14643,3.46172 0.33203,3.94532 0.30665,0.79917 0.4424,0.79268 1.48828,-0.084 0.63284,-0.53051 1.22792,-1.00684 1.32422,-1.05664 0.0963,-0.0498 -0.57047,-1.39023 -1.48242,-2.98047 z"
             id="path5108" />
          <path
             inkscape:connector-curvature="0"
             style="fill:#000000;fill-opacity:1"
             d="m -253.16602,426.76172 c 0.23653,-0.0411 0.51479,0.0973 0.91797,0.35351 0.76536,0.4863 1.09593,3.3471 0.49805,4.31446 -0.49426,0.80093 -1.39916,0.80118 -2.56836,0.004 -0.78731,-0.53701 -0.79212,-0.79159 -0.0527,-2.67382 0.53486,-1.3617 0.81087,-1.9296 1.20507,-1.99805 z"
             id="path5106" />
          <path
             inkscape:connector-curvature="0"
             style="fill:#000000;fill-opacity:1"
             d="m -127.37695,433.80664 c 0.34484,0.007 0.65875,0.0777 0.89648,0.22461 0.4527,0.27981 0.0604,0.64164 -1.18555,1.0918 -2.48818,0.89891 -2.69619,0.89355 -2.33007,-0.0605 0.28108,-0.73252 1.5846,-1.2773 2.61914,-1.25586 z"
             id="path5104" />
          <path
             inkscape:connector-curvature="0"
             style="fill:#000000;fill-opacity:1"
             d="m -124.45703,435.87891 c 0.84296,0 1.82148,1.58483 1.49805,2.42773 -0.33209,0.86542 -1.01096,1.05936 -1.61133,0.45898 -0.53203,-0.53197 -0.43974,-2.88671 0.11328,-2.88671 z"
             id="path5102" />
          <path
             inkscape:connector-curvature="0"
             style="fill:#000000;fill-opacity:1"
             d="m 462.5918,447.26172 c 3.3623,-0.0191 4.49056,0.64019 2.16406,1.26367 -1.8106,0.48522 -2.69486,0.38589 -4.19336,-0.4707 -1.2824,-0.73303 -1.1767,-0.77457 2.0293,-0.79297 z"
             id="path5100" />
          <path
             inkscape:connector-curvature="0"
             style="fill:#000000;fill-opacity:1"
             d="m -861.78125,450.48828 c 13.50174,8.18508 14.18444,3.26131 0.78516,1.51953 -2.03329,-0.20221 -2.71409,-1.51953 -0.78516,-1.51953 z"
             id="path5098" />
          <path
             inkscape:connector-curvature="0"
             style="fill:#000000;fill-opacity:1"
             d="m -115.89453,458.11914 c 1.06591,0.009 1.51295,0.37777 2.5,1.55078 1.17737,1.39928 1.45117,2.26959 1.45117,4.61524 0,1.58976 -0.1494,3.27532 -0.33008,3.74609 -0.38907,1.0139 -2.85052,1.15295 -3.18164,0.17969 -0.12656,-0.37202 -0.72597,-2.13813 -1.33203,-3.92383 -0.606,-1.7857 -1.62417,-3.67879 -2.26367,-4.20703 -1.45578,-1.20259 -1.13025,-1.53218 1.8418,-1.86719 0.53602,-0.0604 0.95915,-0.0969 1.31445,-0.0937 z"
             id="path5096" />
          <path
             inkscape:connector-curvature="0"
             style="fill:#000000;fill-opacity:1"
             d="m -105.17969,467.73047 1.75781,0.96484 c 0.96726,0.53116 1.75977,1.15719 1.75977,1.39063 0,0.61466 -0.1045,0.56117 -1.89453,-0.96875 z"
             id="path5094" />
          <path
             inkscape:connector-curvature="0"
             style="fill:#000000;fill-opacity:1"
             d="m -265.58008,475.10938 0.79102,1.82226 c 0.43479,1.00145 0.78906,1.91469 0.78906,2.0293 0,0.11464 -0.36413,0.20703 -0.81055,0.20703 -0.58095,0 -0.80621,-0.57687 -0.79101,-2.0293 z"
             id="path5092" />
          <path
             inkscape:connector-curvature="0"
             style="fill:#000000;fill-opacity:1"
             d="m -262.65234,479.93945 c 0.17047,-0.0138 0.43023,0.0722 0.75586,0.27344 0.46526,0.28749 0.51978,0.56635 0.15625,0.79102 -0.30887,0.19085 -0.7247,0.084 -0.92383,-0.23829 -0.31064,-0.50258 -0.2724,-0.80311 0.0117,-0.82617 z"
             id="path5090" />
          <path
             inkscape:connector-curvature="0"
             style="fill:#000000;fill-opacity:1"
             d="m -266.70508,480.24997 c 0.29762,0 0.54102,0.2434 0.54102,0.54102 0,0.29762 -0.2434,0.54296 -0.54102,0.54296 -0.29761,0 -0.54101,-0.24534 -0.54101,-0.54296 0,-0.29762 0.2434,-0.54102 0.54101,-0.54102 z"
             id="path5088" />
          <path
             inkscape:connector-curvature="0"
             style="fill:#000000;fill-opacity:1"
             d="m -262.39258,510.5527 c 0.28826,0 0.38421,0.36607 0.21289,0.8125 -0.17132,0.44642 -0.4084,0.8125 -0.52539,0.8125 -0.11696,0 -0.21289,-0.36608 -0.21289,-0.8125 0,-0.44643 0.23713,-0.8125 0.52539,-0.8125 z"
             id="path5086" />
          <path
             inkscape:connector-curvature="0"
             style="fill:#000000;fill-opacity:1"
             d="m 458.9375,514.41208 c 0.2452,0 0.49168,0.0363 0.67773,0.11133 0.372,0.15011 0.0664,0.27344 -0.67773,0.27344 -0.7444,-10e-6 -1.04778,-0.12333 -0.67578,-0.27344 0.18605,-0.0751 0.43058,-0.11133 0.67578,-0.11133 z"
             id="path5084" />
          <path
             inkscape:connector-curvature="0"
             style="fill:#000000;fill-opacity:1"
             d="m -862.25195,553.01755 c 0.19835,-0.01 0.56975,0.12944 1.13867,0.38867 0.75175,0.34248 1.28626,0.87172 1.18555,1.17383 -0.34172,1.02515 -1.3944,0.9572 -1.97461,-0.12696 -0.52875,-0.98797 -0.6802,-1.41958 -0.34961,-1.43554 z"
             id="path5082" />
          <path
             inkscape:connector-curvature="0"
             style="fill:#000000;fill-opacity:1"
             d="m -258.77148,587.93356 c -0.59654,0 -1.98047,2.09796 -1.98047,3.00196 0,0.71753 1.66456,0.0961 2.14453,-0.80078 0.76174,-1.42331 0.70422,-2.20118 -0.16406,-2.20118 z"
             id="path5080" />
          <path
             inkscape:connector-curvature="0"
             style="fill:#000000;fill-opacity:1"
             d="m 468.05273,589.83005 c 0.0506,-0.005 0.0917,6.3e-4 0.11915,0.0176 0.2193,0.13549 0.90052,1.09993 1.51562,2.14257 1.0526,1.78396 0.87602,2.17447 -0.73828,1.62696 -0.2976,-0.10092 -1.51468,-0.34818 -2.70508,-0.55078 l -2.16602,-0.36914 1.84766,-1.54688 c 0.88874,-0.74474 1.77278,-1.28742 2.12695,-1.32031 z"
             id="path5078" />
          <path
             inkscape:connector-curvature="0"
             style="fill:#000000;fill-opacity:1"
             d="m 587.4707,610.08005 c -1.87064,0.10485 -5.1044,1.80549 -11.5664,5.49414 -16.7303,9.55 -30.18663,18.99003 -40.60742,28.49023 l -3.45704,3.15235 -0.64257,4.43554 c -0.4563,3.1456 -0.47355,4.50644 -0.0606,4.67774 0.3203,0.1328 2.16511,0.25448 4.09961,0.27148 4.7977,0.042 7.11088,-1.12698 12.77148,-6.45898 8.3677,-7.8818 14.00454,-11.74356 33.49414,-22.94336 11.3408,-6.517 15.32835,-9.28379 15.40235,-10.6836 0.0107,-0.20208 -1.25782,-0.63223 -2.82032,-0.95703 -2.6718,-0.5553 -2.90079,-0.73592 -3.84179,-3.01562 -0.686,-1.66202 -1.31654,-2.54444 -2.77149,-2.46289 z"
             id="path5076" />
          <path
             inkscape:connector-curvature="0"
             style="fill:#000000;fill-opacity:1"
             d="m 278.5332,623.67575 c -0.82685,0.0585 -0.90702,0.74418 -1.70508,6.74414 l -0.36132,2.71094 7.22656,8.13086 c 12.81938,14.4221 15.86913,18.22498 21.24414,26.48828 2.90382,4.4642 5.67312,8.42097 6.15234,8.79297 0.90346,0.7013 9.54922,0.97037 11.17188,0.34765 1.74993,-0.67149 0.97608,-3.23162 -2.05469,-6.79882 -1.60063,-1.8839 -3.94335,-5.12959 -5.20508,-7.21289 -3.90316,-6.4446 -7.0925,-10.63359 -11.89062,-15.61719 -2.53883,-2.6369 -5.84349,-6.52929 -7.34571,-8.65039 -3.12432,-4.4114 -14.93301,-14.89155 -16.82812,-14.93555 -0.1529,-0.004 -0.28617,-0.008 -0.4043,0 z"
             id="path5074" />
          <path
             inkscape:connector-curvature="0"
             style="fill:#000000;fill-opacity:1"
             d="m -149.17773,626.39645 c 0.80086,-0.0242 1.61635,0.21581 1.8125,0.53321 l 0,0.002 c 0.5737,0.9283 0.0884,0.99552 -1.64649,0.22852 l -1.62305,-0.71875 z"
             id="path5072" />
          <path
             inkscape:connector-curvature="0"
             style="fill:#000000;fill-opacity:1"
             d="m -176.25781,648.082 c 0.3749,0.0343 0.23404,0.36374 -0.15821,1.22461 -0.73186,1.6063 -0.89775,1.64752 -2.3164,0.57422 -1.24177,-0.9394 -1.12471,-1.09875 1.18554,-1.59375 0.65322,-0.13999 1.06412,-0.22565 1.28907,-0.20508 z"
             id="path5070" />
          <path
             inkscape:connector-curvature="0"
             style="fill:#000000;fill-opacity:1"
             d="m -114.58594,656.00192 c 0.83557,-0.0436 1.4187,0.37292 0.6211,0.80469 -1.18099,0.6394 -2.30408,0.83697 -2.54493,0.44727 -0.14903,-0.2411 0.32086,-0.70917 1.04493,-1.03907 0.2927,-0.13337 0.60038,-0.19834 0.8789,-0.21289 z"
             id="path5068" />
          <path
             inkscape:connector-curvature="0"
             style="fill:#000000;fill-opacity:1"
             d="m -250.30078,662.68747 c 0.13901,0.0264 0.40373,0.35396 0.91211,1.00391 0.58198,0.744 1.05773,1.59497 1.05273,1.89257 -0.003,0.2976 -0.33167,0.97255 -0.73047,1.49805 -0.66293,0.8736 -0.75368,0.80966 -1.06445,-0.74414 -0.18695,-0.9348 -0.33412,-2.21711 -0.32812,-2.84961 0.006,-0.5524 0.0192,-0.82714 0.1582,-0.80078 z"
             id="path5066" />
          <path
             inkscape:connector-curvature="0"
             style="fill:#000000;fill-opacity:1"
             d="m -139.67578,663.21481 c 0.0917,0.008 0.13476,0.11612 0.13476,0.32422 0,0.3328 0.14745,0.99014 0.32813,1.46094 0.18062,0.4708 0.0847,0.85547 -0.21289,0.85547 -0.81791,0 -1.31008,-1.72708 -0.67383,-2.36328 0.19221,-0.19235 0.33216,-0.28491 0.42383,-0.27735 z"
             id="path5064" />
          <path
             inkscape:connector-curvature="0"
             style="fill:#000000;fill-opacity:1"
             d="m 215.19531,670.45505 -0.62304,4.32812 c -0.34253,2.381 -0.59285,4.36902 -0.55665,4.41602 0.0361,0.0471 3.23059,1.21611 7.09961,2.59961 13.0251,4.6575 16.49501,6.7256 29.22071,17.4082 6.24995,5.2466 11.96159,9.93226 12.6914,10.41406 0.72981,0.4818 2.79968,1.02142 4.59961,1.19922 l 0,-0.002 c 1.79993,0.1778 7.17528,0.3593 11.94532,0.4043 7.07017,0.0673 8.8946,-0.0731 9.875,-0.75977 2.24235,-1.5706 1.29501,-3.48633 -1.72461,-3.48633 -0.92953,0 -1.51571,-0.63688 -2.48438,-2.70508 l -1.26758,-2.70507 -5.99414,0 c -3.29732,-0.002 -6.90394,-0.25626 -8.01367,-0.56446 -1.82223,-0.5061 -10.85355,-7.44171 -23.32617,-17.91211 -6.50552,-5.4611 -22.09233,-12.33041 -28.44531,-12.53711 z"
             id="path5062" />
          <path
             inkscape:connector-curvature="0"
             style="fill:#000000;fill-opacity:1"
             d="m -215.15039,678.96677 c 0.13926,-0.024 0.40838,0.2122 0.93359,0.6875 0.59523,0.5387 1.08203,1.06331 1.08203,1.16601 0,0.1027 -0.4868,0.18555 -1.08203,0.18555 -0.74745,0 -1.08203,-0.36062 -1.08203,-1.16602 0,-0.5659 0.009,-0.84902 0.14844,-0.87304 z"
             id="path5060" />
          <path
             inkscape:connector-curvature="0"
             style="fill:#000000;fill-opacity:1"
             d="m -96.429688,679.00387 c 0.138352,0.0244 -0.0043,0.25143 -0.404296,0.77343 -0.40432,0.5277 -0.804472,1.0595 -0.888672,1.1836 -0.08424,0.1239 -0.152344,-0.15299 -0.152344,-0.61719 0,-0.4642 0.400142,-0.99805 0.888672,-1.18555 0.289991,-0.11126 0.473631,-0.16894 0.55664,-0.15429 z"
             id="path5058" />
          <path
             inkscape:connector-curvature="0"
             style="fill:#000000;fill-opacity:1"
             d="m -103.45312,682.09762 c 0.35443,-0.005 0.79458,0.2356 0.97851,0.5332 0.4152,0.6718 0.22705,0.6718 -0.8125,0 -0.48771,-0.3152 -0.55324,-0.5332 -0.16601,-0.5332 z"
             id="path5056" />
          <path
             inkscape:connector-curvature="0"
             style="fill:#000000;fill-opacity:1"
             d="m -109.86133,695.56051 c 0.23867,0.0167 0.52035,0.12141 0.81641,0.33789 0.54871,0.4012 0.83683,0.98924 0.64062,1.30664 -0.4757,0.7696 -1.11843,0.72851 -1.82031,-0.11719 -0.69817,-0.8409 -0.35273,-1.57743 0.36328,-1.52734 z"
             id="path5054" />
          <path
             inkscape:connector-curvature="0"
             style="fill:#000000;fill-opacity:1"
             d="m 617.49609,696.69137 -31.23828,0.13867 -31.24023,0.14062 -0.40039,2.4336 c -0.2204,1.3393 -0.54009,3.20864 -0.70899,4.15234 -0.2413,1.3493 -0.10135,1.76774 0.65625,1.96484 0.5299,0.1379 15.95525,0.27946 34.27735,0.31446 l 33.3125,0.0625 1.45508,-1.51758 c 0.7998,-0.8347 1.45312,-1.6783 1.45312,-1.875 0,-0.1966 -1.18235,-0.51543 -2.62695,-0.70703 -2.4471,-0.3246 -2.70581,-0.51082 -3.78321,-2.72852 z"
             id="path5052" />
          <path
             inkscape:connector-curvature="0"
             style="fill:#000000;fill-opacity:1"
             d="m -546.47852,703.81055 c -1.71599,-0.009 -3.38619,-0.008 -5.00195,0.002 -10.77172,0.0696 -19.16181,0.56313 -23.12305,1.42969 -4.44483,0.9724 -8.40019,1.2092 -29.2207,1.7539 -22.58191,0.5909 -24.20318,0.69828 -26.06445,1.73438 -1.90137,1.0584 -2.62771,1.0949 -17.31445,0.8457 -21.3452,-0.3621 -29.67726,0.21641 -38.30665,2.66211 -4.21063,1.1934 -5.55111,2.78029 -6.99023,8.27149 -2.56542,9.7886 -5.06611,16.98588 -6.83594,19.67578 -1.006,1.5288 -2.36122,4.21856 -3.01172,5.97656 -0.9544,2.5792 -2.20575,4.26124 -6.48046,8.71094 -3.96317,4.1255 -5.44756,6.06739 -5.89063,7.71289 -0.45046,1.6729 -0.33471,6.51953 0.48437,20.24023 1.22799,20.5693 1.5292,24.21338 2.24219,27.23828 0.2806,1.1905 0.73475,5.81705 1.00977,10.28125 0.54787,8.8931 2.74337,24.25782 4.13672,28.94922 0.57839,1.9474 0.91611,5.31424 0.97851,9.74024 0.0919,6.5218 0.16602,6.91975 2.05664,11.09375 1.07845,2.3809 2.12935,5.00106 2.33399,5.82226 0.48109,1.9307 0.91271,2.15662 2.77344,1.44922 1.336,-0.508 2.04451,-0.31842 5.54882,1.48438 l 4.01758,2.0664 14.6543,-0.0137 c 13.20536,-0.0123 15.15524,-0.13289 19.74219,-1.21289 2.79953,-0.6592 5.21079,-1.31814 5.35742,-1.46484 0.29629,-0.2962 -0.92089,-23.30918 -1.30664,-24.70508 -0.70138,-2.5382 11.8484,-3.87125 31.17383,-3.31055 10.38611,0.3013 30.01769,-1.003 39.50195,-2.625 3.42259,-0.5853 9.99631,-1.29658 14.60937,-1.58008 4.61306,-0.2835 11.02987,-0.78378 14.25977,-1.11328 6.91855,-0.7058 9.1211,-0.40503 10.57812,1.44727 1.01856,1.2949 1.48946,3.06453 4.58985,17.26953 0.71554,3.2784 2.19297,8.81818 3.2832,12.31054 l 0,0.002 1.98242,6.34961 2.01953,0 c 4.95317,0 28.267,-3.62273 43.57032,-6.76953 9.8861,-2.0329 11.69988,-3.54413 12.12109,-10.10743 0.28789,-4.4859 -0.39539,-6.711 -3.0918,-10.0664 -1.71402,-2.1328 -9.35283,-20.51378 -9.9414,-23.92188 -0.74642,-4.3222 -2.05419,-21.8619 -1.72852,-23.1875 0.19378,-0.7888 0.74692,-2.04341 1.22852,-2.78711 0.52129,-0.8048 0.82188,-2.23289 0.74218,-3.52929 -0.0736,-1.1978 0.13213,-2.87587 0.45704,-3.73047 1.51614,-3.9876 1.71209,-9.1833 0.62695,-16.625 -0.57987,-3.9767 -1.21793,-9.29843 -1.41602,-11.82813 -0.25596,-3.2689 -0.89597,-6.0096 -2.21289,-9.4707 -2.23765,-5.8811 -9.25346,-28.3736 -10.38086,-33.2793 -1.67942,-7.3076 -2.33141,-9.05649 -5.11523,-13.74609 l -2.85938,-4.81836 -4.87109,-1.90234 -4.86914,-1.90039 -13.5293,-0.48047 c -5.80235,-0.20538 -11.36958,-0.31767 -16.51758,-0.34375 z m 27.98633,17.05273 c 2.7608,0.0401 3.95313,0.21967 3.95313,0.54297 0,0.1286 1.60153,9.02398 3.55859,19.76758 3.8843,21.3234 3.87847,20.72923 0.23047,20.24023 -1.04166,-0.1396 -3.15641,-0.41974 -4.69922,-0.62304 -1.65428,-0.218 -3.50474,-0.12567 -4.50976,0.2246 -1.34443,0.46862 -2.86496,0.3682 -7.20508,-0.4746 -5.13789,-0.9976 -6.41406,-1.03125 -19.30078,-0.49805 -7.58922,0.3143 -15.3819,0.41777 -17.31641,0.23047 -4.6523,-0.4507 -19.68894,0.85354 -43.55859,3.77734 -21.17499,2.5938 -24.84665,2.90289 -31.38672,2.64649 -5.91343,-0.2319 -27.45931,-1.74158 -34.09375,-2.38868 -5.75871,-0.5618 -13.54457,-2.22642 -15.70313,-3.35742 l -1.30468,-0.68359 2.42578,-7.2461 c 1.33438,-3.9856 3.37088,-8.97383 4.52539,-11.08593 2.20565,-4.035 3.83789,-9.99483 3.83789,-14.01563 l 0,-2.38672 5.27539,-0.33593 c 2.90176,-0.1846 15.62474,-0.48678 28.27344,-0.67188 21.11508,-0.3089 23.28625,-0.42626 26.51562,-1.44336 3.36894,-1.0611 4.98967,-1.11597 38.41992,-1.26367 19.19627,-0.0849 41.11195,-0.38326 48.70117,-0.66406 6.27269,-0.23205 10.60054,-0.33116 13.36133,-0.29102 z m -28.98633,52.23633 c 1.81719,0.009 3.43976,0.0384 4.80274,0.0879 23.6436,0.8579 31.06199,1.41218 32.03516,2.39258 1.13862,1.1472 4.57294,14.87856 5.30859,21.22656 1.08821,9.3904 1.68223,16.19468 2.16211,24.76758 0.58281,10.4118 1.08644,13.4553 3.5918,21.7207 2.35117,7.7567 3.68283,14.09418 3.08398,14.67578 -0.56036,0.5443 -19.53785,4.3125 -21.71875,4.3125 -2.19029,0 -3.05274,-1.20824 -4.63281,-6.49414 -2.65833,-8.8929 -2.95016,-13.29536 -1.16797,-17.63086 0.64535,-1.57 0.55133,-1.86544 -1.60742,-5.08008 -2.52718,-3.76319 -5.29694,-5.76651 -8.6543,-6.25781 -1.22328,-0.179 -12.02444,0.76003 -24.63477,2.14063 -12.35109,1.3523 -26.10997,2.84897 -30.57422,3.32617 -5.52859,0.5909 -14.67196,0.92156 -28.67773,1.03906 -16.95843,0.1423 -22.99237,0.4106 -34.42383,1.5293 -16.22494,1.5878 -17.70589,2.05577 -19.52148,6.16015 -1.59538,3.60672 -1.1777,5.36204 4.09765,17.20704 1.82202,4.091 1.87727,4.37898 0.9961,5.24218 -1.3287,1.3015 -3.30462,1.54261 -5.80274,0.70704 -1.19046,-0.39821 -4.30231,-0.74263 -6.91601,-0.76563 -5.67135,-0.0496 -8.20187,-0.92111 -8.72461,-3.00391 -0.20082,-0.8002 -0.97836,-2.38202 -1.72852,-3.51562 -0.8352,-1.262 -1.66046,-3.70995 -2.1289,-6.31445 -2.63525,-14.6517 -3.53305,-20.15067 -4.27149,-26.16797 -1.30309,-10.6183 -3.01562,-35.33549 -3.01562,-43.52539 l 0,-7.44141 2.83984,0.35547 c 1.56248,0.1959 4.78899,0.8276 7.16992,1.4043 5.27339,1.2772 13.27751,2.09623 20.67578,2.11523 3.03842,0.008 7.30084,0.2462 9.47071,0.5293 2.16988,0.2832 9.30437,0.80541 15.85547,1.16211 12.56916,0.6844 18.1813,0.32301 23.15429,-1.49219 1.42333,-0.5195 5.70945,-1.01141 11.47071,-1.31641 5.05948,-0.2677 12.60876,-0.84475 16.77539,-1.28125 9.71987,-1.01841 31.99062,-1.87988 44.71093,-1.81445 z"
             id="path5050" />
          <path
             inkscape:connector-curvature="0"
             style="fill:#000000;fill-opacity:1"
             d="m 356.01172,704.36328 c -8.37044,-0.002 -17.13718,0.16495 -18.72461,0.50195 -1.69225,0.3592 -4.78193,0.67894 -6.86523,0.71094 -4.41956,0.0677 -9.92571,2.25151 -11.59766,4.59961 -0.54984,0.7722 -2.4961,6.39509 -4.32617,12.4961 -2.14733,7.15899 -3.96717,12.14961 -5.12891,14.07031 -0.99009,1.6369 -2.55502,4.57755 -3.47852,6.53515 -1.62785,3.4509 -3.76287,6.02944 -8.69335,10.49414 -3.96549,3.5908 -3.96451,3.57078 -3.31836,21.83008 0.31261,8.8347 0.81464,18.37778 1.11523,21.20508 0.30059,2.8274 1.15946,11.10684 1.9082,18.39844 1.37694,13.409 3.11543,25.41574 5.15821,35.61914 0.85032,4.2471 1.03041,6.53319 0.75,9.52539 -0.33295,3.553 -0.23149,4.22092 1.03711,6.85742 0.7731,1.6067 1.9945,4.503 2.71289,6.4375 l 1.30468,3.51758 2.36133,0 c 1.29836,0 2.9652,0.38953 3.70313,0.86523 3.73947,2.4106 12.03768,3.33452 27.04492,3.01172 9.20744,-0.198 12.51314,-0.47442 15.85351,-1.32422 2.32142,-0.5906 4.37006,-1.22355 4.55274,-1.40625 0.18268,-0.1826 -0.0652,-6.08724 -0.55274,-13.12304 -0.48743,-7.0357 -0.77754,-12.9684 -0.64453,-13.1836 0.13295,-0.2151 1.76235,-0.81824 3.6211,-1.33984 2.58851,-0.7262 5.21933,-0.931 11.24219,-0.875 4.32485,0.0403 13.58607,-0.19117 20.58007,-0.51367 6.994,-0.3224 16.64938,-0.67772 21.45508,-0.79102 5.9313,-0.1397 11.45417,-0.65198 17.19727,-1.5918 5.7074,-0.93398 10.55654,-1.38281 14.90234,-1.38281 3.5726,0 7.96332,-0.34017 9.85742,-0.76367 1.8786,-0.4201 5.53294,-0.86347 8.11914,-0.98437 l 4.70118,-0.22071 2.24804,4.83594 c 1.7615,3.7912 2.41702,6.05516 3.0332,10.47656 0.8898,6.3847 2.69562,13.04498 5.25782,19.39258 1.4265,3.5342 1.98366,4.36403 3.03906,4.51563 1.5496,0.2226 11.03475,-1.24112 17.06055,-2.63282 2.3809,-0.55 9.68687,-1.62251 16.23437,-2.38281 2.53122,-0.29392 18.75944,-4.73182 20.54883,-4.96289 1.88602,-13.73894 -10.51557,-23.803 -8.33984,-39.01758 -0.35533,-4.59217 -4.15169,-14.44979 -2.59766,-18.33984 9.27625,1.30651 1.94336,-12.28516 1.94336,-12.28516 l 0.29883,-4.11328 c 1.7337,-23.8125 0.9302,-30.33904 -6.4336,-52.27344 -4.9811,-14.8371 -5.09441,-15.28573 -5.44531,-21.64453 -0.4909,-8.8946 -1.06503,-11.99478 -2.67383,-14.42578 -1.1448,-1.73 -1.68148,-2.07812 -3.20898,-2.07812 -1.6928,0 -2.24828,0.5114 -7.20508,6.6289 -2.9541,3.6458 -7.07977,8.94223 -9.16797,11.76953 -7.0093,9.4904 -13.04697,15.13267 -20.60937,19.25977 -2.005,1.0942 -5.22957,3.02607 -7.16407,4.29297 -1.9345,1.2668 -5.0987,3.11211 -7.0332,4.09961 -3.4436,1.7518 -3.65915,1.79472 -10.28125,1.76172 -5.7488,-0.0286 -8.08733,-0.33194 -15.58203,-2.01954 -11.302,-2.545 -15.71837,-2.9148 -39.20117,-3.2832 -11.0166,-0.1728 -20.96232,-0.58257 -23.11133,-0.95117 -2.98163,-0.5111 -4.80431,-0.50094 -8.68945,0.0488 -6.93738,0.9819 -9.56602,0.30122 -13.32227,-3.45508 -2.52222,-2.5222 -2.9787,-3.36397 -4.48047,-8.23047 -2.75993,-8.9437 -2.23909,-10.95763 4.49414,-17.35351 2.8694,-2.7257 5.51725,-4.60972 8.83985,-6.29102 2.6089,-1.3202 5.59506,-3.03846 6.63672,-3.81836 1.79668,-1.3453 5.41515,-5.4814 5.41015,-6.1875 -0.002,-0.3377 -7.97526,-0.50939 -16.3457,-0.51172 z M 460.92578,769.75 c 8.9919,0 39.91668,1.40011 42.23438,1.91211 1.6479,0.364 2.01484,1.21491 4.49804,10.37891 2.6169,9.6574 3.06336,14.04835 2.13868,21.03515 -0.66961,5.0593 -0.6524,5.31139 0.3789,6.14649 0.9463,0.7663 1.11657,1.78014 1.41797,8.43164 0.4951,10.9276 2.29568,20.14147 6.55078,33.51758 1.0382,3.26359 1.82119,5.99912 1.74219,6.07812 -0.0794,0.0794 -5.42365,1.25252 -11.87695,2.60742 -13.3075,2.794 -13.31533,2.79328 -15.05665,-1.26562 -2.7486,-6.4066 -3.8179,-14.88704 -2.5957,-20.58594 0.5014,-2.3379 0.43623,-2.96222 -0.51367,-4.82422 -2.7892,-5.4672 -6.2166,-7.66669 -11.9668,-7.67969 -6.028,-0.0136 -25.67768,2.02118 -41.48828,4.29688 -14.9385,2.1494 -15.3702,2.1814 -31.0664,2.1914 -29.90837,0.0191 -51.13065,1.14452 -61.46289,3.26172 -3.31082,0.6785 -5.31821,2.45372 -6.23438,5.51172 -0.90855,3.0324 0.019,6.89978 3.33984,13.92578 2.94126,6.2229 3.32083,8.31267 1.66797,9.19727 -1.24165,0.6645 -3.99777,0.65644 -6.25781,-0.0176 -0.89285,-0.2663 -3.44952,-0.61971 -5.68164,-0.78711 -9.17747,-0.6882 -8.40569,-0.31899 -10.85156,-5.18359 -3.25446,-6.4729 -6.41674,-23.35722 -7.83399,-41.82422 -0.43641,-5.6865 -1.14875,-13.99078 -1.58203,-18.45508 -0.43333,-4.4642 -0.95545,-12.5367 -1.16211,-17.9375 l -0.37695,-9.82031 8.875,1.83398 c 10.73735,2.2192 15.13783,2.63205 40.52734,3.78907 20.6686,0.9419 27.05319,0.73005 34.05469,-1.12305 1.6171,-0.428 5.63609,-0.92507 8.92969,-1.10547 3.2936,-0.1804 9.88468,-0.67626 14.64648,-1.10156 14.3421,-1.2813 35.36086,-2.4043 45.00586,-2.4043 z"
             id="path5048" />
          <path
             inkscape:connector-curvature="0"
             style="fill:#000000;fill-opacity:1"
             d="m 535.51683,873.88836 c -349.92578,116.91598 -174.96289,58.45799 0,0 z"
             id="path5046" />
          <path
             inkscape:connector-curvature="0"
             style="fill:#000000;fill-opacity:1"
             d="m 192.2832,739.98824 -0.31054,1.24024 c -0.17116,0.682 -0.47367,2.60754 -0.66993,4.27734 -0.31542,2.6838 -0.23734,3.06647 0.66016,3.29687 l 0,-0.006 c 0.55839,0.1433 17.82348,0.28921 38.36719,0.32421 32.9981,0.0554 37.49225,-0.0352 38.55469,-0.77929 2.36978,-1.6599 1.13194,-3.45652 -2.39649,-3.47852 -0.86737,-0.006 -1.4185,-0.62831 -2.16406,-2.4414 l -1.00195,-2.4336 -35.51954,0 z"
             id="path5040" />
          <path
             inkscape:connector-curvature="0"
             style="fill:#000000;fill-opacity:1"
             d="m 558.25977,764.3398 c -2.3529,0 -2.96074,1.17206 -3.14844,6.06446 l -0.125,3.22851 5.7207,2.02539 c 10.3193,3.6534 25.12564,11.95643 37.36914,20.95703 4.1634,3.0606 7.20379,4.86372 9.40039,5.57422 3.5437,1.1463 9.46841,1.43948 11.12891,0.55078 0.5757,-0.308 1.04492,-1.11908 1.04492,-1.80078 0,-1.3575 -1.21947,-2.6048 -4.73437,-4.8457 -1.2649,-0.8064 -2.29883,-1.69847 -2.29883,-1.98047 0,-0.5246 -17.00133,-11.91067 -25.64063,-17.17187 -11.0567,-6.7334 -24.43129,-12.60157 -28.71679,-12.60157 z"
             id="path5038" />
        </g>
        <path
           sodipodi:nodetypes="ccccccccccccccc"
           inkscape:connector-curvature="0"
           id="path5664"
           d="m 256.97526,298.69292 c -2.10595,0.67344 -4.27858,1.54784 -5.08799,3.7985 -1.0349,2.04711 -2.58059,4.04532 -5.03333,4.31395 -2.54245,0.56316 -5.11384,-0.2528 -7.69018,-0.0627 -3.58964,-0.0487 -6.1116,-2.91635 -8.32955,-5.36849 -0.54759,-0.83059 -1.37965,-4.09603 -1.03106,-4.15848 1.76032,1.57978 4.02416,3.77947 6.4682,3.5103 1.81962,0.20042 3.54912,-0.0675 4.7532,-1.57667 2.02962,-1.8058 3.40272,-4.50114 2.91633,-7.27116 -0.0645,-2.56067 -1.09716,-4.8584 -2.41145,-6.99582 -0.68466,-2.37366 -1.46987,-4.76779 -1.68026,-7.25899 0.0969,-2.58627 -0.43082,-5.48337 1.25557,-7.70865 0.96772,-2.81068 3.35079,-4.71348 4.98677,-7.08387 1.81009,-1.77546 3.76627,-3.45111 5.84317,-4.88766 l 0.32117,-0.15188"
           style="fill:none;fill-rule:evenodd;stroke:#000000;stroke-width:0.51173639;stroke-linecap:butt;stroke-linejoin:miter;stroke-miterlimit:4;stroke-dasharray:none;stroke-opacity:1" />
      </g>
    </g>
  </g>
</svg>
