<?xml version="1.0" encoding="UTF-8" standalone="no"?>
<!-- Created with Inkscape (http://www.inkscape.org/) -->

<svg
   xmlns:dc="http://purl.org/dc/elements/1.1/"
   xmlns:cc="http://creativecommons.org/ns#"
   xmlns:rdf="http://www.w3.org/1999/02/22-rdf-syntax-ns#"
   xmlns:svg="http://www.w3.org/2000/svg"
   xmlns="http://www.w3.org/2000/svg"
   xmlns:sodipodi="http://sodipodi.sourceforge.net/DTD/sodipodi-0.dtd"
   xmlns:inkscape="http://www.inkscape.org/namespaces/inkscape"
   width="650pt"
   height="350pt"
   viewBox="0 0 812.49999 437.50001"
   id="svg2"
   version="1.1"
   inkscape:version="0.91 r13725"
   sodipodi:docname="tech-black.svg"
   inkscape:export-filename="/Users/julienlafosse/Desktop/principe2.png"
   inkscape:export-xdpi="300"
   inkscape:export-ydpi="300">
  <defs
     id="defs4">
    <inkscape:path-effect
       effect="sketch"
       id="path-effect6352"
       is_visible="true"
       nbiter_approxstrokes="5"
       strokelength="100"
       strokelength_rdm="0.3;1"
       strokeoverlap="0.3"
       strokeoverlap_rdm="0.3;1"
       ends_tolerance="0.1;1"
       parallel_offset="5;1"
       tremble_size="5;1"
       tremble_frequency="1"
       nbtangents="5"
       tgt_places_rdmness="1;1"
       tgtscale="10"
       tgtlength="100"
       tgtlength_rdm="0.3;1" />
    <inkscape:path-effect
       effect="bend_path"
       id="path-effect6350"
       is_visible="true"
       bendpath="m -19.833862,206.79665 352.532912,0"
       prop_scale="1"
       scale_y_rel="false"
       vertical="false" />
  </defs>
  <sodipodi:namedview
     id="base"
     pagecolor="#000000"
     bordercolor="#666666"
     borderopacity="1.0"
     inkscape:pageopacity="1"
     inkscape:pageshadow="2"
     inkscape:zoom="0.48123077"
     inkscape:cx="363.5592"
     inkscape:cy="29.667573"
     inkscape:document-units="px"
     inkscape:current-layer="g5689"
     showgrid="false"
     fit-margin-top="0"
     fit-margin-left="0"
     fit-margin-right="0"
     fit-margin-bottom="0"
     inkscape:window-width="1280"
     inkscape:window-height="980"
     inkscape:window-x="0"
     inkscape:window-y="0"
     inkscape:window-maximized="1"
     units="pt" />
  <metadata
     id="metadata7">
    <rdf:RDF>
      <cc:Work
         rdf:about="">
        <dc:format>image/svg+xml</dc:format>
        <dc:type
           rdf:resource="http://purl.org/dc/dcmitype/StillImage" />
        <dc:title></dc:title>
      </cc:Work>
    </rdf:RDF>
  </metadata>
  <g
     inkscape:label="Calque 1"
     inkscape:groupmode="layer"
     id="layer1"
     transform="translate(-124.7143,131.99499)">
    <g
       id="g3737"
       transform="matrix(6.839459,0,0,6.839459,-759.80869,-1900.3211)">
      <g
         id="g5689"
         transform="matrix(0.78176491,0,0,0.78176491,27.950858,78.753204)">
        <path
           style="fill:#000000"
           d="m 214.08894,310.84113 c -3.41127,-1.31729 2.45606,-4.76712 3.59409,-1.7893 0.7032,2.12402 -2.31557,1.95356 -3.59409,1.7893 z m 2.73825,-0.74258 c -0.93526,-1.64547 -5.80387,0.823 -0.67659,0.26231 l 0.67659,-0.2624 z m -1.79317,-1.0682 c 3.44944,-0.18439 -0.99786,-0.17173 0,0 z m 0.14041,-4.11149 c -2.65596,-3.48178 -0.81534,-9.34164 -1.26039,-13.65958 5.61209,-1.95415 2.1186,8.20508 3.51984,11.53872 0.68528,0.97427 -1.22607,2.37507 -2.25945,2.12086 z m 1.04686,-0.80368 c 0.85243,-1.51153 -2.6814,0.89539 0,0 z m -1.31171,-0.98365 c 1.27518,-2.6939 0.35971,-7.63604 0.3368,-11.09684 -1.90419,-1.08664 -0.52159,6.38804 -0.69144,8.47005 0.26045,0.54828 -0.0993,2.64915 0.35464,2.62679 z m 1.62322,-0.24828 c 0.28633,-1.94438 0.0884,-10.78578 -0.65079,-10.55797 0.83885,3.1793 -0.74748,8.18755 0.65079,10.55797 z m 25.03866,0.52351 c -5.7479,-2.52347 6.50449,-5.39574 2.94427,-0.65272 -0.9449,0.2925 -1.91287,0.86141 -2.94427,0.65272 z m 1.20673,-1.08731 c 6.52879,-1.82356 -6.65247,-0.4685 0,0 z m -48.39713,-0.63235 c -4.43925,-0.43215 -0.0368,-3.28815 1.25097,-3.80424 2.41168,1.73902 4.13229,4.20386 -1.25097,3.80424 z m 1.94404,-0.55456 c 3.25181,-1.77483 -6.75818,-0.21489 -0.78131,0.12314 l 0.78131,-0.12312 z m -2.64916,-1.10791 c 4.33019,-0.85374 -2.50514,0.13437 0,0 z m 2.52257,-0.35202 c -0.29961,-0.26478 -1.37338,0.22771 0,0 z m -0.79684,-0.84535 c -0.30326,-0.70489 -0.0474,0.70331 0,0 z m 43.29813,3.57853 c 0.5134,-0.24654 0.68616,0.34345 0,0 z m 3.07024,-2.75687 c -2.48287,-3.10875 -0.37113,-8.91155 -1.13533,-13.01965 -1.32145,-4.65619 4.61005,-5.34408 3.53468,-0.0777 -1.03777,4.12339 2.19906,10.82745 -2.04494,13.29112 l -0.35451,-0.19381 1e-4,0 z m 0.82791,-0.71544 c 1.9559,-2.29355 -2.3658,0.58237 0,0 z m -0.62047,-1.53594 c -0.006,-3.63471 0.96822,-12.41554 -0.51722,-13.37536 -0.4432,3.98885 -0.45614,10.76013 0.51722,13.37536 z m 1.22032,-0.18462 c 0.49066,-3.88333 0.83003,-10.80035 -0.32215,-13.12599 -0.1795,4.29725 -0.35285,9.29296 0.32215,13.12599 z m 29.06876,2.63173 c -3.34482,-3.18173 -10.84728,-3.26928 -11.36536,-8.36516 -0.25563,-2.1578 0.064,-2.66807 -1.29883,-1.86861 2.03487,-3.87432 -4.80086,-3.99382 -6.97266,-6.1153 -2.61764,-1.02459 -6.16653,-4.31099 -1.57317,-1.57543 3.79784,1.49334 11.533,8.57326 9.29902,0.18986 -0.8813,-3.78667 2.12874,-10.13942 -3.41843,-10.88241 -2.23328,-0.48258 -9.59497,-5.10369 -3.57023,-2.27389 2.59416,1.22573 6.22816,3.49069 6.4319,1.74222 0.37192,0.3987 0.59176,-5.74846 1.01532,-1.16187 -0.79636,3.10168 2.30746,-1.3785 0.26369,3.07351 -0.6723,4.71235 -0.0178,9.78973 0.131,14.60099 2.30337,3.30696 -1.42151,0.95161 0.38621,5.37676 1.36308,3.39928 10.40041,4.69105 10.67154,7.25933 z m -77.73588,-2.99724 c -2.56871,-3.70764 -0.21896,-9.82839 -1.03699,-14.40324 0.40973,-5.30427 5.75865,-0.46922 3.59166,3.03459 -0.65464,3.3599 2.15132,10.52469 -2.55467,11.36865 z m 1.17209,-1.07652 c 1.07745,-1.87354 -3.22838,1.62227 0,0 z m -1.22741,-1.27441 c -0.38389,-3.66457 1.83953,-12.44754 -0.48357,-13.31219 0.0514,3.8807 -0.0475,11.24279 0.48357,13.31219 z m 1.76044,-0.0765 c 0.19318,-3.78077 1.38035,-10.34473 -0.7137,-13.6929 0.0635,4.56716 -0.26269,9.12838 -0.37114,13.69359 l 0.33224,0.0359 0.75261,-0.0366 z m 72.03568,1.72534 c 0.58971,-2.67813 -4.72499,-1.1219 -0.77245,-2.28669 -0.65817,-3.18516 3.08234,0.39349 1.35964,1.25449 0.87647,0.56842 -0.0872,1.51548 -0.58719,1.0322 z m -47.72105,-4.14685 c -4.28114,-1.99812 4.99,-5.32455 -1.25084,-3.81513 -4.4527,2.08288 -8.20025,-2.24044 -12.11144,-3.75754 -5.01726,-2.69189 -10.12924,-5.38318 -15.01408,-8.21203 0.90798,-4.08789 -3.0669,-12.65625 1.42081,-14.11038 3.22674,-1.31258 10.44256,-1.64132 3.65866,-4.05115 -2.06997,-1.90801 -7.15847,-3.75207 -1.57831,-4.73608 5.37327,-1.35997 -2.57391,-2.69886 -3.76176,-4.67715 0.17337,-3.23091 5.25807,-2.73066 7.55421,-4.20289 6.44755,-2.3768 13.0475,-4.35097 19.81786,-5.56907 3.94427,-2.15735 7.75899,1.08702 11.3292,2.70687 4.69986,2.99551 9.46077,5.86139 14.49801,8.26898 1.23673,4.22015 -9.53975,3.50235 -2.6489,5.9292 8.56428,2.79242 -6.07121,3.62701 -4.3967,5.35121 5.74466,2.16733 9.91497,4.95313 8.24019,11.7254 0.48818,4.30614 0.71895,8.51716 -4.92094,8.10831 -6.40677,2.20054 -13.03394,4.07027 -19.19436,6.81365 4.34928,0.69148 2.58026,5.13549 -1.64161,4.2278 z m 1.89704,-0.69048 c 5.68758,-2.49103 -6.84441,-1.42037 -0.65149,0.0926 l 0.65149,-0.0927 0,6e-5 z m -6.55478,-3.61545 c -1.39568,-5.02872 2.97143,-13.56575 -3.94985,-15.05085 -2.24074,-2.7111 -7.98778,-1.12707 -2.52389,0.49938 2.14465,1.99632 6.49011,1.57502 5.53736,4.65257 -3.21359,-0.59448 -6.47941,-3.79771 -9.97174,-4.72196 -6.65767,-0.62308 3.47247,2.8156 5.28448,4.39141 2.72046,0.10172 7.26446,5.71994 2.33789,3.14042 -4.49403,-2.01966 -8.90362,-5.28743 -13.6253,-6.1651 -2.48753,1.3822 6.12922,3.93563 7.77747,5.58995 1.62351,1.10465 11.40576,4.50373 6.51664,4.94193 -6.07336,-2.85346 -12.16215,-5.68303 -17.90344,-9.16726 -4.47501,1.23729 5.47897,3.44009 6.71252,5.28052 4.60097,2.31094 9.00538,5.03687 13.74056,7.06297 l 0.068,-0.45398 z m 1.35172,0.40768 c 3.80097,0.98907 3.63457,-4.6773 0.31217,-3.18243 -0.89174,-1.65611 5.27212,-3.36879 0.95823,-3.57281 -3.45604,-0.66029 4.49605,-4.3872 0.0152,-3.91544 -3.33168,-0.39997 3.51611,-2.11053 1.09587,-4.80985 -5.93337,0.98825 -2.21787,7.86807 -3.31373,11.87619 0.55859,1.17936 -1.16181,4.39121 0.93229,3.60434 z m 4.75917,-1.18301 c 1.94985,-1.64242 -3.18295,0.45398 0,0 z m 2.69761,-0.86667 c 6.80178,-2.37579 13.54583,-4.94978 20.5249,-6.74865 -4.0508,-2.15609 -8.31176,-5.24834 -12.68172,-6.2163 -3.21528,1.08291 -6.4041,2.37786 -9.7299,3.14304 -0.37622,4.39097 6.08905,-0.29666 8.7971,-0.66624 3.14476,-1.54178 5.27527,-1.23007 1.21605,-0.0177 -2.67192,1.72089 -9.50234,1.77021 -9.38112,4.03645 4.71046,-1.3731 9.29192,-3.35781 14.10655,-4.31613 -3.53415,1.79591 -8.69859,2.87414 -12.85685,4.37469 -4.86119,3.33052 3.30392,1.2212 5.40097,0.004 2.55243,-0.8555 8.88891,-3.58972 9.3532,-2.83635 -5.42689,1.69226 -10.64115,4.03535 -16.14672,5.46941 3.0334,1.04982 9.20506,-2.59568 13.14942,-3.58032 2.7254,-1.46116 6.92829,-1.87736 1.87981,-0.29488 -4.87399,1.92649 -9.81818,3.73168 -14.92405,4.93731 0.32022,1.05483 -0.88564,4.42062 1.29236,2.71153 z m -3.85896,-0.19509 c 2.35751,-2.5216 -0.34568,-8.98795 0.24049,-12.85169 -1.86989,-1.42797 -0.25885,6.54895 -0.74204,8.78144 0.28104,0.52493 -0.48797,4.90585 0.50155,4.07025 z m 1.93583,-1.11268 c -0.51341,-3.41891 -0.47114,-11.35926 -1.15786,-12.12481 0.66162,4.36817 -0.10153,9.34055 1.19167,13.3345 l -0.034,-1.20974 z m -8.80429,-0.29035 c -4.20815,-2.66028 -9.55914,-4.6298 -13.93913,-7.52716 -2.35964,-2.22513 -5.64123,-1.56512 -0.96556,0.29206 4.76651,2.81411 9.85018,5.01286 14.83034,7.39911 l 0.0743,-0.16402 3e-5,1e-5 z m 5.40007,-0.3293 c 2.16572,-1.61342 -3.27414,0.72419 0,0 z m -4.97031,-3.56017 c -3.42481,-2.26241 -7.45462,-4.57707 -11.44417,-6.18147 -5.83282,-1.81601 4.13986,2.77807 5.61934,3.47472 1.70953,0.70597 4.37878,3.04668 5.82483,2.70675 z m 4.7597,-0.1288 c 2.16668,-1.95697 -2.88772,0.60456 1.4e-4,-1.7e-4 z m 26.6381,-2.64751 c -1.03259,-4.80945 2.31605,-12.4277 -4.08124,-13.98048 -6.04898,-3.28371 -12.19987,-6.38301 -18.1389,-9.86684 -5.17889,-2.00483 -1.15338,7.78963 -2.21032,11.16236 1.75721,3.65496 8.34122,4.71461 12.09838,7.23069 4.1335,2.07735 8.27688,4.13737 12.23882,6.50785 l 0.0932,-1.05385 z m -31.34542,-1.01193 c -2.51531,-1.8673 -6.03803,-3.93446 -9.2991,-4.61454 1.83988,1.04587 7.0451,4.27908 9.2991,4.61454 z m 3.95919,-0.0607 c 3.4835,-1.4487 -1.46389,0.13065 0,0 z m -25.27891,-0.75892 c 6.88763,-2.60006 13.86724,-5.03264 20.68219,-7.86472 4.70456,-0.78092 8.7572,-2.51988 6.82323,-8.13614 -0.18416,-4.0424 1.18318,-9.02731 -4.28424,-5.38156 -6.72759,2.77535 -13.51773,5.61977 -20.60675,7.37125 -6.47507,0.13921 -2.04934,7.97929 -3.20201,11.85722 0.29079,0.25422 -0.45619,2.83125 0.58758,2.15395 z m 29.98257,-0.14055 c 2.02034,-1.43549 9.74962,-1.96608 8.76439,-3.64066 -2.83953,0.82519 -7.55612,1.38556 -9.05068,3.74791 l 0.2862,-0.10709 z m 0.34103,-1.51507 c 1.67161,-1.32157 10.80065,-1.82517 5.35252,-3.56491 -2.1555,-3.13766 -8.58301,1.58177 -5.35261,3.5648 z m -6.88907,-0.7135 c 2.62914,-1.95836 4.96336,-2.5302 7.89907,-3.49329 2.57634,-1.96076 -5.27365,-4.57276 -7.34163,-2.37983 -2.58327,1.02916 -11.16642,2.43569 -4.84499,4.41615 1.40636,0.1847 2.92679,2.28511 4.28755,1.45697 z m 20.61653,-13.47241 c 2.73827,-1.07249 10.8327,-2.21484 4.20231,-4.26012 -6.41396,-2.99246 -12.25319,-7.02206 -18.75695,-9.8119 -2.50223,-0.29071 -5.52986,1.14416 -8.37229,1.598 -6.88246,2.28931 -13.91449,4.20195 -20.59055,7.05507 2.91531,1.32399 6.2952,6.24643 10.11135,4.15459 5.78749,-1.65897 11.09035,-4.82065 16.88284,-6.26777 5.29953,1.04607 9.48662,4.8952 14.34539,7.09026 0.71389,0.20746 1.41652,1.04265 2.1779,0.44187 z m 1.81494,-6.33163 c 2.96509,-1.19475 7.53922,-1.93629 2.12517,-3.42181 -6.169,-3.40147 -12.56422,-6.37414 -18.58745,-10.04129 -9.93917,2.24231 -19.84419,4.98442 -29.358,8.52025 4.09228,3.83509 8.93119,2.97761 13.6527,0.6558 4.90134,-1.94417 10.12768,-2.8948 15.11313,-4.46749 4.38431,2.04136 8.64045,4.38261 12.86283,6.75515 1.39554,0.58855 2.66494,1.92143 4.19162,1.99939 z m 5.56373,-3.20666 c -2.70561,-2.45804 -7.56804,-3.65782 -10.67062,-6.28066 -3.32559,-2.29297 -6.96838,-4.28675 -10.82645,-5.43499 1.53644,3.63381 7.7494,4.83711 11.23149,7.31283 3.44933,1.42006 6.74544,3.90046 10.10561,4.94439 l 0.16003,-0.54144 z m -51.1263,-2.43878 c 9.4088,-3.4786 19.14875,-5.94109 28.84784,-8.44637 -2.0547,-1.87556 -8.44634,1.56478 -12.03194,1.65861 -5.83907,1.77993 -11.58353,3.97462 -17.3993,5.7597 -0.50818,0.68982 -0.60046,2.00418 0.5834,1.02806 z m -22.83147,37.64854 c -1.40134,-3.50559 1.82364,-1.21766 0,0 z m 7.15465,0.0398 c -1.72348,-1.12534 3.86022,-1.12073 -0.49876,-1.62298 -0.21074,-5.14461 6.14519,-0.6698 0.49876,1.62298 z m 0.75374,-1.91658 c 2.87004,-2.53227 -3.43244,-0.67425 0,0 z m -26.27728,0.55462 c -1.54847,-3.88341 2.70766,-2.71863 4.28768,-2.07399 0.1814,3.47602 -0.41577,1.31353 -1.01957,-0.14907 -1.37508,1.75047 -1.25036,3.07746 -1.70469,-0.12228 -1.98879,-0.3951 -0.22573,2.86418 -1.56342,2.34534 z m 20.17683,0.43013 c -2.52402,-0.82528 3.68525,-1.54948 0.004,-1.70658 -2.33888,0.0485 2.05112,-3.99412 1.39891,-1.78035 -4.00944,-0.23897 4.31476,2.90901 -1.40319,3.48693 z m -6.4361,-0.4727 c 0.73218,-3.52294 -2.90259,-2.07642 0.52642,-3.80192 -0.38478,0.92445 0.54865,3.77429 -0.52642,3.80192 z m 8.7292,0.2406 c -0.36168,-2.58431 -0.0787,-4.86528 0.74846,-2.17534 1.33139,-1.75689 0.31444,1.16789 1.20129,2.14203 -2.61545,-2.19686 -0.42209,-0.69864 -1.94975,0.0333 z m -7.43557,-0.22428 c 2.0417,-0.99351 2.13376,-4.69833 0.43397,-2.46672 1.30428,-3.65131 2.64819,0.93803 1.36245,1.88888 3.36577,0.64427 -1.51075,0.75386 -1.79642,0.57784 z m -7.09644,-0.40075 c 1.18957,-1.75728 4.31089,0.55232 0.37598,0.11008 l -0.37598,-0.11008 z m 0.0985,-1.25622 c 2.01571,-1.73779 4.09111,0.80689 5e-5,5e-5 z m -17.751,-10.94308 c -3.78117,-3.41161 4.0194,-6.48232 1.96516,-0.88942 -0.30853,0.79133 -1.20165,1.5697 -1.96516,0.88942 z m 0.99291,-0.56235 c 2.70883,-6.56037 -3.96857,-0.95499 0,0 z m 20.95637,0.90943 c -0.45162,-1.71648 3.13858,-4.2288 0.23572,-3.44846 3.38656,-3.06171 0.6009,2.63086 0.35096,2.98595 3.17629,-0.97233 1.74691,1.04671 -0.58668,0.46251 z m -24.75434,-0.48018 c -3.63718,-0.84763 1.1398,-6.46915 0.22771,-3.56008 -2.03957,0.63249 3.55761,1.97844 -0.22771,3.56008 z m 0.1721,-0.69411 c 1.7549,-2.87018 -3.31889,0.0332 0,0 z m 6.75553,0.71898 c 0.40717,-2.35576 2.67222,-4.33635 1.88823,-1.17011 1.24081,3.04081 -0.29941,-0.63511 -1.88823,1.17011 z m 6.01119,0.14838 c -3.17334,-1.44567 2.93052,-0.3034 0.14115,-2.12164 -3.80072,1.37431 2.22024,-4.07625 0.29275,-1.37851 -2.64642,0.56704 4.21471,1.9809 -0.4339,3.50016 z m 20.92627,0.30702 c -3.66995,-1.50392 2.267,-4.6653 1.10587,-2.83761 -3.60159,0.39995 0.28849,2.49 0.59968,2.02014 -0.11493,1.57035 -1.20525,0.3695 -1.70555,0.81747 z m -13.90662,-0.3391 c 0.21815,-2.28801 1.10785,-3.50749 1.84557,-2.05427 0.35617,1.91968 0.96699,2.18967 -1.09293,1.38008 l -0.44259,0.57794 -0.31002,0.0962 z m 9.05236,0.0504 c -3.7447,-2.30078 2.82287,-7.18131 1.92479,-1.38606 -0.0666,0.94951 -1.06684,1.53006 -1.92479,1.38606 z m 0.92308,-0.77183 c 3.24346,-5.67203 -4.78287,-1.33378 0,0 z m 9.7576,0.92507 c 0.23777,-5.15902 -1.16051,-0.41766 -1.96198,-0.38587 0.34341,-5.08509 -1.51693,0.67882 -1.86546,-0.30282 -1.73991,-4.04813 6.46987,-3.24118 4.31545,0.48081 -0.0785,0.28554 -0.34199,0.0314 -0.48801,0.20788 z m -23.89612,-0.55053 c -3.48347,-2.96759 4.30415,-5.46191 1.66054,-0.49979 -0.14697,1.4374 -1.38313,0.0588 -1.66054,0.49979 z m 0.68235,-0.53283 c 3.9461,-3.96154 -3.62068,-2.69071 0,0 z m 116.46925,-2.37095 c -3.31266,-2.60539 -9.1809,-3.51987 -10.70677,-7.40337 -0.36252,-2.6986 -0.92389,-0.86704 -1.12944,-3.59046 -1.57799,-0.99893 -9.83053,-4.28079 -7.18605,-4.18683 3.30599,1.62871 10.16826,6.09039 7.52042,-0.5138 -2.66519,-1.67904 -6.81587,-2.24985 -8.55618,-4.64534 3.76987,0.74593 9.87272,5.80197 8.74357,-0.0507 1.63036,-1.01753 -0.1872,3.97447 1.62448,2.08042 -0.2674,2.82629 -1.4755,5.37182 -0.14159,8.83921 -2.09354,4.4449 6.03315,5.97199 9.0214,8.28193 0.35897,0.0755 2.14058,1.04892 0.81016,1.18892 z m -130.6024,-2.59598 c -0.49096,-2.57938 1.3426,-0.44152 0,0 z m 18.29696,0.0663 c -1.47511,-1.6674 1.11631,-2.43508 0,0 z m -20.58673,-0.86209 c -4.47847,-0.21606 2.70677,-7.39268 0.44552,-1.61945 1.80293,0.14 -0.11429,1.36997 -0.44552,1.61945 z m -0.15064,-1.94513 c -0.33124,-1.98358 -1.14644,2.59372 0,0 z m 4.21212,1.90202 c -3.39287,-2.57414 2.87461,-4.66433 1.31468,-3.71619 -4.98275,2.2659 4.51251,0.63691 0.0856,3.78513 -0.45829,0.28463 -0.9759,-0.47669 -1.40031,-0.0689 z m 1.18525,-0.4871 c 2.84425,-3.03798 -3.78795,-0.32491 0,0 z m 11.50461,0.73041 c -0.13947,-0.73818 2.88787,-6.23679 0.26361,-2.97652 -1.25332,-3.02781 4.49793,-1.24045 1.00226,1.24938 -2.90396,2.01274 4.00797,0.70428 -0.66123,1.77111 l -0.60418,-0.0439 -4.6e-4,-9e-5 z m 6.21348,0.11811 c -0.30712,-2.3177 -1.21147,-5.39491 0.6586,-3.96751 -0.83212,1.10697 0.69624,3.27571 -0.6586,3.96751 z m -15.22971,-0.5561 c -3.96805,-3.11478 4.21749,-6.17205 1.96539,-0.98982 -0.3032,1.41385 -1.10673,0.87538 -1.96539,0.98982 z m 1.10466,-0.65729 c 2.64332,-6.55847 -4.44865,-0.15508 0,0 z m 17.14206,1.0777 c -4.44716,-1.6408 2.87433,-7.99586 1.61106,-1.50809 -0.10121,0.82995 -0.94661,1.23099 -1.61106,1.50809 z m 0.34323,-0.73977 c 3.16402,-4.1142 -3.11592,-3.26586 -0.5248,0.11612 l 0.5248,-0.11608 z m -14.33112,0.28828 c 0.0172,-3.07305 1.89257,-3.21085 2.43337,-0.155 -1.86974,-0.74433 -0.65873,-1.19388 -2.43337,0.155 z m 21.77032,-0.0555 c -0.0827,-2.79296 -1.20272,-2.87617 -1.66604,-0.047 -0.21708,-4.01049 -1.43768,-1.01656 -2.11775,-0.38489 -1.86057,-3.75045 5.6491,-3.32212 4.0913,0.36742 l -0.30754,0.0646 3e-5,-1.4e-4 z m 93.48847,-0.60876 c -0.99169,-1.84167 1.90453,0.0147 0.27269,-2.74927 1.15607,-1.75319 0.34696,1.96959 2.36172,-0.0492 -0.0316,0.7462 -1.60629,3.36342 -2.63441,2.7985 z m -104.49837,0.27725 c -0.17975,-0.75119 0.215,-0.11775 0,0 z m 83.34062,-14.96975 c -5.4916,-3.06828 -11.23203,-5.61576 -16.40717,-9.22355 -2.6606,-0.95229 -4.76335,-4.1275 -7.72096,-3.59936 -10.1161,1.87522 -19.87696,5.23283 -29.37757,9.11556 -2.8423,-1.85616 -0.96366,-6.16597 2.71777,-5.94275 8.2204,-3.10053 16.68325,-5.54445 25.09794,-8.03805 3.5651,-2.11425 6.18006,1.81973 9.22594,3.18334 5.70766,3.54154 12.16742,5.93392 17.55135,9.91979 -0.41041,1.13508 0.46231,4.55623 -1.0873,4.58502 z m 0.0983,-1.90123 c 1.98502,-4.27208 -5.36203,-4.98199 -7.94725,-7.33163 -5.07613,-2.31232 -9.71675,-5.4411 -14.52918,-8.17212 -1.02207,5.23487 4.81268,6.22464 8.06256,8.7407 4.42787,3.13158 9.40819,5.19967 14.15927,7.81487 l 0.11672,-0.11887 0.13793,-0.93296 z m -53.04235,-2.53296 c 9.62289,-4.23294 19.7284,-7.25175 30.03449,-9.30479 1.72373,-6.80461 -6.32992,-1.88798 -10.01227,-1.21307 -6.69334,1.90523 -13.28861,4.27041 -19.86469,6.45359 -2.09495,-0.29026 -1.53634,4.43648 -0.15753,4.06427 z"
           id="path6347"
           inkscape:connector-curvature="0"
           sodipodi:nodetypes="ccccccccccccccccccccccccccccccccccccccccccccccccccccccccccccccccccccccccccccccccccccccccccccccccccccccccccccccccccccccccccccccccccccccccccccccccccccccccccccccccccccccccccccccccccccccccccccccccccccccccccccccccccccccccccccccccccccccccccccccccccccccccccccccccccccccccccccccccccccccccccccccccccccccccccccccccccccccccccccccccccccccccccccccccccccccccccccccccccccccccccccccccccccccccccccccccccccccccccccccccccccccccccccccc" />
      </g>
    </g>
  </g>
</svg>
